<svg width="201" height="40" viewBox="0 0 201 40" fill="none" xmlns="http://www.w3.org/2000/svg">
<path d="M22.7015 8.20848C22.7015 8.11256 22.7302 8.03582 22.7878 7.97833C22.8644 7.90164 22.9507 7.86328 23.0465 7.86328H26.4112C26.5072 7.86328 26.5838 7.90164 26.6413 7.97833C26.7179 8.03582 26.7564 8.11256 26.7564 8.20848V27.6518C26.7564 27.7478 26.7179 27.834 26.6413 27.9107C26.5838 27.9681 26.5072 27.997 26.4112 27.997H23.0465C22.9507 27.997 22.8644 27.9681 22.7878 27.9107C22.7302 27.834 22.7015 27.7478 22.7015 27.6518V19.7709C22.7015 19.675 22.6536 19.6271 22.5577 19.6271H17.9564C17.8605 19.6271 17.8126 19.675 17.8126 19.7709V27.6518C17.8126 27.7478 17.7743 27.834 17.6976 27.9107C17.6401 27.9681 17.5634 27.997 17.4676 27.997H14.1029C14.007 27.997 13.9207 27.9681 13.8441 27.9107C13.7865 27.834 13.7578 27.7478 13.7578 27.6518V8.20848C13.7578 8.11256 13.7865 8.03582 13.8441 7.97833C13.9207 7.90164 14.007 7.86328 14.1029 7.86328H17.4676C17.5634 7.86328 17.6401 7.90164 17.6976 7.97833C17.7743 8.03582 17.8126 8.11256 17.8126 8.20848V15.9742C17.8126 16.0702 17.8605 16.1181 17.9564 16.1181H22.5577C22.6536 16.1181 22.7015 16.0702 22.7015 15.9742V8.20848ZM29.1349 33.7207C29.0774 33.7207 29.0295 33.6822 28.9912 33.6056C28.9527 33.5481 28.9336 33.4714 28.9336 33.3755V30.7294C28.9336 30.4993 29.039 30.3843 29.2499 30.3843C30.3428 30.3652 31.1192 30.202 31.5793 29.8953C32.0585 29.6076 32.3655 29.0036 32.4996 28.0832L32.4709 27.9107L28.3297 13.587L28.301 13.4719C28.301 13.2802 28.4064 13.1844 28.6173 13.1844H32.2408C32.4518 13.1844 32.5762 13.2898 32.6146 13.5008L34.4839 22.4458C34.503 22.5224 34.5318 22.5609 34.5701 22.5609C34.6086 22.5609 34.6373 22.5224 34.6564 22.4458L36.5257 13.5008C36.5641 13.2898 36.6886 13.1844 36.8995 13.1844L40.4655 13.2131C40.5805 13.2131 40.6572 13.2515 40.6956 13.3281C40.7531 13.3857 40.7722 13.4719 40.7531 13.587L36.3532 28.5434C35.9314 29.9431 35.4807 30.9882 35.0016 31.6785C34.5414 32.388 33.88 32.9057 33.0172 33.2317C32.1545 33.5577 30.9179 33.7207 29.3075 33.7207H29.1349ZM49.3654 8.20848C49.3654 8.11256 49.3941 8.03582 49.4517 7.97833C49.5283 7.90164 49.6145 7.86328 49.7105 7.86328H53.0752C53.1711 7.86328 53.2477 7.90164 53.3053 7.97833C53.3818 8.03582 53.4203 8.11256 53.4203 8.20848V27.6518C53.4203 27.7478 53.3818 27.834 53.3053 27.9107C53.2477 27.9681 53.1711 27.997 53.0752 27.997H49.7105C49.6145 27.997 49.5283 27.9681 49.4517 27.9107C49.3941 27.834 49.3654 27.7478 49.3654 27.6518V27.019C49.3654 26.9615 49.3463 26.9231 49.3079 26.904C49.2695 26.8849 49.2313 26.904 49.1928 26.9615C48.4836 27.8053 47.4674 28.2271 46.1445 28.2271C43.8055 28.2271 42.3006 26.7026 41.6295 23.6538C41.4379 22.6951 41.3419 21.6308 41.3419 20.4612C41.3419 19.4257 41.4282 18.4191 41.6008 17.4411C42.195 14.4691 43.7289 12.983 46.202 12.983C46.8731 12.983 47.4483 13.0789 47.9275 13.2706C48.4067 13.4432 48.8287 13.75 49.1928 14.191C49.2313 14.2486 49.2695 14.2677 49.3079 14.2486C49.3463 14.2294 49.3654 14.191 49.3654 14.1335V8.20848ZM49.1354 23.0786C49.2695 22.5224 49.3367 21.6884 49.3367 20.5762C49.3367 19.5599 49.26 18.7163 49.1066 18.0451C48.8574 16.9905 48.2917 16.4632 47.4099 16.4632C46.9688 16.4632 46.6047 16.5975 46.3171 16.8659C46.0295 17.1344 45.8185 17.5179 45.6844 18.0164C45.5118 18.5725 45.4255 19.4257 45.4255 20.5762C45.4255 21.6692 45.4927 22.4937 45.6268 23.0498C45.8761 24.1812 46.4705 24.7468 47.4099 24.7468C48.2726 24.7468 48.8478 24.1907 49.1354 23.0786ZM62.7344 13.0118C63.2521 13.0118 63.7219 13.1268 64.1436 13.3569C64.2971 13.4527 64.3545 13.6061 64.3162 13.8171L63.741 17.1247C63.7219 17.3549 63.5875 17.422 63.3383 17.3261C63.0316 17.2494 62.7535 17.211 62.5044 17.211C62.2743 17.211 62.0251 17.2398 61.7567 17.2973C61.2006 17.374 60.7311 17.6425 60.3476 18.1027C59.9641 18.5629 59.7724 19.119 59.7724 19.7709V27.6518C59.7724 27.7478 59.734 27.834 59.6574 27.9107C59.5998 27.9681 59.5232 27.997 59.4273 27.997H56.0627C55.9667 27.997 55.8804 27.9681 55.8038 27.9107C55.7463 27.834 55.7175 27.7478 55.7175 27.6518V13.5582C55.7175 13.4624 55.7463 13.3857 55.8038 13.3281C55.8804 13.2515 55.9667 13.2131 56.0627 13.2131H59.4273C59.5232 13.2131 59.5998 13.2515 59.6574 13.3281C59.734 13.3857 59.7724 13.4624 59.7724 13.5582V14.7087C59.7724 14.7855 59.782 14.8334 59.8011 14.8526C59.8396 14.8526 59.8778 14.8238 59.9162 14.7663C60.5872 13.5966 61.5266 13.0118 62.7344 13.0118ZM71.2683 28.2271C69.6004 28.2271 68.2297 27.8147 67.156 26.9903C66.1016 26.1465 65.4689 24.996 65.2579 23.5388C65.1045 22.6568 65.0279 21.6692 65.0279 20.5762C65.0279 19.4641 65.1045 18.4766 65.2579 17.6137C65.4689 16.1948 66.1016 15.073 67.156 14.2486C68.2297 13.4048 69.6004 12.983 71.2683 12.983C72.9172 12.983 74.2592 13.4048 75.2945 14.2486C76.3488 15.073 76.9911 16.1948 77.2212 17.6137C77.3746 18.4766 77.4513 19.4641 77.4513 20.5762C77.4513 21.65 77.3746 22.628 77.2212 23.5101C77.0102 24.9866 76.3776 26.1465 75.3232 26.9903C74.2879 27.8147 72.9363 28.2271 71.2683 28.2271ZM71.2683 24.7468C71.7668 24.7468 72.1886 24.5839 72.5337 24.2579C72.8979 23.9318 73.1376 23.491 73.2527 22.9348C73.3486 22.1294 73.3964 21.3433 73.3964 20.5762C73.3964 19.7901 73.3486 19.0135 73.2527 18.2465C73.1567 17.6904 72.9266 17.259 72.5624 16.9522C72.2174 16.6262 71.7763 16.4632 71.2396 16.4632C70.722 16.4632 70.2809 16.6262 69.9167 16.9522C69.5717 17.259 69.3513 17.6904 69.2552 18.2465C69.1593 18.8218 69.1115 19.5983 69.1115 20.5762C69.1115 21.535 69.15 22.3211 69.2265 22.9348C69.3415 23.491 69.5813 23.9318 69.9455 24.2579C70.3097 24.5839 70.7507 24.7468 71.2683 24.7468ZM87.2844 13.5582C87.2844 13.4624 87.3132 13.3857 87.3707 13.3281C87.4474 13.2515 87.5337 13.2131 87.6296 13.2131H90.994C91.0904 13.2131 91.1666 13.2515 91.2244 13.3281C91.3006 13.3857 91.3391 13.4624 91.3391 13.5582V26.9903C91.3391 29.2912 90.6971 30.9979 89.4129 32.11C88.1472 33.2413 86.3258 33.8069 83.9486 33.8069C83.4309 33.8069 82.8845 33.7782 82.3093 33.7207C82.0792 33.7016 81.9642 33.5768 81.9642 33.3468L82.0505 30.4417C82.0505 30.2308 82.1752 30.1254 82.4244 30.1254C82.7119 30.1638 83.1145 30.1829 83.6322 30.1829C84.9167 30.1829 85.8465 29.9049 86.4217 29.3488C86.9969 28.812 87.2844 27.9491 87.2844 26.7602C87.2844 26.7026 87.2653 26.6643 87.2269 26.6451C87.1885 26.626 87.1503 26.6451 87.1119 26.7026C86.4026 27.5271 85.4248 27.9394 84.1786 27.9394C82.9323 27.9394 81.8779 27.5752 81.0153 26.8465C80.1525 26.1177 79.6061 25.0344 79.3761 23.5963C79.2419 23.0976 79.1748 22.0815 79.1748 20.5475C79.1748 19.0135 79.261 17.9397 79.4335 17.3261C79.6446 15.9647 80.1525 14.9005 80.9577 14.1335C81.7629 13.3665 82.8079 12.983 84.0923 12.983C85.3576 12.983 86.3642 13.4144 87.1119 14.2773C87.1503 14.3349 87.1885 14.354 87.2269 14.3349C87.2653 14.3157 87.2844 14.2773 87.2844 14.2198V13.5582ZM87.1694 22.906C87.2461 22.2924 87.2844 21.5063 87.2844 20.5475C87.2844 19.5696 87.2461 18.7738 87.1694 18.1602C87.0735 17.6425 86.8627 17.2302 86.5367 16.9234C86.2108 16.6167 85.7987 16.4632 85.3002 16.4632C84.8209 16.4632 84.4086 16.6262 84.0636 16.9522C83.7375 17.259 83.5269 17.6616 83.4309 18.1602C83.3158 18.8505 83.2584 19.6462 83.2584 20.5475C83.2584 21.3912 83.3062 22.1679 83.4021 22.8773C83.498 23.395 83.7088 23.8073 84.0348 24.114C84.3799 24.4207 84.8113 24.5742 85.3289 24.5742C85.8274 24.5742 86.2395 24.4207 86.5655 24.114C86.8915 23.8073 87.0928 23.4046 87.1694 22.906ZM105.403 18.3615C105.461 18.9943 105.49 19.6942 105.49 20.4612L105.461 21.5829C105.461 21.813 105.346 21.9281 105.116 21.9281H97.4946C97.3991 21.9281 97.3509 21.976 97.3509 22.0719C97.3895 22.513 97.428 22.8388 97.4657 23.0498C97.5621 23.5866 97.7924 24.0087 98.156 24.3153C98.5396 24.6221 99.0092 24.7756 99.5654 24.7756C100.504 24.7565 101.157 24.3251 101.521 23.4812C101.617 23.2896 101.761 23.2128 101.952 23.2511L105.001 23.8552C105.23 23.9127 105.307 24.0565 105.23 24.2866C104.809 25.5521 104.109 26.5301 103.131 27.2203C102.172 27.8916 100.984 28.2271 99.5654 28.2271C97.859 28.2271 96.4977 27.8435 95.4816 27.0766C94.4848 26.2903 93.833 25.1685 93.5264 23.7114C93.3539 22.9251 93.2672 21.7268 93.2672 20.1161C93.2672 19.1956 93.325 18.4191 93.4397 17.7863C93.6508 16.329 94.2833 15.169 95.338 14.306C96.3926 13.424 97.725 12.983 99.335 12.983C101.08 12.983 102.499 13.4816 103.591 14.4786C104.685 15.4565 105.288 16.7509 105.403 18.3615ZM99.3639 16.4632C98.8462 16.4632 98.4153 16.6167 98.0701 16.9234C97.7443 17.2302 97.5331 17.6521 97.4377 18.189C97.3799 18.5341 97.3509 18.8984 97.3509 19.2819C97.3509 19.3778 97.3991 19.4257 97.4946 19.4257H101.233C101.33 19.4257 101.377 19.3778 101.377 19.2819C101.377 18.8984 101.348 18.5341 101.291 18.189C101.214 17.6713 101.003 17.259 100.659 16.9522C100.313 16.6262 99.8816 16.4632 99.3639 16.4632ZM114.698 12.983C116.097 12.983 117.19 13.4336 117.976 14.3349C118.781 15.2169 119.184 16.4537 119.184 18.0451V27.6518C119.184 27.7478 119.145 27.834 119.069 27.9107C119.011 27.9681 118.935 27.997 118.839 27.997H115.474C115.378 27.997 115.292 27.9681 115.215 27.9107C115.158 27.834 115.129 27.7478 115.129 27.6518V18.6204C115.129 17.9493 114.966 17.422 114.64 17.0385C114.314 16.655 113.874 16.4632 113.317 16.4632C112.742 16.4632 112.282 16.6646 111.937 17.0673C111.611 17.4508 111.448 17.978 111.448 18.6492V27.6518C111.448 27.7478 111.409 27.834 111.332 27.9107C111.275 27.9681 111.198 27.997 111.103 27.997H107.738C107.642 27.997 107.556 27.9681 107.479 27.9107C107.422 27.834 107.393 27.7478 107.393 27.6518V13.5582C107.393 13.4624 107.422 13.3857 107.479 13.3281C107.556 13.2515 107.642 13.2131 107.738 13.2131H111.103C111.198 13.2131 111.275 13.2515 111.332 13.3281C111.409 13.3857 111.448 13.4624 111.448 13.5582V14.3636C111.448 14.4211 111.467 14.4595 111.505 14.4786C111.543 14.4786 111.592 14.4402 111.649 14.3636C112.34 13.4432 113.356 12.983 114.698 12.983Z" fill="#111827"/>
<path d="M123.501 11.5445C122.849 11.5445 122.312 11.3335 121.89 10.9117C121.469 10.4706 121.258 9.92418 121.258 9.27219C121.258 8.60111 121.459 8.05459 121.861 7.63278C122.284 7.21093 122.83 7 123.501 7C124.172 7 124.719 7.21093 125.14 7.63278C125.561 8.05459 125.773 8.60111 125.773 9.27219C125.773 9.92418 125.553 10.4706 125.111 10.9117C124.69 11.3335 124.153 11.5445 123.501 11.5445ZM121.833 27.9966C121.737 27.9966 121.651 27.9677 121.574 27.9103C121.516 27.8336 121.488 27.7473 121.488 27.6514V13.5578C121.488 13.462 121.516 13.3852 121.574 13.3277C121.651 13.251 121.737 13.2127 121.833 13.2127H125.198C125.293 13.2127 125.371 13.251 125.427 13.3277C125.505 13.3852 125.543 13.462 125.543 13.5578V27.6514C125.543 27.7473 125.505 27.8336 125.427 27.9103C125.371 27.9677 125.293 27.9966 125.198 27.9966H121.833ZM135.243 12.9826C136.643 12.9826 137.735 13.4332 138.521 14.3344C139.327 15.2165 139.729 16.4532 139.729 18.0447V27.6514C139.729 27.7473 139.691 27.8336 139.614 27.9103C139.557 27.9677 139.48 27.9966 139.384 27.9966H136.02C135.923 27.9966 135.838 27.9677 135.76 27.9103C135.703 27.8336 135.675 27.7473 135.675 27.6514V18.62C135.675 17.9489 135.512 17.4215 135.186 17.038C134.859 16.6545 134.418 16.4628 133.862 16.4628C133.288 16.4628 132.828 16.6642 132.483 17.0669C132.156 17.4504 131.993 17.9776 131.993 18.6488V27.6514C131.993 27.7473 131.955 27.8336 131.878 27.9103C131.82 27.9677 131.744 27.9966 131.649 27.9966H128.283C128.188 27.9966 128.101 27.9677 128.025 27.9103C127.967 27.8336 127.938 27.7473 127.938 27.6514V13.5578C127.938 13.462 127.967 13.3852 128.025 13.3277C128.101 13.251 128.188 13.2127 128.283 13.2127H131.649C131.744 13.2127 131.82 13.251 131.878 13.3277C131.955 13.3852 131.993 13.462 131.993 13.5578V14.3632C131.993 14.4207 132.012 14.4591 132.051 14.4782C132.089 14.4782 132.137 14.4398 132.194 14.3632C132.885 13.4428 133.901 12.9826 135.243 12.9826ZM147.352 28.1978C145.569 28.1978 144.15 27.8049 143.096 27.0186C142.041 26.2323 141.514 25.1969 141.514 23.9122V23.6822C141.514 23.5862 141.543 23.5096 141.601 23.4521C141.677 23.3754 141.763 23.337 141.859 23.337H145.023C145.118 23.337 145.196 23.3754 145.252 23.4521C145.33 23.5096 145.368 23.5862 145.368 23.6822V23.7397C145.368 24.1615 145.559 24.5066 145.943 24.7752C146.326 25.0436 146.796 25.1778 147.352 25.1778C147.87 25.1778 148.282 25.0627 148.588 24.8327C148.896 24.5835 149.049 24.2766 149.049 23.9122C149.049 23.548 148.876 23.2698 148.531 23.0781C148.205 22.8865 147.668 22.6658 146.92 22.4166C146.614 22.34 146.154 22.1866 145.541 21.9565C144.39 21.573 143.451 21.0552 142.722 20.4033C142.013 19.7514 141.658 18.8117 141.658 17.5846C141.658 16.1848 142.166 15.0726 143.182 14.2482C144.199 13.4236 145.541 13.0114 147.209 13.0114C148.933 13.0114 150.304 13.4428 151.32 14.3056C152.356 15.1494 152.873 16.2807 152.873 17.6996C152.873 17.9105 152.759 18.016 152.528 18.016H149.423C149.327 18.016 149.241 17.9872 149.164 17.9297C149.106 17.853 149.078 17.7668 149.078 17.6708V17.5846C149.078 17.1819 148.915 16.8463 148.588 16.5779C148.262 16.3094 147.822 16.1752 147.265 16.1752C146.748 16.1752 146.326 16.2999 146.001 16.5491C145.694 16.7984 145.541 17.1052 145.541 17.4695C145.541 17.8721 145.732 18.1885 146.115 18.4187C146.499 18.6296 147.083 18.8501 147.87 19.0802C148.042 19.1378 148.205 19.1952 148.359 19.2528C148.531 19.2911 148.685 19.339 148.819 19.3966C150.122 19.8377 151.167 20.3745 151.954 21.0073C152.739 21.6209 153.133 22.5413 153.133 23.7685C153.133 25.149 152.605 26.2323 151.551 27.0186C150.515 27.8049 149.116 28.1978 147.352 28.1978ZM156.9 11.5445C156.249 11.5445 155.712 11.3335 155.29 10.9117C154.868 10.4706 154.658 9.92418 154.658 9.27219C154.658 8.60111 154.858 8.05459 155.261 7.63278C155.683 7.21093 156.229 7 156.9 7C157.571 7 158.118 7.21093 158.54 7.63278C158.961 8.05459 159.173 8.60111 159.173 9.27219C159.173 9.92418 158.952 10.4706 158.511 10.9117C158.089 11.3335 157.552 11.5445 156.9 11.5445ZM155.232 27.9966C155.137 27.9966 155.05 27.9677 154.974 27.9103C154.916 27.8336 154.887 27.7473 154.887 27.6514V13.5578C154.887 13.462 154.916 13.3852 154.974 13.3277C155.05 13.251 155.137 13.2127 155.232 13.2127H158.597C158.693 13.2127 158.77 13.251 158.827 13.3277C158.904 13.3852 158.942 13.462 158.942 13.5578V27.6514C158.942 27.7473 158.904 27.8336 158.827 27.9103C158.77 27.9677 158.693 27.9966 158.597 27.9966H155.232ZM169.131 13.5578C169.131 13.462 169.16 13.3852 169.217 13.3277C169.294 13.251 169.38 13.2127 169.477 13.2127H172.841C172.937 13.2127 173.014 13.251 173.072 13.3277C173.148 13.3852 173.186 13.462 173.186 13.5578V26.9899C173.186 29.2908 172.544 30.9975 171.259 32.1096C169.994 33.2409 168.172 33.8065 165.796 33.8065C165.278 33.8065 164.731 33.7778 164.156 33.7202C163.926 33.7011 163.811 33.5764 163.811 33.3464L163.898 30.4413C163.898 30.2304 164.022 30.125 164.272 30.125C164.559 30.1634 164.962 30.1825 165.479 30.1825C166.764 30.1825 167.693 29.9045 168.269 29.3484C168.844 28.8116 169.131 27.9486 169.131 26.7598C169.131 26.7022 169.112 26.6638 169.074 26.6447C169.035 26.6256 168.997 26.6447 168.959 26.7022C168.249 27.5267 167.272 27.939 166.025 27.939C164.78 27.939 163.725 27.5748 162.862 26.846C161.999 26.1173 161.453 25.034 161.223 23.5959C161.089 23.0972 161.022 22.0811 161.022 20.5471C161.022 19.0131 161.108 17.9393 161.28 17.3257C161.491 15.9643 161.999 14.9001 162.804 14.1331C163.61 13.3661 164.654 12.9826 165.939 12.9826C167.204 12.9826 168.211 13.414 168.959 14.2769C168.997 14.3344 169.035 14.3535 169.074 14.3344C169.112 14.3153 169.131 14.2769 169.131 14.2193V13.5578ZM169.017 22.9056C169.093 22.292 169.131 21.5059 169.131 20.5471C169.131 19.5692 169.093 18.7734 169.017 18.1598C168.92 17.6421 168.709 17.2298 168.383 16.923C168.058 16.6163 167.646 16.4628 167.147 16.4628C166.668 16.4628 166.256 16.6258 165.911 16.9518C165.585 17.2586 165.374 17.6612 165.278 18.1598C165.162 18.8501 165.106 19.6458 165.106 20.5471C165.106 21.3908 165.153 22.1675 165.249 22.8768C165.345 23.3945 165.556 23.8069 165.882 24.1136C166.227 24.4203 166.658 24.5738 167.175 24.5738C167.675 24.5738 168.086 24.4203 168.412 24.1136C168.738 23.8069 168.94 23.4042 169.017 22.9056ZM182.678 12.9826C184.077 12.9826 185.17 13.4332 185.956 14.3344C186.761 15.2165 187.164 16.4532 187.164 18.0447V27.6514C187.164 27.7473 187.126 27.8336 187.049 27.9103C186.992 27.9677 186.915 27.9966 186.819 27.9966H183.455C183.358 27.9966 183.272 27.9677 183.195 27.9103C183.137 27.8336 183.109 27.7473 183.109 27.6514V18.62C183.109 17.9489 182.946 17.4215 182.62 17.038C182.294 16.6545 181.853 16.4628 181.297 16.4628C180.722 16.4628 180.262 16.6642 179.916 17.0669C179.591 17.4504 179.428 17.9776 179.428 18.6488V27.6514C179.428 27.7473 179.39 27.8336 179.313 27.9103C179.255 27.9677 179.179 27.9966 179.083 27.9966H175.718C175.622 27.9966 175.536 27.9677 175.46 27.9103C175.402 27.8336 175.373 27.7473 175.373 27.6514V8.20806C175.373 8.11214 175.402 8.03541 175.46 7.97792C175.536 7.90123 175.622 7.86288 175.718 7.86288H179.083C179.179 7.86288 179.255 7.90123 179.313 7.97792C179.39 8.03541 179.428 8.11214 179.428 8.20806V14.3632C179.428 14.4207 179.447 14.4591 179.485 14.4782C179.524 14.4782 179.572 14.4398 179.629 14.3632C180.319 13.4428 181.336 12.9826 182.678 12.9826ZM197.001 15.9164C197.001 16.0122 196.963 16.0985 196.886 16.1752C196.829 16.2328 196.752 16.2615 196.656 16.2615H194.442C194.345 16.2615 194.298 16.3094 194.298 16.4053V22.8768C194.298 23.4712 194.413 23.9026 194.643 24.1712C194.892 24.4203 195.266 24.5354 195.765 24.5163H196.34C196.436 24.5163 196.512 24.5547 196.57 24.6313C196.647 24.6889 196.684 24.7655 196.684 24.8614V27.6514C196.684 27.8814 196.57 27.9966 196.34 27.9966C196.013 28.0156 195.534 28.0253 194.902 28.0253C193.387 28.0253 192.256 27.7761 191.508 27.2775C190.779 26.7789 190.416 25.8394 190.416 24.4588V16.4053C190.416 16.3094 190.368 16.2615 190.271 16.2615H188.949C188.853 16.2615 188.766 16.2328 188.69 16.1752C188.632 16.0985 188.603 16.0122 188.603 15.9164V13.5578C188.603 13.462 188.632 13.3852 188.69 13.3277C188.766 13.251 188.853 13.2127 188.949 13.2127H190.271C190.368 13.2127 190.416 13.1648 190.416 13.0688V9.76116C190.416 9.66533 190.444 9.5886 190.502 9.53113C190.579 9.4544 190.665 9.41603 190.761 9.41603H193.953C194.049 9.41603 194.126 9.4544 194.183 9.53113C194.26 9.5886 194.298 9.66533 194.298 9.76116V13.0688C194.298 13.1648 194.345 13.2127 194.442 13.2127H196.656C196.752 13.2127 196.829 13.251 196.886 13.3277C196.963 13.3852 197.001 13.462 197.001 13.5578V15.9164Z" fill="#111827"/>
<path d="M5.63212 16.7328C8.19036 16.7328 10.2642 14.6589 10.2642 12.1006C10.2642 9.54235 8.19036 7.46851 5.63212 7.46851C3.07387 7.46851 1 9.54235 1 12.1006C1 14.6589 3.07387 16.7328 5.63212 16.7328Z" fill="#111827"/>
<path d="M5.63212 28.2271C8.19036 28.2271 10.2642 26.1916 10.2642 23.6807C10.2642 21.1698 8.19036 19.1344 5.63212 19.1344C3.07387 19.1344 1 21.1698 1 23.6807C1 26.1916 3.07387 28.2271 5.63212 28.2271Z" fill="#111827"/>
</svg>
