<svg width="106" height="40" viewBox="0 0 106 40" fill="none" xmlns="http://www.w3.org/2000/svg">
<path d="M1 1.99243V20.4025H19.4507V1.99243H1ZM13.7735 14.7378H6.67572V7.65543H13.7735V14.7378Z" fill="#111827"/>
<path d="M25.1274 7.65674H32.2238V14.7376H25.1274V7.65674Z" fill="#111827"/>
<path d="M37.9007 1.99243H48.1803C51.9536 1.99243 53.6771 4.50272 53.6771 6.79697C53.6771 8.44951 53.0405 9.51544 51.332 10.5088C53.4868 11.3035 54.6582 12.7372 54.6582 14.9488C54.6582 17.5936 52.7336 20.4004 48.1939 20.4004H37.896L37.9007 1.99243ZM43.5151 16.2447H47.2346C48.561 16.2447 49.1557 15.299 49.1557 14.4634C49.1557 14.8501 49.3263 12.9382 47.4232 12.9382H43.5151V16.2447ZM43.5283 9.24037H46.5177C47.8842 9.24037 48.4287 8.60547 48.4287 7.67439C48.4287 7.45977 48.362 6.25721 46.9098 6.25721H43.5283V9.24037Z" fill="#111827"/>
<path d="M60.504 1.99243H66.4475L73.217 20.3779H67.1165L66.2235 17.6236H60.5288L59.7717 20.3636H53.7178L60.504 1.99243ZM63.2342 7.45083L61.6651 13.591H65.0197L63.2342 7.45083Z" fill="#111827"/>
<path d="M82.6961 7.46031H88.3643C88.3658 4.33872 86.0113 1.44141 80.4256 1.44141C74.2985 1.44141 72.4015 4.81553 72.4015 7.28504C72.4015 11.2669 77.285 12.3257 77.4366 12.3729C78.1661 12.6022 81.1974 13.4123 81.9534 13.6824C82.6094 13.916 83.2367 14.44 83.2367 15.14C83.2367 16.2131 81.9534 16.7314 80.8851 16.7314C80.199 16.7314 77.894 16.5046 77.894 14.0665H72.0391C72.0391 17.3044 74.2713 20.9278 80.5349 20.9278C87.4463 20.9278 88.8924 16.8143 88.8924 14.6267C88.8924 12.8414 87.879 10.8613 85.5399 9.91838C84.1325 9.35144 81.8003 8.8546 80.6288 8.51336C80.0384 8.34059 78.0711 7.9432 78.0711 6.74528C78.0711 5.21078 80.6062 5.4093 80.2363 5.4093C81.3813 5.4093 82.6961 6.05279 82.6961 7.46031Z" fill="#111827"/>
<path d="M89.8538 1.98804H104V6.84694H95.5066V10.0859H103.08V14.7287H95.48V20.3971H89.8262L89.8538 1.98804Z" fill="#111827"/>
<path d="M8.36239 34.9674L8.3563 34.9445L6.58758 28.3118H5.47811L3.68179 34.9674H3.61082L3.60544 34.9438L2.03891 28.3118H1.01367L3.05303 36.2504H4.11734L5.97065 29.5279H6.03948L6.04557 29.5505L7.86949 36.2504H8.93451L11.0631 28.3118H10.0601L8.43193 34.9674H8.36239Z" fill="#111827"/>
<path d="M15.771 31.502C15.5654 31.1769 15.2884 30.9029 14.9608 30.7007C14.626 30.4922 14.1994 30.3856 13.6915 30.3856C13.319 30.3823 12.95 30.4579 12.6089 30.6074C12.2841 30.7523 11.9931 30.963 11.7543 31.2262C11.5086 31.5011 11.3181 31.8206 11.1933 32.1673C11.0562 32.552 10.9884 32.9579 10.9929 33.3663C11.0039 33.7771 11.0694 34.1847 11.1875 34.5785C11.292 34.9283 11.468 35.2528 11.7045 35.5314C11.9365 35.7993 12.2267 36.0111 12.553 36.1505C12.8881 36.2979 13.2903 36.3734 13.7467 36.3734C14.3959 36.3734 14.9418 36.2081 15.3684 35.8859C15.7864 35.5689 16.0628 35.0943 16.1929 34.473H15.3103C15.225 34.8478 15.0505 35.1318 14.7931 35.3189C14.5357 35.506 14.1905 35.6051 13.7811 35.6051C13.4628 35.6051 13.1832 35.5528 12.9484 35.4466C12.7246 35.3483 12.5256 35.2017 12.3655 35.0174C12.2127 34.8379 12.0997 34.6283 12.0339 34.4021C11.9646 34.1644 11.9336 33.9171 11.9421 33.6696V33.6395H16.2893C16.2992 33.2794 16.2672 32.9193 16.194 32.5665C16.1181 32.1887 15.9748 31.8277 15.771 31.5005M11.94 32.8598L11.9421 32.8269C11.9563 32.6056 12.0064 32.3882 12.0905 32.183C12.1725 31.9876 12.2893 31.8087 12.4354 31.6551C12.583 31.5019 12.7602 31.3802 12.9562 31.2974C13.1718 31.2071 13.4036 31.1623 13.6373 31.1657C13.867 31.1632 14.0948 31.208 14.3063 31.2974C14.5025 31.3812 14.6812 31.5012 14.8329 31.6511C14.9843 31.8032 15.1046 31.9832 15.187 32.1812C15.2735 32.3868 15.3249 32.6054 15.339 32.8279L15.3415 32.8608L11.94 32.8598Z" fill="#111827"/>
<path d="M22.9944 35.6053C22.6904 35.6053 22.4247 35.5445 22.2057 35.4226C21.9906 35.3057 21.8064 35.1396 21.668 34.9379C21.5277 34.7278 21.4254 34.4947 21.3658 34.2493C21.3015 33.9902 21.2693 33.7243 21.2697 33.4574C21.2693 33.1707 21.2996 32.8849 21.3601 32.6046C21.4149 32.3437 21.5174 32.095 21.6623 31.871C21.806 31.6562 22.0004 31.4798 22.2283 31.3574C22.4649 31.229 22.7606 31.1639 23.1076 31.1639C23.5177 31.1639 23.8493 31.2676 24.0938 31.4736C24.3311 31.6736 24.4917 31.9583 24.5706 32.3181H25.499C25.469 32.022 25.3799 31.7349 25.237 31.4736C25.103 31.2339 24.9198 31.025 24.6993 30.8609C24.4732 30.6948 24.2178 30.5727 23.9465 30.5011C23.6469 30.4216 23.338 30.3823 23.0281 30.3841C22.5782 30.3841 22.1785 30.4642 21.8401 30.623C21.5111 30.773 21.221 30.9962 20.9919 31.2755C20.7607 31.5639 20.5887 31.895 20.4858 32.2498C20.3726 32.6423 20.3165 33.049 20.3191 33.4574C20.3148 33.8586 20.3729 34.258 20.4915 34.6414C20.5965 34.9812 20.7707 35.2957 21.003 35.5653C21.2335 35.8269 21.5218 36.0316 21.8451 36.163C22.1795 36.3028 22.571 36.3726 23.0066 36.3726C23.736 36.3726 24.3204 36.1802 24.7434 35.7985C25.1595 35.4236 25.4245 34.8835 25.532 34.1942H24.6157C24.5516 34.6353 24.3852 34.9812 24.121 35.2273C23.8493 35.4776 23.4711 35.605 22.9944 35.605" fill="#111827"/>
<path d="M28.4519 30.6938C28.0719 30.9536 27.7671 31.3086 27.5682 31.7232L27.56 31.7397H27.5288V30.5189H26.6914V36.2502H27.5851V33.7052C27.5801 33.368 27.6179 33.0314 27.6976 32.7037C27.7646 32.4321 27.8898 32.1782 28.0647 31.9597C28.241 31.7479 28.4699 31.586 28.7286 31.4904C28.9928 31.3877 29.3151 31.3348 29.6865 31.3308V30.384C29.6642 30.384 29.6427 30.384 29.6212 30.384C29.1552 30.384 28.7609 30.4888 28.4533 30.6949" fill="#111827"/>
<path d="M34.5621 31.502C34.3566 31.1769 34.0796 30.9028 33.7519 30.7007C33.4175 30.4922 32.9905 30.3856 32.4826 30.3856C32.1102 30.3823 31.7413 30.4579 31.4003 30.6074C31.0756 30.7528 30.7847 30.964 30.5461 31.2276C30.3004 31.5021 30.1098 31.8211 29.9847 32.1673C29.8479 32.5526 29.7804 32.959 29.7854 33.3677C29.7964 33.7785 29.8617 34.1862 29.9797 34.5799C30.0844 34.9297 30.2605 35.2542 30.497 35.5328C30.7289 35.8008 31.019 36.0125 31.3451 36.152C31.6803 36.2993 32.0825 36.3748 32.5392 36.3748C33.1881 36.3748 33.734 36.2096 34.1609 35.8873C34.5786 35.5704 34.8553 35.0957 34.9854 34.4744H34.1014C34.0154 34.85 33.8419 35.1333 33.5852 35.3203C33.3286 35.5074 32.9823 35.6065 32.5729 35.6065C32.2546 35.6065 31.975 35.5543 31.7405 35.448C31.5168 35.3498 31.3177 35.2032 31.1577 35.0188C31.0049 34.8394 30.8919 34.6297 30.8261 34.4036C30.7564 34.1653 30.7251 33.9176 30.7332 33.6696V33.6395H35.0801C35.0904 33.2794 35.0585 32.9192 34.9851 32.5665C34.9094 32.1887 34.7661 31.8276 34.5621 31.5005M30.7311 32.8598L30.7332 32.8269C30.7476 32.6056 30.7979 32.3882 30.882 32.183C30.9629 31.9867 31.0793 31.8069 31.2254 31.6526C31.373 31.4994 31.5502 31.3777 31.7463 31.2949C31.9618 31.2046 32.1937 31.1598 32.4274 31.1632C32.6569 31.1606 32.8846 31.2054 33.0959 31.2949C33.2918 31.3789 33.47 31.4992 33.6211 31.6493C33.7728 31.8013 33.8932 31.9814 33.9756 32.1794C34.0626 32.3856 34.1145 32.6048 34.1294 32.8279L34.1319 32.8608L30.7311 32.8598Z" fill="#111827"/>
<path d="M40.8723 35.4249C40.8462 35.3201 40.8333 35.1563 40.8333 34.9242V31.9456C40.8333 31.6169 40.7702 31.3469 40.6458 31.1426C40.5267 30.9424 40.3563 30.7775 40.1522 30.6647C39.9373 30.5489 39.7033 30.4724 39.4614 30.4387C38.8878 30.3561 38.296 30.3621 37.7712 30.4823C37.4981 30.5428 37.2388 30.6537 37.0066 30.8093C36.7857 30.9605 36.6042 31.1621 36.4771 31.3973C36.3491 31.6334 36.2753 31.9235 36.2584 32.2604H37.1514C37.1797 31.8412 37.3306 31.5493 37.6027 31.3955C37.8748 31.2417 38.2211 31.1623 38.6287 31.1623C38.7823 31.1625 38.9358 31.1739 39.0879 31.1963C39.237 31.2164 39.3814 31.2631 39.5141 31.334C39.6436 31.4053 39.752 31.5092 39.8285 31.6355C39.9098 31.7672 39.9511 31.9428 39.9511 32.1567C39.9511 32.3434 39.8948 32.4897 39.7833 32.5881C39.6562 32.6945 39.5058 32.7695 39.3442 32.807C39.1383 32.8611 38.9286 32.8994 38.7168 32.9214C38.4845 32.9458 38.2343 32.9855 37.9726 33.0373C37.7278 33.0817 37.4858 33.1386 37.2507 33.2054C37.029 33.2668 36.8198 33.3662 36.6323 33.4991C36.4504 33.6302 36.3016 33.8016 36.1975 33.9999C36.0881 34.2034 36.0322 34.4713 36.0322 34.7922C36.0322 35.0783 36.0828 35.3237 36.1814 35.5247C36.2748 35.7193 36.4143 35.8882 36.5879 36.0169C36.7674 36.1482 36.9716 36.2418 37.1883 36.2923C37.4288 36.3487 37.6751 36.3763 37.9221 36.3746C38.3041 36.3779 38.6833 36.3087 39.0395 36.1707C39.3917 36.0268 39.702 35.7969 39.9421 35.5022L39.9962 35.436V35.5211C39.9962 35.8241 40.0679 36.0452 40.2056 36.1764C40.3432 36.3077 40.5368 36.3746 40.7741 36.3746C41.0501 36.3746 41.2706 36.3306 41.4291 36.2426V35.563C41.3446 35.5905 41.2565 35.6054 41.1677 35.6074C41.0014 35.6074 40.9032 35.548 40.8731 35.4285M39.941 34.2689C39.9374 34.422 39.9022 34.5727 39.8378 34.7117C39.7616 34.8778 39.6517 35.0264 39.5152 35.1481C39.3511 35.2923 39.1613 35.4045 38.9556 35.4786C38.728 35.5644 38.4537 35.6088 38.1357 35.6088C37.992 35.6093 37.8486 35.5941 37.7081 35.5634C37.5764 35.5375 37.4509 35.4866 37.3385 35.4135C37.2333 35.3431 37.1455 35.2498 37.0818 35.1406C37.0123 35.014 36.9778 34.8713 36.9818 34.7271C36.9818 34.4835 37.0388 34.286 37.1514 34.1433C37.2653 33.9987 37.4145 33.8856 37.5848 33.815C37.774 33.7347 37.9728 33.6792 38.1763 33.6497C38.3813 33.6175 38.5989 33.5878 38.8215 33.5599C39.0366 33.5338 39.2406 33.4995 39.4309 33.4598C39.5959 33.4296 39.7524 33.3646 39.8901 33.2691L39.9392 33.2312L39.941 34.2689Z" fill="#111827"/>
<path d="M50.235 31.502C50.0295 31.1768 49.7523 30.9027 49.4245 30.7007C49.0896 30.4922 48.6623 30.3856 48.1547 30.3856C47.7823 30.3823 47.4135 30.4579 47.0725 30.6074C46.7476 30.7526 46.4565 30.9639 46.2179 31.2276C45.9722 31.502 45.7817 31.821 45.6569 32.1673C45.5205 32.5522 45.4529 32.958 45.4572 33.3663C45.4675 33.7772 45.5328 34.1849 45.6515 34.5785C45.7555 34.9288 45.9311 35.2537 46.1674 35.5328C46.3998 35.8002 46.6897 36.0119 47.0155 36.152C47.3511 36.2993 47.7533 36.3748 48.2103 36.3748C48.8591 36.3748 49.404 36.2096 49.8306 35.8873C50.2479 35.5704 50.5257 35.0957 50.6551 34.4744H49.774C49.6879 34.8493 49.5137 35.1333 49.2563 35.3203C48.999 35.5074 48.6541 35.6065 48.2444 35.6065C47.9268 35.6065 47.6468 35.5543 47.4116 35.448C47.1879 35.3498 46.9888 35.2032 46.8288 35.0188C46.676 34.8393 46.563 34.6297 46.4972 34.4036C46.4282 34.166 46.3976 33.9189 46.4065 33.6717V33.6417H50.7526C50.7625 33.2815 50.7303 32.9214 50.6565 32.5686C50.5807 32.191 50.4378 31.8301 50.2346 31.5027M46.4237 32.8619L46.4258 32.829C46.439 32.6076 46.4893 32.39 46.5746 32.1852C46.6545 31.9886 46.7706 31.8087 46.9169 31.6547C47.0647 31.5016 47.242 31.3799 47.4382 31.297C47.6537 31.2068 47.8856 31.162 48.1193 31.1654C48.4497 31.1607 48.774 31.255 49.0502 31.436C49.3264 31.617 49.5419 31.8764 49.6689 32.1809C49.7565 32.3869 49.8087 32.6061 49.8234 32.8294L49.8256 32.8623L46.4237 32.8619Z" fill="#111827"/>
<path d="M57.4707 35.6053C57.1674 35.6053 56.9018 35.5445 56.682 35.4226C56.467 35.3055 56.2828 35.1395 56.1443 34.9379C56.0038 34.7278 55.9013 34.4947 55.8414 34.2493C55.7778 33.9901 55.7458 33.7242 55.7461 33.4574C55.7453 33.1707 55.7757 32.8848 55.8368 32.6046C55.8912 32.3441 55.9932 32.0957 56.1379 31.8721C56.282 31.657 56.4765 31.4804 56.7046 31.3574C56.9401 31.229 57.2362 31.1639 57.5847 31.1639C57.9933 31.1639 58.3256 31.2676 58.5698 31.4736C58.8089 31.6736 58.9687 31.9583 59.0465 32.3181H59.9757C59.9455 32.0217 59.8564 31.7342 59.7137 31.4725C59.5793 31.2333 59.3961 31.0249 59.1759 30.8609C58.9496 30.6954 58.6943 30.5733 58.4231 30.5011C58.1234 30.4217 57.8145 30.3824 57.5044 30.3841C57.0548 30.3841 56.6544 30.4642 56.3167 30.623C55.9877 30.7726 55.6975 30.9959 55.469 31.2755C55.2373 31.5636 55.0653 31.8948 54.9628 32.2498C54.8498 32.6424 54.7937 33.049 54.7961 33.4574C54.792 33.8585 54.85 34.2579 54.9682 34.6414C55.0732 34.9807 55.2465 35.2951 55.4776 35.5653C55.7086 35.8265 55.9969 36.031 56.32 36.163C56.6559 36.3028 57.0466 36.3726 57.4807 36.3726C58.2124 36.3726 58.7963 36.1801 59.2193 35.7985C59.6337 35.4247 59.9004 34.8846 60.008 34.1942H59.0942C59.0308 34.6353 58.8651 34.9812 58.5992 35.2273C58.3296 35.4776 57.9503 35.605 57.4725 35.605" fill="#111827"/>
<path d="M65.5182 30.9687C65.3547 30.7783 65.1468 30.6309 64.9128 30.5395C64.6618 30.4368 64.3456 30.3842 63.97 30.3842C63.7925 30.3854 63.6156 30.4042 63.4419 30.4404C63.2623 30.4767 63.0877 30.5342 62.9218 30.6117C62.7585 30.6874 62.6079 30.7876 62.4751 30.909C62.3443 31.0281 62.2091 31.1772 62.1364 31.3518L62.1292 31.3708H62.0862V28.3118H61.1929V36.2504H62.0862V33.0101C62.0836 32.7617 62.1198 32.5144 62.1937 32.2772C62.2619 32.0616 62.3727 31.8619 62.5196 31.6898C62.6687 31.5201 62.8549 31.3867 63.0637 31.2999C63.2806 31.2094 63.5398 31.164 63.8341 31.164C64.2069 31.164 64.5059 31.2713 64.7206 31.4859C64.9353 31.7006 65.0432 31.9928 65.0432 32.3591V36.2504H65.9394V32.4728C65.9418 32.1864 65.91 31.9008 65.8448 31.6219C65.7887 31.3819 65.6772 31.1582 65.5193 30.9687" fill="#111827"/>
<path d="M71.9293 31.5019C71.7244 31.1761 71.4472 30.9015 71.1192 30.6993C70.7847 30.4907 70.3574 30.3841 69.8495 30.3841C69.4769 30.3808 69.1079 30.4564 68.7669 30.6059C68.4421 30.7514 68.1511 30.9626 67.9123 31.2262C67.667 31.5014 67.4766 31.8208 67.3513 32.1672C67.2145 32.5521 67.1469 32.958 67.1516 33.3662C67.1622 33.7771 67.2274 34.1847 67.3455 34.5785C67.4504 34.9283 67.6267 35.2527 67.8632 35.5313C68.0953 35.799 68.3851 36.0107 68.711 36.1505C69.0461 36.2979 69.4491 36.3734 69.9054 36.3734C70.5542 36.3734 71.0984 36.2081 71.5261 35.8858C71.9433 35.5689 72.2208 35.095 72.3505 34.4729H71.4701C71.3845 34.8478 71.2102 35.1318 70.9518 35.3189C70.6933 35.506 70.3492 35.605 69.9405 35.605C69.6226 35.605 69.3422 35.5528 69.1078 35.4466C68.884 35.3485 68.6848 35.2018 68.5249 35.0173C68.3721 34.838 68.2592 34.6283 68.1937 34.4021C68.1237 34.1647 68.0928 33.9176 68.1019 33.6703V33.6402H72.4481C72.458 33.28 72.4257 32.9199 72.3516 32.5671C72.2761 32.1895 72.1332 31.8284 71.9297 31.5012M68.0983 32.8605L68.1012 32.8275C68.1148 32.6062 68.1649 32.3887 68.2496 32.1837C68.3296 31.9871 68.4459 31.8071 68.5923 31.6532C68.7403 31.5004 68.9175 31.3787 69.1135 31.2955C69.329 31.2051 69.5609 31.1603 69.7946 31.1639C70.016 31.1614 70.2357 31.203 70.4408 31.2864C70.6458 31.3697 70.8321 31.4931 70.9887 31.6493C71.1403 31.8016 71.2612 31.9816 71.3447 32.1794C71.431 32.3857 71.4828 32.6048 71.4977 32.8279L71.5006 32.8608L68.0983 32.8605Z" fill="#111827"/>
<path d="M81.1546 30.7701C80.9788 30.6328 80.7762 30.5335 80.5599 30.4786C80.3038 30.4131 80.0402 30.3814 79.7759 30.3842C79.4148 30.381 79.0587 30.4685 78.7403 30.6385C78.4294 30.8067 78.1682 31.0534 77.9828 31.3539L77.947 31.41L77.9254 31.3481C77.81 30.999 77.6068 30.749 77.3239 30.6034C77.025 30.4543 76.6946 30.3786 76.3604 30.3827C75.5592 30.3827 74.9024 30.7104 74.4773 31.3553L74.468 31.3692H74.4321V30.519H73.5947V36.2503H74.488V32.6734C74.4941 32.5268 74.5229 32.382 74.5734 32.2442C74.6358 32.0642 74.7285 31.8962 74.8476 31.7473C74.9832 31.5792 75.1507 31.4393 75.3405 31.3356C75.5416 31.2215 75.7864 31.1639 76.0682 31.1639C76.2883 31.1639 76.4722 31.1965 76.6142 31.2623C76.7521 31.3225 76.8709 31.4191 76.9579 31.5417C77.0457 31.6677 77.1067 31.8104 77.1372 31.9609C77.1724 32.1327 77.1893 32.3077 77.1877 32.4831V36.2503H78.0821V32.6734C78.0821 32.2198 78.2201 31.8507 78.4944 31.5774C78.7686 31.3041 79.1504 31.1646 79.6282 31.1646C79.8626 31.1646 80.0584 31.2004 80.2071 31.2677C80.3492 31.3298 80.472 31.4286 80.5631 31.5538C80.6502 31.6802 80.7089 31.8238 80.7352 31.9748C80.7669 32.143 80.7824 32.3138 80.7814 32.4849V36.2503H81.6747V32.0349C81.6747 31.7416 81.6285 31.488 81.5371 31.2787C81.4527 31.0808 81.3214 30.9063 81.1546 30.7701Z" fill="#111827"/>
<path d="M84.1321 29.4163H83.2388V28.3118H84.1321V29.4163ZM84.1321 30.5191H83.2388V36.2504H84.1321V30.5191Z" fill="#111827"/>
<path d="M89.4739 35.9976C89.7019 35.8606 89.8944 35.672 90.036 35.4471C90.1794 35.2221 90.2511 34.9334 90.2511 34.5886C90.2511 34.3214 90.1976 34.0928 90.0926 33.909C89.9877 33.7291 89.8447 33.5742 89.6735 33.4551C89.4899 33.3281 89.2884 33.2292 89.0756 33.1614C88.846 33.0859 88.6126 33.0226 88.3762 32.9718C88.1518 32.9196 87.9278 32.8695 87.7023 32.8205C87.4942 32.7771 87.2898 32.7173 87.0911 32.6417C86.9245 32.579 86.7711 32.4858 86.6387 32.367C86.5791 32.312 86.5319 32.245 86.5002 32.1704C86.4685 32.0959 86.4531 32.0155 86.4548 31.9345C86.4492 31.797 86.4911 31.6618 86.5735 31.5514C86.6548 31.4515 86.7586 31.3721 86.8764 31.3196C87.0058 31.2595 87.1434 31.2186 87.2847 31.198C87.5865 31.1465 87.8953 31.1526 88.1948 31.2159C88.3461 31.2477 88.4913 31.3032 88.625 31.3805C88.7546 31.4567 88.865 31.5616 88.9476 31.687C89.0327 31.8238 89.0837 31.979 89.0964 32.1395H89.9897C89.965 31.8072 89.8911 31.5268 89.7711 31.3039C89.653 31.0818 89.4803 30.8934 89.2692 30.7563C89.048 30.6159 88.802 30.5188 88.5444 30.4701C88.2466 30.4124 87.9439 30.3842 87.6406 30.3861C87.384 30.387 87.1283 30.4187 86.8792 30.4805C86.6359 30.5388 86.4036 30.6361 86.1913 30.7684C85.9911 30.897 85.8217 31.0679 85.6952 31.2692C85.5687 31.472 85.5041 31.7195 85.5041 32.0036C85.5041 32.368 85.5959 32.6546 85.7777 32.8563C85.9676 33.0677 86.204 33.2323 86.4684 33.337C86.7618 33.4564 87.0665 33.546 87.3779 33.6042C87.7034 33.6665 88.0117 33.738 88.2949 33.8189C88.5471 33.8833 88.7871 33.9886 89.0054 34.1304C89.2004 34.2635 89.2997 34.4602 89.2997 34.7159C89.2997 34.9019 89.2523 35.0568 89.1563 35.1777C89.064 35.2977 88.9421 35.3917 88.8025 35.4506C88.6546 35.5131 88.4989 35.5553 88.3397 35.5762C87.9914 35.6277 87.6368 35.62 87.2911 35.5533C87.1144 35.5189 86.9447 35.4549 86.7893 35.3641C86.6401 35.2764 86.5146 35.1536 86.424 35.0064C86.3321 34.8486 86.2808 34.6705 86.2749 34.4881H85.3848C85.4016 34.8275 85.4765 35.1184 85.6042 35.3562C85.7296 35.5946 85.9114 35.7988 86.134 35.9511C86.3661 36.1058 86.6252 36.216 86.8979 36.2758C87.4499 36.4043 88.0744 36.41 88.687 36.293C88.9653 36.2434 89.2325 36.1442 89.4757 36.0004" fill="#111827"/>
<path d="M92.6706 28.7827H91.7762V30.519H90.8237V31.298H91.7762V35.0152C91.7762 35.2795 91.8027 35.4959 91.8543 35.6554C91.8945 35.7974 91.9752 35.9247 92.0866 36.0217C92.2066 36.1155 92.3486 36.1771 92.4992 36.2006C92.7066 36.2371 92.9171 36.2538 93.1276 36.2506H93.8274V35.4712H93.4198C93.2966 35.4723 93.1735 35.4669 93.0509 35.4551C92.968 35.4483 92.8881 35.4211 92.8183 35.3761C92.7593 35.3345 92.7173 35.2732 92.7 35.2033C92.6777 35.1125 92.6679 35.0192 92.6706 34.9257V31.298H93.8618V30.519H92.6706V28.7827Z" fill="#111827"/>
<path d="M43.639 28.7827H42.7429V30.519H41.79V31.298H42.7429V35.0152C42.7429 35.2795 42.7694 35.4959 42.821 35.6554C42.8609 35.7976 42.9417 35.9249 43.0533 36.0217C43.1732 36.1157 43.3153 36.1773 43.4659 36.2006C43.6732 36.2371 43.8835 36.2539 44.094 36.2506H44.7937V35.4712H44.3861C44.2631 35.4723 44.1401 35.4669 44.0176 35.4551C43.9344 35.4483 43.8541 35.4211 43.7839 35.3761C43.7254 35.3342 43.6838 35.273 43.6663 35.2033C43.6443 35.1125 43.6347 35.0191 43.6376 34.9257V31.298H44.8285V30.519H43.6376L43.639 28.7827Z" fill="#111827"/>
<path d="M96.0779 31.7929L96.0696 31.809H96.0381V30.5191H95.2007V36.2505H96.094V33.7727C96.0896 33.4365 96.1278 33.1011 96.2076 32.7744C96.2741 32.5026 96.3986 32.2484 96.5726 32.029C96.7491 31.8176 96.9778 31.6557 97.2361 31.5593C97.5007 31.4563 97.8229 31.4044 98.1939 31.4009V30.453C97.6992 30.4437 97.2845 30.5481 96.9619 30.7627C96.5821 31.0232 96.2773 31.3784 96.0779 31.7929Z" fill="#111827"/>
<path d="M101.147 37.7471C101.272 37.516 101.382 37.277 101.475 37.0317L103.987 30.5192H103.043L101.414 35.259H101.348L101.341 35.2375L99.652 30.5188H98.6426L100.931 36.2483L100.927 36.2587L100.533 37.2331C100.457 37.3907 100.347 37.5291 100.21 37.638C100.085 37.7324 99.9195 37.7793 99.7191 37.7793C99.6183 37.779 99.5182 37.7632 99.4223 37.7324C99.3434 37.7081 99.2656 37.6816 99.1882 37.6559V38.466C99.2852 38.5 99.3855 38.524 99.4875 38.5376C99.5978 38.5518 99.7089 38.559 99.8202 38.559C100.007 38.5628 100.193 38.5351 100.371 38.4771C100.528 38.42 100.672 38.3306 100.793 38.2146C100.934 38.0772 101.053 37.9193 101.147 37.7463" fill="#111827"/>
</svg>
