<svg width="80" height="40" viewBox="0 0 80 40" fill="none" xmlns="http://www.w3.org/2000/svg">
<path fill-rule="evenodd" clip-rule="evenodd" d="M79.4099 2.02913H60.6866V8.40615H66.1609V30.3907H73.9356V8.40615H79.4099V2.02913ZM58.823 30.3616H51.0483V2.02913H58.823V30.3616ZM49.7379 30.3616H41.0897L30.8108 19.3257V13.0069L40.7694 2H49.6797L38.2069 16.2682L49.7379 30.3616Z" fill="#111827"/>
<path fill-rule="evenodd" clip-rule="evenodd" d="M6.78758 12.3953C5.30252 14.2006 4.02131 16.1807 3.03125 18.3064L28.9469 30.3615L6.78758 12.3953Z" fill="#111827"/>
<path fill-rule="evenodd" clip-rule="evenodd" d="M28.9473 30.3614L16.8631 4.64966C14.7083 5.63966 12.7282 6.8627 10.9229 8.31863L28.9473 30.3614Z" fill="#111827"/>
<path fill-rule="evenodd" clip-rule="evenodd" d="M28.947 30.3615L28.9761 2.02905H28.7432C26.4428 2.02905 24.2007 2.32027 22.0459 2.8444L28.947 30.3615Z" fill="#111827"/>
<path fill-rule="evenodd" clip-rule="evenodd" d="M1.16781 23.4314C0.585454 25.6444 0.294263 27.9739 0.265137 30.3616H28.947L1.16781 23.4314Z" fill="#111827"/>
<path d="M79.8014 36.7412C79.6843 36.838 79.3176 37.0009 79.0019 37.0009C78.5486 37.0009 78.1463 36.6495 78.1463 36.1352H80C80 35.3 79.7199 34.6685 78.8542 34.6685C78.1209 34.6685 77.637 35.2135 77.637 35.9824C77.637 36.8278 78.0597 37.3888 78.9815 37.3888C79.4092 37.3888 79.6181 37.2861 79.8014 37.2199V36.7412ZM78.1463 35.7788C78.182 35.4426 78.3755 35.0556 78.844 35.0556C79.2565 35.0556 79.4907 35.3815 79.4907 35.7788H78.1463ZM76.5972 37.3268H77.0759V34.7296H76.5972V37.3268ZM77.1064 33.6092H76.5666V34.1491H77.1064V33.6092ZM46.5322 33.722H47.0643V34.2643H46.5322V33.722ZM47.6704 33.722H48.2025V34.2643H47.6704V33.722ZM49.1951 37.3268H49.6738V36.1454C49.6738 35.4936 49.9539 35.0861 50.3816 35.0861C50.4631 35.0861 50.5599 35.0963 50.6465 35.1319V34.7042C50.5447 34.6838 50.4733 34.6685 50.3307 34.6685C50.0557 34.6685 49.7807 34.8621 49.6533 35.1319H49.6432V34.7296H49.1951V37.3268ZM48.5157 34.6676H48.037V35.8694C48.037 36.5009 47.7926 36.9389 47.2476 36.9389C46.8301 36.9134 46.6977 36.6181 46.6977 36.0121V34.6676H46.219V36.2107C46.219 36.9083 46.5194 37.3268 47.1917 37.3268C47.5532 37.3268 47.8995 37.1477 48.0422 36.8523H48.0523V37.2648H48.5157L48.5157 34.6676ZM22.7065 37.3268H23.1852V36.1454C23.1852 35.4936 23.4653 35.0861 23.893 35.0861C23.9745 35.0861 24.0713 35.0963 24.1579 35.1319V34.7042C24.0561 34.6838 23.9847 34.6685 23.8421 34.6685C23.5671 34.6685 23.2921 34.8621 23.1647 35.1319H23.1546V34.7296H22.7065L22.7065 37.3268ZM75.9067 34.7296H75.4636V35.1167H75.4535C75.3109 34.8366 75.0563 34.6685 74.5979 34.6685C73.8136 34.6685 73.4368 35.3815 73.4368 36.0486C73.4368 36.7208 73.8035 37.3268 74.5471 37.3268C74.878 37.3268 75.2142 37.1944 75.4178 36.9246H75.428V37.1792C75.428 37.7301 75.1276 38.0713 74.6234 38.0713C74.272 38.0713 74.053 38.005 73.6863 37.837L73.6355 38.28C74.053 38.4227 74.2923 38.4583 74.5674 38.4583C75.4994 38.4583 75.9067 38.005 75.9067 37.2148L75.9067 34.7296ZM74.6692 36.9398C74.221 36.9398 73.9461 36.5121 73.9461 36.0231C73.9461 35.5801 74.1854 35.0556 74.6692 35.0556C75.1785 35.0556 75.428 35.5189 75.428 36.0588C75.428 36.5426 75.1174 36.9398 74.6692 36.9398ZM70.3252 36.0282C70.3252 36.7718 70.865 37.3888 71.6493 37.3888C72.4285 37.3888 72.9683 36.7718 72.9683 36.0282C72.9683 35.2388 72.4387 34.6685 71.6493 34.6685C70.8549 34.6685 70.3252 35.2388 70.3252 36.0282ZM70.8346 36.0282C70.8346 35.5343 71.135 35.0556 71.6493 35.0556C72.1586 35.0556 72.4591 35.5343 72.4591 36.0282C72.4591 36.4917 72.2095 37.0009 71.6493 37.0009C71.084 37.0009 70.8346 36.4917 70.8346 36.0282ZM69.1438 37.3268H69.6225V33.5074H69.1438V37.3268ZM65.7979 36.0282C65.7979 36.7718 66.3377 37.3888 67.122 37.3888C67.9012 37.3888 68.441 36.7718 68.441 36.0282C68.441 35.2388 67.9113 34.6685 67.122 34.6685C66.3275 34.6685 65.7979 35.2388 65.7979 36.0282ZM66.3072 36.0282C66.3072 35.5343 66.6076 35.0556 67.122 35.0556C67.6312 35.0556 67.9317 35.5343 67.9317 36.0282C67.9317 36.4917 67.6822 37.0009 67.122 37.0009C66.5567 37.0009 66.3072 36.4917 66.3072 36.0282ZM62.8595 37.3268H63.3382V36.125C63.3382 35.4936 63.5827 35.0556 64.1276 35.0556C64.5452 35.081 64.6775 35.3764 64.6775 35.9824V37.3268H65.1562V35.7838C65.1562 35.0861 64.8558 34.6685 64.1836 34.6685C63.822 34.6685 63.4757 34.8467 63.3331 35.1421H63.323V34.7296H62.8595V37.3268ZM59.748 37.3268H60.2267V36.125C60.2267 35.4936 60.4711 35.0556 61.016 35.0556C61.4336 35.081 61.566 35.3764 61.566 35.9824V37.3268H62.0447V35.7838C62.0447 35.0861 61.7443 34.6685 61.0721 34.6685C60.7104 34.6685 60.41 34.8263 60.2368 35.1014H60.2267V33.5074H59.748L59.748 37.3268ZM59.1776 34.7704C59.0401 34.7144 58.7906 34.6685 58.5971 34.6685C57.8026 34.6685 57.273 35.2388 57.273 36.0282C57.273 36.7718 57.8128 37.3888 58.5971 37.3888C58.7702 37.3888 58.9994 37.3735 59.198 37.281L59.1624 36.8533C59.0147 36.9501 58.811 37.0009 58.648 37.0009C58.0318 37.0009 57.7822 36.4917 57.7822 36.0282C57.7822 35.5343 58.0827 35.0556 58.6175 35.0556C58.7702 35.0556 58.9535 35.0912 59.1369 35.1675L59.1776 34.7704ZM56.6465 36.7412C56.5294 36.838 56.1628 37.0009 55.847 37.0009C55.3937 37.0009 54.9915 36.6495 54.9915 36.1352H56.8451C56.8451 35.3 56.565 34.6685 55.6993 34.6685C54.966 34.6685 54.4821 35.2135 54.4821 35.9824C54.4821 36.8278 54.9049 37.3888 55.8266 37.3888C56.2543 37.3888 56.4632 37.2861 56.6465 37.2199V36.7412ZM54.9915 35.7788C55.0271 35.4426 55.2206 35.0556 55.6892 35.0556C56.1017 35.0556 56.3359 35.3815 56.3359 35.7788H54.9915ZM52.9544 37.3268H53.4636V34.2203H54.5687V33.7722H51.8492V34.2203H52.9544V37.3268ZM44.4804 37.3268H44.9591V35.1167H45.6466V34.7296H44.9591V34.4496C44.9591 34.0981 45.0099 33.8333 45.4224 33.8333C45.504 33.8333 45.5957 33.8435 45.6517 33.8639L45.672 33.4769C45.5752 33.4615 45.4734 33.4463 45.3512 33.4463C44.6434 33.4463 44.4804 33.8588 44.4804 34.4903V34.7296H43.8692V35.1167H44.4804V37.3268ZM42.2821 34.7296H41.5946V33.976L41.1159 34.1286V34.7296H40.5302V35.1167H41.1159V36.6343C41.1159 37.1537 41.4214 37.3888 41.9154 37.3888C42.0682 37.3888 42.2158 37.3481 42.3228 37.3167V36.9092C42.2515 36.9551 42.1445 37.0009 41.9968 37.0009C41.7779 37.0009 41.5946 36.838 41.5946 36.5376V35.1167H42.2821V34.7296ZM40.0871 34.7296H39.6084V35.9314C39.6084 36.5629 39.364 37.0009 38.819 37.0009C38.4015 36.9754 38.2691 36.6801 38.2691 36.0741V34.7296H37.7904V36.2727C37.7904 36.9703 38.0908 37.3888 38.7631 37.3888C39.1246 37.3888 39.471 37.2098 39.6136 36.9143H39.6238V37.3268H40.0871L40.0871 34.7296ZM37.1895 34.7296H36.5019V33.976L36.0232 34.1286V34.7296H35.4375V35.1167H36.0232V36.6343C36.0232 37.1537 36.3287 37.3888 36.8227 37.3888C36.9755 37.3888 37.1232 37.3481 37.2302 37.3167V36.9092C37.1589 36.9551 37.0519 37.0009 36.9042 37.0009C36.6853 37.0009 36.5019 36.838 36.5019 36.5376V35.1167H37.1895V34.7296ZM34.4547 37.3268H34.9334V34.7296H34.4547V37.3268ZM34.9639 33.6092H34.4241V34.1491H34.9639V33.6092ZM33.7926 34.7296H33.1051V33.976L32.6264 34.1286V34.7296H32.0407V35.1167H32.6264V36.6343C32.6264 37.1537 32.9318 37.3888 33.4259 37.3888C33.5787 37.3888 33.7263 37.3481 33.8333 37.3167V36.9092C33.762 36.9551 33.655 37.0009 33.5073 37.0009C33.2884 37.0009 33.1051 36.838 33.1051 36.5376V35.1167H33.7926V34.7296ZM30.2124 37.2454C30.4314 37.3633 30.6809 37.3888 30.9253 37.3888C31.3888 37.3888 31.8318 37.1333 31.8318 36.5783C31.8318 35.7482 30.7064 35.9009 30.7064 35.3713C30.7064 35.1574 30.9202 35.0556 31.1647 35.0556C31.2768 35.0556 31.562 35.1218 31.6689 35.188L31.7096 34.7704C31.5211 34.7144 31.3379 34.6685 31.1137 34.6685C30.5994 34.6685 30.1971 34.9283 30.1971 35.4681C30.1971 36.1963 31.3226 36.1555 31.3226 36.6291C31.3226 36.9092 31.0527 37.0009 30.8337 37.0009C30.6962 37.0009 30.4263 36.9398 30.2379 36.8175L30.2124 37.2454ZM27.3198 37.3268H27.7985V36.125C27.7985 35.4936 28.043 35.0556 28.5879 35.0556C29.0054 35.081 29.1378 35.3764 29.1378 35.9824V37.3268H29.6165V35.7838C29.6165 35.0861 29.3161 34.6685 28.6439 34.6685C28.2823 34.6685 27.936 34.8467 27.7934 35.1421H27.7833V34.7296H27.3198L27.3198 37.3268ZM25.9498 37.3268H26.4591V33.7722H25.9498V37.3268ZM21.7304 36.7412C21.6132 36.838 21.2466 37.0009 20.9309 37.0009C20.4776 37.0009 20.0753 36.6495 20.0753 36.1352H21.929C21.929 35.3 21.6489 34.6685 20.7832 34.6685C20.0498 34.6685 19.566 35.2135 19.566 35.9824C19.566 36.8278 19.9887 37.3888 20.9105 37.3888C21.3382 37.3888 21.547 37.2861 21.7304 37.2199V36.7412ZM20.0753 35.7788C20.111 35.4426 20.3045 35.0556 20.773 35.0556C21.1855 35.0556 21.4197 35.3815 21.4197 35.7788H20.0753ZM16.6276 37.3268H17.1063V36.125C17.1063 35.4936 17.3508 35.0556 17.8957 35.0556C18.3132 35.081 18.4456 35.3764 18.4456 35.9824V37.3268H18.9243V35.7838C18.9243 35.0861 18.6239 34.6685 17.9517 34.6685C17.5901 34.6685 17.2897 34.8263 17.1164 35.1014H17.1063V33.5074H16.6276L16.6276 37.3268ZM15.8128 34.7296H15.3341V35.9314C15.3341 36.5629 15.0897 37.0009 14.5447 37.0009C14.1271 36.9754 13.9947 36.6801 13.9947 36.0741V34.7296H13.516V36.2727C13.516 36.9703 13.8165 37.3888 14.4888 37.3888C14.8503 37.3888 15.1966 37.2098 15.3393 36.9143H15.3494V37.3268H15.8128L15.8128 34.7296ZM11.535 37.3268H12.0137V36.1454C12.0137 35.4936 12.2938 35.0861 12.7215 35.0861C12.803 35.0861 12.8998 35.0963 12.9864 35.1319V34.7042C12.8846 34.6838 12.8132 34.6685 12.6706 34.6685C12.3956 34.6685 12.1206 34.8621 11.9932 35.1319H11.9831V34.7296H11.535L11.535 37.3268ZM9.3349 37.2454C9.5539 37.3633 9.80345 37.3888 10.0478 37.3888C10.5113 37.3888 10.9543 37.1333 10.9543 36.5783C10.9543 35.7482 9.82893 35.9009 9.82893 35.3713C9.82893 35.1574 10.0427 35.0556 10.2872 35.0556C10.3993 35.0556 10.6845 35.1218 10.7914 35.188L10.8321 34.7704C10.6437 34.7144 10.4604 34.6685 10.2362 34.6685C9.72191 34.6685 9.31956 34.9283 9.31956 35.4681C9.31956 36.1963 10.4451 36.1555 10.4451 36.6291C10.4451 36.9092 10.1752 37.0009 9.95624 37.0009C9.81867 37.0009 9.54882 36.9398 9.36038 36.8175L9.3349 37.2454ZM8.19923 37.3268H8.67793V33.5074H8.19923V37.3268ZM6.15703 37.3268H6.63573V36.1454C6.63573 35.4936 6.91584 35.0861 7.34356 35.0861C7.4251 35.0861 7.52184 35.0963 7.60845 35.1319V34.7042C7.50662 34.6838 7.43525 34.6685 7.2927 34.6685C7.01767 34.6685 6.74263 34.8621 6.61532 35.1319H6.60516V34.7296H6.15703V37.3268ZM3.4732 35.3204C3.66671 35.1574 3.95697 35.0556 4.22682 35.0556C4.70562 35.0556 4.86857 35.2847 4.86857 35.7329C4.68013 35.7227 4.54776 35.7227 4.35932 35.7227C3.86529 35.7227 3.15226 35.9263 3.15226 36.5783C3.15226 37.1436 3.54447 37.3888 4.10468 37.3888C4.54256 37.3888 4.7972 37.1486 4.90927 36.9908H4.91942V37.3268H5.36755C5.3574 37.2505 5.34725 37.113 5.34725 36.8176V35.743C5.34725 35.0352 5.04673 34.6685 4.30326 34.6685C3.97219 34.6685 3.687 34.7704 3.4477 34.9129L3.4732 35.3204ZM4.86857 36.3186C4.86857 36.7056 4.61902 37.0009 4.14539 37.0009C3.92641 37.0009 3.66163 36.8533 3.66163 36.5783C3.66163 36.1199 4.30327 36.0792 4.56298 36.0792C4.6648 36.0792 4.76662 36.0893 4.86857 36.0893V36.3186ZM0 37.3268H0.509262V35.5851L2.09305 37.3268H2.83663L1.03383 35.4528L2.70424 33.7722H2.02686L0.509262 35.3357V33.7722H0V37.3268Z" fill="#111827"/>
</svg>
