<svg width="204" height="40" viewBox="0 0 204 40" fill="none" xmlns="http://www.w3.org/2000/svg">
<path d="M16.4843 6.76778C16.3025 8.6148 14.1661 11.3359 11.6569 11.4736C9.072 11.5634 6.3295 9.06682 3.62943 9.16262C2.18697 9.21351 0.505109 9.81521 0.43541 11.5904C0.417228 13.0123 1.6112 13.6649 3.42034 13.641C4.95674 13.5452 5.29917 13.3506 6.51435 12.6112C5.90828 13.641 4.71128 14.2906 3.40821 14.4073C1.24755 14.3624 0.19601 12.9884 0.00812641 11.4287C-0.134302 9.62662 1.59302 6.23492 5.38402 6.23792C8.76896 6.23492 11.4902 8.32143 13.4085 8.36633C14.757 8.34538 15.5873 7.61495 16.4843 6.76778Z" fill="#111827"/>
<path d="M12.7675 14.5131C13.5735 14.5221 14.3281 15.2345 14.3281 16.2045C14.3281 17.0786 13.5432 17.7701 12.7614 17.7671C11.9371 17.7641 10.6916 16.872 11.5765 15.5189C11.5765 15.5189 10.2795 16.0967 10.6462 17.5665C11.8674 18.4855 13.5947 19.9195 13.2553 22.3233C12.8735 25.0205 8.83705 25.6731 8.18249 28.0469C7.47338 26.3586 6.39456 25.5653 5.00362 25.5803C2.63689 25.6042 1.23686 27.4842 1.29443 28.8612C1.3914 31.0315 2.80659 31.9475 5.85819 31.8727C8.74008 31.729 10.4735 30.4987 11.6523 28.5888C11.2765 29.9449 9.76435 33.106 5.66424 33.1539C1.80657 33.106 0.561081 30.3071 0.515625 28.2804C0.564111 24.5175 3.58843 23.0208 5.64 22.9968C7.84915 22.9699 8.78856 23.9637 10.0825 25.2899C10.0825 25.2899 10.7916 23.7632 9.97041 22.3742C8.47644 19.8476 6.01274 20.3625 5.44302 17.2342C4.97028 14.6269 8.56735 11.8818 9.64313 11.5645C8.81584 12.4176 7.47338 13.3606 8.32492 15.498C8.69462 16.435 10.2098 17.1893 10.2098 17.1893C10.1856 16.3871 10.8886 14.4862 12.7675 14.5131Z" fill="#111827"/>
<path d="M15.7188 15.9976L17.6855 13.2495C17.6855 13.2495 19.2431 13.465 20.0704 15.3839L21.6734 13.3124C21.6734 13.3124 22.8795 15.1983 24.5311 13.4261C24.5311 13.4261 23.7553 16.4466 21.7674 16.5334C21.0552 16.5634 20.2522 15.9796 20.2522 15.9796L20.2492 24.2957C20.2492 24.2957 20.1098 25.2626 21.4734 25.565C21.4734 25.565 20.1128 26.954 19.1885 28.3101C18.0279 26.9061 16.64 25.7925 16.64 25.7925C16.64 25.7925 17.2794 25.565 17.2855 24.64L17.2915 16.5304C17.2915 16.5304 17.1491 15.2672 15.7188 15.9976Z" fill="#111827"/>
<path fill-rule="evenodd" clip-rule="evenodd" d="M29.9136 13.3334C29.9136 13.3334 27.7287 15.1415 25.8135 15.8031C24.3226 16.3179 24.362 17.7189 24.362 17.7189L24.368 25.2986C24.368 25.2986 24.0135 26.7505 27.0741 28.3939C27.0741 28.3939 27.953 26.8403 29.2075 25.577C29.2075 25.577 29.4106 27.4959 31.447 28.2443C31.447 28.2443 32.0318 26.6667 33.3076 25.7297C32.7319 25.4752 31.947 25.1699 31.944 23.9635L31.9228 16.5514C31.9228 16.5514 31.8591 16.2671 32.4288 15.6594L29.9136 13.3334ZM27.9196 15.3121C27.2802 15.6145 27.0923 16.2012 27.1135 16.7849V24.0353C27.0923 24.6879 27.4923 25.4603 28.1802 25.4603C29.1257 25.4603 29.1318 24.4095 29.1318 24.4095L29.1257 16.8777C29.1257 16.8777 29.1984 16.1533 27.9196 15.3121Z" fill="#111827"/>
<path d="M36.6986 13.4244C35.7471 14.7834 34.4531 16.2922 34.4531 16.2922C34.4531 16.2922 35.8259 16.4718 35.7713 17.4597L35.7895 24.5694C35.7804 25.659 35.0925 25.7129 35.0925 25.7129C35.0925 25.7129 36.4168 26.7816 37.2926 28.3532C37.2926 28.3532 38.2532 26.6888 39.2957 25.68C39.2957 25.68 38.5926 25.7129 38.5926 24.4945L38.5714 17.4806C38.5896 17.0615 39.1381 16.382 39.6139 16.382C40.5866 16.382 40.7715 17.1543 40.7503 17.765V25.0334C40.729 26.0182 40.7321 27.0091 42.6776 28.3203C42.6776 28.3203 43.6837 26.7277 44.9413 25.671C44.9413 25.671 43.5988 25.8057 43.5988 24.3059L43.5837 16.9687C43.5837 16.9687 43.5837 15.9958 43.9382 15.7593C43.9382 15.7593 42.5321 14.7176 41.4472 13.3705L38.6441 16.4508C38.1472 13.7926 36.6986 13.4244 36.6986 13.4244Z" fill="#111827"/>
<path fill-rule="evenodd" clip-rule="evenodd" d="M52.2518 8.16067C51.976 7.82839 51.6063 8.33131 51.6063 8.33131L50.1669 10.0736L50.1548 9.13059C50.1245 8.36424 50.4578 7.58292 51.2275 6.98421C51.2275 6.98421 49.0244 6.78963 48.3183 9.46886C48.3183 9.46886 47.482 8.95696 46.9395 9.00785C47.1092 9.34612 47.1153 9.85502 47.1153 9.85502V13.8424L46.3789 13.8364V15.1207L47.1486 15.1147L47.1335 24.5564C47.1395 25.4245 46.4759 25.67 46.4759 25.67C46.4759 25.67 47.8759 26.6369 48.8032 28.5677C48.8032 28.5677 49.6093 26.7746 51.6124 25.7867C51.6124 25.7867 50.1729 25.4963 50.1487 24.3857L50.1548 15.1177L51.4275 15.1207V13.8364L50.1729 13.8394L50.1699 13.6239L51.9366 12.0942C53.7973 10.2831 52.7851 8.475 52.2518 8.16067ZM50.1457 10.4747V13.3066C50.1457 13.3066 52.0942 11.8727 50.1457 10.4747Z" fill="#111827"/>
<path d="M59.0512 6.42322C59.0512 6.42322 57.7966 10.1173 54.1723 10.2849L54.1844 13.6227H53.3086V15.0027L54.1571 15.0057L54.1723 33.6975H54.7783V30.1262C54.7783 30.1262 54.7208 28.5725 55.6905 28.4049L56.5208 28.2821C56.5208 28.2821 57.2299 28.2911 57.2117 27.5188L57.1966 15.0207L58.6724 15.0117V13.6287L57.2511 13.6227L57.2481 9.41976C57.2481 9.41976 60.8512 12.4343 62.1422 6.71659C62.1422 6.71659 60.6876 9.04257 59.0512 6.42322Z" fill="#111827"/>
<path d="M62.2281 13.3415C61.1645 14.9341 59.9766 15.7334 59.9766 15.7334C59.9766 15.7334 60.9463 15.9219 60.9675 16.9847L61.016 24.9685C61.019 25.8096 60.4705 25.9833 60.4705 25.9833C61.5402 26.8424 62.8463 28.4679 62.8463 28.4679C62.8463 28.4679 65.0525 25.8575 66.1434 25.178C65.7525 27.055 68.1465 28.3931 68.1465 28.3931L70.0677 25.7617C70.0677 25.7617 69.0435 25.5043 68.998 24.4057L68.9768 16.832C68.998 15.9668 69.5465 15.5448 69.5465 15.5448C68.0737 14.6317 67.604 13.2008 67.604 13.2008C66.8192 14.8443 65.4191 15.7573 65.4191 15.7573C65.4191 15.7573 66.0646 16.1794 66.0646 16.7871L66.0798 24.0824C66.0858 24.6452 65.71 25.4414 64.9009 25.4414C64.2373 25.4414 63.907 24.6452 63.8585 24.2949L63.813 16.2542C63.813 14.4491 62.2281 13.3415 62.2281 13.3415Z" fill="#111827"/>
<path d="M71.5273 16.1115L73.5153 13.3545C73.5153 13.3545 74.7971 13.8244 75.4487 15.5637L76.6638 13.3275C76.6638 13.3275 77.5063 14.9231 78.7366 13.4652C78.7366 13.4652 78.876 17.0216 76.9154 17.0395C76.1214 17.0455 75.5487 16.3211 75.5487 16.3211L75.5456 24.2929C75.5456 24.2929 75.3517 25.8495 77.1608 25.7507C77.1608 25.7507 75.5123 26.9242 74.7305 28.421C73.5698 27.017 71.9698 25.9393 71.9698 25.9393C71.9698 25.9393 72.7304 25.7388 72.7698 24.8706L72.7425 17.4436C72.7425 17.4436 72.8334 16.3181 71.5273 16.1115Z" fill="#111827"/>
<path d="M80.4086 13.7773L79.8116 13.7713L79.8086 15.2292L80.4298 15.2232L80.4632 25.0301C80.4935 25.6856 79.9904 26.0149 79.9904 26.0149C79.9904 26.0149 81.1389 26.895 82.2086 28.2302C83.3238 26.6705 84.9027 25.8293 84.9027 25.8293C84.9027 25.8293 83.3238 25.6617 83.3238 24.7247L83.3026 15.2052L84.8511 15.2142L84.8451 13.7713L83.3238 13.7773L83.3087 9.43066L80.4207 10.4694L80.4086 13.7773Z" fill="#111827"/>
<path fill-rule="evenodd" clip-rule="evenodd" d="M91.7786 13.2808C90.7058 14.3614 89.8786 14.4213 89.1816 14.7835C87.9846 15.4092 86.3209 15.8373 86.336 18.0465L86.3451 24.5934C86.3694 27.3774 88.7058 27.569 90.1149 28.3263C91.0604 26.5572 93.1029 25.1053 93.1029 25.1053L92.7908 24.9167C92.7908 24.9167 92.0544 25.704 91.0816 25.6651C89.2785 25.5962 89.2604 23.7372 89.2604 23.7372V20.8874C89.2604 20.8874 91.6331 19.8875 92.8877 18.5734C93.4271 18.0046 93.6211 17.6244 93.6453 16.8281C93.6877 15.4571 92.5544 14.5261 91.7786 13.2808ZM89.5998 15.1577C89.5998 15.1577 89.2361 15.3613 89.2604 16.9748L89.2573 20.6329C89.2573 20.6329 93.0908 19.1212 89.5998 15.1577Z" fill="#111827"/>
<path d="M94.2188 15.699C95.1491 14.9745 96.3703 13.1604 96.3703 13.1604C96.3703 13.1604 97.4673 13.5496 98.2734 15.4325C98.934 14.5854 99.5977 13.1395 99.5977 13.1395C99.5977 13.1395 100.816 15.2379 102.213 13.1365C102.213 13.1365 101.916 16.6868 99.8613 16.8784C99.0704 16.9533 98.3492 15.9384 98.3492 15.9384V24.0719C98.3492 25.4011 99.9886 25.6166 99.9886 25.6166C99.9886 25.6166 98.3007 26.5356 97.4673 28.227C96.3067 26.823 94.9733 25.7393 94.9733 25.7393C94.9733 25.7393 95.4703 25.6435 95.5067 24.7754L95.5158 17.0161C95.5158 15.5672 94.2188 15.699 94.2188 15.699Z" fill="#111827"/>
<path fill-rule="evenodd" clip-rule="evenodd" d="M111.325 10.9633C111.325 10.9633 110.403 11.586 109.67 11.586C108.97 11.586 108.416 10.9843 108.419 10.3706C108.422 9.47252 109.397 9.02049 110.306 9.02049C112.155 9.02049 112.531 11.553 112.531 11.553L108.2 23.8476C106 23.8715 104.152 25.9999 104.176 28.5714C104.2 31.2356 106.425 33.1335 109.337 33.1156C113.816 33.0886 115.14 28.9007 115.14 28.9007C114.264 29.8107 113.425 31.8373 109.243 31.8194C107.149 31.8104 104.867 30.9572 104.818 29.1581C104.791 28.1523 105.888 27.1225 107.206 27.1225C108.77 27.1225 109.716 28.1972 109.716 28.1972L112.922 24.8115L112.673 24.5421L111.894 25.3054C110.734 24.0601 108.885 23.8625 108.885 23.8625L110.216 20.0128L114.513 20.0188L115.985 26.1855C116.44 27.802 117.316 27.3829 118.795 28.4726L120.425 25.2006C120.425 25.2006 119.161 25.5329 118.761 24.105L115.31 9.58328C115.31 9.58328 114.616 6.00299 111.088 6C109.061 6 107.234 7.35907 107.234 9.44258C107.234 10.7837 108.343 11.9691 109.691 11.9691C110.758 11.9691 111.325 10.9633 111.325 10.9633ZM112.791 12.6307L110.594 18.983L114.267 18.992L112.791 12.6307Z" fill="#111827"/>
<path d="M121.724 24.5505C121.754 25.2091 120.797 25.5084 120.797 25.5084C120.797 25.5084 122.148 26.7478 123.312 28.4152C124.252 26.5442 125.818 25.7419 125.818 25.7419C125.818 25.7419 124.667 25.6611 124.667 24.7241V7.52319L121.724 8.90621V24.5505Z" fill="#111827"/>
<path d="M128.094 24.4697C128.091 25.2271 127.461 25.6072 127.461 25.6072C127.461 25.6072 128.776 26.9124 129.737 28.4391C130.719 26.4664 132.297 25.73 132.297 25.73C132.297 25.73 131.028 25.6611 131.028 24.7241V7.26575L128.094 8.9122V24.4697Z" fill="#111827"/>
<path fill-rule="evenodd" clip-rule="evenodd" d="M139.955 13.1072C136.607 15.493 134.301 14.8913 134.273 17.1634L134.301 25.243C134.295 26.7248 135.501 27.5211 136.801 28.3653L139.158 25.6023L139.164 27.132C139.146 28.9251 140.495 28.8293 140.474 30.5596C140.458 31.8468 139.425 32.4605 138.389 32.4545C136.549 32.4455 136.086 31.4157 136.086 31.4157C136.086 31.4157 136.116 31.5654 136.583 31.5564C137.489 31.5385 138.058 31.0296 138.055 30.1704C138.049 29.3472 137.395 28.7844 136.58 28.7994C135.719 28.8143 135.089 29.4609 135.092 30.1824C135.098 31.3319 135.786 32.8526 138.595 32.8407C141.395 32.8317 143.31 30.7482 143.31 29.1137C143.31 27.8384 142.104 27.5391 142.104 26.0603L142.031 16.1816C142.025 15.5918 142.528 15.1129 142.528 15.1129C141.001 14.2627 139.955 13.1072 139.955 13.1072ZM139.128 16.3971L137.661 14.9273C137.661 14.9273 137.183 15.2057 137.18 16.4031L137.195 24.3629C137.237 25.2101 137.534 25.5783 138.246 25.5574C138.907 25.5364 139.143 25.1832 139.143 24.3001L139.128 16.3971Z" fill="#111827"/>
<path fill-rule="evenodd" clip-rule="evenodd" d="M150.786 13.0974C150.008 13.7051 148.447 14.5523 147.704 14.8067C145.053 15.7228 145.02 16.082 145.02 18.0428L145.023 24.7094C145.023 27.697 147.374 27.2539 148.886 28.3316C149.223 26.8408 151.326 25.0956 151.326 25.0956L151.208 24.9638C151.208 24.9638 150.644 25.4398 149.671 25.4009C147.868 25.3321 147.892 23.7335 147.892 23.7335V21.1471C147.892 21.1471 149.977 19.9826 151.411 18.6475C151.983 18.1146 152.144 17.6207 152.168 16.8244C152.211 15.4533 151.426 15.127 150.786 13.0974ZM148.283 14.9863C148.283 14.9863 147.868 15.3575 147.892 16.9711L147.889 20.8417C147.889 20.8417 151.471 19.6204 148.283 14.9863Z" fill="#111827"/>
<path d="M155.519 13.0818L153.18 15.8329C153.18 15.8329 154.543 15.9257 154.543 16.8656L154.58 24.58C154.565 25.5918 154.125 25.8253 154.125 25.8253C154.125 25.8253 155.28 26.8312 156.186 28.3609C156.846 26.8791 158.198 25.6607 158.198 25.6607C158.198 25.6607 157.592 25.1368 157.565 24.3914L157.54 17.3835C157.665 16.7369 158.086 16.4106 158.492 16.3956C159.004 16.3807 159.419 16.7848 159.447 17.2907L159.495 24.5411C159.495 25.2326 159.062 25.5679 159.062 25.5679C159.062 25.5679 160.144 26.906 160.889 28.4267C161.707 26.6366 163.047 25.6517 163.047 25.6517C163.047 25.6517 162.325 25.0949 162.325 24.134L162.304 17.1261C162.419 16.5034 162.725 16.246 163.207 16.1622C163.701 16.0753 164.135 16.4495 164.228 16.9375L164.289 25.4392C164.289 26.8401 165.474 27.5197 166.707 28.2561C167.271 26.6785 168.689 25.4422 168.689 25.4422C168.689 25.4422 167.083 25.6098 167.083 24.1519L167.044 16.1861C167.062 15.5275 167.61 15.1503 167.61 15.1503C166.11 14.4917 164.916 13.1027 164.916 13.1027L162.253 16.3088C162.374 14.6324 160.398 13.1506 160.398 13.1506L157.516 16.6112C157.304 13.6476 155.519 13.0818 155.519 13.0818Z" fill="#111827"/>
<path fill-rule="evenodd" clip-rule="evenodd" d="M175.674 13.0662C171.58 16.1795 170.371 15.6885 170.371 17.2452L170.374 25.4864C170.374 27.3095 171.941 27.2676 173.45 28.3452C174.162 27.0071 175.514 25.8875 176.692 25.0703L176.547 24.9146C176.547 24.9146 175.877 25.4475 174.902 25.4295C172.908 25.3936 173.123 23.7352 173.123 23.7352L173.126 21.0949C173.126 21.0949 174.683 20.2716 176.174 18.9874C176.768 18.4755 177.202 17.6553 177.238 16.856C177.311 15.3832 176.408 15.0299 175.674 13.0662ZM173.214 15.1257C173.214 15.1257 173.101 15.3592 173.123 16.9727L173.12 20.7386C173.547 20.4812 176.48 18.9844 173.214 15.1257Z" fill="#111827"/>
<path fill-rule="evenodd" clip-rule="evenodd" d="M202.546 12.9668C200.088 15.4455 196.985 15.2658 196.934 17.7206L196.949 25.4858C197.009 26.9437 198.318 27.2251 199.831 28.3028C201.046 26.5366 202.534 25.6924 203.71 24.8751L203.564 24.7195C203.564 24.7195 202.382 25.6325 201.406 25.6146C199.412 25.5786 199.697 23.7346 199.697 23.7346V20.8847C199.697 20.8847 200.967 20.2741 202.749 19.0138C203.388 18.5588 203.955 17.9032 203.994 17.1069C204.064 15.6341 203.297 15.4455 202.546 12.9668ZM200.012 15.0084C200.012 15.0084 199.673 15.3586 199.697 16.9722L199.694 20.6033C201.406 19.8669 202.288 17.053 200.012 15.0084Z" fill="#111827"/>
<path d="M186.716 13.1696L184.773 15.726C184.773 15.726 186.225 15.9296 186.17 16.9265L186.198 24.7187C186.225 25.0779 185.68 25.5898 185.68 25.5898C185.68 25.5898 186.925 26.895 187.413 28.2511C188.346 26.8172 189.692 25.5898 189.692 25.5898C189.692 25.5898 188.967 25.2066 188.967 24.4642V17.4114C189.174 16.7977 189.561 16.3906 190.052 16.3637C190.519 16.3397 191.061 16.7738 191.01 17.2587L191.034 24.9492C191.034 27.353 193.183 28.1972 193.183 28.1972L195.022 25.5629C195.022 25.5629 193.828 25.5629 193.804 24.6678L193.777 16.4625C193.855 15.726 194.271 15.3429 194.271 15.3429C192.849 14.7801 191.865 13.4749 191.865 13.4749L189.046 16.5433C188.916 13.7563 186.716 13.1696 186.716 13.1696Z" fill="#111827"/>
<path d="M180.817 13.1969C180.041 14.3464 178.387 15.5498 178.387 15.5498C178.387 15.5498 179.523 15.7085 179.523 16.6515V24.6173C179.547 25.2819 178.875 25.692 178.875 25.692C178.875 25.692 180.041 26.9193 180.79 28.2515C181.696 26.8684 182.941 25.665 182.941 25.665C182.941 25.665 182.29 25.2579 182.317 24.5933L182.293 16.5946C182.317 15.8522 182.914 15.472 182.914 15.472C181.802 14.5769 180.817 13.1969 180.817 13.1969Z" fill="#111827"/>
<path d="M179.27 8.82602C179.27 7.9519 179.988 7.24243 180.873 7.24243C181.757 7.24243 182.476 7.9519 182.476 8.82602C182.476 9.70014 181.757 10.4096 180.873 10.4096C179.988 10.4096 179.27 9.70014 179.27 8.82602Z" fill="#111827"/>
</svg>
