<svg width="106" height="40" viewBox="0 0 106 40" fill="none" xmlns="http://www.w3.org/2000/svg">
<path d="M57.5817 5.00658C57.7847 5.00602 57.7847 5.00602 57.9918 5.00544C58.2777 5.00487 58.5637 5.0046 58.8497 5.00462C59.2772 5.00437 59.7047 5.00232 60.1322 5.00016C61.9211 4.99595 63.6854 5.0746 65.4654 5.2525C65.5512 5.26082 65.637 5.26914 65.7254 5.27771C69.004 5.59929 72.4851 6.16197 75.4571 7.63454C75.6026 7.70446 75.748 7.77432 75.8935 7.84413C78.0777 8.9018 80.0079 10.1389 80.9204 12.4966C81.23 13.5954 81.0428 14.6663 80.5665 15.6881C79.3251 17.7335 77.26 18.5004 75.0535 19.0498C74.6821 19.105 74.3208 19.1016 73.9456 19.0981C73.8032 19.0971 73.6607 19.0961 73.514 19.095C73.4059 19.0937 73.2977 19.0924 73.1863 19.091C73.1488 18.7916 73.1113 18.4921 73.0727 18.1836C73.1494 18.1411 73.2261 18.0985 73.3051 18.0547C74.3208 17.4725 74.8505 16.8365 75.1775 15.7037C75.4729 14.3411 75.3076 12.8477 74.6047 11.6542C72.9489 9.13077 69.9536 7.86889 67.0931 7.26498C66.8651 7.21664 66.6377 7.16597 66.4103 7.11502C64.4839 6.69255 62.5855 6.57367 60.6157 6.57786C60.2653 6.57822 59.9149 6.57555 59.5645 6.57268C52.4875 6.55012 47.0753 9.91121 42.1721 14.7773C42.031 14.9179 41.89 15.0586 41.7491 15.1994C41.5355 15.4125 41.321 15.6246 41.1065 15.8368C40.3997 16.5398 39.731 17.2479 39.1107 18.0292C38.824 18.3877 38.5164 18.7224 38.201 19.0556C38.0835 19.181 37.9661 19.3066 37.8489 19.4322C37.7667 19.5202 37.7667 19.5202 37.6829 19.61C37.4956 19.8132 37.3157 20.0221 37.1366 20.2324C36.7404 20.6912 36.309 21.1123 35.8775 21.5375C35.5542 21.8576 35.2452 22.1821 34.9509 22.5294C34.6419 22.8904 34.3109 23.1962 33.9485 23.5029C33.6611 23.7525 33.3837 24.0106 33.1062 24.2712C32.3734 24.9592 31.6262 25.616 30.835 26.2372C30.7236 26.3252 30.6122 26.4132 30.4974 26.5039C28.9332 27.7239 27.3071 28.8368 25.612 29.867C28.5117 30.9696 32.5614 32.1013 35.6037 31.0013C35.7161 30.9614 35.8285 30.9214 35.9444 30.8803C38.5822 29.8618 39.8463 27.9677 41.1105 25.5637C41.1822 25.4279 41.2539 25.292 41.3257 25.1563C41.3785 25.0559 41.3785 25.0559 41.4323 24.9535C41.5393 24.7535 41.6506 24.5558 41.7618 24.3582C41.9728 23.9765 41.9728 23.9765 42.0828 23.5687C42.2496 23.1059 42.3576 22.9026 42.7569 22.6074C43.7679 22.374 44.8445 22.4808 45.8722 22.5223C46.164 22.5292 46.4557 22.5354 46.7475 22.5409C47.4614 22.5559 48.1747 22.5787 48.8882 22.6074C48.7443 23.0714 48.5715 23.4855 48.3391 23.9119C48.2751 24.0299 48.2111 24.148 48.1452 24.2696C48.0766 24.3948 48.008 24.5201 47.9373 24.6492C47.8307 24.8452 47.8307 24.8452 47.722 25.0451C47.576 25.3137 47.4296 25.5822 47.2829 25.8505C47.0907 26.2022 46.8989 26.5541 46.7074 26.9062C46.6226 27.0619 46.6226 27.0619 46.536 27.2208C46.4251 27.4244 46.3143 27.6281 46.2037 27.8319C45.9243 28.3451 45.6399 28.8546 45.3466 29.3601C45.2883 29.4619 45.23 29.5638 45.17 29.6687C45.0599 29.8608 44.9482 30.0519 44.8347 30.242C44.499 30.8311 44.3901 31.2299 44.46 31.9087C44.5982 32.0707 44.5982 32.0707 45.0065 32.0647C46.8404 32.0386 48.4697 30.5394 49.683 29.2998C51.1873 27.6947 52.1397 25.8022 53.0991 23.8488C53.1352 23.7753 53.1713 23.7018 53.2085 23.6261C53.3079 23.4233 53.4069 23.2203 53.5058 23.0173C53.657 22.7208 53.657 22.7208 53.7705 22.6074C53.9622 22.5968 54.1543 22.5941 54.3462 22.5945C54.469 22.5945 54.5917 22.5945 54.7182 22.5945C54.9185 22.5954 54.9185 22.5954 55.1228 22.5963C55.3267 22.5966 55.3267 22.5966 55.5347 22.5968C55.9709 22.5974 56.4071 22.5989 56.8433 22.6003C57.1381 22.6009 57.433 22.6014 57.7279 22.6019C58.4525 22.6031 59.1772 22.605 59.9018 22.6074C59.7672 23.0279 59.62 23.4279 59.429 23.8259C59.3836 23.9209 59.3383 24.016 59.2915 24.1139C59.2213 24.2595 59.2213 24.2595 59.1496 24.4081C59.1019 24.5078 59.0542 24.6076 59.005 24.7103C58.888 24.9548 58.7706 25.199 58.6528 25.4432C58.715 25.4004 58.7771 25.3576 58.8411 25.3136C61.4613 23.5181 63.8704 21.9161 67.1685 22.2671C67.9886 22.4314 68.5988 22.8444 69.0987 23.5148C69.5247 24.261 69.6413 24.9424 69.4394 25.7835C68.9881 27.0073 68.3295 28.156 67.7083 29.2998C67.6509 29.4064 67.5935 29.513 67.5343 29.6228C67.426 29.8225 67.3156 30.0212 67.203 30.2186C66.8743 30.817 66.757 31.2247 66.8279 31.9087C66.9661 32.0707 66.9661 32.0707 67.3743 32.0647C68.6484 32.0445 70.0336 31.2016 70.9154 30.3207C70.9615 30.1354 71.0005 29.9483 71.036 29.7606C71.3996 28.2381 72.1817 26.7516 73.1863 25.5566C73.309 25.4105 73.309 25.4105 73.4342 25.2615C74.8844 23.5993 76.7183 22.1918 78.9769 21.9268C79.4028 21.9056 79.8279 21.9007 80.2543 21.8985C80.4222 21.8949 80.4222 21.8949 80.5936 21.8914C81.8355 21.8848 82.958 22.1788 83.865 23.0607C84.427 23.6738 84.427 23.6738 84.427 24.082C84.5019 24.082 84.5768 24.082 84.654 24.082C84.6636 24.0063 84.6731 23.9305 84.6829 23.8525C84.7931 23.4132 84.9986 23.0443 85.2147 22.6499C85.8605 21.4493 86.4825 20.237 87.1036 19.0235C87.234 18.7689 87.3646 18.5143 87.4953 18.2598C87.5534 18.1459 87.5534 18.1459 87.6127 18.0298C87.65 17.9572 87.6872 17.8847 87.7256 17.81C87.7575 17.7477 87.7894 17.6854 87.8222 17.6213C88.0081 17.2755 88.206 16.9363 88.4009 16.5956C90.3868 16.5956 92.3726 16.5956 94.4187 16.5956C93.8325 17.8319 93.2507 19.0474 92.6073 20.2511C92.155 21.1031 91.7158 21.962 91.275 22.8201C91.0967 23.1669 90.9184 23.5137 90.7401 23.8605C90.696 23.9463 90.6518 24.0321 90.6064 24.1205C90.2172 24.8772 89.8268 25.6332 89.4355 26.3887C89.3314 26.59 89.2276 26.7915 89.1238 26.9929C88.8169 27.5874 88.508 28.1805 88.1889 28.7685C88.0825 28.9647 87.9769 29.1614 87.8713 29.358C87.7413 29.5998 87.6097 29.8408 87.4765 30.0808C87.1312 30.7262 86.9488 31.1741 87.0384 31.9087C87.1766 32.0707 87.1766 32.0707 87.5848 32.0647C88.9106 32.0437 90.0868 31.1704 91.0993 30.3938C91.3079 30.1163 91.3221 29.8464 91.3743 29.5054C91.6641 28.0474 92.3909 26.7598 93.3968 25.67C93.5329 25.5185 93.5329 25.5185 93.6718 25.3639C95.3761 23.5579 97.8928 22.1812 100.41 22.0202C100.78 22.0126 101.151 22.0079 101.522 22.0048C101.649 22.0015 101.776 21.9982 101.906 21.9948C103.049 21.9862 104.191 22.1979 105.092 22.9477C105.766 23.6561 105.935 24.0584 105.925 25.0506C105.842 25.8994 105.404 26.6096 104.776 27.1779C102.621 28.8319 99.8791 29.342 97.2572 29.7535C97.2524 29.9513 97.249 30.1491 97.2462 30.3468C97.2441 30.457 97.242 30.5671 97.2399 30.6806C97.2772 31.3705 97.5999 31.8373 98.1017 32.2915C99.0125 33.0473 100.229 32.8991 101.345 32.8162C102.784 32.6295 104.19 32.0273 105.474 31.3739C105.773 31.2281 105.773 31.2281 106 31.2281C106 31.6025 106 31.9768 106 32.3624C102.816 34.3135 98.6576 35.8183 94.8799 35.0706C94.1702 34.8808 93.5587 34.5734 92.9426 34.1773C92.875 34.1343 92.8074 34.0914 92.7377 34.0471C92.0583 33.5512 91.6251 32.6882 91.353 31.9087C91.353 31.7964 91.353 31.6841 91.353 31.5684C91.2715 31.6358 91.19 31.7032 91.106 31.7727C88.9 33.5546 86.0056 35.2686 83.0644 34.9713C82.3553 34.7783 81.8755 34.3272 81.4749 33.7236C81.2441 33.2076 81.1919 32.6931 81.1342 32.1356C81.0707 32.1906 81.0072 32.2455 80.9417 32.3022C79.153 33.7961 76.7475 35.1062 74.3656 35.021C73.3208 34.8861 72.5243 34.442 71.814 33.6718C71.3606 33.07 71.029 32.4412 71.029 31.6819C70.9353 31.7519 70.8416 31.8219 70.7451 31.8941C69.7475 32.6291 68.7195 33.261 67.6227 33.837C67.5182 33.893 67.4137 33.949 67.306 34.0067C65.7265 34.7908 63.6826 35.342 61.9456 34.8366C61.2815 34.568 60.6429 34.1912 60.3196 33.5238C59.859 32.0085 60.5692 30.8275 61.2643 29.5267C61.3675 29.3279 61.4704 29.1289 61.573 28.9298C62.3012 27.5255 62.3012 27.5255 62.5993 27.0596C62.8291 26.6437 62.8337 26.2443 62.7404 25.7835C62.4369 25.4803 62.2251 25.4502 61.8036 25.3935C61.2525 25.4578 60.8419 25.6365 60.356 25.8969C60.278 25.9384 60.1999 25.9799 60.1196 26.0227C57.1034 27.834 55.3791 31.7093 53.7705 34.6311C51.7472 34.6311 49.7239 34.6311 47.6392 34.6311C47.8016 34.1445 47.9516 33.7578 48.1865 33.3133C48.2776 33.14 48.2776 33.14 48.3706 32.9633C48.4337 32.8445 48.4968 32.7258 48.5618 32.6035C48.6257 32.4821 48.6897 32.3608 48.7556 32.2357C48.9129 31.9374 49.0706 31.6394 49.2288 31.3416C49.0069 31.3416 48.813 31.5902 48.654 31.7244C46.3166 33.6018 43.2172 35.2206 40.1454 34.9713C39.276 34.8029 38.6085 34.4078 38.052 33.7236C37.7443 33.1324 37.8432 32.4408 37.8746 31.7953C37.8746 31.683 37.8746 31.5707 37.8746 31.455C37.7783 31.5264 37.682 31.5977 37.5827 31.6712C34.448 33.9679 30.8671 35.4388 26.9102 34.9106C26.4354 34.8359 25.9669 34.7383 25.4985 34.6311C25.4202 34.6135 25.3419 34.5959 25.2612 34.5777C23.692 34.2197 22.1696 33.7356 20.7146 33.0408C20.2732 32.8318 20.0612 32.8017 19.5943 32.9296C19.2812 33.0448 18.9733 33.172 18.6646 33.2982C17.276 33.8499 15.8592 34.2255 14.3997 34.5389C14.318 34.5565 14.2364 34.574 14.1522 34.5921C12.7923 34.8717 11.4637 35.009 10.0779 35.0009C9.82981 34.9997 9.58183 35.0009 9.33376 35.0024C8.30733 35.0034 7.32363 34.9194 6.30981 34.7445C6.17698 34.7231 6.17698 34.7231 6.04147 34.7013C4.09539 34.3823 1.66463 33.9349 0.405603 32.249C-0.0765473 31.5754 -0.0381767 30.8929 0.0649764 30.0938C0.461921 28.9154 1.52437 28.2835 2.5771 27.7331C3.44243 27.307 4.35871 27.0805 5.30212 26.9036C5.39696 26.8844 5.4918 26.8653 5.58952 26.8455C7.12696 26.5527 8.69569 26.5538 10.2554 26.5562C10.3903 26.5564 10.3903 26.5564 10.5279 26.5565C13.3014 26.5636 15.8671 27.0066 18.5396 27.7558C19.0816 27.9053 19.598 28.0356 20.162 28.0521C20.4553 27.8777 20.4553 27.8777 20.6729 27.5984C20.759 27.503 20.845 27.4077 20.9337 27.3095C21.0163 27.2176 21.0988 27.1258 21.1839 27.0312C21.3234 26.9056 21.4653 26.7825 21.6096 26.6625C22.5298 25.8723 23.3884 24.9934 24.1732 24.0696C24.4696 23.7347 24.7907 23.4255 25.1117 23.1143C25.4098 22.8088 25.6877 22.4898 25.9675 22.1676C26.3815 21.6979 26.8156 21.2468 27.2464 20.7925C27.6685 20.3455 28.0787 19.8908 28.4819 19.4268C28.7993 19.0663 29.1288 18.7174 29.4583 18.3679C29.9134 17.8835 30.365 17.3973 30.8066 16.9004C31.5947 16.0211 32.4326 15.2039 33.3329 14.4404C33.4361 14.3499 33.5393 14.2594 33.6456 14.1661C38.2954 10.1152 44.0506 7.3731 50.0236 5.93308C50.1322 5.9056 50.1322 5.9056 50.243 5.87756C51.071 5.6786 51.9155 5.57101 52.7581 5.45302C53.0244 5.41569 53.2907 5.37768 53.557 5.33957C53.7297 5.31508 53.9025 5.29064 54.0752 5.26623C54.192 5.24957 54.192 5.24957 54.3112 5.23257C55.4047 5.0802 56.477 5.00768 57.5817 5.00658Z" fill="#111827"/>
<path d="M57.5817 5.00658C57.7847 5.00602 57.7847 5.00602 57.9918 5.00544C58.2777 5.00487 58.5637 5.0046 58.8497 5.00462C59.2772 5.00437 59.7047 5.00232 60.1322 5.00016C61.9211 4.99595 63.6854 5.0746 65.4654 5.2525C65.5512 5.26082 65.637 5.26914 65.7254 5.27771C69.004 5.59929 72.4851 6.16197 75.4571 7.63454C75.6026 7.70446 75.748 7.77432 75.8935 7.84413C78.0777 8.9018 80.0079 10.1389 80.9204 12.4966C81.23 13.5954 81.0428 14.6663 80.5665 15.6881C79.3251 17.7335 77.26 18.5004 75.0535 19.0498C74.6821 19.105 74.3208 19.1016 73.9456 19.0981C73.8032 19.0971 73.6607 19.0961 73.514 19.095C73.4059 19.0937 73.2977 19.0924 73.1863 19.091C73.1488 18.7916 73.1113 18.4921 73.0727 18.1836C73.1494 18.1411 73.2261 18.0985 73.3051 18.0547C74.3208 17.4725 74.8505 16.8365 75.1775 15.7037C75.4729 14.3411 75.3076 12.8477 74.6047 11.6542C72.9489 9.13077 69.9536 7.86889 67.0931 7.26498C66.8651 7.21664 66.6377 7.16597 66.4103 7.11502C64.4839 6.69255 62.5855 6.57367 60.6157 6.57786C60.2653 6.57822 59.9149 6.57555 59.5645 6.57268C52.4875 6.55012 47.0753 9.91121 42.1721 14.7773C42.031 14.9179 41.89 15.0586 41.7491 15.1994C41.5355 15.4125 41.321 15.6246 41.1065 15.8368C40.3997 16.5398 39.731 17.2479 39.1107 18.0292C38.824 18.3877 38.5164 18.7224 38.201 19.0556C38.0835 19.181 37.9661 19.3066 37.8489 19.4322C37.7667 19.5202 37.7667 19.5202 37.6829 19.61C37.4956 19.8132 37.3157 20.0221 37.1366 20.2324C36.7404 20.6912 36.309 21.1123 35.8775 21.5375C35.5542 21.8576 35.2452 22.1821 34.9509 22.5294C34.6419 22.8904 34.3109 23.1962 33.9485 23.5029C33.6611 23.7525 33.3837 24.0106 33.1062 24.2712C32.3734 24.9592 31.6262 25.616 30.835 26.2372C30.7236 26.3252 30.6122 26.4132 30.4974 26.5039C28.9332 27.7239 27.3071 28.8368 25.612 29.867C28.5117 30.9696 32.5614 32.1013 35.6037 31.0013C35.7161 30.9614 35.8285 30.9214 35.9444 30.8803C38.5822 29.8618 39.8463 27.9677 41.1105 25.5637C41.1822 25.4279 41.2539 25.292 41.3257 25.1563C41.3785 25.0559 41.3785 25.0559 41.4323 24.9535C41.5393 24.7535 41.6506 24.5558 41.7618 24.3582C41.9728 23.9765 41.9728 23.9765 42.0828 23.5687C42.2496 23.1059 42.3576 22.9026 42.7569 22.6074C43.7679 22.374 44.8445 22.4808 45.8722 22.5223C46.164 22.5292 46.4557 22.5354 46.7475 22.5409C47.4614 22.5559 48.1747 22.5787 48.8882 22.6074C48.7443 23.0714 48.5715 23.4855 48.3391 23.9119C48.2751 24.0299 48.2111 24.148 48.1452 24.2696C48.0766 24.3948 48.008 24.5201 47.9373 24.6492C47.8307 24.8452 47.8307 24.8452 47.722 25.0451C47.576 25.3137 47.4296 25.5822 47.2829 25.8505C47.0907 26.2022 46.8989 26.5541 46.7074 26.9062C46.6226 27.0619 46.6226 27.0619 46.536 27.2208C46.4251 27.4244 46.3143 27.6281 46.2037 27.8319C45.9243 28.3451 45.6399 28.8546 45.3466 29.3601C45.2883 29.4619 45.23 29.5638 45.17 29.6687C45.0599 29.8608 44.9482 30.0519 44.8347 30.242C44.499 30.8311 44.3901 31.2299 44.46 31.9087C44.5982 32.0707 44.5982 32.0707 45.0065 32.0647C46.8404 32.0386 48.4697 30.5394 49.683 29.2998C51.1873 27.6947 52.1397 25.8022 53.0991 23.8488C53.1352 23.7753 53.1713 23.7018 53.2085 23.6261C53.3079 23.4233 53.4069 23.2203 53.5058 23.0173C53.657 22.7208 53.657 22.7208 53.7705 22.6074C53.9622 22.5968 54.1543 22.5941 54.3462 22.5945C54.469 22.5945 54.5917 22.5945 54.7182 22.5945C54.9185 22.5954 54.9185 22.5954 55.1228 22.5963C55.3267 22.5966 55.3267 22.5966 55.5347 22.5968C55.9709 22.5974 56.4071 22.5989 56.8433 22.6003C57.1381 22.6009 57.433 22.6014 57.7279 22.6019C58.4525 22.6031 59.1772 22.605 59.9018 22.6074C59.7672 23.0279 59.62 23.4279 59.429 23.8259C59.3836 23.9209 59.3383 24.016 59.2915 24.1139C59.2213 24.2595 59.2213 24.2595 59.1496 24.4081C59.1019 24.5078 59.0542 24.6076 59.005 24.7103C58.888 24.9548 58.7706 25.199 58.6528 25.4432C58.715 25.4004 58.7771 25.3576 58.8411 25.3136C61.4613 23.5181 63.8704 21.9161 67.1685 22.2671C67.9886 22.4314 68.5988 22.8444 69.0987 23.5148C69.5247 24.261 69.6413 24.9424 69.4394 25.7835C68.9881 27.0073 68.3295 28.156 67.7083 29.2998C67.6509 29.4064 67.5935 29.513 67.5343 29.6228C67.426 29.8225 67.3156 30.0212 67.203 30.2186C66.8743 30.817 66.757 31.2247 66.8279 31.9087C66.9661 32.0707 66.9661 32.0707 67.3743 32.0647C68.6484 32.0445 70.0336 31.2016 70.9154 30.3207C70.9615 30.1354 71.0005 29.9483 71.036 29.7606C71.3996 28.2381 72.1817 26.7516 73.1863 25.5566C73.309 25.4105 73.309 25.4105 73.4342 25.2615C74.8844 23.5993 76.7183 22.1918 78.9769 21.9268C79.4028 21.9056 79.8279 21.9007 80.2543 21.8985C80.4222 21.8949 80.4222 21.8949 80.5936 21.8914C81.8355 21.8848 82.958 22.1788 83.865 23.0607C84.427 23.6738 84.427 23.6738 84.427 24.082C84.5019 24.082 84.5768 24.082 84.654 24.082C84.6636 24.0063 84.6731 23.9305 84.6829 23.8525C84.7931 23.4132 84.9986 23.0443 85.2147 22.6499C85.8605 21.4493 86.4825 20.237 87.1036 19.0235C87.234 18.7689 87.3646 18.5143 87.4953 18.2598C87.5534 18.1459 87.5534 18.1459 87.6127 18.0298C87.65 17.9572 87.6872 17.8847 87.7256 17.81C87.7575 17.7477 87.7894 17.6854 87.8222 17.6213C88.0081 17.2755 88.206 16.9363 88.4009 16.5956C90.3868 16.5956 92.3726 16.5956 94.4187 16.5956C93.8325 17.8319 93.2507 19.0474 92.6073 20.2511C92.155 21.1031 91.7158 21.962 91.275 22.8201C91.0967 23.1669 90.9184 23.5137 90.7401 23.8605C90.696 23.9463 90.6518 24.0321 90.6064 24.1205C90.2172 24.8772 89.8268 25.6332 89.4355 26.3887C89.3314 26.59 89.2276 26.7915 89.1238 26.9929C88.8169 27.5874 88.508 28.1805 88.1889 28.7685C88.0825 28.9647 87.9769 29.1614 87.8713 29.358C87.7413 29.5998 87.6097 29.8408 87.4765 30.0808C87.1312 30.7262 86.9488 31.1741 87.0384 31.9087C87.1766 32.0707 87.1766 32.0707 87.5848 32.0647C88.9106 32.0437 90.0868 31.1704 91.0993 30.3938C91.3079 30.1163 91.3221 29.8464 91.3743 29.5054C91.6641 28.0474 92.3909 26.7598 93.3968 25.67C93.5329 25.5185 93.5329 25.5185 93.6718 25.3639C95.3761 23.5579 97.8928 22.1812 100.41 22.0202C100.78 22.0126 101.151 22.0079 101.522 22.0048C101.649 22.0015 101.776 21.9982 101.906 21.9948C103.049 21.9862 104.191 22.1979 105.092 22.9477C105.766 23.6561 105.935 24.0584 105.925 25.0506C105.842 25.8994 105.404 26.6096 104.776 27.1779C102.621 28.8319 99.8791 29.342 97.2572 29.7535C97.2524 29.9513 97.249 30.1491 97.2462 30.3468C97.2441 30.457 97.242 30.5671 97.2399 30.6806C97.2772 31.3705 97.5999 31.8373 98.1017 32.2915C99.0125 33.0473 100.229 32.8991 101.345 32.8162C102.784 32.6295 104.19 32.0273 105.474 31.3739C105.773 31.2281 105.773 31.2281 106 31.2281C106 31.6025 106 31.9768 106 32.3624C102.816 34.3135 98.6576 35.8183 94.8799 35.0706C94.1702 34.8808 93.5587 34.5734 92.9426 34.1773C92.875 34.1343 92.8074 34.0914 92.7377 34.0471C92.0583 33.5512 91.6251 32.6882 91.353 31.9087C91.353 31.7964 91.353 31.6841 91.353 31.5684C91.2715 31.6358 91.19 31.7032 91.106 31.7727C88.9 33.5546 86.0056 35.2686 83.0644 34.9713C82.3553 34.7783 81.8755 34.3272 81.4749 33.7236C81.2441 33.2076 81.1919 32.6931 81.1342 32.1356C81.0707 32.1906 81.0072 32.2455 80.9417 32.3022C79.153 33.7961 76.7475 35.1062 74.3656 35.021C73.3208 34.8861 72.5243 34.442 71.814 33.6718C71.3606 33.07 71.029 32.4412 71.029 31.6819C70.9353 31.7519 70.8416 31.8219 70.7451 31.8941C69.7475 32.6291 68.7195 33.261 67.6227 33.837C67.5182 33.893 67.4137 33.949 67.306 34.0067C65.7265 34.7908 63.6826 35.342 61.9456 34.8366C61.2815 34.568 60.6429 34.1912 60.3196 33.5238C59.859 32.0085 60.5692 30.8275 61.2643 29.5267C61.3675 29.3279 61.4704 29.1289 61.573 28.9298C62.3012 27.5255 62.3012 27.5255 62.5993 27.0596C62.8291 26.6437 62.8337 26.2443 62.7404 25.7835C62.4369 25.4803 62.2251 25.4502 61.8036 25.3935C61.2525 25.4578 60.8419 25.6365 60.356 25.8969C60.278 25.9384 60.1999 25.9799 60.1196 26.0227C57.1034 27.834 55.3791 31.7093 53.7705 34.6311C51.7472 34.6311 49.7239 34.6311 47.6392 34.6311C47.8016 34.1445 47.9516 33.7578 48.1865 33.3133C48.2776 33.14 48.2776 33.14 48.3706 32.9633C48.4337 32.8445 48.4968 32.7258 48.5618 32.6035C48.6257 32.4821 48.6897 32.3608 48.7556 32.2357C48.9129 31.9374 49.0706 31.6394 49.2288 31.3416C49.0069 31.3416 48.813 31.5902 48.654 31.7244C46.3166 33.6018 43.2172 35.2206 40.1454 34.9713C39.276 34.8029 38.6085 34.4078 38.052 33.7236C37.7443 33.1324 37.8432 32.4408 37.8746 31.7953C37.8746 31.683 37.8746 31.5707 37.8746 31.455C37.7783 31.5264 37.682 31.5977 37.5827 31.6712C34.448 33.9679 30.8671 35.4388 26.9102 34.9106C26.4354 34.8359 25.9669 34.7383 25.4985 34.6311C25.4202 34.6135 25.3419 34.5959 25.2612 34.5777C23.692 34.2197 22.1696 33.7356 20.7146 33.0408C20.2732 32.8318 20.0612 32.8017 19.5943 32.9296C19.2812 33.0448 18.9733 33.172 18.6646 33.2982C17.276 33.8499 15.8592 34.2255 14.3997 34.5389C14.318 34.5565 14.2364 34.574 14.1522 34.5921C12.7923 34.8717 11.4637 35.009 10.0779 35.0009C9.82981 34.9997 9.58183 35.0009 9.33376 35.0024C8.30733 35.0034 7.32363 34.9194 6.30981 34.7445C6.17698 34.7231 6.17698 34.7231 6.04147 34.7013C4.09539 34.3823 1.66463 33.9349 0.405603 32.249C-0.0765473 31.5754 -0.0381767 30.8929 0.0649764 30.0938C0.461921 28.9154 1.52437 28.2835 2.5771 27.7331C3.44243 27.307 4.35871 27.0805 5.30212 26.9036C5.39696 26.8844 5.4918 26.8653 5.58952 26.8455C7.12696 26.5527 8.69569 26.5538 10.2554 26.5562C10.3903 26.5564 10.3903 26.5564 10.5279 26.5565C13.3014 26.5636 15.8671 27.0066 18.5396 27.7558C19.0816 27.9053 19.598 28.0356 20.162 28.0521C20.4553 27.8777 20.4553 27.8777 20.6729 27.5984C20.759 27.503 20.845 27.4077 20.9337 27.3095C21.0163 27.2176 21.0988 27.1258 21.1839 27.0312C21.3234 26.9056 21.4653 26.7825 21.6096 26.6625C22.5298 25.8723 23.3884 24.9934 24.1732 24.0696C24.4696 23.7347 24.7907 23.4255 25.1117 23.1143C25.4098 22.8088 25.6877 22.4898 25.9675 22.1676C26.3815 21.6979 26.8156 21.2468 27.2464 20.7925C27.6685 20.3455 28.0787 19.8908 28.4819 19.4268C28.7993 19.0663 29.1288 18.7174 29.4583 18.3679C29.9134 17.8835 30.365 17.3973 30.8066 16.9004C31.5947 16.0211 32.4326 15.2039 33.3329 14.4404C33.4361 14.3499 33.5393 14.2594 33.6456 14.1661C38.2954 10.1152 44.0506 7.3731 50.0236 5.93308C50.1322 5.9056 50.1322 5.9056 50.243 5.87756C51.071 5.6786 51.9155 5.57101 52.7581 5.45302C53.0244 5.41569 53.2907 5.37768 53.557 5.33957C53.7297 5.31508 53.9025 5.29064 54.0752 5.26623C54.192 5.24957 54.192 5.24957 54.3112 5.23257C55.4047 5.0802 56.477 5.00768 57.5817 5.00658Z" fill="#111827"/>
<path d="M10.9653 28.7323C11.0562 28.7622 11.1471 28.792 11.2408 28.8228C12.9737 29.4022 14.6389 30.1338 16.3018 30.8875C16.3018 30.9624 16.3018 31.0372 16.3018 31.1144C13.6286 32.7189 10.7412 33.7279 7.5803 33.0285C6.59999 32.7174 5.68475 32.2728 5.08369 31.4121C4.81511 30.8248 4.81174 30.2644 4.94753 29.6398C5.27109 28.9933 5.8317 28.5802 6.50918 28.3495C8.01499 28.0598 9.52351 28.2546 10.9653 28.7323Z" fill="#F9FAFB"/>
<path d="M82.6108 23.7417C82.9538 23.9399 83.2257 24.1764 83.4056 24.5357C83.6283 26.4794 82.7151 28.4287 81.5491 29.9541C80.844 30.8107 79.8991 31.9253 78.7397 32.0642C78.6121 32.0667 78.4844 32.0692 78.3529 32.0717C78.1615 32.0785 78.1615 32.0785 77.9662 32.0855C77.6149 32.0221 77.6149 32.0221 77.3448 31.7864C76.9404 31.0583 77.0708 29.977 77.2743 29.1863C77.7275 27.909 78.4753 26.7228 79.3181 25.67C79.3917 25.5777 79.4653 25.4855 79.5411 25.3904C80.2778 24.5146 81.3757 23.5025 82.6108 23.7417Z" fill="#F9FAFB"/>
<path d="M50.329 15.2981C50.8969 15.6563 51.3568 16.2032 51.6135 16.8223C51.7842 17.8193 51.4787 18.6038 50.9322 19.4312C50.3365 20.1566 49.4103 20.618 48.4866 20.7259C47.4591 20.7501 46.7057 20.6677 45.9505 19.9487C45.3748 19.3509 45.3179 18.8617 45.3194 18.0379C45.3389 17.3699 45.4909 16.9694 45.9363 16.482C46.0006 16.4099 46.0648 16.3379 46.131 16.2636C47.1716 15.1649 48.8809 14.6423 50.329 15.2981Z" fill="#111827"/>
<path d="M102.707 23.2878C103.012 23.4579 103.012 23.4579 103.161 23.7415C103.308 24.6831 102.874 25.3676 102.36 26.1306C101.141 27.4695 99.4299 28.1775 97.7115 28.619C97.6365 28.619 97.5616 28.619 97.4844 28.619C98.0624 26.5618 99.3446 24.6236 101.104 23.4012C101.64 23.2295 102.15 23.2121 102.707 23.2878Z" fill="#F9FAFB"/>
</svg>
