<svg width="218" height="40" viewBox="0 0 218 40" fill="none" xmlns="http://www.w3.org/2000/svg">
<path d="M55.7559 5.95117C62.7635 5.95117 69.7712 5.95117 76.9912 5.95117C76.9912 13.7508 76.9912 21.5505 76.9912 29.5865C78.969 29.5865 80.9467 29.5865 82.9844 29.5865C82.9844 21.7869 82.9844 13.9872 82.9844 5.95117C92.1896 5.95117 101.395 5.95117 110.879 5.95117C110.879 15.4706 110.879 24.9901 110.879 34.798C109.097 34.798 107.314 34.798 105.478 34.798C105.478 27.071 105.478 19.344 105.478 11.3829C103.5 11.3829 101.522 11.3829 99.4844 11.3829C99.4844 19.1099 99.4844 26.8369 99.4844 34.798C97.7019 34.798 95.9195 34.798 94.0831 34.798C94.0831 27.071 94.0831 19.344 94.0831 11.3829C92.1297 11.3829 90.1763 11.3829 88.1638 11.3829C88.1638 19.1341 88.1638 26.8853 88.1638 34.8714C82.7188 34.8714 77.2738 34.8714 71.6639 34.8714C71.6639 27.0475 71.6639 19.2237 71.6639 11.1627C69.7838 11.1627 67.9037 11.1627 65.9666 11.1627C65.967 11.8783 65.9674 12.5939 65.9678 13.3312C65.9689 15.6181 65.9698 17.905 65.9704 20.192C65.9705 20.5469 65.9705 20.9018 65.9706 21.2568C65.9707 21.3628 65.9707 21.3628 65.9707 21.4709C65.971 22.6167 65.9716 23.7624 65.9723 24.9082C65.973 26.0829 65.9734 27.2577 65.9735 28.4324C65.9736 29.1579 65.974 29.8834 65.9746 30.6089C65.975 31.1057 65.9751 31.6025 65.975 32.0993C65.9749 32.3864 65.975 32.6734 65.9754 32.9605C65.9758 33.271 65.9757 33.5814 65.9755 33.8919C65.9758 34.0295 65.9758 34.0295 65.9761 34.1699C65.976 34.2524 65.9758 34.3349 65.9757 34.4199C65.9757 34.4916 65.9757 34.5634 65.9758 34.6374C65.9666 34.798 65.9666 34.798 65.8926 34.8714C64.1834 34.8714 62.4742 34.8714 60.7132 34.8714C60.7132 27.0233 60.7132 19.1752 60.7132 11.0893C59.0773 11.0893 57.4414 11.0893 55.7559 11.0893C55.7559 9.39371 55.7559 7.69813 55.7559 5.95117Z" fill="#111827"/>
<path d="M6.03428 5.95117C8.45155 5.95117 10.8688 5.95117 13.3594 5.95117C13.3604 6.49501 13.3615 7.03884 13.3626 7.59916C13.3662 9.34202 13.3709 11.0849 13.3763 12.8277C13.3771 13.0988 13.378 13.3698 13.3788 13.6408C13.3789 13.6947 13.3791 13.7487 13.3793 13.8043C13.3819 14.6762 13.3837 15.5482 13.3853 16.4201C13.3869 17.3158 13.3893 18.2114 13.3926 19.1071C13.3945 19.6591 13.3958 20.2111 13.3963 20.7632C13.3967 21.1875 13.3983 21.6118 13.4004 22.0361C13.401 22.2094 13.4013 22.3827 13.4012 22.5561C13.4003 24.1968 13.5481 25.7329 14.7808 26.9601C15.7723 27.8098 16.8809 28.0333 18.1688 28.1185C18.1688 25.9384 18.1688 23.7584 18.1688 21.5123C18.8521 21.5123 19.4798 21.5145 20.148 21.6041C20.2232 21.6138 20.2984 21.6236 20.3759 21.6336C20.8644 21.6997 21.3485 21.7803 21.8313 21.8793C21.9141 21.8963 21.9141 21.8963 21.9986 21.9135C22.3714 21.9948 22.6879 22.1109 23.0521 22.2463C23.0521 16.8689 23.0521 11.4915 23.0521 5.95117C25.4694 5.95117 27.8867 5.95117 30.3772 5.95117C30.3772 11.3286 30.3772 16.706 30.3772 22.2463C26.8978 22.2827 26.8978 22.2827 23.3481 22.3197C23.9341 22.5741 23.9341 22.5741 24.532 22.8336C25.5688 23.3478 26.4247 23.9538 27.2696 24.742C27.3133 24.7806 27.357 24.8192 27.402 24.859C29.4164 26.7153 30.2414 29.6018 30.3772 32.229C30.3772 33.0768 30.3772 33.9245 30.3772 34.798C27.96 34.798 25.5427 34.798 23.0521 34.798C23.0277 33.9745 23.0033 33.1509 22.9782 32.3024C22.7734 31.0835 22.4156 30.0248 21.4243 29.2195C20.4218 28.5327 19.4526 28.2919 18.2427 28.1919C18.2427 30.3719 18.2427 32.5519 18.2427 34.798C16.5296 34.798 16.5296 34.798 15.9768 34.7063C15.881 34.6914 15.881 34.6914 15.7833 34.6763C14.2177 34.4249 12.757 34.0159 11.3616 33.2566C11.2592 33.2011 11.2592 33.2011 11.1547 33.1445C8.70101 31.7453 7.12989 29.4046 6.38916 26.737C6.0454 25.3755 5.99153 23.988 6.00068 22.5921C6.00076 22.4088 6.00071 22.2256 6.00055 22.0423C6.00048 21.6526 6.0013 21.2628 6.00299 20.8731C6.00542 20.3096 6.00616 19.7461 6.00653 19.1826C6.00718 18.2678 6.00913 17.3529 6.01195 16.4381C6.01468 15.5509 6.01677 14.6637 6.01802 13.7765C6.0181 13.7216 6.01818 13.6666 6.01826 13.61C6.01864 13.3343 6.01902 13.0585 6.01938 12.7828C6.02244 10.5056 6.02789 8.22838 6.03428 5.95117Z" fill="#111827"/>
<path d="M188.791 21.439C189.924 21.4345 191.056 21.4299 192.223 21.4252C192.755 21.4222 192.755 21.4222 193.298 21.4192C193.738 21.4182 193.738 21.4182 193.945 21.418C194.087 21.4176 194.229 21.4169 194.371 21.4158C195.807 21.4049 197.473 21.4176 198.632 22.3869C199.356 23.1348 199.48 23.9156 199.478 24.9104C199.46 25.7939 199.203 26.3686 198.585 27.0075C198.345 27.2228 198.102 27.3779 197.818 27.5313C198.007 27.6565 198.182 27.745 198.387 27.8387C199.222 28.2533 199.676 28.866 199.992 29.7288C200.281 30.7508 200.213 31.93 199.707 32.8725C198.987 33.9738 197.891 34.4983 196.634 34.7981C196.19 34.8647 195.759 34.8816 195.31 34.8798C195.202 34.8798 195.202 34.8799 195.092 34.8799C194.86 34.8798 194.629 34.8793 194.398 34.8787C194.255 34.8786 194.112 34.8785 193.968 34.8784C193.439 34.8781 192.909 34.877 192.38 34.8761C191.196 34.8746 190.011 34.8731 188.791 34.8715C188.791 30.4388 188.791 26.0061 188.791 21.439Z" fill="#111827"/>
<path d="M188.866 5.87783C190.125 5.87178 191.384 5.86572 192.681 5.85948C193.077 5.85681 193.472 5.85414 193.88 5.85138C194.368 5.85006 194.368 5.85006 194.597 5.84981C194.755 5.84936 194.913 5.84834 195.072 5.84684C196.473 5.83419 197.946 5.91112 199.034 6.92438C199.835 7.80031 200.162 8.78984 200.138 9.9608C200.086 10.907 199.679 11.7917 198.975 12.4335C198.688 12.6615 198.367 12.8318 198.041 12.9978C198.085 13.0147 198.128 13.0317 198.173 13.0491C198.549 13.2027 198.811 13.3446 199.077 13.6584C199.113 13.6999 199.15 13.7413 199.187 13.784C199.844 14.5781 199.958 15.5661 199.997 16.5578C200.018 17.0708 200.061 17.5733 200.14 18.0809C200.149 18.1367 200.157 18.1926 200.166 18.2502C200.175 18.3037 200.184 18.3572 200.193 18.4123C200.201 18.4583 200.208 18.5043 200.216 18.5517C200.283 18.8111 200.388 19.0596 200.483 19.3103C199.506 19.3103 198.529 19.3103 197.523 19.3103C197.371 18.8596 197.27 18.5421 197.218 18.09C197.212 18.0399 197.206 17.9899 197.2 17.9382C197.161 17.5978 197.139 17.2578 197.121 16.9156C197.068 16.0657 196.973 15.1216 196.316 14.5117C195.853 14.1137 195.242 14.1481 194.665 14.1418C194.593 14.1405 194.521 14.1392 194.446 14.1379C194.179 14.1333 193.911 14.1299 193.643 14.1263C192.743 14.1127 192.743 14.1127 191.826 14.0988C191.826 15.8186 191.826 17.5384 191.826 19.3103C190.849 19.3103 189.872 19.3103 188.866 19.3103C188.866 14.8776 188.866 10.4449 188.866 5.87783Z" fill="#111827"/>
<path d="M148.393 5.87769C149.369 5.87769 150.346 5.87769 151.352 5.87769C151.993 6.60002 151.993 6.60002 152.092 6.93312C152.231 7.3418 152.428 7.66839 152.67 8.02468C152.744 8.13993 152.818 8.25539 152.892 8.37105C152.93 8.43047 152.968 8.48989 153.007 8.55111C153.648 9.55461 154.278 10.5645 154.899 11.5803C155.237 12.1324 155.582 12.6794 155.932 13.2244C156.257 13.7346 156.579 14.2472 156.902 14.7593C156.926 11.8284 156.95 8.89743 156.976 5.87769C157.903 5.87769 158.831 5.87769 159.787 5.87769C159.787 10.3104 159.787 14.7431 159.787 19.3102C158.786 19.3102 157.785 19.3102 156.754 19.3102C156.119 18.6042 156.119 18.6042 156.021 18.2688C155.867 17.817 155.634 17.4558 155.366 17.0623C155.278 16.9268 155.191 16.7911 155.103 16.6551C155.037 16.551 155.037 16.551 154.968 16.4448C154.672 15.9794 154.383 15.5094 154.093 15.04C153.712 14.4238 153.327 13.8102 152.94 13.1975C152.589 12.6414 152.24 12.084 151.892 11.5258C151.838 11.438 151.838 11.438 151.782 11.3484C151.735 11.273 151.735 11.273 151.687 11.196C151.527 10.9398 151.365 10.6843 151.204 10.4286C151.18 13.3595 151.155 16.2904 151.13 19.3102C150.227 19.3102 149.323 19.3102 148.393 19.3102C148.393 14.8775 148.393 10.4447 148.393 5.87769Z" fill="#111827"/>
<path d="M201.592 5.87769C204.937 5.87769 208.282 5.87769 211.728 5.87769C211.728 6.70125 211.728 7.52482 211.728 8.37334C209.36 8.37334 206.991 8.37334 204.551 8.37334C204.551 9.31802 204.551 10.2627 204.551 11.236C206.724 11.236 208.897 11.236 211.136 11.236C211.136 12.0111 211.136 12.7862 211.136 13.5849C208.963 13.5849 206.79 13.5849 204.551 13.5849C204.551 14.6507 204.551 15.7164 204.551 16.8145C206.968 16.8145 209.386 16.8145 211.876 16.8145C211.876 17.6381 211.876 18.4617 211.876 19.3102C208.482 19.3102 205.088 19.3102 201.592 19.3102C201.592 14.8775 201.592 10.4447 201.592 5.87769Z" fill="#111827"/>
<path d="M136.11 5.87769C139.455 5.87769 142.8 5.87769 146.247 5.87769C146.247 6.70125 146.247 7.52482 146.247 8.37334C143.878 8.37334 141.51 8.37334 139.07 8.37334C139.07 9.31802 139.07 10.2627 139.07 11.236C141.243 11.236 143.416 11.236 145.655 11.236C145.655 12.0111 145.655 12.7862 145.655 13.5849C143.482 13.5849 141.309 13.5849 139.07 13.5849C139.07 14.6507 139.07 15.7164 139.07 16.8145C141.487 16.8145 143.904 16.8145 146.395 16.8145C146.395 17.6381 146.395 18.4617 146.395 19.3102C143.001 19.3102 139.607 19.3102 136.11 19.3102C136.11 14.8775 136.11 10.4447 136.11 5.87769Z" fill="#111827"/>
<path d="M180.209 21.4395C181.234 21.4395 182.26 21.4395 183.316 21.4395C183.923 23.007 184.522 24.5768 185.11 26.1516C185.298 26.6562 185.487 27.1607 185.675 27.6652C185.737 27.831 185.799 27.9968 185.861 28.1626C186.177 29.0065 186.494 29.8499 186.813 30.6926C186.834 30.7487 186.855 30.8047 186.877 30.8625C187.119 31.5035 187.363 32.1439 187.609 32.7837C187.658 32.912 187.707 33.0403 187.756 33.1686C187.849 33.4114 187.943 33.654 188.036 33.8965C188.078 34.0043 188.119 34.1121 188.16 34.2199C188.179 34.2693 188.199 34.3186 188.218 34.3694C188.348 34.7085 188.348 34.7085 188.348 34.872C187.322 34.872 186.297 34.872 185.24 34.872C185.082 34.4163 184.923 33.9606 184.759 33.4911C184.709 33.3475 184.659 33.2039 184.607 33.0559C184.568 32.9421 184.528 32.8282 184.489 32.7143C184.468 32.6553 184.447 32.5962 184.426 32.5353C184.406 32.4787 184.387 32.4221 184.367 32.3637C184.35 32.3147 184.332 32.2656 184.315 32.2151C184.278 32.0827 184.278 32.0827 184.278 31.8625C182.594 31.8625 180.909 31.8625 179.173 31.8625C179.1 32.1289 179.026 32.3954 178.951 32.6699C178.887 32.8577 178.821 33.0447 178.751 33.2305C178.719 33.3179 178.686 33.4053 178.653 33.4953C178.612 33.6029 178.572 33.7105 178.53 33.8214C178.4 34.1681 178.271 34.5148 178.137 34.872C177.16 34.872 176.184 34.872 175.177 34.872C175.228 34.5741 175.266 34.3625 175.37 34.092C175.394 34.0277 175.419 33.9634 175.444 33.8972C175.484 33.7933 175.484 33.7933 175.525 33.6872C175.553 33.6131 175.582 33.539 175.611 33.4626C175.705 33.2166 175.8 32.9708 175.894 32.725C175.961 32.5512 176.027 32.3775 176.094 32.2037C176.234 31.8371 176.375 31.4706 176.515 31.1041C176.728 30.5513 176.939 29.9982 177.15 29.4451C177.793 27.7616 178.437 26.0787 179.084 24.3966C179.463 23.4122 179.837 22.4265 180.209 21.4395Z" fill="#111827"/>
<path d="M173.846 5.95168C174.266 5.94987 174.686 5.94853 175.106 5.94764C175.249 5.94727 175.392 5.94677 175.535 5.94614C175.741 5.94525 175.946 5.94483 176.151 5.94451C176.247 5.94394 176.247 5.94394 176.346 5.94336C176.499 5.94335 176.652 5.94712 176.806 5.95168C176.926 6.07115 176.89 6.2044 176.89 6.36943C176.891 6.44392 176.891 6.51842 176.892 6.59517C176.892 6.6776 176.892 6.76004 176.892 6.84497C176.893 6.93126 176.893 7.01755 176.894 7.10646C176.895 7.34399 176.896 7.58151 176.897 7.81904C176.898 8.06776 176.9 8.31647 176.901 8.56519C176.907 9.41288 176.911 10.2606 176.915 11.1083C176.917 11.5761 176.92 12.0439 176.923 12.5117C176.924 12.7592 176.926 13.0066 176.926 13.254C176.927 13.5308 176.929 13.8075 176.931 14.0842C176.931 14.1655 176.931 14.2467 176.931 14.3304C176.937 14.9004 176.952 15.4863 177.296 15.9664C177.471 16.2158 177.471 16.2158 177.471 16.3747C177.529 16.402 177.529 16.402 177.587 16.4298C177.767 16.5215 177.767 16.5215 178.003 16.6683C178.793 17.1095 179.899 17.0557 180.762 16.8702C181.235 16.7312 181.723 16.5457 181.977 16.1016C182.48 15.0786 182.4 13.9733 182.4 12.8635C182.401 12.6658 182.402 12.4682 182.404 12.2705C182.407 11.806 182.408 11.3415 182.409 10.877C182.41 10.3474 182.413 9.81789 182.416 9.28835C182.422 8.2006 182.426 7.11285 182.429 6.02508C183.406 6.02508 184.382 6.02508 185.388 6.02508C185.394 7.17365 185.398 8.32221 185.4 9.47079C185.401 10.0042 185.403 10.5376 185.405 11.071C185.407 11.5365 185.409 12.0019 185.409 12.4673C185.41 12.7133 185.41 12.9593 185.412 13.2052C185.423 15.0017 185.329 16.6378 184.047 18.0354C183.395 18.6463 182.607 18.9808 181.763 19.2374C181.64 19.2763 181.64 19.2763 181.515 19.3159C179.701 19.7745 177.612 19.515 175.978 18.6364C174.877 17.9682 174.355 16.9958 174.007 15.7983C173.774 14.8241 173.818 13.8357 173.824 12.8402C173.825 12.6411 173.825 12.4419 173.825 12.2427C173.826 11.7748 173.828 11.3069 173.83 10.839C173.832 10.3055 173.834 9.7721 173.835 9.23865C173.837 8.14299 173.841 7.04733 173.846 5.95168Z" fill="#111827"/>
<path d="M206.036 21.5625C206.087 21.5626 206.138 21.5628 206.191 21.5629C207.766 21.5699 209.285 21.8481 210.485 22.9434C211.215 23.699 211.507 24.5894 211.507 25.6225C210.555 25.6225 209.602 25.6225 208.621 25.6225C208.523 25.3076 208.426 24.9927 208.325 24.6683C208.056 24.3345 207.955 24.2362 207.59 24.0627C207.514 24.026 207.439 23.9893 207.361 23.9515C206.656 23.6609 205.567 23.645 204.852 23.9113C204.489 24.0908 204.258 24.3352 204.034 24.6683C203.981 25.0876 203.944 25.4864 204.182 25.8473C204.672 26.1616 205.163 26.3486 205.726 26.4942C205.796 26.5127 205.866 26.5313 205.938 26.5504C206.41 26.6739 206.884 26.7836 207.361 26.889C208.868 27.2224 210.445 27.5898 211.422 28.8878C211.536 29.0678 211.635 29.2481 211.729 29.4394C211.766 29.5146 211.766 29.5146 211.805 29.5914C212.126 30.3639 212.015 31.3898 211.729 32.1553C211.229 33.2541 210.422 33.9592 209.292 34.3848C208.376 34.717 207.476 34.8358 206.508 34.8305C206.337 34.8298 206.167 34.832 205.996 34.8343C204.475 34.8414 202.882 34.3869 201.741 33.3466C200.917 32.4406 200.63 31.5517 200.63 30.3202C201.558 30.3202 202.486 30.3202 203.442 30.3202C203.539 30.6836 203.637 31.0469 203.738 31.4213C204.198 32.0669 204.713 32.3946 205.495 32.5452C206.485 32.6758 207.657 32.7036 208.506 32.1062C208.76 31.89 208.975 31.6561 209.009 31.3192C209.017 30.9949 209.016 30.7464 208.889 30.4441C208.086 29.6281 206.818 29.4175 205.735 29.1825C204.061 28.819 202.483 28.367 201.389 26.9667C201.109 26.4554 201.033 25.9553 201.037 25.3794C201.037 25.3118 201.038 25.2442 201.038 25.1746C201.059 24.3591 201.35 23.7366 201.888 23.1269C201.923 23.0842 201.959 23.0415 201.995 22.9976C202.563 22.3679 203.448 21.9586 204.256 21.7322C204.3 21.7193 204.343 21.7064 204.389 21.6931C204.931 21.5514 205.478 21.5595 206.036 21.5625Z" fill="#111827"/>
<path d="M122.865 5.87769C123.866 5.87769 124.867 5.87769 125.899 5.87769C126.149 6.5382 126.149 6.5382 126.25 6.85931C126.284 6.96737 126.284 6.96737 126.319 7.07763C126.343 7.15408 126.367 7.23053 126.392 7.3093C126.417 7.39036 126.443 7.47141 126.469 7.55492C126.524 7.72774 126.578 7.90058 126.633 8.07344C126.775 8.52247 126.917 8.97132 127.059 9.42018C127.087 9.50816 127.114 9.59614 127.143 9.68679C127.36 10.3724 127.581 11.057 127.804 11.7406C127.848 11.8745 127.848 11.8745 127.892 12.0111C127.933 12.1359 127.933 12.1359 127.975 12.2633C128.122 12.7145 128.266 13.1667 128.408 13.6198C128.468 13.814 128.53 14.0077 128.593 14.2013C128.61 14.2554 128.627 14.3096 128.645 14.3653C128.679 14.469 128.712 14.5725 128.746 14.676C128.812 14.8843 128.858 15.0529 128.858 15.2731C128.907 15.2731 128.956 15.2731 129.006 15.2731C129.015 15.2013 129.023 15.1295 129.031 15.0555C129.078 14.7356 129.172 14.4375 129.272 14.1308C129.291 14.071 129.311 14.0111 129.33 13.9495C129.393 13.7544 129.456 13.5595 129.52 13.3647C129.564 13.2275 129.608 13.0904 129.652 12.9532C129.762 12.613 129.873 12.2729 129.983 11.9328C130.065 11.6792 130.147 11.4255 130.229 11.1718C130.801 9.40471 131.385 7.6416 131.966 5.87769C132.992 5.87769 134.017 5.87769 135.074 5.87769C134.824 6.70342 134.824 6.70342 134.708 7.04805C134.682 7.12634 134.655 7.20463 134.628 7.28529C134.6 7.36864 134.572 7.45199 134.543 7.53786C134.497 7.6759 134.45 7.81394 134.404 7.95199C134.354 8.09932 134.304 8.24663 134.255 8.39393C134.15 8.70494 134.045 9.01601 133.941 9.32708C133.699 10.0464 133.456 10.7657 133.214 11.4849C132.959 12.2437 132.703 13.0026 132.448 13.7615C132.395 13.92 132.341 14.0786 132.288 14.2371C131.817 15.6358 131.351 17.0357 130.898 18.4401C130.88 18.4951 130.862 18.5502 130.843 18.6069C130.797 18.7505 130.751 18.8943 130.704 19.038C130.634 19.2368 130.634 19.2368 130.56 19.3102C130.456 19.317 130.351 19.3188 130.246 19.3185C130.146 19.3185 130.146 19.3185 130.044 19.3185C129.972 19.3181 129.899 19.3177 129.825 19.3174C129.751 19.3173 129.677 19.3171 129.601 19.317C129.364 19.3166 129.128 19.3157 128.891 19.3148C128.731 19.3144 128.571 19.3141 128.411 19.3138C128.017 19.313 127.624 19.3117 127.231 19.3102C126.872 18.313 126.537 17.3108 126.218 16.3007C125.907 15.3183 125.587 14.3396 125.258 13.3632C124.822 12.073 124.395 10.7803 123.971 9.48628C123.873 9.18419 123.773 8.88222 123.674 8.58027C123.596 8.34287 123.518 8.10538 123.441 7.86787C123.404 7.75632 123.367 7.6448 123.331 7.53331C123.28 7.37896 123.229 7.22449 123.179 7.06998C123.15 6.98292 123.122 6.89587 123.092 6.80617C123.002 6.50057 122.935 6.18859 122.865 5.87769Z" fill="#111827"/>
<path d="M161.266 5.87769C164.928 5.87769 168.591 5.87769 172.364 5.87769C172.364 6.70125 172.364 7.52482 172.364 8.37334C171.046 8.37334 169.727 8.37334 168.369 8.37334C168.369 11.9825 168.369 15.5917 168.369 19.3102C167.368 19.3102 166.367 19.3102 165.335 19.3102C165.335 15.701 165.335 12.0919 165.335 8.37334C163.992 8.37334 162.649 8.37334 161.266 8.37334C161.266 7.54978 161.266 6.72621 161.266 5.87769Z" fill="#111827"/>
<path d="M165.336 21.4395C166.313 21.4395 167.29 21.4395 168.296 21.4395C168.296 25.0486 168.296 28.6578 168.296 32.3763C170.469 32.3763 172.642 32.3763 174.881 32.3763C174.881 33.1999 174.881 34.0234 174.881 34.872C171.731 34.872 168.581 34.872 165.336 34.872C165.336 30.4392 165.336 26.0065 165.336 21.4395Z" fill="#111827"/>
<path d="M41.9197 5.95117C42.1883 5.95117 42.4569 5.95117 42.7336 5.95117C42.7336 15.4949 42.7336 25.0385 42.7336 34.8714C42.465 34.8714 42.1964 34.8714 41.9197 34.8714C41.9197 25.3277 41.9197 15.7841 41.9197 5.95117Z" fill="#111827"/>
<path d="M192.155 28.8402C192.225 28.8395 192.295 28.8388 192.367 28.8381C192.444 28.8378 192.52 28.8374 192.599 28.8371C192.678 28.8367 192.757 28.8363 192.838 28.8358C193.005 28.8352 193.172 28.8347 193.339 28.8344C193.593 28.8337 193.847 28.8314 194.1 28.8291C194.263 28.8286 194.425 28.8282 194.588 28.8279C194.663 28.827 194.738 28.8261 194.816 28.8252C195.485 28.8272 196.103 28.937 196.634 29.3658C197.044 29.7758 197.174 30.1314 197.18 30.7054C197.176 31.2417 197.112 31.6644 196.734 32.0648C196.116 32.5818 195.337 32.6285 194.562 32.617C194.481 32.6167 194.4 32.6164 194.317 32.6161C194.061 32.6149 193.806 32.6121 193.55 32.6093C193.375 32.6082 193.201 32.6072 193.026 32.6063C192.601 32.6039 192.176 32.6002 191.751 32.5955C191.749 32.0742 191.748 31.5528 191.747 31.0315C191.747 30.854 191.746 30.6765 191.746 30.499C191.745 30.2445 191.744 29.99 191.744 29.7354C191.743 29.6555 191.743 29.5756 191.743 29.4933C191.743 29.4198 191.743 29.3464 191.743 29.2707C191.743 29.2056 191.742 29.1406 191.742 29.0736C191.759 28.7944 191.909 28.8422 192.155 28.8402Z" fill="#F9FAFB"/>
<path d="M191.825 8.22638C192.382 8.21962 192.939 8.21378 193.496 8.21025C193.685 8.20878 193.874 8.20678 194.063 8.20423C194.336 8.20065 194.609 8.199 194.882 8.19771C194.966 8.19619 195.05 8.19468 195.136 8.19312C195.756 8.19294 196.216 8.29818 196.699 8.69432C197.131 9.22351 197.206 9.76754 197.153 10.4284C197.064 10.9009 196.926 11.272 196.561 11.6029C196.154 11.8236 195.76 11.9793 195.294 11.9782C195.217 11.9782 195.14 11.9782 195.061 11.9782C194.978 11.9778 194.895 11.9774 194.809 11.977C194.682 11.9769 194.682 11.9769 194.552 11.9767C194.279 11.9763 194.007 11.9754 193.735 11.9745C193.551 11.9741 193.366 11.9737 193.182 11.9734C192.73 11.9727 192.277 11.9713 191.825 11.9699C191.825 10.7345 191.825 9.49916 191.825 8.22638Z" fill="#F9FAFB"/>
<path d="M191.825 23.7144C192.344 23.7083 192.863 23.7023 193.397 23.696C193.64 23.692 193.64 23.692 193.888 23.6879C194.736 23.6798 195.441 23.7025 196.191 24.1364C196.542 24.5287 196.686 24.9108 196.663 25.4373C196.604 25.8222 196.444 26.1408 196.214 26.4532C195.681 26.8391 195.182 26.9125 194.535 26.8993C194.457 26.8989 194.379 26.8985 194.299 26.8981C194.052 26.8964 193.806 26.8928 193.559 26.889C193.391 26.8875 193.223 26.8862 193.055 26.885C192.645 26.882 192.235 26.8763 191.825 26.8707C191.825 25.8291 191.825 24.7875 191.825 23.7144Z" fill="#F3F4F6"/>
<path d="M181.688 24.8152C181.879 24.9817 181.958 25.1226 182.038 25.3608C182.06 25.4265 182.083 25.4922 182.106 25.56C182.13 25.6311 182.153 25.7022 182.177 25.7754C182.203 25.8493 182.228 25.9231 182.253 25.9991C182.334 26.2358 182.413 26.4728 182.493 26.7099C182.571 26.9434 182.65 27.1769 182.729 27.4103C182.78 27.5612 182.831 27.7121 182.882 27.863C183.049 28.3568 183.222 28.8477 183.404 29.3362C183.464 29.5129 183.464 29.5129 183.464 29.6597C182.316 29.6597 181.168 29.6597 179.986 29.6597C180.236 28.7513 180.236 28.7513 180.369 28.39C180.399 28.3093 180.428 28.2285 180.459 28.1453C180.49 28.0611 180.521 27.977 180.553 27.8903C180.586 27.8018 180.619 27.7134 180.652 27.6222C180.737 27.3899 180.823 27.1576 180.909 26.9254C180.997 26.6873 181.085 26.449 181.173 26.2108C181.344 25.7455 181.516 25.2803 181.688 24.8152Z" fill="#F9FAFB"/>
<path d="M127.083 18.8692C127.259 18.86 127.259 18.86 127.453 18.8692C127.502 18.9176 127.551 18.9661 127.601 19.016C127.824 19.0341 128.04 19.0434 128.263 19.0464C128.329 19.0478 128.394 19.0492 128.461 19.0507C128.671 19.0551 128.881 19.0585 129.09 19.0619C129.232 19.0647 129.374 19.0675 129.516 19.0705C129.864 19.0775 130.213 19.0837 130.561 19.0894C130.561 19.1621 130.561 19.2347 130.561 19.3096C129.462 19.3096 128.363 19.3096 127.231 19.3096C127.182 19.1643 127.134 19.0189 127.083 18.8692Z" fill="#111827"/>
<path d="M156.975 18.7971C157 18.833 157.025 18.8689 157.051 18.9059C157.269 19.0725 157.489 19.0446 157.752 19.0388C157.806 19.0385 157.86 19.0382 157.916 19.0379C158.088 19.0367 158.259 19.0339 158.431 19.0311C158.548 19.03 158.665 19.029 158.781 19.0281C159.067 19.0256 159.353 19.0218 159.638 19.0173C159.675 19.1627 159.675 19.1627 159.712 19.3109C158.736 19.3109 157.759 19.3109 156.753 19.3109C156.826 19.1414 156.899 18.9718 156.975 18.7971Z" fill="#111827"/>
<path d="M191.752 19.0901C191.788 19.1991 191.788 19.1991 191.826 19.3103C190.849 19.3103 189.872 19.3103 188.866 19.3103C189.131 19.0474 189.284 19.0547 189.636 19.0499C189.689 19.0484 189.743 19.0469 189.798 19.0454C189.91 19.0425 190.023 19.04 190.136 19.0381C190.308 19.035 190.481 19.0304 190.653 19.0256C190.763 19.0229 190.872 19.0203 190.982 19.0178C191.033 19.0165 191.085 19.0152 191.138 19.0139C191.365 19.0103 191.534 19.0181 191.752 19.0901Z" fill="#111827"/>
<path d="M165.484 19.0908C166.412 19.0908 167.339 19.0908 168.295 19.0908C168.295 19.1635 168.295 19.2362 168.295 19.311C167.343 19.311 166.391 19.311 165.41 19.311C165.434 19.2384 165.459 19.1657 165.484 19.0908Z" fill="#111827"/>
</svg>
