<svg width="218" height="567" viewBox="0 0 218 567" fill="none" xmlns="http://www.w3.org/2000/svg">
<g clip-path="url(#clip0_2201_1696)">
<rect width="218" height="567" fill="white"/>
<rect x="15.9097" y="565" width="102.537" height="101.548" rx="13" transform="rotate(-90 15.9097 565)" stroke="#D6E3FF" stroke-width="2"/>
<path d="M51.2772 519.682C51.2772 519.562 51.3372 519.502 51.4572 519.502H53.7432C53.8632 519.502 53.9232 519.562 53.9232 519.682V524.272C53.9232 524.344 53.9592 524.38 54.0312 524.38H58.0272C58.0992 524.38 58.1352 524.344 58.1352 524.272V519.682C58.1352 519.562 58.1952 519.502 58.3152 519.502H60.6012C60.7212 519.502 60.7812 519.562 60.7812 519.682V531.562C60.7812 531.682 60.7212 531.742 60.6012 531.742H58.3152C58.1952 531.742 58.1352 531.682 58.1352 531.562V526.846C58.1352 526.774 58.0992 526.738 58.0272 526.738H54.0312C53.9592 526.738 53.9232 526.774 53.9232 526.846V531.562C53.9232 531.682 53.8632 531.742 53.7432 531.742H51.4572C51.3372 531.742 51.2772 531.682 51.2772 531.562V519.682ZM63.1248 529.888C63.1248 529.792 63.1548 529.708 63.2148 529.636L67.5168 524.524C67.7568 524.248 67.9368 523.978 68.0568 523.714C68.1768 523.438 68.2368 523.144 68.2368 522.832C68.2368 522.424 68.1168 522.088 67.8768 521.824C67.6488 521.56 67.3248 521.428 66.9048 521.428C66.0528 521.428 65.5728 521.908 65.4648 522.868C65.4648 522.988 65.3988 523.036 65.2668 523.012L63.2868 522.688C63.1668 522.664 63.1188 522.592 63.1428 522.472C63.1788 522.052 63.2868 521.65 63.4668 521.266C63.6468 520.882 63.8988 520.546 64.2228 520.258C64.5588 519.97 64.9548 519.742 65.4108 519.574C65.8788 519.394 66.4068 519.304 66.9948 519.304C67.5828 519.304 68.1048 519.394 68.5608 519.574C69.0288 519.754 69.4248 520 69.7488 520.312C70.0728 520.624 70.3188 520.996 70.4868 521.428C70.6668 521.848 70.7568 522.304 70.7568 522.796C70.7568 523.384 70.6428 523.918 70.4148 524.398C70.1988 524.866 69.8988 525.322 69.5148 525.766L66.2928 529.564V529.6H70.5768C70.6968 529.6 70.7568 529.66 70.7568 529.78V531.562C70.7568 531.682 70.6968 531.742 70.5768 531.742H63.3048C63.1848 531.742 63.1248 531.682 63.1248 531.562V529.888ZM77.6088 529.6C78.1128 529.6 78.5268 529.48 78.8508 529.24C79.1748 529 79.4028 528.67 79.5348 528.25C79.5708 528.142 79.6008 528.022 79.6248 527.89C79.6488 527.746 79.6668 527.578 79.6788 527.386C79.7028 527.182 79.7148 526.936 79.7148 526.648C79.7268 526.36 79.7328 526.018 79.7328 525.622C79.7328 525.226 79.7268 524.884 79.7148 524.596C79.7148 524.308 79.7028 524.068 79.6788 523.876C79.6668 523.672 79.6488 523.504 79.6248 523.372C79.6008 523.228 79.5708 523.102 79.5348 522.994C79.4028 522.574 79.1748 522.244 78.8508 522.004C78.5268 521.764 78.1128 521.644 77.6088 521.644C77.1048 521.644 76.6908 521.764 76.3668 522.004C76.0428 522.244 75.8148 522.574 75.6828 522.994C75.6468 523.102 75.6168 523.228 75.5928 523.372C75.5688 523.504 75.5448 523.672 75.5208 523.876C75.5088 524.068 75.4968 524.308 75.4848 524.596C75.4848 524.884 75.4848 525.226 75.4848 525.622C75.4848 526.018 75.4848 526.36 75.4848 526.648C75.4968 526.936 75.5088 527.182 75.5208 527.386C75.5448 527.578 75.5688 527.746 75.5928 527.89C75.6168 528.022 75.6468 528.142 75.6828 528.25C75.8148 528.67 76.0428 529 76.3668 529.24C76.6908 529.48 77.1048 529.6 77.6088 529.6ZM77.6088 531.94C76.5408 531.94 75.6048 531.694 74.8008 531.202C74.0088 530.71 73.4568 529.966 73.1448 528.97C73.0728 528.754 73.0128 528.544 72.9648 528.34C72.9288 528.136 72.8988 527.908 72.8748 527.656C72.8508 527.404 72.8328 527.116 72.8208 526.792C72.8088 526.468 72.8028 526.078 72.8028 525.622C72.8028 525.166 72.8088 524.776 72.8208 524.452C72.8328 524.128 72.8508 523.84 72.8748 523.588C72.8988 523.336 72.9288 523.108 72.9648 522.904C73.0128 522.7 73.0728 522.49 73.1448 522.274C73.4568 521.29 74.0088 520.552 74.8008 520.06C75.6048 519.556 76.5408 519.304 77.6088 519.304C78.6768 519.304 79.6068 519.556 80.3988 520.06C81.2028 520.552 81.7608 521.29 82.0728 522.274C82.1448 522.49 82.1988 522.7 82.2348 522.904C82.2828 523.108 82.3188 523.336 82.3428 523.588C82.3668 523.84 82.3848 524.128 82.3968 524.452C82.4088 524.776 82.4148 525.166 82.4148 525.622C82.4148 526.078 82.4088 526.468 82.3968 526.792C82.3848 527.116 82.3668 527.404 82.3428 527.656C82.3188 527.908 82.2828 528.136 82.2348 528.34C82.1988 528.544 82.1448 528.754 82.0728 528.97C81.7608 529.966 81.2028 530.71 80.3988 531.202C79.6068 531.694 78.6768 531.94 77.6088 531.94Z" fill="#385494"/>
<path opacity="0.9" d="M55.5357 549.887C55.4757 549.887 55.4357 549.854 55.4157 549.787L54.1157 545.137H54.0957L52.7857 549.787C52.7657 549.854 52.7257 549.887 52.6657 549.887H51.9157C51.8557 549.887 51.8157 549.854 51.7957 549.787L50.1257 543.187C50.1123 543.121 50.139 543.087 50.2057 543.087H51.1457C51.2123 543.087 51.2523 543.121 51.2657 543.187L52.3457 547.767H52.3657L53.6357 543.187C53.6557 543.121 53.6957 543.087 53.7557 543.087H54.4557C54.5157 543.087 54.5557 543.121 54.5757 543.187L55.8757 547.767H55.8957L56.9457 543.187C56.9523 543.121 56.9923 543.087 57.0657 543.087H57.9957C58.0623 543.087 58.089 543.121 58.0757 543.187L56.4157 549.787C56.4023 549.854 56.3623 549.887 56.2957 549.887H55.5357ZM62.2368 547.417L61.3368 544.777H61.3068L60.3968 547.417H62.2368ZM60.7468 543.187C60.7668 543.121 60.8101 543.087 60.8768 543.087H61.7968C61.8634 543.087 61.9068 543.121 61.9268 543.187L64.2268 549.787C64.2468 549.854 64.2234 549.887 64.1568 549.887H63.1768C63.1101 549.887 63.0668 549.854 63.0468 549.787L62.5968 548.467H60.0368L59.5868 549.787C59.5668 549.854 59.5234 549.887 59.4568 549.887H58.4868C58.4201 549.887 58.3968 549.854 58.4168 549.787L60.7468 543.187ZM66.4729 549.887C66.4063 549.887 66.3729 549.854 66.3729 549.787V544.207C66.3729 544.167 66.3529 544.147 66.3129 544.147H64.5329C64.4663 544.147 64.4329 544.114 64.4329 544.047V543.187C64.4329 543.121 64.4663 543.087 64.5329 543.087H69.3929C69.4596 543.087 69.4929 543.121 69.4929 543.187V544.047C69.4929 544.114 69.4596 544.147 69.3929 544.147H67.6129C67.5729 544.147 67.5529 544.167 67.5529 544.207V549.787C67.5529 549.854 67.5196 549.887 67.4529 549.887H66.4729ZM70.861 543.187C70.861 543.121 70.8943 543.087 70.961 543.087H75.221C75.2877 543.087 75.321 543.121 75.321 543.187V544.047C75.321 544.114 75.2877 544.147 75.221 544.147H72.101C72.061 544.147 72.041 544.167 72.041 544.207V545.867C72.041 545.907 72.061 545.927 72.101 545.927H74.731C74.7977 545.927 74.831 545.961 74.831 546.027V546.887C74.831 546.954 74.7977 546.987 74.731 546.987H72.101C72.061 546.987 72.041 547.007 72.041 547.047V548.767C72.041 548.807 72.061 548.827 72.101 548.827H75.221C75.2877 548.827 75.321 548.861 75.321 548.927V549.787C75.321 549.854 75.2877 549.887 75.221 549.887H70.961C70.8943 549.887 70.861 549.854 70.861 549.787V543.187ZM79.6541 546.077C79.9674 546.077 80.2174 545.991 80.4041 545.817C80.5974 545.644 80.6941 545.411 80.6941 545.117C80.6941 544.817 80.5974 544.581 80.4041 544.407C80.2174 544.234 79.9674 544.147 79.6541 544.147H78.2041C78.1641 544.147 78.1441 544.167 78.1441 544.207V546.017C78.1441 546.057 78.1641 546.077 78.2041 546.077H79.6541ZM80.8241 549.887C80.7508 549.887 80.7008 549.854 80.6741 549.787L79.3741 547.137H78.2041C78.1641 547.137 78.1441 547.157 78.1441 547.197V549.787C78.1441 549.854 78.1108 549.887 78.0441 549.887H77.0641C76.9974 549.887 76.9641 549.854 76.9641 549.787V543.187C76.9641 543.121 76.9974 543.087 77.0641 543.087H79.6941C80.0074 543.087 80.2941 543.137 80.5541 543.237C80.8208 543.337 81.0508 543.477 81.2441 543.657C81.4374 543.831 81.5874 544.044 81.6941 544.297C81.8074 544.544 81.8641 544.817 81.8641 545.117C81.8641 545.564 81.7474 545.951 81.5141 546.277C81.2808 546.604 80.9674 546.841 80.5741 546.987L82.0041 549.757C82.0241 549.791 82.0241 549.821 82.0041 549.847C81.9908 549.874 81.9674 549.887 81.9341 549.887H80.8241Z" fill="#385494"/>
<path fill-rule="evenodd" clip-rule="evenodd" d="M70.0783 504.887C71.9381 503.046 71.9683 500.032 70.1458 498.153C69.631 497.622 69.0234 497.239 68.3746 497.004C67.9003 496.811 67.4 496.666 66.8805 496.515C65.4487 496.1 63.8707 495.643 62.2865 494.01C60.7022 492.377 60.2815 490.775 59.8998 489.32C59.8221 489.024 59.7459 488.734 59.6618 488.451C59.4889 487.575 59.0707 486.739 58.4059 486.054C56.5834 484.176 53.5983 484.145 51.7385 485.986C49.8788 487.826 49.8486 490.841 51.6711 492.72C52.3368 493.406 53.1576 493.845 54.022 494.037C54.3 494.128 54.5851 494.21 54.8763 494.295C56.3081 494.71 57.8861 495.167 59.4704 496.8C61.0546 498.433 61.4753 500.035 61.857 501.489C61.9935 502.009 62.125 502.51 62.3029 502.987C62.5218 503.654 62.891 504.283 63.411 504.819C65.2335 506.697 68.2186 506.728 70.0783 504.887Z" fill="#385494"/>
<path fill-rule="evenodd" clip-rule="evenodd" d="M82.0232 485.985C83.8831 487.826 83.9134 490.841 82.091 492.719C81.5762 493.25 80.9686 493.633 80.3199 493.868C79.8455 494.062 79.3453 494.207 78.8258 494.357C77.394 494.772 75.8161 495.229 74.2318 496.862C72.6476 498.495 72.227 500.097 71.8454 501.552C71.7677 501.848 71.6915 502.138 71.6075 502.421C71.4346 503.297 71.0164 504.133 70.3516 504.818C68.5292 506.696 65.5441 506.727 63.6843 504.886C61.8244 503.045 61.7941 500.03 63.6165 498.152C64.2822 497.466 65.103 497.026 65.9674 496.834C66.2453 496.744 66.5305 496.661 66.8216 496.577C68.2534 496.162 69.8314 495.705 71.4156 494.072C72.9998 492.439 73.4204 490.837 73.802 489.383C73.9385 488.863 74.07 488.362 74.2479 487.885C74.4667 487.218 74.8359 486.589 75.3558 486.053C77.1783 484.175 80.1634 484.145 82.0232 485.985Z" fill="#385494"/>
<rect width="100.043" height="100.043" rx="12" transform="matrix(0.703602 -0.710594 0.703602 0.710594 -3 282.207)" stroke="#D6E3FF" stroke-width="2"/>
<path opacity="0.9" d="M41.2917 294.821C41.2917 294.754 41.3251 294.721 41.3917 294.721H45.6517C45.7184 294.721 45.7517 294.754 45.7517 294.821V295.681C45.7517 295.747 45.7184 295.781 45.6517 295.781H42.5317C42.4917 295.781 42.4717 295.801 42.4717 295.841V297.501C42.4717 297.541 42.4917 297.561 42.5317 297.561H45.1617C45.2284 297.561 45.2617 297.594 45.2617 297.661V298.521C45.2617 298.587 45.2284 298.621 45.1617 298.621H42.5317C42.4917 298.621 42.4717 298.641 42.4717 298.681V300.401C42.4717 300.441 42.4917 300.461 42.5317 300.461H45.6517C45.7184 300.461 45.7517 300.494 45.7517 300.561V301.421C45.7517 301.487 45.7184 301.521 45.6517 301.521H41.3917C41.3251 301.521 41.2917 301.487 41.2917 301.421V294.821ZM47.3949 294.821C47.3949 294.754 47.4282 294.721 47.4949 294.721H48.4749C48.5415 294.721 48.5749 294.754 48.5749 294.821V300.401C48.5749 300.441 48.5949 300.461 48.6349 300.461H51.7549C51.8215 300.461 51.8549 300.494 51.8549 300.561V301.421C51.8549 301.487 51.8215 301.521 51.7549 301.521H47.4949C47.4282 301.521 47.3949 301.487 47.3949 301.421V294.821ZM53.2441 294.821C53.2441 294.754 53.2774 294.721 53.3441 294.721H57.6041C57.6708 294.721 57.7041 294.754 57.7041 294.821V295.681C57.7041 295.747 57.6708 295.781 57.6041 295.781H54.4841C54.4441 295.781 54.4241 295.801 54.4241 295.841V297.501C54.4241 297.541 54.4441 297.561 54.4841 297.561H57.1141C57.1808 297.561 57.2141 297.594 57.2141 297.661V298.521C57.2141 298.587 57.1808 298.621 57.1141 298.621H54.4841C54.4441 298.621 54.4241 298.641 54.4241 298.681V300.401C54.4241 300.441 54.4441 300.461 54.4841 300.461H57.6041C57.6708 300.461 57.7041 300.494 57.7041 300.561V301.421C57.7041 301.487 57.6708 301.521 57.6041 301.521H53.3441C53.2774 301.521 53.2441 301.487 53.2441 301.421V294.821ZM59.3272 299.961C59.2939 299.854 59.2639 299.751 59.2372 299.651C59.2172 299.544 59.2005 299.424 59.1872 299.291C59.1739 299.151 59.1639 298.991 59.1572 298.811C59.1505 298.624 59.1472 298.394 59.1472 298.121C59.1472 297.854 59.1505 297.627 59.1572 297.441C59.1639 297.254 59.1739 297.094 59.1872 296.961C59.2005 296.821 59.2172 296.701 59.2372 296.601C59.2639 296.494 59.2939 296.387 59.3272 296.281C59.5005 295.721 59.7905 295.304 60.1972 295.031C60.6105 294.751 61.1072 294.611 61.6872 294.611C62.2339 294.611 62.7039 294.741 63.0972 295.001C63.4972 295.261 63.7939 295.617 63.9872 296.071C64.0072 296.131 63.9905 296.171 63.9372 296.191L63.0872 296.601C63.0272 296.634 62.9839 296.617 62.9572 296.551C62.8439 296.311 62.6872 296.104 62.4872 295.931C62.2939 295.757 62.0272 295.671 61.6872 295.671C61.3605 295.671 61.0972 295.751 60.8972 295.911C60.7039 296.071 60.5605 296.291 60.4672 296.571C60.4472 296.644 60.4272 296.717 60.4072 296.791C60.3939 296.864 60.3805 296.961 60.3672 297.081C60.3605 297.194 60.3539 297.334 60.3472 297.501C60.3472 297.667 60.3472 297.874 60.3472 298.121C60.3472 298.374 60.3472 298.584 60.3472 298.751C60.3539 298.911 60.3605 299.051 60.3672 299.171C60.3805 299.284 60.3939 299.381 60.4072 299.461C60.4272 299.534 60.4472 299.604 60.4672 299.671C60.5605 299.951 60.7039 300.171 60.8972 300.331C61.0972 300.491 61.3605 300.571 61.6872 300.571C62.0272 300.571 62.2939 300.484 62.4872 300.311C62.6872 300.137 62.8439 299.931 62.9572 299.691C62.9839 299.624 63.0272 299.607 63.0872 299.641L63.9372 300.051C63.9905 300.071 64.0072 300.111 63.9872 300.171C63.7939 300.624 63.4972 300.981 63.0972 301.241C62.7039 301.501 62.2339 301.631 61.6872 301.631C61.1072 301.631 60.6105 301.494 60.1972 301.221C59.7905 300.941 59.5005 300.521 59.3272 299.961ZM66.8334 301.521C66.7667 301.521 66.7334 301.487 66.7334 301.421V295.841C66.7334 295.801 66.7134 295.781 66.6734 295.781H64.8934C64.8267 295.781 64.7934 295.747 64.7934 295.681V294.821C64.7934 294.754 64.8267 294.721 64.8934 294.721H69.7534C69.8201 294.721 69.8534 294.754 69.8534 294.821V295.681C69.8534 295.747 69.8201 295.781 69.7534 295.781H67.9734C67.9334 295.781 67.9134 295.801 67.9134 295.841V301.421C67.9134 301.487 67.8801 301.521 67.8134 301.521H66.8334ZM73.9114 297.711C74.2248 297.711 74.4748 297.624 74.6614 297.451C74.8548 297.277 74.9514 297.044 74.9514 296.751C74.9514 296.451 74.8548 296.214 74.6614 296.041C74.4748 295.867 74.2248 295.781 73.9114 295.781H72.4614C72.4214 295.781 72.4014 295.801 72.4014 295.841V297.651C72.4014 297.691 72.4214 297.711 72.4614 297.711H73.9114ZM75.0814 301.521C75.0081 301.521 74.9581 301.487 74.9314 301.421L73.6314 298.771H72.4614C72.4214 298.771 72.4014 298.791 72.4014 298.831V301.421C72.4014 301.487 72.3681 301.521 72.3014 301.521H71.3214C71.2548 301.521 71.2214 301.487 71.2214 301.421V294.821C71.2214 294.754 71.2548 294.721 71.3214 294.721H73.9514C74.2648 294.721 74.5514 294.771 74.8114 294.871C75.0781 294.971 75.3081 295.111 75.5014 295.291C75.6948 295.464 75.8448 295.677 75.9514 295.931C76.0648 296.177 76.1214 296.451 76.1214 296.751C76.1214 297.197 76.0048 297.584 75.7714 297.911C75.5381 298.237 75.2248 298.474 74.8314 298.621L76.2614 301.391C76.2814 301.424 76.2814 301.454 76.2614 301.481C76.2481 301.507 76.2248 301.521 76.1914 301.521H75.0814ZM80.1635 300.571C80.5035 300.571 80.7769 300.494 80.9835 300.341C81.1902 300.181 81.3402 299.961 81.4335 299.681C81.4535 299.621 81.4702 299.551 81.4835 299.471C81.4969 299.391 81.5069 299.291 81.5135 299.171C81.5269 299.051 81.5369 298.907 81.5435 298.741C81.5502 298.567 81.5535 298.361 81.5535 298.121C81.5535 297.881 81.5502 297.677 81.5435 297.511C81.5369 297.337 81.5269 297.191 81.5135 297.071C81.5069 296.951 81.4969 296.851 81.4835 296.771C81.4702 296.691 81.4535 296.621 81.4335 296.561C81.3402 296.281 81.1902 296.064 80.9835 295.911C80.7769 295.751 80.5035 295.671 80.1635 295.671C79.8235 295.671 79.5502 295.751 79.3435 295.911C79.1435 296.064 78.9969 296.281 78.9035 296.561C78.8835 296.621 78.8635 296.691 78.8435 296.771C78.8302 296.851 78.8169 296.951 78.8035 297.071C78.7969 297.191 78.7902 297.337 78.7835 297.511C78.7835 297.677 78.7835 297.881 78.7835 298.121C78.7835 298.361 78.7835 298.567 78.7835 298.741C78.7902 298.907 78.7969 299.051 78.8035 299.171C78.8169 299.291 78.8302 299.391 78.8435 299.471C78.8635 299.551 78.8835 299.621 78.9035 299.681C78.9969 299.961 79.1435 300.181 79.3435 300.341C79.5502 300.494 79.8235 300.571 80.1635 300.571ZM80.1635 301.631C79.5769 301.631 79.0735 301.494 78.6535 301.221C78.2335 300.941 77.9369 300.531 77.7635 299.991C77.7302 299.884 77.7002 299.777 77.6735 299.671C77.6535 299.564 77.6369 299.441 77.6235 299.301C77.6102 299.161 77.6002 298.997 77.5935 298.811C77.5869 298.617 77.5835 298.387 77.5835 298.121C77.5835 297.854 77.5869 297.627 77.5935 297.441C77.6002 297.247 77.6102 297.081 77.6235 296.941C77.6369 296.801 77.6535 296.677 77.6735 296.571C77.7002 296.464 77.7302 296.357 77.7635 296.251C77.9369 295.711 78.2335 295.304 78.6535 295.031C79.0735 294.751 79.5769 294.611 80.1635 294.611C80.7569 294.611 81.2635 294.751 81.6835 295.031C82.1035 295.304 82.4002 295.711 82.5735 296.251C82.6069 296.357 82.6335 296.464 82.6535 296.571C82.6802 296.677 82.7002 296.801 82.7135 296.941C82.7269 297.081 82.7369 297.247 82.7435 297.441C82.7502 297.627 82.7535 297.854 82.7535 298.121C82.7535 298.387 82.7502 298.617 82.7435 298.811C82.7369 298.997 82.7269 299.161 82.7135 299.301C82.7002 299.441 82.6802 299.564 82.6535 299.671C82.6335 299.777 82.6069 299.884 82.5735 299.991C82.4002 300.531 82.1035 300.941 81.6835 301.221C81.2635 301.494 80.7569 301.631 80.1635 301.631ZM84.4531 294.821C84.4531 294.754 84.4864 294.721 84.5531 294.721H85.5331C85.5997 294.721 85.6331 294.754 85.6331 294.821V300.401C85.6331 300.441 85.6531 300.461 85.6931 300.461H88.8131C88.8797 300.461 88.9131 300.494 88.9131 300.561V301.421C88.9131 301.487 88.8797 301.521 88.8131 301.521H84.5531C84.4864 301.521 84.4531 301.487 84.4531 301.421V294.821ZM90.9024 301.521C90.8358 301.521 90.8024 301.487 90.8024 301.421V298.741L88.8324 294.821C88.8058 294.754 88.8324 294.721 88.9124 294.721H89.9224C89.9891 294.721 90.0358 294.754 90.0624 294.821L91.3924 297.461H91.4224L92.7624 294.821C92.7891 294.754 92.8358 294.721 92.9024 294.721H93.8724C93.9524 294.721 93.9791 294.754 93.9524 294.821L91.9824 298.741V301.421C91.9824 301.487 91.9491 301.521 91.8824 301.521H90.9024ZM62.4638 311.631C62.2104 311.631 61.9638 311.607 61.7238 311.561C61.4838 311.514 61.2538 311.451 61.0338 311.371C60.8204 311.291 60.6204 311.197 60.4338 311.091C60.2538 310.977 60.0971 310.857 59.9638 310.731C59.9104 310.677 59.9038 310.627 59.9438 310.581L60.5638 309.861C60.6104 309.807 60.6571 309.804 60.7038 309.851C60.8104 309.937 60.9304 310.024 61.0638 310.111C61.2038 310.197 61.3504 310.274 61.5038 310.341C61.6638 310.407 61.8304 310.464 62.0038 310.511C62.1771 310.551 62.3604 310.571 62.5538 310.571C62.9604 310.571 63.2738 310.481 63.4938 310.301C63.7204 310.114 63.8338 309.877 63.8338 309.591C63.8338 309.344 63.7438 309.144 63.5638 308.991C63.3838 308.831 63.0604 308.717 62.5938 308.651L62.2338 308.601C61.5738 308.507 61.0671 308.304 60.7138 307.991C60.3604 307.671 60.1838 307.227 60.1838 306.661C60.1838 306.354 60.2371 306.074 60.3438 305.821C60.4504 305.567 60.6038 305.351 60.8038 305.171C61.0038 304.991 61.2438 304.854 61.5238 304.761C61.8104 304.661 62.1304 304.611 62.4838 304.611C62.9104 304.611 63.3138 304.674 63.6938 304.801C64.0804 304.921 64.4104 305.084 64.6838 305.291C64.7304 305.331 64.7371 305.377 64.7038 305.431L64.2238 306.171C64.1838 306.224 64.1371 306.234 64.0838 306.201C63.8038 306.021 63.5338 305.887 63.2738 305.801C63.0138 305.714 62.7404 305.671 62.4538 305.671C62.1071 305.671 61.8404 305.757 61.6538 305.931C61.4738 306.097 61.3838 306.314 61.3838 306.581C61.3838 306.814 61.4771 307.011 61.6638 307.171C61.8504 307.324 62.1738 307.434 62.6338 307.501L62.9938 307.551C63.6538 307.644 64.1571 307.851 64.5038 308.171C64.8504 308.484 65.0238 308.934 65.0238 309.521C65.0238 309.821 64.9704 310.101 64.8638 310.361C64.7571 310.621 64.5938 310.844 64.3738 311.031C64.1604 311.217 63.8938 311.364 63.5738 311.471C63.2538 311.577 62.8838 311.631 62.4638 311.631ZM66.5929 304.821C66.5929 304.754 66.6262 304.721 66.6929 304.721H67.6729C67.7396 304.721 67.7729 304.754 67.7729 304.821V311.421C67.7729 311.487 67.7396 311.521 67.6729 311.521H66.6929C66.6262 311.521 66.5929 311.487 66.5929 311.421V304.821ZM71.8087 311.631C71.5554 311.631 71.3087 311.607 71.0687 311.561C70.8287 311.514 70.5987 311.451 70.3787 311.371C70.1654 311.291 69.9654 311.197 69.7787 311.091C69.5987 310.977 69.442 310.857 69.3087 310.731C69.2554 310.677 69.2487 310.627 69.2887 310.581L69.9087 309.861C69.9554 309.807 70.002 309.804 70.0487 309.851C70.1554 309.937 70.2754 310.024 70.4087 310.111C70.5487 310.197 70.6954 310.274 70.8487 310.341C71.0087 310.407 71.1754 310.464 71.3487 310.511C71.522 310.551 71.7054 310.571 71.8987 310.571C72.3054 310.571 72.6187 310.481 72.8387 310.301C73.0654 310.114 73.1787 309.877 73.1787 309.591C73.1787 309.344 73.0887 309.144 72.9087 308.991C72.7287 308.831 72.4054 308.717 71.9387 308.651L71.5787 308.601C70.9187 308.507 70.412 308.304 70.0587 307.991C69.7054 307.671 69.5287 307.227 69.5287 306.661C69.5287 306.354 69.582 306.074 69.6887 305.821C69.7954 305.567 69.9487 305.351 70.1487 305.171C70.3487 304.991 70.5887 304.854 70.8687 304.761C71.1554 304.661 71.4754 304.611 71.8287 304.611C72.2554 304.611 72.6587 304.674 73.0387 304.801C73.4254 304.921 73.7554 305.084 74.0287 305.291C74.0754 305.331 74.082 305.377 74.0487 305.431L73.5687 306.171C73.5287 306.224 73.482 306.234 73.4287 306.201C73.1487 306.021 72.8787 305.887 72.6187 305.801C72.3587 305.714 72.0854 305.671 71.7987 305.671C71.452 305.671 71.1854 305.757 70.9987 305.931C70.8187 306.097 70.7287 306.314 70.7287 306.581C70.7287 306.814 70.822 307.011 71.0087 307.171C71.1954 307.324 71.5187 307.434 71.9787 307.501L72.3387 307.551C72.9987 307.644 73.502 307.851 73.8487 308.171C74.1954 308.484 74.3687 308.934 74.3687 309.521C74.3687 309.821 74.3154 310.101 74.2087 310.361C74.102 310.621 73.9387 310.844 73.7187 311.031C73.5054 311.217 73.2387 311.364 72.9187 311.471C72.5987 311.577 72.2287 311.631 71.8087 311.631Z" fill="#385494"/>
<rect x="16.9048" y="103.537" width="102.537" height="101.548" rx="13" transform="rotate(-90 16.9048 103.537)" stroke="#D6E3FF" stroke-width="2"/>
<path opacity="0.9" d="M49.582 81.7241C49.582 81.6574 49.6153 81.6241 49.682 81.6241H53.942C54.0087 81.6241 54.042 81.6574 54.042 81.7241V82.5841C54.042 82.6507 54.0087 82.6841 53.942 82.6841H50.822C50.782 82.6841 50.762 82.7041 50.762 82.7441V84.4041C50.762 84.4441 50.782 84.4641 50.822 84.4641H53.452C53.5187 84.4641 53.552 84.4974 53.552 84.5641V85.4241C53.552 85.4907 53.5187 85.5241 53.452 85.5241H50.822C50.782 85.5241 50.762 85.5441 50.762 85.5841V87.3041C50.762 87.3441 50.782 87.3641 50.822 87.3641H53.942C54.0087 87.3641 54.042 87.3974 54.042 87.4641V88.3241C54.042 88.3907 54.0087 88.4241 53.942 88.4241H49.682C49.6153 88.4241 49.582 88.3907 49.582 88.3241V81.7241ZM55.6851 81.7241C55.6851 81.6574 55.7185 81.6241 55.7851 81.6241H56.7051C56.7785 81.6241 56.8351 81.6574 56.8751 81.7241L59.6451 86.4141H59.6851V81.7241C59.6851 81.6574 59.7185 81.6241 59.7851 81.6241H60.6551C60.7218 81.6241 60.7551 81.6574 60.7551 81.7241V88.3241C60.7551 88.3907 60.7218 88.4241 60.6551 88.4241H59.7451C59.6718 88.4241 59.6151 88.3907 59.5751 88.3241L56.7951 83.6441H56.7551V88.3241C56.7551 88.3907 56.7218 88.4241 56.6551 88.4241H55.7851C55.7185 88.4241 55.6851 88.3907 55.6851 88.3241V81.7241ZM62.6574 81.7241C62.6574 81.6574 62.6907 81.6241 62.7574 81.6241H67.0174C67.0841 81.6241 67.1174 81.6574 67.1174 81.7241V82.5841C67.1174 82.6507 67.0841 82.6841 67.0174 82.6841H63.8974C63.8574 82.6841 63.8374 82.7041 63.8374 82.7441V84.4041C63.8374 84.4441 63.8574 84.4641 63.8974 84.4641H66.5274C66.5941 84.4641 66.6274 84.4974 66.6274 84.5641V85.4241C66.6274 85.4907 66.5941 85.5241 66.5274 85.5241H63.8974C63.8574 85.5241 63.8374 85.5441 63.8374 85.5841V87.3041C63.8374 87.3441 63.8574 87.3641 63.8974 87.3641H67.0174C67.0841 87.3641 67.1174 87.3974 67.1174 87.4641V88.3241C67.1174 88.3907 67.0841 88.4241 67.0174 88.4241H62.7574C62.6907 88.4241 62.6574 88.3907 62.6574 88.3241V81.7241ZM71.4505 84.6141C71.7638 84.6141 72.0138 84.5274 72.2005 84.3541C72.3938 84.1807 72.4905 83.9474 72.4905 83.6541C72.4905 83.3541 72.3938 83.1174 72.2005 82.9441C72.0138 82.7707 71.7638 82.6841 71.4505 82.6841H70.0005C69.9605 82.6841 69.9405 82.7041 69.9405 82.7441V84.5541C69.9405 84.5941 69.9605 84.6141 70.0005 84.6141H71.4505ZM72.6205 88.4241C72.5472 88.4241 72.4972 88.3907 72.4705 88.3241L71.1705 85.6741H70.0005C69.9605 85.6741 69.9405 85.6941 69.9405 85.7341V88.3241C69.9405 88.3907 69.9072 88.4241 69.8405 88.4241H68.8605C68.7938 88.4241 68.7605 88.3907 68.7605 88.3241V81.7241C68.7605 81.6574 68.7938 81.6241 68.8605 81.6241H71.4905C71.8038 81.6241 72.0905 81.6741 72.3505 81.7741C72.6172 81.8741 72.8472 82.0141 73.0405 82.1941C73.2338 82.3674 73.3838 82.5807 73.4905 82.8341C73.6038 83.0807 73.6605 83.3541 73.6605 83.6541C73.6605 84.1007 73.5438 84.4874 73.3105 84.8141C73.0772 85.1407 72.7638 85.3774 72.3705 85.5241L73.8005 88.2941C73.8205 88.3274 73.8205 88.3574 73.8005 88.3841C73.7872 88.4107 73.7638 88.4241 73.7305 88.4241H72.6205ZM75.3026 86.8941C75.2693 86.7874 75.2393 86.6807 75.2126 86.5741C75.1926 86.4674 75.176 86.3441 75.1626 86.2041C75.1493 86.0641 75.1393 85.9007 75.1326 85.7141C75.126 85.5207 75.1226 85.2907 75.1226 85.0241C75.1226 84.7574 75.126 84.5307 75.1326 84.3441C75.1393 84.1507 75.1493 83.9841 75.1626 83.8441C75.176 83.7041 75.1926 83.5807 75.2126 83.4741C75.2393 83.3674 75.2693 83.2607 75.3026 83.1541C75.476 82.6141 75.7726 82.2074 76.1926 81.9341C76.6126 81.6541 77.126 81.5141 77.7326 81.5141C78.0526 81.5141 78.3426 81.5541 78.6026 81.6341C78.8626 81.7141 79.0926 81.8207 79.2926 81.9541C79.4926 82.0807 79.6593 82.2341 79.7926 82.4141C79.926 82.5874 80.0293 82.7674 80.1026 82.9541C80.1293 83.0141 80.116 83.0607 80.0626 83.0941L79.2226 83.4641C79.1626 83.4841 79.1193 83.4674 79.0926 83.4141C78.9393 83.1407 78.756 82.9341 78.5426 82.7941C78.3293 82.6474 78.056 82.5741 77.7226 82.5741C77.376 82.5741 77.0993 82.6541 76.8926 82.8141C76.686 82.9674 76.536 83.1841 76.4426 83.4641C76.4226 83.5241 76.4026 83.5941 76.3826 83.6741C76.3693 83.7541 76.356 83.8541 76.3426 83.9741C76.336 84.0941 76.3293 84.2407 76.3226 84.4141C76.3226 84.5807 76.3226 84.7841 76.3226 85.0241C76.3226 85.2641 76.3226 85.4707 76.3226 85.6441C76.3293 85.8107 76.336 85.9541 76.3426 86.0741C76.356 86.1941 76.3693 86.2941 76.3826 86.3741C76.4026 86.4541 76.4226 86.5241 76.4426 86.5841C76.536 86.8641 76.686 87.0841 76.8926 87.2441C77.0993 87.3974 77.376 87.4741 77.7226 87.4741C78.0226 87.4741 78.2893 87.4041 78.5226 87.2641C78.756 87.1174 78.9193 86.9041 79.0126 86.6241C79.046 86.5174 79.0726 86.3941 79.0926 86.2541C79.1126 86.1074 79.1226 85.9374 79.1226 85.7441C79.1226 85.7041 79.1026 85.6841 79.0626 85.6841H77.9426C77.876 85.6841 77.8426 85.6507 77.8426 85.5841V84.7841C77.8426 84.7174 77.876 84.6841 77.9426 84.6841H80.1926C80.2593 84.6841 80.2926 84.7174 80.2926 84.7841V85.3741C80.2926 85.6541 80.2793 85.9307 80.2526 86.2041C80.226 86.4707 80.186 86.6907 80.1326 86.8641C79.966 87.3974 79.6693 87.8107 79.2426 88.1041C78.8226 88.3907 78.3193 88.5341 77.7326 88.5341C77.126 88.5341 76.6126 88.3974 76.1926 88.1241C75.7726 87.8441 75.476 87.4341 75.3026 86.8941ZM83.354 88.4241C83.2874 88.4241 83.254 88.3907 83.254 88.3241V85.6441L81.284 81.7241C81.2574 81.6574 81.284 81.6241 81.364 81.6241H82.374C82.4407 81.6241 82.4874 81.6574 82.514 81.7241L83.844 84.3641H83.874L85.214 81.7241C85.2407 81.6574 85.2874 81.6241 85.354 81.6241H86.324C86.404 81.6241 86.4307 81.6574 86.404 81.7241L84.434 85.6441V88.3241C84.434 88.3907 84.4007 88.4241 84.334 88.4241H83.354Z" fill="#385494"/>
<path d="M57.7241 42.3578L66.6156 28.1396V42.3578H57.7241Z" fill="#385494" stroke="#385494" stroke-width="4" stroke-linejoin="round"/>
<path d="M75.5107 41.6093L66.6192 55.8274V41.6093H75.5107Z" fill="#385494" stroke="#385494" stroke-width="4" stroke-linejoin="round"/>
<path fill-rule="evenodd" clip-rule="evenodd" d="M58.9777 254.347C57.1856 254.347 55.7329 255.814 55.7329 257.624V261.652C55.7329 261.681 55.7333 261.709 55.734 261.738L55.734 272.689C55.734 274.774 57.4081 276.465 59.4731 276.465C61.5382 276.465 63.2122 274.774 63.2122 272.689L63.2122 264.929H70.1164L70.1164 272.689C70.1164 274.774 71.7904 276.465 73.8555 276.465C75.9205 276.465 77.5946 274.774 77.5946 272.689V261.763C77.5958 261.726 77.5964 261.689 77.5964 261.652V257.624C77.5964 255.814 76.1437 254.347 74.3516 254.347H58.9777Z" fill="#385494"/>
<path d="M68.6787 103.542C68.6787 102.99 68.231 102.542 67.6787 102.542C67.1264 102.542 66.6787 102.99 66.6787 103.542L68.6787 103.542ZM66.9716 207.802C67.3621 208.192 67.9953 208.192 68.3858 207.802L74.7498 201.438C75.1403 201.047 75.1403 200.414 74.7498 200.024C74.3593 199.633 73.7261 199.633 73.3356 200.024L67.6787 205.681L62.0219 200.024C61.6313 199.633 60.9982 199.633 60.6076 200.024C60.2171 200.414 60.2171 201.047 60.6076 201.438L66.9716 207.802ZM66.6787 103.542L66.6787 207.095L68.6787 207.095L68.6787 103.542L66.6787 103.542Z" fill="#D6E3FF"/>
<path d="M68.6787 462.458C68.6787 463.01 68.231 463.458 67.6787 463.458C67.1264 463.458 66.6787 463.01 66.6787 462.458L68.6787 462.458ZM66.9716 356.187C67.3621 355.797 67.9953 355.797 68.3858 356.187L74.7498 362.551C75.1403 362.942 75.1403 363.575 74.7498 363.966C74.3593 364.356 73.7261 364.356 73.3356 363.966L67.6787 358.309L62.0219 363.966C61.6313 364.356 60.9982 364.356 60.6076 363.966C60.2171 363.575 60.2171 362.942 60.6076 362.551L66.9716 356.187ZM66.6787 462.458L66.6787 356.895L68.6787 356.895L68.6787 462.458L66.6787 462.458Z" fill="#D6E3FF"/>
<path d="M133.38 281.497C132.828 281.497 132.38 281.945 132.38 282.497C132.38 283.05 132.828 283.497 133.38 283.497L133.38 281.497ZM217.707 283.204C218.097 282.814 218.097 282.181 217.707 281.79L211.343 275.426C210.952 275.036 210.319 275.036 209.929 275.426C209.538 275.817 209.538 276.45 209.929 276.84L215.586 282.497L209.929 288.154C209.538 288.545 209.538 289.178 209.929 289.568C210.319 289.959 210.952 289.959 211.343 289.568L217.707 283.204ZM133.38 283.497L217 283.497L217 281.497L133.38 281.497L133.38 283.497Z" fill="#D6E3FF"/>
</g>
<defs>
<clipPath id="clip0_2201_1696">
<rect width="218" height="567" fill="white"/>
</clipPath>
</defs>
</svg>
