<svg width="280" height="156" viewBox="0 0 280 156" fill="none" xmlns="http://www.w3.org/2000/svg">
<rect x="179" y="101" width="100" height="100" rx="12" transform="rotate(-90 179 101)" stroke="#D6E3FF" stroke-width="2"/>
<path opacity="0.4" d="M190.189 85.44C190.155 85.3333 190.125 85.23 190.099 85.13C190.079 85.0233 190.062 84.9033 190.049 84.77C190.035 84.63 190.025 84.47 190.019 84.29C190.012 84.1033 190.009 83.8733 190.009 83.6C190.009 83.3333 190.012 83.1067 190.019 82.92C190.025 82.7333 190.035 82.5733 190.049 82.44C190.062 82.3 190.079 82.18 190.099 82.08C190.125 81.9733 190.155 81.8667 190.189 81.76C190.362 81.2 190.652 80.7833 191.059 80.51C191.472 80.23 191.969 80.09 192.549 80.09C193.095 80.09 193.565 80.22 193.959 80.48C194.359 80.74 194.655 81.0967 194.849 81.55C194.869 81.61 194.852 81.65 194.799 81.67L193.949 82.08C193.889 82.1133 193.845 82.0967 193.819 82.03C193.705 81.79 193.549 81.5833 193.349 81.41C193.155 81.2367 192.889 81.15 192.549 81.15C192.222 81.15 191.959 81.23 191.759 81.39C191.565 81.55 191.422 81.77 191.329 82.05C191.309 82.1233 191.289 82.1967 191.269 82.27C191.255 82.3433 191.242 82.44 191.229 82.56C191.222 82.6733 191.215 82.8133 191.209 82.98C191.209 83.1467 191.209 83.3533 191.209 83.6C191.209 83.8533 191.209 84.0633 191.209 84.23C191.215 84.39 191.222 84.53 191.229 84.65C191.242 84.7633 191.255 84.86 191.269 84.94C191.289 85.0133 191.309 85.0833 191.329 85.15C191.422 85.43 191.565 85.65 191.759 85.81C191.959 85.97 192.222 86.05 192.549 86.05C192.889 86.05 193.155 85.9633 193.349 85.79C193.549 85.6167 193.705 85.41 193.819 85.17C193.845 85.1033 193.889 85.0867 193.949 85.12L194.799 85.53C194.852 85.55 194.869 85.59 194.849 85.65C194.655 86.1033 194.359 86.46 193.959 86.72C193.565 86.98 193.095 87.11 192.549 87.11C191.969 87.11 191.472 86.9733 191.059 86.7C190.652 86.42 190.362 86 190.189 85.44ZM199.611 84.53L198.711 81.89H198.681L197.771 84.53H199.611ZM198.121 80.3C198.141 80.2333 198.184 80.2 198.251 80.2H199.171C199.237 80.2 199.281 80.2333 199.301 80.3L201.601 86.9C201.621 86.9667 201.597 87 201.531 87H200.551C200.484 87 200.441 86.9667 200.421 86.9L199.971 85.58H197.411L196.961 86.9C196.941 86.9667 196.897 87 196.831 87H195.861C195.794 87 195.771 86.9667 195.791 86.9L198.121 80.3ZM205.622 83.19C205.936 83.19 206.186 83.1033 206.372 82.93C206.566 82.7567 206.662 82.5233 206.662 82.23C206.662 81.93 206.566 81.6933 206.372 81.52C206.186 81.3467 205.936 81.26 205.622 81.26H204.172C204.132 81.26 204.112 81.28 204.112 81.32V83.13C204.112 83.17 204.132 83.19 204.172 83.19H205.622ZM206.792 87C206.719 87 206.669 86.9667 206.642 86.9L205.342 84.25H204.172C204.132 84.25 204.112 84.27 204.112 84.31V86.9C204.112 86.9667 204.079 87 204.012 87H203.032C202.966 87 202.932 86.9667 202.932 86.9V80.3C202.932 80.2333 202.966 80.2 203.032 80.2H205.662C205.976 80.2 206.262 80.25 206.522 80.35C206.789 80.45 207.019 80.59 207.212 80.77C207.406 80.9433 207.556 81.1567 207.662 81.41C207.776 81.6567 207.832 81.93 207.832 82.23C207.832 82.6767 207.716 83.0633 207.482 83.39C207.249 83.7167 206.936 83.9533 206.542 84.1L207.972 86.87C207.992 86.9033 207.992 86.9333 207.972 86.96C207.959 86.9867 207.936 87 207.902 87H206.792ZM210.704 85.9C210.704 85.94 210.724 85.96 210.764 85.96H212.184C212.517 85.96 212.77 85.8733 212.944 85.7C213.124 85.5267 213.214 85.2967 213.214 85.01C213.214 84.73 213.124 84.5033 212.944 84.33C212.77 84.1567 212.517 84.07 212.184 84.07H210.764C210.724 84.07 210.704 84.09 210.704 84.13V85.9ZM212.124 83.03C212.424 83.03 212.66 82.95 212.834 82.79C213.007 82.6233 213.094 82.4067 213.094 82.14C213.094 81.8667 213.007 81.65 212.834 81.49C212.66 81.3233 212.424 81.24 212.124 81.24H210.764C210.724 81.24 210.704 81.26 210.704 81.3V82.97C210.704 83.01 210.724 83.03 210.764 83.03H212.124ZM209.524 80.3C209.524 80.2333 209.557 80.2 209.624 80.2H212.154C212.874 80.2 213.407 80.3667 213.754 80.7C214.1 81.0267 214.274 81.4633 214.274 82.01C214.274 82.3967 214.194 82.7067 214.034 82.94C213.88 83.1667 213.697 83.3367 213.484 83.45V83.47C213.59 83.51 213.697 83.5733 213.804 83.66C213.91 83.7467 214.007 83.8567 214.094 83.99C214.18 84.1167 214.25 84.2667 214.304 84.44C214.364 84.6067 214.394 84.7933 214.394 85C214.394 85.68 214.19 86.1833 213.784 86.51C213.377 86.8367 212.8 87 212.054 87H209.624C209.557 87 209.524 86.9667 209.524 86.9V80.3ZM218.378 86.05C218.718 86.05 218.991 85.9733 219.198 85.82C219.405 85.66 219.555 85.44 219.648 85.16C219.668 85.1 219.685 85.03 219.698 84.95C219.711 84.87 219.721 84.77 219.728 84.65C219.741 84.53 219.751 84.3867 219.758 84.22C219.765 84.0467 219.768 83.84 219.768 83.6C219.768 83.36 219.765 83.1567 219.758 82.99C219.751 82.8167 219.741 82.67 219.728 82.55C219.721 82.43 219.711 82.33 219.698 82.25C219.685 82.17 219.668 82.1 219.648 82.04C219.555 81.76 219.405 81.5433 219.198 81.39C218.991 81.23 218.718 81.15 218.378 81.15C218.038 81.15 217.765 81.23 217.558 81.39C217.358 81.5433 217.211 81.76 217.118 82.04C217.098 82.1 217.078 82.17 217.058 82.25C217.045 82.33 217.031 82.43 217.018 82.55C217.011 82.67 217.005 82.8167 216.998 82.99C216.998 83.1567 216.998 83.36 216.998 83.6C216.998 83.84 216.998 84.0467 216.998 84.22C217.005 84.3867 217.011 84.53 217.018 84.65C217.031 84.77 217.045 84.87 217.058 84.95C217.078 85.03 217.098 85.1 217.118 85.16C217.211 85.44 217.358 85.66 217.558 85.82C217.765 85.9733 218.038 86.05 218.378 86.05ZM218.378 87.11C217.791 87.11 217.288 86.9733 216.868 86.7C216.448 86.42 216.151 86.01 215.978 85.47C215.945 85.3633 215.915 85.2567 215.888 85.15C215.868 85.0433 215.851 84.92 215.838 84.78C215.825 84.64 215.815 84.4767 215.808 84.29C215.801 84.0967 215.798 83.8667 215.798 83.6C215.798 83.3333 215.801 83.1067 215.808 82.92C215.815 82.7267 215.825 82.56 215.838 82.42C215.851 82.28 215.868 82.1567 215.888 82.05C215.915 81.9433 215.945 81.8367 215.978 81.73C216.151 81.19 216.448 80.7833 216.868 80.51C217.288 80.23 217.791 80.09 218.378 80.09C218.971 80.09 219.478 80.23 219.898 80.51C220.318 80.7833 220.615 81.19 220.788 81.73C220.821 81.8367 220.848 81.9433 220.868 82.05C220.895 82.1567 220.915 82.28 220.928 82.42C220.941 82.56 220.951 82.7267 220.958 82.92C220.965 83.1067 220.968 83.3333 220.968 83.6C220.968 83.8667 220.965 84.0967 220.958 84.29C220.951 84.4767 220.941 84.64 220.928 84.78C220.915 84.92 220.895 85.0433 220.868 85.15C220.848 85.2567 220.821 85.3633 220.788 85.47C220.615 86.01 220.318 86.42 219.898 86.7C219.478 86.9733 218.971 87.11 218.378 87.11ZM222.668 80.3C222.668 80.2333 222.701 80.2 222.768 80.2H223.688C223.761 80.2 223.818 80.2333 223.858 80.3L226.628 84.99H226.668V80.3C226.668 80.2333 226.701 80.2 226.768 80.2H227.638C227.704 80.2 227.738 80.2333 227.738 80.3V86.9C227.738 86.9667 227.704 87 227.638 87H226.728C226.654 87 226.598 86.9667 226.558 86.9L223.778 82.22H223.738V86.9C223.738 86.9667 223.704 87 223.638 87H222.768C222.701 87 222.668 86.9667 222.668 86.9V80.3ZM233.583 85.88C233.583 85.92 233.603 85.94 233.643 85.94H234.653C235.033 85.94 235.336 85.8733 235.563 85.74C235.796 85.6067 235.963 85.3867 236.063 85.08C236.083 85.0333 236.1 84.9767 236.113 84.91C236.126 84.8367 236.136 84.7467 236.143 84.64C236.156 84.5267 236.166 84.3867 236.173 84.22C236.18 84.0533 236.183 83.8467 236.183 83.6C236.183 83.3533 236.18 83.1467 236.173 82.98C236.166 82.8133 236.156 82.6733 236.143 82.56C236.136 82.4467 236.126 82.3567 236.113 82.29C236.1 82.2233 236.083 82.1667 236.063 82.12C235.963 81.8133 235.796 81.5933 235.563 81.46C235.336 81.3267 235.033 81.26 234.653 81.26H233.643C233.603 81.26 233.583 81.28 233.583 81.32V85.88ZM232.403 80.3C232.403 80.2333 232.436 80.2 232.503 80.2H234.933C236.12 80.2 236.876 80.7033 237.203 81.71C237.23 81.7967 237.253 81.89 237.273 81.99C237.293 82.0833 237.31 82.2 237.323 82.34C237.343 82.48 237.356 82.6533 237.363 82.86C237.37 83.06 237.373 83.3067 237.373 83.6C237.373 83.8933 237.37 84.1433 237.363 84.35C237.356 84.55 237.343 84.72 237.323 84.86C237.31 85 237.293 85.12 237.273 85.22C237.253 85.3133 237.23 85.4033 237.203 85.49C236.876 86.4967 236.12 87 234.933 87H232.503C232.436 87 232.403 86.9667 232.403 86.9V80.3ZM239.053 80.3C239.053 80.2333 239.086 80.2 239.153 80.2H240.133C240.2 80.2 240.233 80.2333 240.233 80.3V86.9C240.233 86.9667 240.2 87 240.133 87H239.153C239.086 87 239.053 86.9667 239.053 86.9V80.3ZM244.509 86.05C244.849 86.05 245.122 85.9733 245.329 85.82C245.536 85.66 245.686 85.44 245.779 85.16C245.799 85.1 245.816 85.03 245.829 84.95C245.842 84.87 245.852 84.77 245.859 84.65C245.872 84.53 245.882 84.3867 245.889 84.22C245.896 84.0467 245.899 83.84 245.899 83.6C245.899 83.36 245.896 83.1567 245.889 82.99C245.882 82.8167 245.872 82.67 245.859 82.55C245.852 82.43 245.842 82.33 245.829 82.25C245.816 82.17 245.799 82.1 245.779 82.04C245.686 81.76 245.536 81.5433 245.329 81.39C245.122 81.23 244.849 81.15 244.509 81.15C244.169 81.15 243.896 81.23 243.689 81.39C243.489 81.5433 243.342 81.76 243.249 82.04C243.229 82.1 243.209 82.17 243.189 82.25C243.176 82.33 243.162 82.43 243.149 82.55C243.142 82.67 243.136 82.8167 243.129 82.99C243.129 83.1567 243.129 83.36 243.129 83.6C243.129 83.84 243.129 84.0467 243.129 84.22C243.136 84.3867 243.142 84.53 243.149 84.65C243.162 84.77 243.176 84.87 243.189 84.95C243.209 85.03 243.229 85.1 243.249 85.16C243.342 85.44 243.489 85.66 243.689 85.82C243.896 85.9733 244.169 86.05 244.509 86.05ZM244.509 87.11C243.922 87.11 243.419 86.9733 242.999 86.7C242.579 86.42 242.282 86.01 242.109 85.47C242.076 85.3633 242.046 85.2567 242.019 85.15C241.999 85.0433 241.982 84.92 241.969 84.78C241.956 84.64 241.946 84.4767 241.939 84.29C241.932 84.0967 241.929 83.8667 241.929 83.6C241.929 83.3333 241.932 83.1067 241.939 82.92C241.946 82.7267 241.956 82.56 241.969 82.42C241.982 82.28 241.999 82.1567 242.019 82.05C242.046 81.9433 242.076 81.8367 242.109 81.73C242.282 81.19 242.579 80.7833 242.999 80.51C243.419 80.23 243.922 80.09 244.509 80.09C245.102 80.09 245.609 80.23 246.029 80.51C246.449 80.7833 246.746 81.19 246.919 81.73C246.952 81.8367 246.979 81.9433 246.999 82.05C247.026 82.1567 247.046 82.28 247.059 82.42C247.072 82.56 247.082 82.7267 247.089 82.92C247.096 83.1067 247.099 83.3333 247.099 83.6C247.099 83.8667 247.096 84.0967 247.089 84.29C247.082 84.4767 247.072 84.64 247.059 84.78C247.046 84.92 247.026 85.0433 246.999 85.15C246.979 85.2567 246.952 85.3633 246.919 85.47C246.746 86.01 246.449 86.42 246.029 86.7C245.609 86.9733 245.102 87.11 244.509 87.11ZM252.39 87C252.323 87 252.27 86.9667 252.23 86.9L250.86 84.59H250.84L249.46 86.9C249.42 86.9667 249.367 87 249.3 87H248.22C248.133 87 248.113 86.9567 248.16 86.87L250.19 83.48L248.31 80.33C248.263 80.2433 248.283 80.2 248.37 80.2H249.45C249.517 80.2 249.57 80.2333 249.61 80.3L250.84 82.36H250.86L252.09 80.3C252.13 80.2333 252.183 80.2 252.25 80.2H253.33C253.417 80.2 253.437 80.2433 253.39 80.33L251.51 83.48L253.54 86.87C253.587 86.9567 253.567 87 253.48 87H252.39ZM254.863 80.3C254.863 80.2333 254.896 80.2 254.963 80.2H255.943C256.009 80.2 256.043 80.2333 256.043 80.3V86.9C256.043 86.9667 256.009 87 255.943 87H254.963C254.896 87 254.863 86.9667 254.863 86.9V80.3ZM259.118 85.88C259.118 85.92 259.138 85.94 259.178 85.94H260.188C260.568 85.94 260.872 85.8733 261.098 85.74C261.332 85.6067 261.498 85.3867 261.598 85.08C261.618 85.0333 261.635 84.9767 261.648 84.91C261.662 84.8367 261.672 84.7467 261.678 84.64C261.692 84.5267 261.702 84.3867 261.708 84.22C261.715 84.0533 261.718 83.8467 261.718 83.6C261.718 83.3533 261.715 83.1467 261.708 82.98C261.702 82.8133 261.692 82.6733 261.678 82.56C261.672 82.4467 261.662 82.3567 261.648 82.29C261.635 82.2233 261.618 82.1667 261.598 82.12C261.498 81.8133 261.332 81.5933 261.098 81.46C260.872 81.3267 260.568 81.26 260.188 81.26H259.178C259.138 81.26 259.118 81.28 259.118 81.32V85.88ZM257.938 80.3C257.938 80.2333 257.972 80.2 258.038 80.2H260.468C261.655 80.2 262.412 80.7033 262.738 81.71C262.765 81.7967 262.788 81.89 262.808 81.99C262.828 82.0833 262.845 82.2 262.858 82.34C262.878 82.48 262.892 82.6533 262.898 82.86C262.905 83.06 262.908 83.3067 262.908 83.6C262.908 83.8933 262.905 84.1433 262.898 84.35C262.892 84.55 262.878 84.72 262.858 84.86C262.845 85 262.828 85.12 262.808 85.22C262.788 85.3133 262.765 85.4033 262.738 85.49C262.412 86.4967 261.655 87 260.468 87H258.038C257.972 87 257.938 86.9667 257.938 86.9V80.3ZM264.588 80.3C264.588 80.2333 264.622 80.2 264.688 80.2H268.948C269.015 80.2 269.048 80.2333 269.048 80.3V81.16C269.048 81.2267 269.015 81.26 268.948 81.26H265.828C265.788 81.26 265.768 81.28 265.768 81.32V82.98C265.768 83.02 265.788 83.04 265.828 83.04H268.458C268.525 83.04 268.558 83.0733 268.558 83.14V84C268.558 84.0667 268.525 84.1 268.458 84.1H265.828C265.788 84.1 265.768 84.12 265.768 84.16V85.88C265.768 85.92 265.788 85.94 265.828 85.94H268.948C269.015 85.94 269.048 85.9733 269.048 86.04V86.9C269.048 86.9667 269.015 87 268.948 87H264.688C264.622 87 264.588 86.9667 264.588 86.9V80.3Z" fill="black"/>
<path fill-rule="evenodd" clip-rule="evenodd" d="M225.59 35.2017C223.721 33.3709 223.691 30.372 225.522 28.5037C226.039 27.9759 226.649 27.5948 227.301 27.3608C227.777 27.1684 228.28 27.0242 228.802 26.8744C230.24 26.4618 231.825 26.007 233.417 24.3828C235.008 22.7586 235.431 21.1645 235.814 19.718C235.892 19.4233 235.969 19.1347 236.053 18.8532C236.227 17.9825 236.647 17.1506 237.315 16.4691C239.146 14.6007 242.144 14.5703 244.013 16.4012C245.881 18.232 245.911 21.2309 244.08 23.0992C243.412 23.7817 242.587 24.219 241.719 24.4098C241.44 24.4998 241.153 24.5819 240.861 24.6659C239.422 25.0785 237.837 25.5334 236.246 27.1575C234.654 28.7817 234.232 30.3758 233.848 31.8223C233.711 32.3394 233.579 32.8378 233.4 33.3118C233.18 33.9756 232.81 34.6007 232.287 35.1338C230.456 37.0022 227.458 37.0326 225.59 35.2017Z" fill="#385494"/>
<path fill-rule="evenodd" clip-rule="evenodd" d="M213.59 47.2017C211.721 45.3709 211.691 42.372 213.522 40.5037C214.039 39.9759 214.649 39.5948 215.301 39.3608C215.777 39.1684 216.28 39.0242 216.802 38.8744C218.24 38.4618 219.825 38.007 221.417 36.3828C223.008 34.7586 223.431 33.1645 223.814 31.718C223.892 31.4233 223.969 31.1347 224.053 30.8532C224.227 29.9825 224.647 29.1506 225.315 28.4691C227.146 26.6007 230.144 26.5703 232.013 28.4012C233.881 30.232 233.911 33.2309 232.08 35.0992C231.412 35.7817 230.587 36.219 229.719 36.4098C229.44 36.4998 229.153 36.5819 228.861 36.6659C227.422 37.0785 225.837 37.5334 224.246 39.1575C222.654 40.7817 222.232 42.3758 221.848 43.8223C221.711 44.3394 221.579 44.8378 221.4 45.3118C221.18 45.9756 220.81 46.6007 220.287 47.1338C218.456 49.0022 215.458 49.0326 213.59 47.2017Z" fill="#385494"/>
<path d="M214.359 66.192C214.287 66 214.227 65.808 214.179 65.616C214.143 65.412 214.113 65.19 214.089 64.95C214.065 64.698 214.047 64.41 214.035 64.086C214.023 63.75 214.017 63.348 214.017 62.88C214.017 62.412 214.023 62.016 214.035 61.692C214.047 61.356 214.065 61.068 214.089 60.828C214.113 60.576 214.143 60.354 214.179 60.162C214.227 59.97 214.287 59.772 214.359 59.568C214.683 58.56 215.217 57.81 215.961 57.318C216.717 56.814 217.635 56.562 218.715 56.562C219.759 56.562 220.641 56.802 221.361 57.282C222.093 57.75 222.633 58.416 222.981 59.28C223.041 59.388 223.011 59.46 222.891 59.496L220.929 60.378C220.821 60.438 220.737 60.408 220.677 60.288C220.509 59.892 220.269 59.562 219.957 59.298C219.657 59.034 219.249 58.902 218.733 58.902C218.253 58.902 217.857 59.022 217.545 59.262C217.245 59.502 217.029 59.832 216.897 60.252C216.861 60.36 216.831 60.48 216.807 60.612C216.783 60.732 216.759 60.888 216.735 61.08C216.723 61.272 216.711 61.512 216.699 61.8C216.699 62.088 216.699 62.448 216.699 62.88C216.699 63.312 216.699 63.672 216.699 63.96C216.711 64.248 216.723 64.488 216.735 64.68C216.759 64.872 216.783 65.034 216.807 65.166C216.831 65.286 216.861 65.4 216.897 65.508C217.029 65.928 217.245 66.258 217.545 66.498C217.857 66.738 218.253 66.858 218.733 66.858C219.249 66.858 219.657 66.726 219.957 66.462C220.269 66.198 220.509 65.868 220.677 65.472C220.737 65.352 220.821 65.322 220.929 65.382L222.891 66.264C223.011 66.3 223.041 66.372 222.981 66.48C222.633 67.344 222.093 68.016 221.361 68.496C220.641 68.964 219.759 69.198 218.715 69.198C217.635 69.198 216.717 68.952 215.961 68.46C215.217 67.956 214.683 67.2 214.359 66.192ZM229.176 66.858C229.68 66.858 230.094 66.738 230.418 66.498C230.742 66.258 230.97 65.928 231.102 65.508C231.138 65.4 231.168 65.28 231.192 65.148C231.216 65.004 231.234 64.836 231.246 64.644C231.27 64.44 231.282 64.194 231.282 63.906C231.294 63.618 231.3 63.276 231.3 62.88C231.3 62.484 231.294 62.142 231.282 61.854C231.282 61.566 231.27 61.326 231.246 61.134C231.234 60.93 231.216 60.762 231.192 60.63C231.168 60.486 231.138 60.36 231.102 60.252C230.97 59.832 230.742 59.502 230.418 59.262C230.094 59.022 229.68 58.902 229.176 58.902C228.672 58.902 228.258 59.022 227.934 59.262C227.61 59.502 227.382 59.832 227.25 60.252C227.214 60.36 227.184 60.486 227.16 60.63C227.136 60.762 227.112 60.93 227.088 61.134C227.076 61.326 227.064 61.566 227.052 61.854C227.052 62.142 227.052 62.484 227.052 62.88C227.052 63.276 227.052 63.618 227.052 63.906C227.064 64.194 227.076 64.44 227.088 64.644C227.112 64.836 227.136 65.004 227.16 65.148C227.184 65.28 227.214 65.4 227.25 65.508C227.382 65.928 227.61 66.258 227.934 66.498C228.258 66.738 228.672 66.858 229.176 66.858ZM229.176 69.198C228.108 69.198 227.172 68.952 226.368 68.46C225.576 67.968 225.024 67.224 224.712 66.228C224.64 66.012 224.58 65.802 224.532 65.598C224.496 65.394 224.466 65.166 224.442 64.914C224.418 64.662 224.4 64.374 224.388 64.05C224.376 63.726 224.37 63.336 224.37 62.88C224.37 62.424 224.376 62.034 224.388 61.71C224.4 61.386 224.418 61.098 224.442 60.846C224.466 60.594 224.496 60.366 224.532 60.162C224.58 59.958 224.64 59.748 224.712 59.532C225.024 58.548 225.576 57.81 226.368 57.318C227.172 56.814 228.108 56.562 229.176 56.562C230.244 56.562 231.174 56.814 231.966 57.318C232.77 57.81 233.328 58.548 233.64 59.532C233.712 59.748 233.766 59.958 233.802 60.162C233.85 60.366 233.886 60.594 233.91 60.846C233.934 61.098 233.952 61.386 233.964 61.71C233.976 62.034 233.982 62.424 233.982 62.88C233.982 63.336 233.976 63.726 233.964 64.05C233.952 64.374 233.934 64.662 233.91 64.914C233.886 65.166 233.85 65.394 233.802 65.598C233.766 65.802 233.712 66.012 233.64 66.228C233.328 67.224 232.77 67.968 231.966 68.46C231.174 68.952 230.244 69.198 229.176 69.198ZM235.997 67.146C235.997 67.05 236.027 66.966 236.087 66.894L240.389 61.782C240.629 61.506 240.809 61.236 240.929 60.972C241.049 60.696 241.109 60.402 241.109 60.09C241.109 59.682 240.989 59.346 240.749 59.082C240.521 58.818 240.197 58.686 239.777 58.686C238.925 58.686 238.445 59.166 238.337 60.126C238.337 60.246 238.271 60.294 238.139 60.27L236.159 59.946C236.039 59.922 235.991 59.85 236.015 59.73C236.051 59.31 236.159 58.908 236.339 58.524C236.519 58.14 236.771 57.804 237.095 57.516C237.431 57.228 237.827 57 238.283 56.832C238.751 56.652 239.279 56.562 239.867 56.562C240.455 56.562 240.977 56.652 241.433 56.832C241.901 57.012 242.297 57.258 242.621 57.57C242.945 57.882 243.191 58.254 243.359 58.686C243.539 59.106 243.629 59.562 243.629 60.054C243.629 60.642 243.515 61.176 243.287 61.656C243.071 62.124 242.771 62.58 242.387 63.024L239.165 66.822V66.858H243.449C243.569 66.858 243.629 66.918 243.629 67.038V68.82C243.629 68.94 243.569 69 243.449 69H236.177C236.057 69 235.997 68.94 235.997 68.82V67.146Z" fill="black"/>
<path d="M229.707 102.707C230.098 102.317 230.098 101.683 229.707 101.293C229.317 100.902 228.683 100.902 228.293 101.293L229.707 102.707ZM175 155C175 155.552 175.448 156 176 156L185 156C185.552 156 186 155.552 186 155C186 154.448 185.552 154 185 154L177 154L177 146C177 145.448 176.552 145 176 145C175.448 145 175 145.448 175 146L175 155ZM228.293 101.293L175.293 154.293L176.707 155.707L229.707 102.707L228.293 101.293Z" fill="#D6E3FF"/>
<rect x="1" y="101" width="100" height="100" rx="12" transform="rotate(-90 1 101)" stroke="#D6E3FF" stroke-width="2"/>
<path fill-rule="evenodd" clip-rule="evenodd" d="M60.573 22.427C58.6703 20.5243 55.5854 20.5243 53.6827 22.427C53.1452 22.9644 52.7596 23.5962 52.5257 24.269C52.3327 24.7611 52.1896 25.2796 52.0411 25.8179C51.6316 27.3017 51.1803 28.9369 49.5263 30.5909C47.8723 32.2448 46.237 32.696 44.7532 33.1055C44.4509 33.1889 44.1548 33.2706 43.8662 33.3604C42.9723 33.5481 42.121 33.989 41.427 34.683C39.5243 36.5856 39.5243 39.6704 41.427 41.573C43.3297 43.4757 46.4146 43.4757 48.3173 41.573C49.0123 40.878 49.4535 40.0253 49.6407 39.1301C49.7303 38.842 49.8119 38.5465 49.8952 38.2448C50.3046 36.761 50.7559 35.1258 52.4099 33.4718C54.0639 31.8179 55.6992 31.3667 57.183 30.9572C57.7135 30.8108 58.2248 30.6697 58.7105 30.4809C59.3909 30.2479 60.0301 29.8599 60.573 29.317C62.4757 27.4144 62.4757 24.3296 60.573 22.427Z" fill="#4579DD"/>
<path d="M41.2452 56.94C41.2452 56.82 41.3052 56.76 41.4252 56.76H43.7112C43.8312 56.76 43.8912 56.82 43.8912 56.94V61.53C43.8912 61.602 43.9272 61.638 43.9992 61.638H47.9952C48.0672 61.638 48.1032 61.602 48.1032 61.53V56.94C48.1032 56.82 48.1632 56.76 48.2832 56.76H50.5692C50.6892 56.76 50.7492 56.82 50.7492 56.94V68.82C50.7492 68.94 50.6892 69 50.5692 69H48.2832C48.1632 69 48.1032 68.94 48.1032 68.82V64.104C48.1032 64.032 48.0672 63.996 47.9952 63.996H43.9992C43.9272 63.996 43.8912 64.032 43.8912 64.104V68.82C43.8912 68.94 43.8312 69 43.7112 69H41.4252C41.3052 69 41.2452 68.94 41.2452 68.82V56.94ZM53.0929 67.146C53.0929 67.05 53.1229 66.966 53.1829 66.894L57.4849 61.782C57.7249 61.506 57.9049 61.236 58.0249 60.972C58.1449 60.696 58.2049 60.402 58.2049 60.09C58.2049 59.682 58.0849 59.346 57.8449 59.082C57.6169 58.818 57.2929 58.686 56.8729 58.686C56.0209 58.686 55.5409 59.166 55.4329 60.126C55.4329 60.246 55.3669 60.294 55.2349 60.27L53.2549 59.946C53.1349 59.922 53.0869 59.85 53.1109 59.73C53.1469 59.31 53.2549 58.908 53.4349 58.524C53.6149 58.14 53.8669 57.804 54.1909 57.516C54.5269 57.228 54.9229 57 55.3789 56.832C55.8469 56.652 56.3749 56.562 56.9629 56.562C57.5509 56.562 58.0729 56.652 58.5289 56.832C58.9969 57.012 59.3929 57.258 59.7169 57.57C60.0409 57.882 60.2869 58.254 60.4549 58.686C60.6349 59.106 60.7249 59.562 60.7249 60.054C60.7249 60.642 60.6109 61.176 60.3829 61.656C60.1669 62.124 59.8669 62.58 59.4829 63.024L56.2609 66.822V66.858H60.5449C60.6649 66.858 60.7249 66.918 60.7249 67.038V68.82C60.7249 68.94 60.6649 69 60.5449 69H53.2729C53.1529 69 53.0929 68.94 53.0929 68.82V67.146Z" fill="black"/>
<path opacity="0.4" d="M25.7699 80.3C25.7699 80.2333 25.8033 80.2 25.8699 80.2H26.8499C26.9166 80.2 26.9499 80.2333 26.9499 80.3V82.98C26.9499 83.02 26.9699 83.04 27.0099 83.04H29.5999C29.6399 83.04 29.6599 83.02 29.6599 82.98V80.3C29.6599 80.2333 29.6933 80.2 29.7599 80.2H30.7399C30.8066 80.2 30.8399 80.2333 30.8399 80.3V86.9C30.8399 86.9667 30.8066 87 30.7399 87H29.7599C29.6933 87 29.6599 86.9667 29.6599 86.9V84.16C29.6599 84.12 29.6399 84.1 29.5999 84.1H27.0099C26.9699 84.1 26.9499 84.12 26.9499 84.16V86.9C26.9499 86.9667 26.9166 87 26.8499 87H25.8699C25.8033 87 25.7699 86.9667 25.7699 86.9V80.3ZM34.1822 87C34.1155 87 34.0822 86.9667 34.0822 86.9V84.22L32.1122 80.3C32.0855 80.2333 32.1122 80.2 32.1922 80.2H33.2022C33.2689 80.2 33.3155 80.2333 33.3422 80.3L34.6722 82.94H34.7022L36.0422 80.3C36.0689 80.2333 36.1155 80.2 36.1822 80.2H37.1522C37.2322 80.2 37.2589 80.2333 37.2322 80.3L35.2622 84.22V86.9C35.2622 86.9667 35.2289 87 35.1622 87H34.1822ZM39.6835 85.88C39.6835 85.92 39.7035 85.94 39.7435 85.94H40.7535C41.1335 85.94 41.4368 85.8733 41.6635 85.74C41.8968 85.6067 42.0635 85.3867 42.1635 85.08C42.1835 85.0333 42.2002 84.9767 42.2135 84.91C42.2268 84.8367 42.2368 84.7467 42.2435 84.64C42.2568 84.5267 42.2668 84.3867 42.2735 84.22C42.2802 84.0533 42.2835 83.8467 42.2835 83.6C42.2835 83.3533 42.2802 83.1467 42.2735 82.98C42.2668 82.8133 42.2568 82.6733 42.2435 82.56C42.2368 82.4467 42.2268 82.3567 42.2135 82.29C42.2002 82.2233 42.1835 82.1667 42.1635 82.12C42.0635 81.8133 41.8968 81.5933 41.6635 81.46C41.4368 81.3267 41.1335 81.26 40.7535 81.26H39.7435C39.7035 81.26 39.6835 81.28 39.6835 81.32V85.88ZM38.5035 80.3C38.5035 80.2333 38.5368 80.2 38.6035 80.2H41.0335C42.2202 80.2 42.9768 80.7033 43.3035 81.71C43.3302 81.7967 43.3535 81.89 43.3735 81.99C43.3935 82.0833 43.4102 82.2 43.4235 82.34C43.4435 82.48 43.4569 82.6533 43.4635 82.86C43.4702 83.06 43.4735 83.3067 43.4735 83.6C43.4735 83.8933 43.4702 84.1433 43.4635 84.35C43.4569 84.55 43.4435 84.72 43.4235 84.86C43.4102 85 43.3935 85.12 43.3735 85.22C43.3535 85.3133 43.3302 85.4033 43.3035 85.49C42.9768 86.4967 42.2202 87 41.0335 87H38.6035C38.5368 87 38.5035 86.9667 38.5035 86.9V80.3ZM47.8435 83.19C48.1569 83.19 48.4069 83.1033 48.5935 82.93C48.7869 82.7567 48.8835 82.5233 48.8835 82.23C48.8835 81.93 48.7869 81.6933 48.5935 81.52C48.4069 81.3467 48.1569 81.26 47.8435 81.26H46.3935C46.3535 81.26 46.3335 81.28 46.3335 81.32V83.13C46.3335 83.17 46.3535 83.19 46.3935 83.19H47.8435ZM49.0135 87C48.9402 87 48.8902 86.9667 48.8635 86.9L47.5635 84.25H46.3935C46.3535 84.25 46.3335 84.27 46.3335 84.31V86.9C46.3335 86.9667 46.3002 87 46.2335 87H45.2535C45.1869 87 45.1535 86.9667 45.1535 86.9V80.3C45.1535 80.2333 45.1869 80.2 45.2535 80.2H47.8835C48.1969 80.2 48.4835 80.25 48.7435 80.35C49.0102 80.45 49.2402 80.59 49.4335 80.77C49.6269 80.9433 49.7769 81.1567 49.8835 81.41C49.9969 81.6567 50.0535 81.93 50.0535 82.23C50.0535 82.6767 49.9369 83.0633 49.7035 83.39C49.4702 83.7167 49.1569 83.9533 48.7635 84.1L50.1935 86.87C50.2135 86.9033 50.2135 86.9333 50.1935 86.96C50.1802 86.9867 50.1569 87 50.1235 87H49.0135ZM54.0956 86.05C54.4356 86.05 54.709 85.9733 54.9156 85.82C55.1223 85.66 55.2723 85.44 55.3656 85.16C55.3856 85.1 55.4023 85.03 55.4156 84.95C55.429 84.87 55.439 84.77 55.4456 84.65C55.459 84.53 55.469 84.3867 55.4756 84.22C55.4823 84.0467 55.4856 83.84 55.4856 83.6C55.4856 83.36 55.4823 83.1567 55.4756 82.99C55.469 82.8167 55.459 82.67 55.4456 82.55C55.439 82.43 55.429 82.33 55.4156 82.25C55.4023 82.17 55.3856 82.1 55.3656 82.04C55.2723 81.76 55.1223 81.5433 54.9156 81.39C54.709 81.23 54.4356 81.15 54.0956 81.15C53.7556 81.15 53.4823 81.23 53.2756 81.39C53.0756 81.5433 52.929 81.76 52.8356 82.04C52.8156 82.1 52.7956 82.17 52.7756 82.25C52.7623 82.33 52.749 82.43 52.7356 82.55C52.729 82.67 52.7223 82.8167 52.7156 82.99C52.7156 83.1567 52.7156 83.36 52.7156 83.6C52.7156 83.84 52.7156 84.0467 52.7156 84.22C52.7223 84.3867 52.729 84.53 52.7356 84.65C52.749 84.77 52.7623 84.87 52.7756 84.95C52.7956 85.03 52.8156 85.1 52.8356 85.16C52.929 85.44 53.0756 85.66 53.2756 85.82C53.4823 85.9733 53.7556 86.05 54.0956 86.05ZM54.0956 87.11C53.509 87.11 53.0056 86.9733 52.5856 86.7C52.1656 86.42 51.869 86.01 51.6956 85.47C51.6623 85.3633 51.6323 85.2567 51.6056 85.15C51.5856 85.0433 51.569 84.92 51.5556 84.78C51.5423 84.64 51.5323 84.4767 51.5256 84.29C51.519 84.0967 51.5156 83.8667 51.5156 83.6C51.5156 83.3333 51.519 83.1067 51.5256 82.92C51.5323 82.7267 51.5423 82.56 51.5556 82.42C51.569 82.28 51.5856 82.1567 51.6056 82.05C51.6323 81.9433 51.6623 81.8367 51.6956 81.73C51.869 81.19 52.1656 80.7833 52.5856 80.51C53.0056 80.23 53.509 80.09 54.0956 80.09C54.689 80.09 55.1956 80.23 55.6156 80.51C56.0356 80.7833 56.3323 81.19 56.5056 81.73C56.539 81.8367 56.5656 81.9433 56.5856 82.05C56.6123 82.1567 56.6323 82.28 56.6456 82.42C56.659 82.56 56.669 82.7267 56.6756 82.92C56.6823 83.1067 56.6856 83.3333 56.6856 83.6C56.6856 83.8667 56.6823 84.0967 56.6756 84.29C56.669 84.4767 56.659 84.64 56.6456 84.78C56.6323 84.92 56.6123 85.0433 56.5856 85.15C56.5656 85.2567 56.539 85.3633 56.5056 85.47C56.3323 86.01 56.0356 86.42 55.6156 86.7C55.1956 86.9733 54.689 87.11 54.0956 87.11ZM58.3652 85.47C58.3318 85.3633 58.3018 85.2567 58.2752 85.15C58.2552 85.0433 58.2385 84.92 58.2252 84.78C58.2118 84.64 58.2018 84.4767 58.1952 84.29C58.1885 84.0967 58.1852 83.8667 58.1852 83.6C58.1852 83.3333 58.1885 83.1067 58.1952 82.92C58.2018 82.7267 58.2118 82.56 58.2252 82.42C58.2385 82.28 58.2552 82.1567 58.2752 82.05C58.3018 81.9433 58.3318 81.8367 58.3652 81.73C58.5385 81.19 58.8352 80.7833 59.2552 80.51C59.6752 80.23 60.1885 80.09 60.7952 80.09C61.1152 80.09 61.4052 80.13 61.6652 80.21C61.9252 80.29 62.1552 80.3967 62.3552 80.53C62.5552 80.6567 62.7218 80.81 62.8552 80.99C62.9885 81.1633 63.0918 81.3433 63.1652 81.53C63.1918 81.59 63.1785 81.6367 63.1252 81.67L62.2852 82.04C62.2252 82.06 62.1818 82.0433 62.1552 81.99C62.0018 81.7167 61.8185 81.51 61.6052 81.37C61.3918 81.2233 61.1185 81.15 60.7852 81.15C60.4385 81.15 60.1618 81.23 59.9552 81.39C59.7485 81.5433 59.5985 81.76 59.5052 82.04C59.4852 82.1 59.4652 82.17 59.4452 82.25C59.4318 82.33 59.4185 82.43 59.4052 82.55C59.3985 82.67 59.3918 82.8167 59.3852 82.99C59.3852 83.1567 59.3852 83.36 59.3852 83.6C59.3852 83.84 59.3852 84.0467 59.3852 84.22C59.3918 84.3867 59.3985 84.53 59.4052 84.65C59.4185 84.77 59.4318 84.87 59.4452 84.95C59.4652 85.03 59.4852 85.1 59.5052 85.16C59.5985 85.44 59.7485 85.66 59.9552 85.82C60.1618 85.9733 60.4385 86.05 60.7852 86.05C61.0852 86.05 61.3518 85.98 61.5852 85.84C61.8185 85.6933 61.9818 85.48 62.0752 85.2C62.1085 85.0933 62.1352 84.97 62.1552 84.83C62.1752 84.6833 62.1852 84.5133 62.1852 84.32C62.1852 84.28 62.1652 84.26 62.1252 84.26H61.0052C60.9385 84.26 60.9052 84.2267 60.9052 84.16V83.36C60.9052 83.2933 60.9385 83.26 61.0052 83.26H63.2552C63.3218 83.26 63.3552 83.2933 63.3552 83.36V83.95C63.3552 84.23 63.3418 84.5067 63.3152 84.78C63.2885 85.0467 63.2485 85.2667 63.1952 85.44C63.0285 85.9733 62.7318 86.3867 62.3052 86.68C61.8852 86.9667 61.3818 87.11 60.7952 87.11C60.1885 87.11 59.6752 86.9733 59.2552 86.7C58.8352 86.42 58.5385 86.01 58.3652 85.47ZM65.0547 80.3C65.0547 80.2333 65.088 80.2 65.1547 80.2H69.4147C69.4814 80.2 69.5147 80.2333 69.5147 80.3V81.16C69.5147 81.2267 69.4814 81.26 69.4147 81.26H66.2947C66.2547 81.26 66.2347 81.28 66.2347 81.32V82.98C66.2347 83.02 66.2547 83.04 66.2947 83.04H68.9247C68.9914 83.04 69.0247 83.0733 69.0247 83.14V84C69.0247 84.0667 68.9914 84.1 68.9247 84.1H66.2947C66.2547 84.1 66.2347 84.12 66.2347 84.16V85.88C66.2347 85.92 66.2547 85.94 66.2947 85.94H69.4147C69.4814 85.94 69.5147 85.9733 69.5147 86.04V86.9C69.5147 86.9667 69.4814 87 69.4147 87H65.1547C65.088 87 65.0547 86.9667 65.0547 86.9V80.3ZM71.1578 80.3C71.1578 80.2333 71.1911 80.2 71.2578 80.2H72.1778C72.2511 80.2 72.3078 80.2333 72.3478 80.3L75.1178 84.99H75.1578V80.3C75.1578 80.2333 75.1911 80.2 75.2578 80.2H76.1278C76.1945 80.2 76.2278 80.2333 76.2278 80.3V86.9C76.2278 86.9667 76.1945 87 76.1278 87H75.2178C75.1445 87 75.0878 86.9667 75.0478 86.9L72.2678 82.22H72.2278V86.9C72.2278 86.9667 72.1945 87 72.1278 87H71.2578C71.1911 87 71.1578 86.9667 71.1578 86.9V80.3Z" fill="black"/>
<path d="M51.2929 102.707C50.9024 102.317 50.9024 101.683 51.2929 101.293C51.6834 100.902 52.3166 100.902 52.7071 101.293L51.2929 102.707ZM106 155C106 155.552 105.552 156 105 156L96 156C95.4477 156 95 155.552 95 155C95 154.448 95.4477 154 96 154L104 154L104 146C104 145.448 104.448 145 105 145C105.552 145 106 145.448 106 146L106 155ZM52.7071 101.293L105.707 154.293L104.293 155.707L51.2929 102.707L52.7071 101.293Z" fill="#D6E3FF"/>
</svg>
