<svg width="284" height="260" viewBox="0 0 284 260" fill="none" xmlns="http://www.w3.org/2000/svg">
<rect width="284" height="260" fill="white"/>
<path d="M79.5147 76.2254C74.8284 71.5391 74.8284 63.9411 79.5147 59.2548L133.255 5.51472C137.941 0.828428 145.539 0.828427 150.225 5.51472L203.966 59.2548C208.652 63.9411 208.652 71.5391 203.966 76.2254L150.225 129.966C145.539 134.652 137.941 134.652 133.255 129.966L79.5147 76.2254Z" stroke="#D6E3FF" stroke-width="2"/>
<path opacity="0.4" d="M123.389 92.2193C123.703 92.2193 123.953 92.1326 124.139 91.9593C124.333 91.786 124.429 91.5526 124.429 91.2593C124.429 90.9593 124.333 90.7226 124.139 90.5493C123.953 90.376 123.703 90.2893 123.389 90.2893H121.939C121.899 90.2893 121.879 90.3093 121.879 90.3493V92.1593C121.879 92.1993 121.899 92.2193 121.939 92.2193H123.389ZM124.559 96.0293C124.486 96.0293 124.436 95.996 124.409 95.9293L123.109 93.2793H121.939C121.899 93.2793 121.879 93.2993 121.879 93.3393V95.9293C121.879 95.996 121.846 96.0293 121.779 96.0293H120.799C120.733 96.0293 120.699 95.996 120.699 95.9293V89.3293C120.699 89.2626 120.733 89.2293 120.799 89.2293H123.429C123.743 89.2293 124.029 89.2793 124.289 89.3793C124.556 89.4793 124.786 89.6193 124.979 89.7993C125.173 89.9726 125.323 90.186 125.429 90.4393C125.543 90.686 125.599 90.9593 125.599 91.2593C125.599 91.706 125.483 92.0926 125.249 92.4193C125.016 92.746 124.703 92.9826 124.309 93.1293L125.739 95.8993C125.759 95.9326 125.759 95.9626 125.739 95.9893C125.726 96.016 125.703 96.0293 125.669 96.0293H124.559ZM127.291 89.3293C127.291 89.2626 127.324 89.2293 127.391 89.2293H131.651C131.717 89.2293 131.751 89.2626 131.751 89.3293V90.1893C131.751 90.256 131.717 90.2893 131.651 90.2893H128.531C128.491 90.2893 128.471 90.3093 128.471 90.3493V92.0093C128.471 92.0493 128.491 92.0693 128.531 92.0693H131.161C131.227 92.0693 131.261 92.1026 131.261 92.1693V93.0293C131.261 93.096 131.227 93.1293 131.161 93.1293H128.531C128.491 93.1293 128.471 93.1493 128.471 93.1893V94.9093C128.471 94.9493 128.491 94.9693 128.531 94.9693H131.651C131.717 94.9693 131.751 95.0026 131.751 95.0693V95.9293C131.751 95.996 131.717 96.0293 131.651 96.0293H127.391C127.324 96.0293 127.291 95.996 127.291 95.9293V89.3293ZM136.644 93.5593L135.744 90.9193H135.714L134.804 93.5593H136.644ZM135.154 89.3293C135.174 89.2626 135.217 89.2293 135.284 89.2293H136.204C136.271 89.2293 136.314 89.2626 136.334 89.3293L138.634 95.9293C138.654 95.996 138.631 96.0293 138.564 96.0293H137.584C137.517 96.0293 137.474 95.996 137.454 95.9293L137.004 94.6093H134.444L133.994 95.9293C133.974 95.996 133.931 96.0293 133.864 96.0293H132.894C132.827 96.0293 132.804 95.996 132.824 95.9293L135.154 89.3293ZM139.702 94.4693C139.668 94.3626 139.638 94.2593 139.612 94.1593C139.592 94.0526 139.575 93.9326 139.562 93.7993C139.548 93.6593 139.538 93.4993 139.532 93.3193C139.525 93.1326 139.522 92.9026 139.522 92.6293C139.522 92.3626 139.525 92.136 139.532 91.9493C139.538 91.7626 139.548 91.6026 139.562 91.4693C139.575 91.3293 139.592 91.2093 139.612 91.1093C139.638 91.0026 139.668 90.896 139.702 90.7893C139.875 90.2293 140.165 89.8126 140.572 89.5393C140.985 89.2593 141.482 89.1193 142.062 89.1193C142.608 89.1193 143.078 89.2493 143.472 89.5093C143.872 89.7693 144.168 90.126 144.362 90.5793C144.382 90.6393 144.365 90.6793 144.312 90.6993L143.462 91.1093C143.402 91.1426 143.358 91.126 143.332 91.0593C143.218 90.8193 143.062 90.6126 142.862 90.4393C142.668 90.266 142.402 90.1793 142.062 90.1793C141.735 90.1793 141.472 90.2593 141.272 90.4193C141.078 90.5793 140.935 90.7993 140.842 91.0793C140.822 91.1526 140.802 91.226 140.782 91.2993C140.768 91.3726 140.755 91.4693 140.742 91.5893C140.735 91.7026 140.728 91.8426 140.722 92.0093C140.722 92.176 140.722 92.3826 140.722 92.6293C140.722 92.8826 140.722 93.0926 140.722 93.2593C140.728 93.4193 140.735 93.5593 140.742 93.6793C140.755 93.7926 140.768 93.8893 140.782 93.9693C140.802 94.0426 140.822 94.1126 140.842 94.1793C140.935 94.4593 141.078 94.6793 141.272 94.8393C141.472 94.9993 141.735 95.0793 142.062 95.0793C142.402 95.0793 142.668 94.9926 142.862 94.8193C143.062 94.646 143.218 94.4393 143.332 94.1993C143.358 94.1326 143.402 94.116 143.462 94.1493L144.312 94.5593C144.365 94.5793 144.382 94.6193 144.362 94.6793C144.168 95.1326 143.872 95.4893 143.472 95.7493C143.078 96.0093 142.608 96.1393 142.062 96.1393C141.482 96.1393 140.985 96.0026 140.572 95.7293C140.165 95.4493 139.875 95.0293 139.702 94.4693ZM147.208 96.0293C147.141 96.0293 147.108 95.996 147.108 95.9293V90.3493C147.108 90.3093 147.088 90.2893 147.048 90.2893H145.268C145.201 90.2893 145.168 90.256 145.168 90.1893V89.3293C145.168 89.2626 145.201 89.2293 145.268 89.2293H150.128C150.195 89.2293 150.228 89.2626 150.228 89.3293V90.1893C150.228 90.256 150.195 90.2893 150.128 90.2893H148.348C148.308 90.2893 148.288 90.3093 148.288 90.3493V95.9293C148.288 95.996 148.255 96.0293 148.188 96.0293H147.208ZM153.8 95.0793C154.14 95.0793 154.413 95.0026 154.62 94.8493C154.827 94.6893 154.977 94.4693 155.07 94.1893C155.09 94.1293 155.107 94.0593 155.12 93.9793C155.133 93.8993 155.143 93.7993 155.15 93.6793C155.163 93.5593 155.173 93.416 155.18 93.2493C155.187 93.076 155.19 92.8693 155.19 92.6293C155.19 92.3893 155.187 92.186 155.18 92.0193C155.173 91.846 155.163 91.6993 155.15 91.5793C155.143 91.4593 155.133 91.3593 155.12 91.2793C155.107 91.1993 155.09 91.1293 155.07 91.0693C154.977 90.7893 154.827 90.5726 154.62 90.4193C154.413 90.2593 154.14 90.1793 153.8 90.1793C153.46 90.1793 153.187 90.2593 152.98 90.4193C152.78 90.5726 152.633 90.7893 152.54 91.0693C152.52 91.1293 152.5 91.1993 152.48 91.2793C152.467 91.3593 152.453 91.4593 152.44 91.5793C152.433 91.6993 152.427 91.846 152.42 92.0193C152.42 92.186 152.42 92.3893 152.42 92.6293C152.42 92.8693 152.42 93.076 152.42 93.2493C152.427 93.416 152.433 93.5593 152.44 93.6793C152.453 93.7993 152.467 93.8993 152.48 93.9793C152.5 94.0593 152.52 94.1293 152.54 94.1893C152.633 94.4693 152.78 94.6893 152.98 94.8493C153.187 95.0026 153.46 95.0793 153.8 95.0793ZM153.8 96.1393C153.213 96.1393 152.71 96.0026 152.29 95.7293C151.87 95.4493 151.573 95.0393 151.4 94.4993C151.367 94.3926 151.337 94.286 151.31 94.1793C151.29 94.0726 151.273 93.9493 151.26 93.8093C151.247 93.6693 151.237 93.506 151.23 93.3193C151.223 93.126 151.22 92.896 151.22 92.6293C151.22 92.3626 151.223 92.136 151.23 91.9493C151.237 91.756 151.247 91.5893 151.26 91.4493C151.273 91.3093 151.29 91.186 151.31 91.0793C151.337 90.9726 151.367 90.866 151.4 90.7593C151.573 90.2193 151.87 89.8126 152.29 89.5393C152.71 89.2593 153.213 89.1193 153.8 89.1193C154.393 89.1193 154.9 89.2593 155.32 89.5393C155.74 89.8126 156.037 90.2193 156.21 90.7593C156.243 90.866 156.27 90.9726 156.29 91.0793C156.317 91.186 156.337 91.3093 156.35 91.4493C156.363 91.5893 156.373 91.756 156.38 91.9493C156.387 92.136 156.39 92.3626 156.39 92.6293C156.39 92.896 156.387 93.126 156.38 93.3193C156.373 93.506 156.363 93.6693 156.35 93.8093C156.337 93.9493 156.317 94.0726 156.29 94.1793C156.27 94.286 156.243 94.3926 156.21 94.4993C156.037 95.0393 155.74 95.4493 155.32 95.7293C154.9 96.0026 154.393 96.1393 153.8 96.1393ZM160.78 92.2193C161.093 92.2193 161.343 92.1326 161.53 91.9593C161.723 91.786 161.82 91.5526 161.82 91.2593C161.82 90.9593 161.723 90.7226 161.53 90.5493C161.343 90.376 161.093 90.2893 160.78 90.2893H159.33C159.29 90.2893 159.27 90.3093 159.27 90.3493V92.1593C159.27 92.1993 159.29 92.2193 159.33 92.2193H160.78ZM161.95 96.0293C161.876 96.0293 161.826 95.996 161.8 95.9293L160.5 93.2793H159.33C159.29 93.2793 159.27 93.2993 159.27 93.3393V95.9293C159.27 95.996 159.236 96.0293 159.17 96.0293H158.19C158.123 96.0293 158.09 95.996 158.09 95.9293V89.3293C158.09 89.2626 158.123 89.2293 158.19 89.2293H160.82C161.133 89.2293 161.42 89.2793 161.68 89.3793C161.946 89.4793 162.176 89.6193 162.37 89.7993C162.563 89.9726 162.713 90.186 162.82 90.4393C162.933 90.686 162.99 90.9593 162.99 91.2593C162.99 91.706 162.873 92.0926 162.64 92.4193C162.406 92.746 162.093 92.9826 161.7 93.1293L163.13 95.8993C163.15 95.9326 163.15 95.9626 163.13 95.9893C163.116 96.016 163.093 96.0293 163.06 96.0293H161.95Z" fill="black"/>
<path d="M112.41 79.3409C112.286 79.3409 112.224 79.2791 112.224 79.1556V69.2789C112.224 69.2048 112.187 69.1677 112.113 69.1677H108.926C108.802 69.1677 108.74 69.1059 108.74 68.9824V66.9255C108.74 66.802 108.802 66.7402 108.926 66.7402H118.248C118.371 66.7402 118.433 66.802 118.433 66.9255V68.9824C118.433 69.1059 118.371 69.1677 118.248 69.1677H115.06C114.986 69.1677 114.949 69.2048 114.949 69.2789V79.1556C114.949 79.2791 114.887 79.3409 114.764 79.3409H112.41Z" fill="black"/>
<path d="M124.542 79.5447C123.838 79.5447 123.189 79.4397 122.596 79.2297C122.003 79.0197 121.491 78.7109 121.058 78.3032C120.638 77.8955 120.304 77.389 120.057 76.7837C119.823 76.1784 119.705 75.4866 119.705 74.7083V66.9255C119.705 66.802 119.767 66.7402 119.891 66.7402H122.244C122.368 66.7402 122.43 66.802 122.43 66.9255V74.7824C122.43 75.536 122.621 76.1166 123.004 76.5243C123.387 76.932 123.9 77.1358 124.542 77.1358C125.173 77.1358 125.679 76.932 126.062 76.5243C126.445 76.1166 126.637 75.536 126.637 74.7824V66.9255C126.637 66.802 126.698 66.7402 126.822 66.7402H129.176C129.299 66.7402 129.361 66.802 129.361 66.9255V74.7083C129.361 75.4866 129.237 76.1784 128.99 76.7837C128.756 77.389 128.422 77.8955 127.99 78.3032C127.57 78.7109 127.063 79.0197 126.47 79.2297C125.889 79.4397 125.247 79.5447 124.542 79.5447Z" fill="black"/>
<path d="M136.58 72.2252C137.099 72.2252 137.513 72.0832 137.822 71.799C138.131 71.5149 138.285 71.1319 138.285 70.6501C138.285 70.1807 138.131 69.8039 137.822 69.5198C137.513 69.2357 137.099 69.0936 136.58 69.0936H134.356C134.282 69.0936 134.245 69.1307 134.245 69.2048V72.1141C134.245 72.1882 134.282 72.2252 134.356 72.2252H136.58ZM138.489 79.3409C138.353 79.3409 138.261 79.2791 138.211 79.1556L136.043 74.5415H134.356C134.282 74.5415 134.245 74.5786 134.245 74.6527V79.1556C134.245 79.2791 134.183 79.3409 134.06 79.3409H131.706C131.583 79.3409 131.521 79.2791 131.521 79.1556V66.9255C131.521 66.802 131.583 66.7402 131.706 66.7402H136.729C137.371 66.7402 137.952 66.8391 138.471 67.0367C139.002 67.222 139.453 67.4876 139.824 67.8335C140.207 68.1794 140.497 68.5933 140.695 69.0751C140.905 69.5569 141.01 70.0819 141.01 70.6501C141.01 71.4655 140.812 72.1758 140.417 72.7811C140.021 73.3865 139.472 73.8436 138.767 74.1524L141.251 79.1185C141.275 79.1803 141.275 79.2359 141.251 79.2853C141.226 79.3224 141.183 79.3409 141.121 79.3409H138.489Z" fill="black"/>
<path d="M142.901 66.9255C142.901 66.802 142.962 66.7402 143.086 66.7402H145.31C145.446 66.7402 145.551 66.802 145.625 66.9255L150.073 74.8565H150.166V66.9255C150.166 66.802 150.227 66.7402 150.351 66.7402H152.445C152.569 66.7402 152.631 66.802 152.631 66.9255V79.1556C152.631 79.2791 152.569 79.3409 152.445 79.3409H150.24C150.104 79.3409 149.999 79.2791 149.925 79.1556L145.458 71.2431H145.366V79.1556C145.366 79.2791 145.304 79.3409 145.18 79.3409H143.086C142.962 79.3409 142.901 79.2791 142.901 79.1556V66.9255Z" fill="black"/>
<path d="M154.86 79.5191C154.86 79.4203 154.89 79.3338 154.952 79.2597L159.382 73.9971C159.629 73.7129 159.814 73.435 159.938 73.1632C160.061 72.8791 160.123 72.5764 160.123 72.2552C160.123 71.8352 159.999 71.4893 159.752 71.2175C159.518 70.9457 159.184 70.8098 158.752 70.8098C157.874 70.8098 157.38 71.304 157.269 72.2923C157.269 72.4158 157.201 72.4652 157.065 72.4405L155.026 72.107C154.903 72.0822 154.853 72.0081 154.878 71.8846C154.915 71.4522 155.026 71.0384 155.212 70.643C155.397 70.2477 155.657 69.9018 155.99 69.6053C156.336 69.3089 156.744 69.0741 157.213 68.9012C157.695 68.7159 158.239 68.6232 158.844 68.6232C159.45 68.6232 159.987 68.7159 160.457 68.9012C160.938 69.0865 161.346 69.3397 161.68 69.6609C162.013 69.9821 162.267 70.3651 162.44 70.8098C162.625 71.2422 162.718 71.7116 162.718 72.2181C162.718 72.8235 162.6 73.3732 162.366 73.8673C162.143 74.3491 161.834 74.8186 161.439 75.2756L158.121 79.1856V79.2226H162.532C162.656 79.2226 162.718 79.2844 162.718 79.4079V81.2424C162.718 81.366 162.656 81.4277 162.532 81.4277H155.045C154.921 81.4277 154.86 81.366 154.86 81.2424V79.5191Z" fill="black"/>
<path d="M172.015 79.3409C171.879 79.3409 171.774 79.2791 171.7 79.1556L169.458 75.3198H169.402L167.141 79.1556C167.067 79.2791 166.962 79.3409 166.826 79.3409H164.268C164.207 79.3409 164.163 79.3224 164.139 79.2853C164.114 79.2359 164.12 79.1803 164.157 79.1185L167.919 72.8367L164.417 66.9626C164.392 66.9008 164.386 66.8514 164.398 66.8144C164.423 66.7649 164.466 66.7402 164.528 66.7402H167.104C167.227 66.7402 167.326 66.802 167.4 66.9255L169.402 70.3351H169.458L171.459 66.9255C171.533 66.802 171.632 66.7402 171.756 66.7402H174.332C174.394 66.7402 174.431 66.7649 174.443 66.8144C174.468 66.8514 174.468 66.9008 174.443 66.9626L170.922 72.8367L174.703 79.1185C174.727 79.1803 174.727 79.2359 174.703 79.2853C174.69 79.3224 174.653 79.3409 174.591 79.3409H172.015Z" fill="black"/>
<path fill-rule="evenodd" clip-rule="evenodd" d="M150.889 34.4269C149.026 32.5634 146.005 32.5634 144.141 34.4269C143.615 34.9532 143.237 35.572 143.008 36.2309C142.819 36.7129 142.679 37.2206 142.533 37.7479C142.132 39.2011 141.69 40.8026 140.07 42.4224C138.45 44.0423 136.849 44.4842 135.396 44.8852C135.099 44.967 134.809 45.047 134.527 45.1349C133.651 45.3188 132.818 45.7505 132.138 46.4302C130.274 48.2936 130.274 51.3148 132.138 53.1782C134.001 55.0416 137.023 55.0416 138.886 53.1782C139.567 52.4976 139.999 51.6624 140.182 50.7857C140.27 50.5035 140.35 50.2141 140.432 49.9186C140.833 48.4654 141.275 46.8639 142.895 45.244C144.514 43.6242 146.116 43.1822 147.569 42.7812C148.089 42.6378 148.59 42.4997 149.065 42.3148C149.732 42.0865 150.358 41.7065 150.889 41.1749C152.753 39.3115 152.753 36.2903 150.889 34.4269Z" fill="#4579DD"/>
<path fill-rule="evenodd" clip-rule="evenodd" d="M150.889 53.1786C149.026 55.042 146.005 55.042 144.141 53.1786C143.615 52.6522 143.237 52.0335 143.008 51.3746C142.819 50.8926 142.679 50.3848 142.533 49.8576C142.132 48.4044 141.69 46.8029 140.07 45.183C138.45 43.5632 136.849 43.1212 135.396 42.7202C135.099 42.6385 134.809 42.5585 134.527 42.4706C133.651 42.2867 132.818 41.8549 132.138 41.1753C130.274 39.3119 130.274 36.2907 132.138 34.4273C134.001 32.5639 137.023 32.5639 138.886 34.4273C139.567 35.1079 139.999 35.943 140.182 36.8198C140.27 37.102 140.35 37.3914 140.432 37.6869C140.833 39.1401 141.275 40.7416 142.895 42.3614C144.514 43.9813 146.116 44.4232 147.569 44.8243C148.089 44.9676 148.59 45.1058 149.065 45.2907C149.732 45.519 150.358 45.8989 150.889 46.4306C152.753 48.294 152.753 51.3152 150.889 53.1786Z" fill="#385494"/>
<path d="M143 134C143 133.448 142.552 133 142 133C141.448 133 141 133.448 141 134L143 134ZM141.293 153.207C141.683 153.598 142.317 153.598 142.707 153.207L149.071 146.843C149.462 146.453 149.462 145.819 149.071 145.429C148.681 145.038 148.047 145.038 147.657 145.429L142 151.086L136.343 145.429C135.953 145.038 135.319 145.038 134.929 145.429C134.538 145.819 134.538 146.453 134.929 146.843L141.293 153.207ZM141 134L141 152.5L143 152.5L143 134L141 134Z" fill="#D6E3FF"/>
<rect x="92" y="259" width="100" height="100" rx="12" transform="rotate(-90 92 259)" stroke="#D6E3FF" stroke-width="2"/>
<path d="M127.586 224.192C127.514 224 127.454 223.808 127.406 223.616C127.37 223.412 127.34 223.19 127.316 222.95C127.292 222.698 127.274 222.41 127.262 222.086C127.25 221.75 127.244 221.348 127.244 220.88C127.244 220.412 127.25 220.016 127.262 219.692C127.274 219.356 127.292 219.068 127.316 218.828C127.34 218.576 127.37 218.354 127.406 218.162C127.454 217.97 127.514 217.772 127.586 217.568C127.91 216.56 128.444 215.81 129.188 215.318C129.944 214.814 130.862 214.562 131.942 214.562C132.986 214.562 133.868 214.802 134.588 215.282C135.32 215.75 135.86 216.416 136.208 217.28C136.268 217.388 136.238 217.46 136.118 217.496L134.156 218.378C134.048 218.438 133.964 218.408 133.904 218.288C133.736 217.892 133.496 217.562 133.184 217.298C132.884 217.034 132.476 216.902 131.96 216.902C131.48 216.902 131.084 217.022 130.772 217.262C130.472 217.502 130.256 217.832 130.124 218.252C130.088 218.36 130.058 218.48 130.034 218.612C130.01 218.732 129.986 218.888 129.962 219.08C129.95 219.272 129.938 219.512 129.926 219.8C129.926 220.088 129.926 220.448 129.926 220.88C129.926 221.312 129.926 221.672 129.926 221.96C129.938 222.248 129.95 222.488 129.962 222.68C129.986 222.872 130.01 223.034 130.034 223.166C130.058 223.286 130.088 223.4 130.124 223.508C130.256 223.928 130.472 224.258 130.772 224.498C131.084 224.738 131.48 224.858 131.96 224.858C132.476 224.858 132.884 224.726 133.184 224.462C133.496 224.198 133.736 223.868 133.904 223.472C133.964 223.352 134.048 223.322 134.156 223.382L136.118 224.264C136.238 224.3 136.268 224.372 136.208 224.48C135.86 225.344 135.32 226.016 134.588 226.496C133.868 226.964 132.986 227.198 131.942 227.198C130.862 227.198 129.944 226.952 129.188 226.46C128.444 225.956 127.91 225.2 127.586 224.192ZM137.922 214.94C137.922 214.82 137.982 214.76 138.102 214.76H140.388C140.508 214.76 140.568 214.82 140.568 214.94V219.53C140.568 219.602 140.604 219.638 140.676 219.638H144.672C144.744 219.638 144.78 219.602 144.78 219.53V214.94C144.78 214.82 144.84 214.76 144.96 214.76H147.246C147.366 214.76 147.426 214.82 147.426 214.94V226.82C147.426 226.94 147.366 227 147.246 227H144.96C144.84 227 144.78 226.94 144.78 226.82V222.104C144.78 222.032 144.744 221.996 144.672 221.996H140.676C140.604 221.996 140.568 222.032 140.568 222.104V226.82C140.568 226.94 140.508 227 140.388 227H138.102C137.982 227 137.922 226.94 137.922 226.82V214.94ZM149.518 225.218C149.398 225.218 149.338 225.158 149.338 225.038V223.202C149.338 223.106 149.35 223.034 149.374 222.986L153.046 214.904C153.094 214.808 153.178 214.76 153.298 214.76H155.584C155.704 214.76 155.746 214.82 155.71 214.94L152.038 222.986V223.04H154.288C154.36 223.04 154.396 223.004 154.396 222.932V220.286C154.396 220.166 154.456 220.106 154.576 220.106H156.664C156.784 220.106 156.844 220.166 156.844 220.286V222.932C156.844 223.004 156.88 223.04 156.952 223.04H157.762C157.882 223.04 157.942 223.1 157.942 223.22V225.038C157.942 225.158 157.882 225.218 157.762 225.218H156.952C156.88 225.218 156.844 225.254 156.844 225.326V226.82C156.844 226.94 156.784 227 156.664 227H154.576C154.456 227 154.396 226.94 154.396 226.82V225.326C154.396 225.254 154.36 225.218 154.288 225.218H149.518Z" fill="black"/>
<path opacity="0.4" d="M120.16 238.3C120.16 238.233 120.194 238.2 120.26 238.2H121.15C121.237 238.2 121.294 238.233 121.32 238.3L123.19 242.49H123.23L125.07 238.3C125.097 238.233 125.154 238.2 125.24 238.2H126.12C126.187 238.2 126.22 238.233 126.22 238.3V244.9C126.22 244.967 126.187 245 126.12 245H125.25C125.184 245 125.15 244.967 125.15 244.9V240.74H125.11L123.67 243.94C123.63 244.027 123.567 244.07 123.48 244.07H122.9C122.814 244.07 122.75 244.027 122.71 243.94L121.27 240.74H121.23V244.9C121.23 244.967 121.197 245 121.13 245H120.26C120.194 245 120.16 244.967 120.16 244.9V238.3ZM128.119 238.3C128.119 238.233 128.152 238.2 128.219 238.2H132.479C132.546 238.2 132.579 238.233 132.579 238.3V239.16C132.579 239.227 132.546 239.26 132.479 239.26H129.359C129.319 239.26 129.299 239.28 129.299 239.32V240.98C129.299 241.02 129.319 241.04 129.359 241.04H131.989C132.056 241.04 132.089 241.073 132.089 241.14V242C132.089 242.067 132.056 242.1 131.989 242.1H129.359C129.319 242.1 129.299 242.12 129.299 242.16V243.88C129.299 243.92 129.319 243.94 129.359 243.94H132.479C132.546 243.94 132.579 243.973 132.579 244.04V244.9C132.579 244.967 132.546 245 132.479 245H128.219C128.152 245 128.119 244.967 128.119 244.9V238.3ZM135.732 245C135.665 245 135.632 244.967 135.632 244.9V239.32C135.632 239.28 135.612 239.26 135.572 239.26H133.792C133.725 239.26 133.692 239.227 133.692 239.16V238.3C133.692 238.233 133.725 238.2 133.792 238.2H138.652C138.719 238.2 138.752 238.233 138.752 238.3V239.16C138.752 239.227 138.719 239.26 138.652 239.26H136.872C136.832 239.26 136.812 239.28 136.812 239.32V244.9C136.812 244.967 136.779 245 136.712 245H135.732ZM140.12 238.3C140.12 238.233 140.153 238.2 140.22 238.2H141.2C141.267 238.2 141.3 238.233 141.3 238.3V240.98C141.3 241.02 141.32 241.04 141.36 241.04H143.95C143.99 241.04 144.01 241.02 144.01 240.98V238.3C144.01 238.233 144.043 238.2 144.11 238.2H145.09C145.157 238.2 145.19 238.233 145.19 238.3V244.9C145.19 244.967 145.157 245 145.09 245H144.11C144.043 245 144.01 244.967 144.01 244.9V242.16C144.01 242.12 143.99 242.1 143.95 242.1H141.36C141.32 242.1 141.3 242.12 141.3 242.16V244.9C141.3 244.967 141.267 245 141.2 245H140.22C140.153 245 140.12 244.967 140.12 244.9V238.3ZM150.342 242.53L149.442 239.89H149.412L148.502 242.53H150.342ZM148.852 238.3C148.872 238.233 148.916 238.2 148.982 238.2H149.902C149.969 238.2 150.012 238.233 150.032 238.3L152.332 244.9C152.352 244.967 152.329 245 152.262 245H151.282C151.216 245 151.172 244.967 151.152 244.9L150.702 243.58H148.142L147.692 244.9C147.672 244.967 147.629 245 147.562 245H146.592C146.526 245 146.502 244.967 146.522 244.9L148.852 238.3ZM153.664 238.3C153.664 238.233 153.698 238.2 153.764 238.2H154.684C154.758 238.2 154.814 238.233 154.854 238.3L157.624 242.99H157.664V238.3C157.664 238.233 157.698 238.2 157.764 238.2H158.634C158.701 238.2 158.734 238.233 158.734 238.3V244.9C158.734 244.967 158.701 245 158.634 245H157.724C157.651 245 157.594 244.967 157.554 244.9L154.774 240.22H154.734V244.9C154.734 244.967 154.701 245 154.634 245H153.764C153.698 245 153.664 244.967 153.664 244.9V238.3ZM160.637 238.3C160.637 238.233 160.67 238.2 160.737 238.2H164.997C165.063 238.2 165.097 238.233 165.097 238.3V239.16C165.097 239.227 165.063 239.26 164.997 239.26H161.877C161.837 239.26 161.817 239.28 161.817 239.32V240.98C161.817 241.02 161.837 241.04 161.877 241.04H164.507C164.573 241.04 164.607 241.073 164.607 241.14V242C164.607 242.067 164.573 242.1 164.507 242.1H161.877C161.837 242.1 161.817 242.12 161.817 242.16V243.88C161.817 243.92 161.837 243.94 161.877 243.94H164.997C165.063 243.94 165.097 243.973 165.097 244.04V244.9C165.097 244.967 165.063 245 164.997 245H160.737C160.67 245 160.637 244.967 160.637 244.9V238.3Z" fill="black"/>
<path fill-rule="evenodd" clip-rule="evenodd" d="M138.398 186.202L138.375 186.22C138.326 186.243 138.278 186.263 138.23 186.281C138.075 186.34 137.896 186.385 137.636 186.387C137.376 186.39 137.197 186.349 137.04 186.293C136.851 186.226 136.671 186.132 136.322 185.939L136.31 185.931L136.31 185.931C136.207 185.874 136.08 185.804 135.946 185.734C135.193 185.28 134.306 185.023 133.367 185.032C130.659 185.06 128.486 187.278 128.513 189.986C128.54 192.694 130.758 194.868 133.467 194.84C134.404 194.83 135.284 194.556 136.028 194.088C136.161 194.014 136.287 193.941 136.389 193.882L136.389 193.882L136.402 193.874C136.746 193.674 136.924 193.576 137.113 193.505C137.268 193.446 137.447 193.401 137.706 193.398C137.959 193.396 138.134 193.435 138.284 193.486C138.304 193.493 138.323 193.5 138.342 193.507C138.359 193.545 138.374 193.582 138.388 193.619C138.447 193.774 138.492 193.953 138.494 194.212C138.497 194.472 138.456 194.652 138.4 194.808C138.333 194.998 138.238 195.178 138.045 195.526L138.027 195.559L138.027 195.559L138.027 195.559C137.91 195.77 137.735 196.085 137.585 196.431C137.291 197.071 137.132 197.783 137.139 198.525C137.167 201.234 139.385 203.407 142.093 203.38C144.801 203.352 146.975 201.134 146.947 198.426C146.94 197.676 146.763 196.961 146.451 196.323C146.296 195.988 146.119 195.684 145.999 195.478L145.981 195.447C145.781 195.102 145.683 194.924 145.612 194.736C145.553 194.581 145.508 194.402 145.505 194.142C145.503 193.898 145.54 193.726 145.588 193.581L145.595 193.559C145.64 193.539 145.683 193.521 145.727 193.504C145.882 193.445 146.061 193.401 146.321 193.398C146.581 193.395 146.761 193.436 146.917 193.492C147.106 193.559 147.286 193.654 147.635 193.847L147.667 193.865L147.667 193.865C147.879 193.982 148.193 194.157 148.54 194.307C149.179 194.601 149.892 194.76 150.634 194.752C153.342 194.725 155.516 192.507 155.488 189.799C155.461 187.09 153.243 184.917 150.535 184.945C149.785 184.952 149.07 185.129 148.432 185.441C148.097 185.596 147.793 185.773 147.587 185.893L147.555 185.911C147.211 186.111 147.033 186.209 146.845 186.281C146.689 186.339 146.51 186.384 146.251 186.387C146.01 186.389 145.841 186.354 145.699 186.308L145.692 186.305C145.661 186.241 145.635 186.182 145.612 186.122C145.553 185.966 145.509 185.787 145.506 185.528C145.503 185.268 145.545 185.088 145.6 184.932C145.668 184.742 145.762 184.562 145.955 184.214L145.962 184.201C146.019 184.098 146.089 183.972 146.16 183.838C146.614 183.084 146.871 182.198 146.862 181.259C146.834 178.55 144.617 176.377 141.908 176.405C139.2 176.432 137.026 178.65 137.054 181.358C137.063 182.296 137.338 183.176 137.806 183.92C137.88 184.053 137.953 184.179 138.012 184.281L138.019 184.293C138.22 184.638 138.317 184.816 138.389 185.004C138.447 185.159 138.492 185.338 138.495 185.598C138.497 185.846 138.46 186.019 138.41 186.167C138.406 186.178 138.402 186.19 138.398 186.202Z" fill="#385494"/>
</svg>
