<svg width="218" height="567" viewBox="0 0 218 567" fill="none" xmlns="http://www.w3.org/2000/svg">
<g clip-path="url(#clip0_2201_1696)">
<rect x="15.9097" y="565" width="102.537" height="101.548" rx="13" transform="rotate(-90 15.9097 565)" stroke="#D6E3FF" stroke-width="2"/>
<path d="M51.2772 519.682C51.2772 519.562 51.3372 519.502 51.4572 519.502H53.7432C53.8632 519.502 53.9232 519.562 53.9232 519.682V524.272C53.9232 524.344 53.9592 524.38 54.0312 524.38H58.0272C58.0992 524.38 58.1352 524.344 58.1352 524.272V519.682C58.1352 519.562 58.1952 519.502 58.3152 519.502H60.6012C60.7212 519.502 60.7812 519.562 60.7812 519.682V531.562C60.7812 531.682 60.7212 531.742 60.6012 531.742H58.3152C58.1952 531.742 58.1352 531.682 58.1352 531.562V526.846C58.1352 526.774 58.0992 526.738 58.0272 526.738H54.0312C53.9592 526.738 53.9232 526.774 53.9232 526.846V531.562C53.9232 531.682 53.8632 531.742 53.7432 531.742H51.4572C51.3372 531.742 51.2772 531.682 51.2772 531.562V519.682ZM63.1248 529.888C63.1248 529.792 63.1548 529.708 63.2148 529.636L67.5168 524.524C67.7568 524.248 67.9368 523.978 68.0568 523.714C68.1768 523.438 68.2368 523.144 68.2368 522.832C68.2368 522.424 68.1168 522.088 67.8768 521.824C67.6488 521.56 67.3248 521.428 66.9048 521.428C66.0528 521.428 65.5728 521.908 65.4648 522.868C65.4648 522.988 65.3988 523.036 65.2668 523.012L63.2868 522.688C63.1668 522.664 63.1188 522.592 63.1428 522.472C63.1788 522.052 63.2868 521.65 63.4668 521.266C63.6468 520.882 63.8988 520.546 64.2228 520.258C64.5588 519.97 64.9548 519.742 65.4108 519.574C65.8788 519.394 66.4068 519.304 66.9948 519.304C67.5828 519.304 68.1048 519.394 68.5608 519.574C69.0288 519.754 69.4248 520 69.7488 520.312C70.0728 520.624 70.3188 520.996 70.4868 521.428C70.6668 521.848 70.7568 522.304 70.7568 522.796C70.7568 523.384 70.6428 523.918 70.4148 524.398C70.1988 524.866 69.8988 525.322 69.5148 525.766L66.2928 529.564V529.6H70.5768C70.6968 529.6 70.7568 529.66 70.7568 529.78V531.562C70.7568 531.682 70.6968 531.742 70.5768 531.742H63.3048C63.1848 531.742 63.1248 531.682 63.1248 531.562V529.888ZM77.6088 529.6C78.1128 529.6 78.5268 529.48 78.8508 529.24C79.1748 529 79.4028 528.67 79.5348 528.25C79.5708 528.142 79.6008 528.022 79.6248 527.89C79.6488 527.746 79.6668 527.578 79.6788 527.386C79.7028 527.182 79.7148 526.936 79.7148 526.648C79.7268 526.36 79.7328 526.018 79.7328 525.622C79.7328 525.226 79.7268 524.884 79.7148 524.596C79.7148 524.308 79.7028 524.068 79.6788 523.876C79.6668 523.672 79.6488 523.504 79.6248 523.372C79.6008 523.228 79.5708 523.102 79.5348 522.994C79.4028 522.574 79.1748 522.244 78.8508 522.004C78.5268 521.764 78.1128 521.644 77.6088 521.644C77.1048 521.644 76.6908 521.764 76.3668 522.004C76.0428 522.244 75.8148 522.574 75.6828 522.994C75.6468 523.102 75.6168 523.228 75.5928 523.372C75.5688 523.504 75.5448 523.672 75.5208 523.876C75.5088 524.068 75.4968 524.308 75.4848 524.596C75.4848 524.884 75.4848 525.226 75.4848 525.622C75.4848 526.018 75.4848 526.36 75.4848 526.648C75.4968 526.936 75.5088 527.182 75.5208 527.386C75.5448 527.578 75.5688 527.746 75.5928 527.89C75.6168 528.022 75.6468 528.142 75.6828 528.25C75.8148 528.67 76.0428 529 76.3668 529.24C76.6908 529.48 77.1048 529.6 77.6088 529.6ZM77.6088 531.94C76.5408 531.94 75.6048 531.694 74.8008 531.202C74.0088 530.71 73.4568 529.966 73.1448 528.97C73.0728 528.754 73.0128 528.544 72.9648 528.34C72.9288 528.136 72.8988 527.908 72.8748 527.656C72.8508 527.404 72.8328 527.116 72.8208 526.792C72.8088 526.468 72.8028 526.078 72.8028 525.622C72.8028 525.166 72.8088 524.776 72.8208 524.452C72.8328 524.128 72.8508 523.84 72.8748 523.588C72.8988 523.336 72.9288 523.108 72.9648 522.904C73.0128 522.7 73.0728 522.49 73.1448 522.274C73.4568 521.29 74.0088 520.552 74.8008 520.06C75.6048 519.556 76.5408 519.304 77.6088 519.304C78.6768 519.304 79.6068 519.556 80.3988 520.06C81.2028 520.552 81.7608 521.29 82.0728 522.274C82.1448 522.49 82.1988 522.7 82.2348 522.904C82.2828 523.108 82.3188 523.336 82.3428 523.588C82.3668 523.84 82.3848 524.128 82.3968 524.452C82.4088 524.776 82.4148 525.166 82.4148 525.622C82.4148 526.078 82.4088 526.468 82.3968 526.792C82.3848 527.116 82.3668 527.404 82.3428 527.656C82.3188 527.908 82.2828 528.136 82.2348 528.34C82.1988 528.544 82.1448 528.754 82.0728 528.97C81.7608 529.966 81.2028 530.71 80.3988 531.202C79.6068 531.694 78.6768 531.94 77.6088 531.94Z" fill="#385494"/>
<path opacity="0.9" d="M55.5357 549.887C55.4757 549.887 55.4357 549.854 55.4157 549.787L54.1157 545.137H54.0957L52.7857 549.787C52.7657 549.854 52.7257 549.887 52.6657 549.887H51.9157C51.8557 549.887 51.8157 549.854 51.7957 549.787L50.1257 543.187C50.1123 543.121 50.139 543.087 50.2057 543.087H51.1457C51.2123 543.087 51.2523 543.121 51.2657 543.187L52.3457 547.767H52.3657L53.6357 543.187C53.6557 543.121 53.6957 543.087 53.7557 543.087H54.4557C54.5157 543.087 54.5557 543.121 54.5757 543.187L55.8757 547.767H55.8957L56.9457 543.187C56.9523 543.121 56.9923 543.087 57.0657 543.087H57.9957C58.0623 543.087 58.089 543.121 58.0757 543.187L56.4157 549.787C56.4023 549.854 56.3623 549.887 56.2957 549.887H55.5357ZM62.2368 547.417L61.3368 544.777H61.3068L60.3968 547.417H62.2368ZM60.7468 543.187C60.7668 543.121 60.8101 543.087 60.8768 543.087H61.7968C61.8634 543.087 61.9068 543.121 61.9268 543.187L64.2268 549.787C64.2468 549.854 64.2234 549.887 64.1568 549.887H63.1768C63.1101 549.887 63.0668 549.854 63.0468 549.787L62.5968 548.467H60.0368L59.5868 549.787C59.5668 549.854 59.5234 549.887 59.4568 549.887H58.4868C58.4201 549.887 58.3968 549.854 58.4168 549.787L60.7468 543.187ZM66.4729 549.887C66.4063 549.887 66.3729 549.854 66.3729 549.787V544.207C66.3729 544.167 66.3529 544.147 66.3129 544.147H64.5329C64.4663 544.147 64.4329 544.114 64.4329 544.047V543.187C64.4329 543.121 64.4663 543.087 64.5329 543.087H69.3929C69.4596 543.087 69.4929 543.121 69.4929 543.187V544.047C69.4929 544.114 69.4596 544.147 69.3929 544.147H67.6129C67.5729 544.147 67.5529 544.167 67.5529 544.207V549.787C67.5529 549.854 67.5196 549.887 67.4529 549.887H66.4729ZM70.861 543.187C70.861 543.121 70.8943 543.087 70.961 543.087H75.221C75.2877 543.087 75.321 543.121 75.321 543.187V544.047C75.321 544.114 75.2877 544.147 75.221 544.147H72.101C72.061 544.147 72.041 544.167 72.041 544.207V545.867C72.041 545.907 72.061 545.927 72.101 545.927H74.731C74.7977 545.927 74.831 545.961 74.831 546.027V546.887C74.831 546.954 74.7977 546.987 74.731 546.987H72.101C72.061 546.987 72.041 547.007 72.041 547.047V548.767C72.041 548.807 72.061 548.827 72.101 548.827H75.221C75.2877 548.827 75.321 548.861 75.321 548.927V549.787C75.321 549.854 75.2877 549.887 75.221 549.887H70.961C70.8943 549.887 70.861 549.854 70.861 549.787V543.187ZM79.6541 546.077C79.9674 546.077 80.2174 545.991 80.4041 545.817C80.5974 545.644 80.6941 545.411 80.6941 545.117C80.6941 544.817 80.5974 544.581 80.4041 544.407C80.2174 544.234 79.9674 544.147 79.6541 544.147H78.2041C78.1641 544.147 78.1441 544.167 78.1441 544.207V546.017C78.1441 546.057 78.1641 546.077 78.2041 546.077H79.6541ZM80.8241 549.887C80.7508 549.887 80.7008 549.854 80.6741 549.787L79.3741 547.137H78.2041C78.1641 547.137 78.1441 547.157 78.1441 547.197V549.787C78.1441 549.854 78.1108 549.887 78.0441 549.887H77.0641C76.9974 549.887 76.9641 549.854 76.9641 549.787V543.187C76.9641 543.121 76.9974 543.087 77.0641 543.087H79.6941C80.0074 543.087 80.2941 543.137 80.5541 543.237C80.8208 543.337 81.0508 543.477 81.2441 543.657C81.4374 543.831 81.5874 544.044 81.6941 544.297C81.8074 544.544 81.8641 544.817 81.8641 545.117C81.8641 545.564 81.7474 545.951 81.5141 546.277C81.2808 546.604 80.9674 546.841 80.5741 546.987L82.0041 549.757C82.0241 549.791 82.0241 549.821 82.0041 549.847C81.9908 549.874 81.9674 549.887 81.9341 549.887H80.8241Z" fill="#385494"/>
<path fill-rule="evenodd" clip-rule="evenodd" d="M70.0783 504.887C71.9381 503.046 71.9683 500.032 70.1458 498.153C69.631 497.622 69.0234 497.239 68.3746 497.004C67.9003 496.811 67.4 496.666 66.8805 496.515C65.4487 496.1 63.8707 495.643 62.2865 494.01C60.7022 492.377 60.2815 490.775 59.8998 489.32C59.8221 489.024 59.7459 488.734 59.6618 488.451C59.4889 487.575 59.0707 486.739 58.4059 486.054C56.5834 484.176 53.5983 484.145 51.7385 485.986C49.8788 487.826 49.8486 490.841 51.6711 492.72C52.3368 493.406 53.1576 493.845 54.022 494.037C54.3 494.128 54.5851 494.21 54.8763 494.295C56.3081 494.71 57.8861 495.167 59.4704 496.8C61.0546 498.433 61.4753 500.035 61.857 501.489C61.9935 502.009 62.125 502.51 62.3029 502.987C62.5218 503.654 62.891 504.283 63.411 504.819C65.2335 506.697 68.2186 506.728 70.0783 504.887Z" fill="#385494"/>
<path fill-rule="evenodd" clip-rule="evenodd" d="M82.0232 485.985C83.8831 487.826 83.9134 490.841 82.091 492.719C81.5762 493.25 80.9686 493.633 80.3199 493.868C79.8455 494.062 79.3453 494.207 78.8258 494.357C77.394 494.772 75.8161 495.229 74.2318 496.862C72.6476 498.495 72.227 500.097 71.8454 501.552C71.7676 501.848 71.6915 502.138 71.6075 502.421C71.4346 503.297 71.0164 504.133 70.3516 504.818C68.5292 506.696 65.5441 506.727 63.6843 504.886C61.8244 503.045 61.7941 500.03 63.6165 498.152C64.2822 497.466 65.103 497.026 65.9674 496.834C66.2453 496.744 66.5305 496.661 66.8216 496.577C68.2534 496.162 69.8314 495.705 71.4156 494.072C72.9998 492.439 73.4204 490.837 73.802 489.383C73.9385 488.863 74.07 488.362 74.2479 487.885C74.4667 487.218 74.8359 486.589 75.3558 486.053C77.1783 484.175 80.1634 484.145 82.0232 485.985Z" fill="#385494"/>
<rect width="100.043" height="100.043" rx="12" transform="matrix(0.703602 -0.710594 0.703602 0.710594 -3 282.207)" stroke="#D6E3FF" stroke-width="2"/>
<path opacity="0.9" d="M33.3039 295.3C33.3039 295.233 33.3372 295.2 33.4039 295.2H37.6639C37.7306 295.2 37.7639 295.233 37.7639 295.3V296.16C37.7639 296.227 37.7306 296.26 37.6639 296.26H34.5439C34.5039 296.26 34.4839 296.28 34.4839 296.32V297.98C34.4839 298.02 34.5039 298.04 34.5439 298.04H37.1739C37.2406 298.04 37.2739 298.073 37.2739 298.14V299C37.2739 299.067 37.2406 299.1 37.1739 299.1H34.5439C34.5039 299.1 34.4839 299.12 34.4839 299.16V300.88C34.4839 300.92 34.5039 300.94 34.5439 300.94H37.6639C37.7306 300.94 37.7639 300.973 37.7639 301.04V301.9C37.7639 301.967 37.7306 302 37.6639 302H33.4039C33.3372 302 33.3039 301.967 33.3039 301.9V295.3ZM39.407 295.3C39.407 295.233 39.4404 295.2 39.507 295.2H40.487C40.5537 295.2 40.587 295.233 40.587 295.3V300.88C40.587 300.92 40.607 300.94 40.647 300.94H43.767C43.8337 300.94 43.867 300.973 43.867 301.04V301.9C43.867 301.967 43.8337 302 43.767 302H39.507C39.4404 302 39.407 301.967 39.407 301.9V295.3ZM45.2562 295.3C45.2562 295.233 45.2896 295.2 45.3562 295.2H49.6162C49.6829 295.2 49.7162 295.233 49.7162 295.3V296.16C49.7162 296.227 49.6829 296.26 49.6162 296.26H46.4962C46.4562 296.26 46.4362 296.28 46.4362 296.32V297.98C46.4362 298.02 46.4562 298.04 46.4962 298.04H49.1262C49.1929 298.04 49.2262 298.073 49.2262 298.14V299C49.2262 299.067 49.1929 299.1 49.1262 299.1H46.4962C46.4562 299.1 46.4362 299.12 46.4362 299.16V300.88C46.4362 300.92 46.4562 300.94 46.4962 300.94H49.6162C49.6829 300.94 49.7162 300.973 49.7162 301.04V301.9C49.7162 301.967 49.6829 302 49.6162 302H45.3562C45.2896 302 45.2562 301.967 45.2562 301.9V295.3ZM51.3394 300.44C51.306 300.333 51.276 300.23 51.2494 300.13C51.2294 300.023 51.2127 299.903 51.1994 299.77C51.186 299.63 51.176 299.47 51.1694 299.29C51.1627 299.103 51.1594 298.873 51.1594 298.6C51.1594 298.333 51.1627 298.107 51.1694 297.92C51.176 297.733 51.186 297.573 51.1994 297.44C51.2127 297.3 51.2294 297.18 51.2494 297.08C51.276 296.973 51.306 296.867 51.3394 296.76C51.5127 296.2 51.8027 295.783 52.2094 295.51C52.6227 295.23 53.1194 295.09 53.6994 295.09C54.246 295.09 54.716 295.22 55.1094 295.48C55.5094 295.74 55.806 296.097 55.9994 296.55C56.0194 296.61 56.0027 296.65 55.9494 296.67L55.0994 297.08C55.0394 297.113 54.996 297.097 54.9694 297.03C54.856 296.79 54.6994 296.583 54.4994 296.41C54.306 296.237 54.0394 296.15 53.6994 296.15C53.3727 296.15 53.1094 296.23 52.9094 296.39C52.716 296.55 52.5727 296.77 52.4794 297.05C52.4594 297.123 52.4394 297.197 52.4194 297.27C52.406 297.343 52.3927 297.44 52.3794 297.56C52.3727 297.673 52.366 297.813 52.3594 297.98C52.3594 298.147 52.3594 298.353 52.3594 298.6C52.3594 298.853 52.3594 299.063 52.3594 299.23C52.366 299.39 52.3727 299.53 52.3794 299.65C52.3927 299.763 52.406 299.86 52.4194 299.94C52.4394 300.013 52.4594 300.083 52.4794 300.15C52.5727 300.43 52.716 300.65 52.9094 300.81C53.1094 300.97 53.3727 301.05 53.6994 301.05C54.0394 301.05 54.306 300.963 54.4994 300.79C54.6994 300.617 54.856 300.41 54.9694 300.17C54.996 300.103 55.0394 300.087 55.0994 300.12L55.9494 300.53C56.0027 300.55 56.0194 300.59 55.9994 300.65C55.806 301.103 55.5094 301.46 55.1094 301.72C54.716 301.98 54.246 302.11 53.6994 302.11C53.1194 302.11 52.6227 301.973 52.2094 301.7C51.8027 301.42 51.5127 301 51.3394 300.44ZM58.8455 302C58.7789 302 58.7455 301.967 58.7455 301.9V296.32C58.7455 296.28 58.7255 296.26 58.6855 296.26H56.9055C56.8389 296.26 56.8055 296.227 56.8055 296.16V295.3C56.8055 295.233 56.8389 295.2 56.9055 295.2H61.7655C61.8322 295.2 61.8655 295.233 61.8655 295.3V296.16C61.8655 296.227 61.8322 296.26 61.7655 296.26H59.9855C59.9455 296.26 59.9255 296.28 59.9255 296.32V301.9C59.9255 301.967 59.8922 302 59.8255 302H58.8455ZM65.9236 298.19C66.2369 298.19 66.4869 298.103 66.6736 297.93C66.8669 297.757 66.9636 297.523 66.9636 297.23C66.9636 296.93 66.8669 296.693 66.6736 296.52C66.4869 296.347 66.2369 296.26 65.9236 296.26H64.4736C64.4336 296.26 64.4136 296.28 64.4136 296.32V298.13C64.4136 298.17 64.4336 298.19 64.4736 298.19H65.9236ZM67.0936 302C67.0203 302 66.9703 301.967 66.9436 301.9L65.6436 299.25H64.4736C64.4336 299.25 64.4136 299.27 64.4136 299.31V301.9C64.4136 301.967 64.3803 302 64.3136 302H63.3336C63.2669 302 63.2336 301.967 63.2336 301.9V295.3C63.2336 295.233 63.2669 295.2 63.3336 295.2H65.9636C66.2769 295.2 66.5636 295.25 66.8236 295.35C67.0903 295.45 67.3203 295.59 67.5136 295.77C67.7069 295.943 67.8569 296.157 67.9636 296.41C68.0769 296.657 68.1336 296.93 68.1336 297.23C68.1336 297.677 68.0169 298.063 67.7836 298.39C67.5503 298.717 67.2369 298.953 66.8436 299.1L68.2736 301.87C68.2936 301.903 68.2936 301.933 68.2736 301.96C68.2603 301.987 68.2369 302 68.2036 302H67.0936ZM72.1757 301.05C72.5157 301.05 72.789 300.973 72.9957 300.82C73.2024 300.66 73.3524 300.44 73.4457 300.16C73.4657 300.1 73.4824 300.03 73.4957 299.95C73.509 299.87 73.519 299.77 73.5257 299.65C73.539 299.53 73.549 299.387 73.5557 299.22C73.5624 299.047 73.5657 298.84 73.5657 298.6C73.5657 298.36 73.5624 298.157 73.5557 297.99C73.549 297.817 73.539 297.67 73.5257 297.55C73.519 297.43 73.509 297.33 73.4957 297.25C73.4824 297.17 73.4657 297.1 73.4457 297.04C73.3524 296.76 73.2024 296.543 72.9957 296.39C72.789 296.23 72.5157 296.15 72.1757 296.15C71.8357 296.15 71.5624 296.23 71.3557 296.39C71.1557 296.543 71.009 296.76 70.9157 297.04C70.8957 297.1 70.8757 297.17 70.8557 297.25C70.8424 297.33 70.829 297.43 70.8157 297.55C70.809 297.67 70.8024 297.817 70.7957 297.99C70.7957 298.157 70.7957 298.36 70.7957 298.6C70.7957 298.84 70.7957 299.047 70.7957 299.22C70.8024 299.387 70.809 299.53 70.8157 299.65C70.829 299.77 70.8424 299.87 70.8557 299.95C70.8757 300.03 70.8957 300.1 70.9157 300.16C71.009 300.44 71.1557 300.66 71.3557 300.82C71.5624 300.973 71.8357 301.05 72.1757 301.05ZM72.1757 302.11C71.589 302.11 71.0857 301.973 70.6657 301.7C70.2457 301.42 69.949 301.01 69.7757 300.47C69.7424 300.363 69.7124 300.257 69.6857 300.15C69.6657 300.043 69.649 299.92 69.6357 299.78C69.6224 299.64 69.6124 299.477 69.6057 299.29C69.599 299.097 69.5957 298.867 69.5957 298.6C69.5957 298.333 69.599 298.107 69.6057 297.92C69.6124 297.727 69.6224 297.56 69.6357 297.42C69.649 297.28 69.6657 297.157 69.6857 297.05C69.7124 296.943 69.7424 296.837 69.7757 296.73C69.949 296.19 70.2457 295.783 70.6657 295.51C71.0857 295.23 71.589 295.09 72.1757 295.09C72.769 295.09 73.2757 295.23 73.6957 295.51C74.1157 295.783 74.4124 296.19 74.5857 296.73C74.619 296.837 74.6457 296.943 74.6657 297.05C74.6924 297.157 74.7124 297.28 74.7257 297.42C74.739 297.56 74.749 297.727 74.7557 297.92C74.7624 298.107 74.7657 298.333 74.7657 298.6C74.7657 298.867 74.7624 299.097 74.7557 299.29C74.749 299.477 74.739 299.64 74.7257 299.78C74.7124 299.92 74.6924 300.043 74.6657 300.15C74.6457 300.257 74.619 300.363 74.5857 300.47C74.4124 301.01 74.1157 301.42 73.6957 301.7C73.2757 301.973 72.769 302.11 72.1757 302.11ZM76.4652 295.3C76.4652 295.233 76.4986 295.2 76.5652 295.2H77.5452C77.6119 295.2 77.6452 295.233 77.6452 295.3V300.88C77.6452 300.92 77.6652 300.94 77.7052 300.94H80.8252C80.8919 300.94 80.9252 300.973 80.9252 301.04V301.9C80.9252 301.967 80.8919 302 80.8252 302H76.5652C76.4986 302 76.4652 301.967 76.4652 301.9V295.3ZM82.9146 302C82.8479 302 82.8146 301.967 82.8146 301.9V299.22L80.8446 295.3C80.8179 295.233 80.8446 295.2 80.9246 295.2H81.9346C82.0013 295.2 82.0479 295.233 82.0746 295.3L83.4046 297.94H83.4346L84.7746 295.3C84.8013 295.233 84.8479 295.2 84.9146 295.2H85.8846C85.9646 295.2 85.9913 295.233 85.9646 295.3L83.9946 299.22V301.9C83.9946 301.967 83.9613 302 83.8946 302H82.9146ZM89.122 302.11C88.8687 302.11 88.622 302.087 88.382 302.04C88.142 301.993 87.912 301.93 87.692 301.85C87.4787 301.77 87.2787 301.677 87.092 301.57C86.912 301.457 86.7554 301.337 86.622 301.21C86.5687 301.157 86.562 301.107 86.602 301.06L87.222 300.34C87.2687 300.287 87.3154 300.283 87.362 300.33C87.4687 300.417 87.5887 300.503 87.722 300.59C87.862 300.677 88.0087 300.753 88.162 300.82C88.322 300.887 88.4887 300.943 88.662 300.99C88.8354 301.03 89.0187 301.05 89.212 301.05C89.6187 301.05 89.932 300.96 90.152 300.78C90.3787 300.593 90.492 300.357 90.492 300.07C90.492 299.823 90.402 299.623 90.222 299.47C90.042 299.31 89.7187 299.197 89.252 299.13L88.892 299.08C88.232 298.987 87.7254 298.783 87.372 298.47C87.0187 298.15 86.842 297.707 86.842 297.14C86.842 296.833 86.8954 296.553 87.002 296.3C87.1087 296.047 87.262 295.83 87.462 295.65C87.662 295.47 87.902 295.333 88.182 295.24C88.4687 295.14 88.7887 295.09 89.142 295.09C89.5687 295.09 89.972 295.153 90.352 295.28C90.7387 295.4 91.0687 295.563 91.342 295.77C91.3887 295.81 91.3954 295.857 91.362 295.91L90.882 296.65C90.842 296.703 90.7954 296.713 90.742 296.68C90.462 296.5 90.192 296.367 89.932 296.28C89.672 296.193 89.3987 296.15 89.112 296.15C88.7654 296.15 88.4987 296.237 88.312 296.41C88.132 296.577 88.042 296.793 88.042 297.06C88.042 297.293 88.1354 297.49 88.322 297.65C88.5087 297.803 88.832 297.913 89.292 297.98L89.652 298.03C90.312 298.123 90.8154 298.33 91.162 298.65C91.5087 298.963 91.682 299.413 91.682 300C91.682 300.3 91.6287 300.58 91.522 300.84C91.4154 301.1 91.252 301.323 91.032 301.51C90.8187 301.697 90.552 301.843 90.232 301.95C89.912 302.057 89.542 302.11 89.122 302.11ZM93.2512 295.3C93.2512 295.233 93.2845 295.2 93.3512 295.2H94.3312C94.3978 295.2 94.4312 295.233 94.4312 295.3V301.9C94.4312 301.967 94.3978 302 94.3312 302H93.3512C93.2845 302 93.2512 301.967 93.2512 301.9V295.3ZM98.467 302.11C98.2136 302.11 97.967 302.087 97.727 302.04C97.487 301.993 97.257 301.93 97.037 301.85C96.8236 301.77 96.6236 301.677 96.437 301.57C96.257 301.457 96.1003 301.337 95.967 301.21C95.9136 301.157 95.907 301.107 95.947 301.06L96.567 300.34C96.6136 300.287 96.6603 300.283 96.707 300.33C96.8136 300.417 96.9336 300.503 97.067 300.59C97.207 300.677 97.3536 300.753 97.507 300.82C97.667 300.887 97.8336 300.943 98.007 300.99C98.1803 301.03 98.3636 301.05 98.557 301.05C98.9636 301.05 99.277 300.96 99.497 300.78C99.7236 300.593 99.837 300.357 99.837 300.07C99.837 299.823 99.747 299.623 99.567 299.47C99.387 299.31 99.0636 299.197 98.597 299.13L98.237 299.08C97.577 298.987 97.0703 298.783 96.717 298.47C96.3636 298.15 96.187 297.707 96.187 297.14C96.187 296.833 96.2403 296.553 96.347 296.3C96.4536 296.047 96.607 295.83 96.807 295.65C97.007 295.47 97.247 295.333 97.527 295.24C97.8136 295.14 98.1336 295.09 98.487 295.09C98.9136 295.09 99.317 295.153 99.697 295.28C100.084 295.4 100.414 295.563 100.687 295.77C100.734 295.81 100.74 295.857 100.707 295.91L100.227 296.65C100.187 296.703 100.14 296.713 100.087 296.68C99.807 296.5 99.537 296.367 99.277 296.28C99.017 296.193 98.7436 296.15 98.457 296.15C98.1103 296.15 97.8436 296.237 97.657 296.41C97.477 296.577 97.387 296.793 97.387 297.06C97.387 297.293 97.4803 297.49 97.667 297.65C97.8536 297.803 98.177 297.913 98.637 297.98L98.997 298.03C99.657 298.123 100.16 298.33 100.507 298.65C100.854 298.963 101.027 299.413 101.027 300C101.027 300.3 100.974 300.58 100.867 300.84C100.76 301.1 100.597 301.323 100.377 301.51C100.164 301.697 99.897 301.843 99.577 301.95C99.257 302.057 98.887 302.11 98.467 302.11Z" fill="#385494"/>
<rect x="16.9048" y="103.537" width="102.537" height="101.548" rx="13" transform="rotate(-90 16.9048 103.537)" stroke="#D6E3FF" stroke-width="2"/>
<path opacity="0.9" d="M49.582 81.7241C49.582 81.6574 49.6153 81.6241 49.682 81.6241H53.942C54.0087 81.6241 54.042 81.6574 54.042 81.7241V82.5841C54.042 82.6507 54.0087 82.6841 53.942 82.6841H50.822C50.782 82.6841 50.762 82.7041 50.762 82.7441V84.4041C50.762 84.4441 50.782 84.4641 50.822 84.4641H53.452C53.5187 84.4641 53.552 84.4974 53.552 84.5641V85.4241C53.552 85.4907 53.5187 85.5241 53.452 85.5241H50.822C50.782 85.5241 50.762 85.5441 50.762 85.5841V87.3041C50.762 87.3441 50.782 87.3641 50.822 87.3641H53.942C54.0087 87.3641 54.042 87.3974 54.042 87.4641V88.3241C54.042 88.3907 54.0087 88.4241 53.942 88.4241H49.682C49.6153 88.4241 49.582 88.3907 49.582 88.3241V81.7241ZM55.6851 81.7241C55.6851 81.6574 55.7185 81.6241 55.7851 81.6241H56.7051C56.7785 81.6241 56.8351 81.6574 56.8751 81.7241L59.6451 86.4141H59.6851V81.7241C59.6851 81.6574 59.7185 81.6241 59.7851 81.6241H60.6551C60.7218 81.6241 60.7551 81.6574 60.7551 81.7241V88.3241C60.7551 88.3907 60.7218 88.4241 60.6551 88.4241H59.7451C59.6718 88.4241 59.6151 88.3907 59.5751 88.3241L56.7951 83.6441H56.7551V88.3241C56.7551 88.3907 56.7218 88.4241 56.6551 88.4241H55.7851C55.7185 88.4241 55.6851 88.3907 55.6851 88.3241V81.7241ZM62.6574 81.7241C62.6574 81.6574 62.6907 81.6241 62.7574 81.6241H67.0174C67.0841 81.6241 67.1174 81.6574 67.1174 81.7241V82.5841C67.1174 82.6507 67.0841 82.6841 67.0174 82.6841H63.8974C63.8574 82.6841 63.8374 82.7041 63.8374 82.7441V84.4041C63.8374 84.4441 63.8574 84.4641 63.8974 84.4641H66.5274C66.5941 84.4641 66.6274 84.4974 66.6274 84.5641V85.4241C66.6274 85.4907 66.5941 85.5241 66.5274 85.5241H63.8974C63.8574 85.5241 63.8374 85.5441 63.8374 85.5841V87.3041C63.8374 87.3441 63.8574 87.3641 63.8974 87.3641H67.0174C67.0841 87.3641 67.1174 87.3974 67.1174 87.4641V88.3241C67.1174 88.3907 67.0841 88.4241 67.0174 88.4241H62.7574C62.6907 88.4241 62.6574 88.3907 62.6574 88.3241V81.7241ZM71.4505 84.6141C71.7638 84.6141 72.0138 84.5274 72.2005 84.3541C72.3938 84.1807 72.4905 83.9474 72.4905 83.6541C72.4905 83.3541 72.3938 83.1174 72.2005 82.9441C72.0138 82.7707 71.7638 82.6841 71.4505 82.6841H70.0005C69.9605 82.6841 69.9405 82.7041 69.9405 82.7441V84.5541C69.9405 84.5941 69.9605 84.6141 70.0005 84.6141H71.4505ZM72.6205 88.4241C72.5472 88.4241 72.4972 88.3907 72.4705 88.3241L71.1705 85.6741H70.0005C69.9605 85.6741 69.9405 85.6941 69.9405 85.7341V88.3241C69.9405 88.3907 69.9072 88.4241 69.8405 88.4241H68.8605C68.7938 88.4241 68.7605 88.3907 68.7605 88.3241V81.7241C68.7605 81.6574 68.7938 81.6241 68.8605 81.6241H71.4905C71.8038 81.6241 72.0905 81.6741 72.3505 81.7741C72.6172 81.8741 72.8472 82.0141 73.0405 82.1941C73.2338 82.3674 73.3838 82.5807 73.4905 82.8341C73.6038 83.0807 73.6605 83.3541 73.6605 83.6541C73.6605 84.1007 73.5438 84.4874 73.3105 84.8141C73.0772 85.1407 72.7638 85.3774 72.3705 85.5241L73.8005 88.2941C73.8205 88.3274 73.8205 88.3574 73.8005 88.3841C73.7872 88.4107 73.7638 88.4241 73.7305 88.4241H72.6205ZM75.3026 86.8941C75.2693 86.7874 75.2393 86.6807 75.2126 86.5741C75.1926 86.4674 75.176 86.3441 75.1626 86.2041C75.1493 86.0641 75.1393 85.9007 75.1326 85.7141C75.126 85.5207 75.1226 85.2907 75.1226 85.0241C75.1226 84.7574 75.126 84.5307 75.1326 84.3441C75.1393 84.1507 75.1493 83.9841 75.1626 83.8441C75.176 83.7041 75.1926 83.5807 75.2126 83.4741C75.2393 83.3674 75.2693 83.2607 75.3026 83.1541C75.476 82.6141 75.7726 82.2074 76.1926 81.9341C76.6126 81.6541 77.126 81.5141 77.7326 81.5141C78.0526 81.5141 78.3426 81.5541 78.6026 81.6341C78.8626 81.7141 79.0926 81.8207 79.2926 81.9541C79.4926 82.0807 79.6593 82.2341 79.7926 82.4141C79.926 82.5874 80.0293 82.7674 80.1026 82.9541C80.1293 83.0141 80.116 83.0607 80.0626 83.0941L79.2226 83.4641C79.1626 83.4841 79.1193 83.4674 79.0926 83.4141C78.9393 83.1407 78.756 82.9341 78.5426 82.7941C78.3293 82.6474 78.056 82.5741 77.7226 82.5741C77.376 82.5741 77.0993 82.6541 76.8926 82.8141C76.686 82.9674 76.536 83.1841 76.4426 83.4641C76.4226 83.5241 76.4026 83.5941 76.3826 83.6741C76.3693 83.7541 76.356 83.8541 76.3426 83.9741C76.336 84.0941 76.3293 84.2407 76.3226 84.4141C76.3226 84.5807 76.3226 84.7841 76.3226 85.0241C76.3226 85.2641 76.3226 85.4707 76.3226 85.6441C76.3293 85.8107 76.336 85.9541 76.3426 86.0741C76.356 86.1941 76.3693 86.2941 76.3826 86.3741C76.4026 86.4541 76.4226 86.5241 76.4426 86.5841C76.536 86.8641 76.686 87.0841 76.8926 87.2441C77.0993 87.3974 77.376 87.4741 77.7226 87.4741C78.0226 87.4741 78.2893 87.4041 78.5226 87.2641C78.756 87.1174 78.9193 86.9041 79.0126 86.6241C79.046 86.5174 79.0726 86.3941 79.0926 86.2541C79.1126 86.1074 79.1226 85.9374 79.1226 85.7441C79.1226 85.7041 79.1026 85.6841 79.0626 85.6841H77.9426C77.876 85.6841 77.8426 85.6507 77.8426 85.5841V84.7841C77.8426 84.7174 77.876 84.6841 77.9426 84.6841H80.1926C80.2593 84.6841 80.2926 84.7174 80.2926 84.7841V85.3741C80.2926 85.6541 80.2793 85.9307 80.2526 86.2041C80.226 86.4707 80.186 86.6907 80.1326 86.8641C79.966 87.3974 79.6693 87.8107 79.2426 88.1041C78.8226 88.3907 78.3193 88.5341 77.7326 88.5341C77.126 88.5341 76.6126 88.3974 76.1926 88.1241C75.7726 87.8441 75.476 87.4341 75.3026 86.8941ZM83.354 88.4241C83.2874 88.4241 83.254 88.3907 83.254 88.3241V85.6441L81.284 81.7241C81.2574 81.6574 81.284 81.6241 81.364 81.6241H82.374C82.4407 81.6241 82.4874 81.6574 82.514 81.7241L83.844 84.3641H83.874L85.214 81.7241C85.2407 81.6574 85.2874 81.6241 85.354 81.6241H86.324C86.404 81.6241 86.4307 81.6574 86.404 81.7241L84.434 85.6441V88.3241C84.434 88.3907 84.4007 88.4241 84.334 88.4241H83.354Z" fill="#385494"/>
<path d="M57.7241 42.3578L66.6156 28.1396V42.3578H57.7241Z" fill="#385494" stroke="#385494" stroke-width="4" stroke-linejoin="round"/>
<path d="M75.5107 41.6093L66.6192 55.8274V41.6093H75.5107Z" fill="#385494" stroke="#385494" stroke-width="4" stroke-linejoin="round"/>
<path fill-rule="evenodd" clip-rule="evenodd" d="M58.9777 254.347C57.1856 254.347 55.7329 255.814 55.7329 257.624V261.652C55.7329 261.681 55.7333 261.709 55.734 261.738L55.734 272.689C55.734 274.774 57.4081 276.465 59.4731 276.465C61.5382 276.465 63.2122 274.774 63.2122 272.689L63.2122 264.929H70.1164L70.1164 272.689C70.1164 274.774 71.7904 276.465 73.8555 276.465C75.9205 276.465 77.5946 274.774 77.5946 272.689V261.763C77.5958 261.726 77.5964 261.689 77.5964 261.652V257.624C77.5964 255.814 76.1437 254.347 74.3516 254.347H58.9777Z" fill="#385494"/>
<path d="M68.6787 103.542C68.6787 102.99 68.231 102.542 67.6787 102.542C67.1264 102.542 66.6787 102.99 66.6787 103.542L68.6787 103.542ZM66.9716 207.802C67.3621 208.192 67.9953 208.192 68.3858 207.802L74.7498 201.438C75.1403 201.047 75.1403 200.414 74.7498 200.024C74.3593 199.633 73.7261 199.633 73.3356 200.024L67.6787 205.681L62.0219 200.024C61.6313 199.633 60.9982 199.633 60.6076 200.024C60.2171 200.414 60.2171 201.047 60.6076 201.438L66.9716 207.802ZM66.6787 103.542L66.6787 207.095L68.6787 207.095L68.6787 103.542L66.6787 103.542Z" fill="#D6E3FF"/>
<path d="M68.6787 462.458C68.6787 463.01 68.231 463.458 67.6787 463.458C67.1264 463.458 66.6787 463.01 66.6787 462.458L68.6787 462.458ZM66.9716 356.187C67.3621 355.797 67.9953 355.797 68.3858 356.187L74.7498 362.551C75.1403 362.942 75.1403 363.575 74.7498 363.966C74.3593 364.356 73.7261 364.356 73.3356 363.966L67.6787 358.309L62.0219 363.966C61.6313 364.356 60.9982 364.356 60.6076 363.966C60.2171 363.575 60.2171 362.942 60.6076 362.551L66.9716 356.187ZM66.6787 462.458L66.6787 356.895L68.6787 356.895L68.6787 462.458L66.6787 462.458Z" fill="#D6E3FF"/>
<path d="M133.38 281.497C132.828 281.497 132.38 281.945 132.38 282.497C132.38 283.05 132.828 283.497 133.38 283.497L133.38 281.497ZM217.707 283.204C218.097 282.814 218.097 282.181 217.707 281.79L211.343 275.426C210.952 275.036 210.319 275.036 209.929 275.426C209.538 275.817 209.538 276.45 209.929 276.84L215.586 282.497L209.929 288.154C209.538 288.545 209.538 289.178 209.929 289.568C210.319 289.959 210.952 289.959 211.343 289.568L217.707 283.204ZM133.38 283.497L217 283.497L217 281.497L133.38 281.497L133.38 283.497Z" fill="#D6E3FF"/>
</g>
<defs>
<clipPath id="clip0_2201_1696">
<rect width="218" height="567" fill="white"/>
</clipPath>
</defs>
</svg>
