<svg width="283" height="279" viewBox="0 0 283 279" fill="none" xmlns="http://www.w3.org/2000/svg">
<rect x="180" y="103" width="102" height="102" rx="13" transform="rotate(-90 180 103)" stroke="#D6E3FF" stroke-width="2"/>
<path opacity="0.9" d="M212.903 81.3C212.903 81.2333 212.937 81.2 213.003 81.2H217.263C217.33 81.2 217.363 81.2333 217.363 81.3V82.16C217.363 82.2267 217.33 82.26 217.263 82.26H214.143C214.103 82.26 214.083 82.28 214.083 82.32V83.98C214.083 84.02 214.103 84.04 214.143 84.04H216.773C216.84 84.04 216.873 84.0733 216.873 84.14V85C216.873 85.0667 216.84 85.1 216.773 85.1H214.143C214.103 85.1 214.083 85.12 214.083 85.16V86.88C214.083 86.92 214.103 86.94 214.143 86.94H217.263C217.33 86.94 217.363 86.9733 217.363 87.04V87.9C217.363 87.9667 217.33 88 217.263 88H213.003C212.937 88 212.903 87.9667 212.903 87.9V81.3ZM219.006 81.3C219.006 81.2333 219.04 81.2 219.106 81.2H220.026C220.1 81.2 220.156 81.2333 220.196 81.3L222.966 85.99H223.006V81.3C223.006 81.2333 223.04 81.2 223.106 81.2H223.976C224.043 81.2 224.076 81.2333 224.076 81.3V87.9C224.076 87.9667 224.043 88 223.976 88H223.066C222.993 88 222.936 87.9667 222.896 87.9L220.116 83.22H220.076V87.9C220.076 87.9667 220.043 88 219.976 88H219.106C219.04 88 219.006 87.9667 219.006 87.9V81.3ZM225.979 81.3C225.979 81.2333 226.012 81.2 226.079 81.2H230.339C230.405 81.2 230.439 81.2333 230.439 81.3V82.16C230.439 82.2267 230.405 82.26 230.339 82.26H227.219C227.179 82.26 227.159 82.28 227.159 82.32V83.98C227.159 84.02 227.179 84.04 227.219 84.04H229.849C229.915 84.04 229.949 84.0733 229.949 84.14V85C229.949 85.0667 229.915 85.1 229.849 85.1H227.219C227.179 85.1 227.159 85.12 227.159 85.16V86.88C227.159 86.92 227.179 86.94 227.219 86.94H230.339C230.405 86.94 230.439 86.9733 230.439 87.04V87.9C230.439 87.9667 230.405 88 230.339 88H226.079C226.012 88 225.979 87.9667 225.979 87.9V81.3ZM234.772 84.19C235.085 84.19 235.335 84.1033 235.522 83.93C235.715 83.7567 235.812 83.5233 235.812 83.23C235.812 82.93 235.715 82.6933 235.522 82.52C235.335 82.3467 235.085 82.26 234.772 82.26H233.322C233.282 82.26 233.262 82.28 233.262 82.32V84.13C233.262 84.17 233.282 84.19 233.322 84.19H234.772ZM235.942 88C235.869 88 235.819 87.9667 235.792 87.9L234.492 85.25H233.322C233.282 85.25 233.262 85.27 233.262 85.31V87.9C233.262 87.9667 233.229 88 233.162 88H232.182C232.115 88 232.082 87.9667 232.082 87.9V81.3C232.082 81.2333 232.115 81.2 232.182 81.2H234.812C235.125 81.2 235.412 81.25 235.672 81.35C235.939 81.45 236.169 81.59 236.362 81.77C236.555 81.9433 236.705 82.1567 236.812 82.41C236.925 82.6567 236.982 82.93 236.982 83.23C236.982 83.6767 236.865 84.0633 236.632 84.39C236.399 84.7167 236.085 84.9533 235.692 85.1L237.122 87.87C237.142 87.9033 237.142 87.9333 237.122 87.96C237.109 87.9867 237.085 88 237.052 88H235.942ZM238.624 86.47C238.591 86.3633 238.561 86.2567 238.534 86.15C238.514 86.0433 238.497 85.92 238.484 85.78C238.471 85.64 238.461 85.4767 238.454 85.29C238.447 85.0967 238.444 84.8667 238.444 84.6C238.444 84.3333 238.447 84.1067 238.454 83.92C238.461 83.7267 238.471 83.56 238.484 83.42C238.497 83.28 238.514 83.1567 238.534 83.05C238.561 82.9433 238.591 82.8367 238.624 82.73C238.797 82.19 239.094 81.7833 239.514 81.51C239.934 81.23 240.447 81.09 241.054 81.09C241.374 81.09 241.664 81.13 241.924 81.21C242.184 81.29 242.414 81.3967 242.614 81.53C242.814 81.6567 242.981 81.81 243.114 81.99C243.247 82.1633 243.351 82.3433 243.424 82.53C243.451 82.59 243.437 82.6367 243.384 82.67L242.544 83.04C242.484 83.06 242.441 83.0433 242.414 82.99C242.261 82.7167 242.077 82.51 241.864 82.37C241.651 82.2233 241.377 82.15 241.044 82.15C240.697 82.15 240.421 82.23 240.214 82.39C240.007 82.5433 239.857 82.76 239.764 83.04C239.744 83.1 239.724 83.17 239.704 83.25C239.691 83.33 239.677 83.43 239.664 83.55C239.657 83.67 239.651 83.8167 239.644 83.99C239.644 84.1567 239.644 84.36 239.644 84.6C239.644 84.84 239.644 85.0467 239.644 85.22C239.651 85.3867 239.657 85.53 239.664 85.65C239.677 85.77 239.691 85.87 239.704 85.95C239.724 86.03 239.744 86.1 239.764 86.16C239.857 86.44 240.007 86.66 240.214 86.82C240.421 86.9733 240.697 87.05 241.044 87.05C241.344 87.05 241.611 86.98 241.844 86.84C242.077 86.6933 242.241 86.48 242.334 86.2C242.367 86.0933 242.394 85.97 242.414 85.83C242.434 85.6833 242.444 85.5133 242.444 85.32C242.444 85.28 242.424 85.26 242.384 85.26H241.264C241.197 85.26 241.164 85.2267 241.164 85.16V84.36C241.164 84.2933 241.197 84.26 241.264 84.26H243.514C243.581 84.26 243.614 84.2933 243.614 84.36V84.95C243.614 85.23 243.601 85.5067 243.574 85.78C243.547 86.0467 243.507 86.2667 243.454 86.44C243.287 86.9733 242.991 87.3867 242.564 87.68C242.144 87.9667 241.641 88.11 241.054 88.11C240.447 88.11 239.934 87.9733 239.514 87.7C239.094 87.42 238.797 87.01 238.624 86.47ZM246.675 88C246.609 88 246.575 87.9667 246.575 87.9V85.22L244.605 81.3C244.579 81.2333 244.605 81.2 244.685 81.2H245.695C245.762 81.2 245.809 81.2333 245.835 81.3L247.165 83.94H247.195L248.535 81.3C248.562 81.2333 248.609 81.2 248.675 81.2H249.645C249.725 81.2 249.752 81.2333 249.725 81.3L247.755 85.22V87.9C247.755 87.9667 247.722 88 247.655 88H246.675Z" fill="#385494"/>
<path d="M221 42.1422L229.932 28V42.1422H221Z" fill="#385494" stroke="#385494" stroke-width="4" stroke-linejoin="round"/>
<path d="M238.867 41.3978L229.935 55.54V41.3978H238.867Z" fill="#385494" stroke="#385494" stroke-width="4" stroke-linejoin="round"/>
<path d="M231.707 103.707C232.098 103.317 232.098 102.683 231.707 102.293C231.317 101.902 230.683 101.902 230.293 102.293L231.707 103.707ZM192 141C192 141.552 192.448 142 193 142L202 142C202.552 142 203 141.552 203 141C203 140.448 202.552 140 202 140L194 140L194 132C194 131.448 193.552 131 193 131C192.448 131 192 131.448 192 132L192 141ZM230.293 102.293L192.293 140.293L193.707 141.707L231.707 103.707L230.293 102.293Z" fill="#D6E3FF"/>
<rect x="71" y="182.71" width="100" height="100" rx="12" transform="rotate(-45 71 182.71)" stroke="#D6E3FF" stroke-width="2"/>
<path opacity="0.9" d="M107.804 195.258C107.804 195.192 107.837 195.158 107.904 195.158H112.164C112.231 195.158 112.264 195.192 112.264 195.258V196.118C112.264 196.185 112.231 196.218 112.164 196.218H109.044C109.004 196.218 108.984 196.238 108.984 196.278V197.938C108.984 197.978 109.004 197.998 109.044 197.998H111.674C111.741 197.998 111.774 198.032 111.774 198.098V198.958C111.774 199.025 111.741 199.058 111.674 199.058H109.044C109.004 199.058 108.984 199.078 108.984 199.118V200.838C108.984 200.878 109.004 200.898 109.044 200.898H112.164C112.231 200.898 112.264 200.932 112.264 200.998V201.858C112.264 201.925 112.231 201.958 112.164 201.958H107.904C107.837 201.958 107.804 201.925 107.804 201.858V195.258ZM113.907 195.258C113.907 195.192 113.94 195.158 114.007 195.158H114.987C115.054 195.158 115.087 195.192 115.087 195.258V200.838C115.087 200.878 115.107 200.898 115.147 200.898H118.267C118.334 200.898 118.367 200.932 118.367 200.998V201.858C118.367 201.925 118.334 201.958 118.267 201.958H114.007C113.94 201.958 113.907 201.925 113.907 201.858V195.258ZM119.756 195.258C119.756 195.192 119.79 195.158 119.856 195.158H124.116C124.183 195.158 124.216 195.192 124.216 195.258V196.118C124.216 196.185 124.183 196.218 124.116 196.218H120.996C120.956 196.218 120.936 196.238 120.936 196.278V197.938C120.936 197.978 120.956 197.998 120.996 197.998H123.626C123.693 197.998 123.726 198.032 123.726 198.098V198.958C123.726 199.025 123.693 199.058 123.626 199.058H120.996C120.956 199.058 120.936 199.078 120.936 199.118V200.838C120.936 200.878 120.956 200.898 120.996 200.898H124.116C124.183 200.898 124.216 200.932 124.216 200.998V201.858C124.216 201.925 124.183 201.958 124.116 201.958H119.856C119.79 201.958 119.756 201.925 119.756 201.858V195.258ZM125.839 200.398C125.806 200.292 125.776 200.188 125.749 200.088C125.729 199.982 125.713 199.862 125.699 199.728C125.686 199.588 125.676 199.428 125.669 199.248C125.663 199.062 125.659 198.832 125.659 198.558C125.659 198.292 125.663 198.065 125.669 197.878C125.676 197.692 125.686 197.532 125.699 197.398C125.713 197.258 125.729 197.138 125.749 197.038C125.776 196.932 125.806 196.825 125.839 196.718C126.013 196.158 126.303 195.742 126.709 195.468C127.123 195.188 127.619 195.048 128.199 195.048C128.746 195.048 129.216 195.178 129.609 195.438C130.009 195.698 130.306 196.055 130.499 196.508C130.519 196.568 130.503 196.608 130.449 196.628L129.599 197.038C129.539 197.072 129.496 197.055 129.469 196.988C129.356 196.748 129.199 196.542 128.999 196.368C128.806 196.195 128.539 196.108 128.199 196.108C127.873 196.108 127.609 196.188 127.409 196.348C127.216 196.508 127.073 196.728 126.979 197.008C126.959 197.082 126.939 197.155 126.919 197.228C126.906 197.302 126.893 197.398 126.879 197.518C126.873 197.632 126.866 197.772 126.859 197.938C126.859 198.105 126.859 198.312 126.859 198.558C126.859 198.812 126.859 199.022 126.859 199.188C126.866 199.348 126.873 199.488 126.879 199.608C126.893 199.722 126.906 199.818 126.919 199.898C126.939 199.972 126.959 200.042 126.979 200.108C127.073 200.388 127.216 200.608 127.409 200.768C127.609 200.928 127.873 201.008 128.199 201.008C128.539 201.008 128.806 200.922 128.999 200.748C129.199 200.575 129.356 200.368 129.469 200.128C129.496 200.062 129.539 200.045 129.599 200.078L130.449 200.488C130.503 200.508 130.519 200.548 130.499 200.608C130.306 201.062 130.009 201.418 129.609 201.678C129.216 201.938 128.746 202.068 128.199 202.068C127.619 202.068 127.123 201.932 126.709 201.658C126.303 201.378 126.013 200.958 125.839 200.398ZM133.346 201.958C133.279 201.958 133.246 201.925 133.246 201.858V196.278C133.246 196.238 133.226 196.218 133.186 196.218H131.406C131.339 196.218 131.306 196.185 131.306 196.118V195.258C131.306 195.192 131.339 195.158 131.406 195.158H136.266C136.332 195.158 136.366 195.192 136.366 195.258V196.118C136.366 196.185 136.332 196.218 136.266 196.218H134.486C134.446 196.218 134.426 196.238 134.426 196.278V201.858C134.426 201.925 134.392 201.958 134.326 201.958H133.346ZM140.424 198.148C140.737 198.148 140.987 198.062 141.174 197.888C141.367 197.715 141.464 197.482 141.464 197.188C141.464 196.888 141.367 196.652 141.174 196.478C140.987 196.305 140.737 196.218 140.424 196.218H138.974C138.934 196.218 138.914 196.238 138.914 196.278V198.088C138.914 198.128 138.934 198.148 138.974 198.148H140.424ZM141.594 201.958C141.52 201.958 141.47 201.925 141.444 201.858L140.144 199.208H138.974C138.934 199.208 138.914 199.228 138.914 199.268V201.858C138.914 201.925 138.88 201.958 138.814 201.958H137.834C137.767 201.958 137.734 201.925 137.734 201.858V195.258C137.734 195.192 137.767 195.158 137.834 195.158H140.464C140.777 195.158 141.064 195.208 141.324 195.308C141.59 195.408 141.82 195.548 142.014 195.728C142.207 195.902 142.357 196.115 142.464 196.368C142.577 196.615 142.634 196.888 142.634 197.188C142.634 197.635 142.517 198.022 142.284 198.348C142.05 198.675 141.737 198.912 141.344 199.058L142.774 201.828C142.794 201.862 142.794 201.892 142.774 201.918C142.76 201.945 142.737 201.958 142.704 201.958H141.594ZM146.676 201.008C147.016 201.008 147.289 200.932 147.496 200.778C147.702 200.618 147.852 200.398 147.946 200.118C147.966 200.058 147.982 199.988 147.996 199.908C148.009 199.828 148.019 199.728 148.026 199.608C148.039 199.488 148.049 199.345 148.056 199.178C148.062 199.005 148.066 198.798 148.066 198.558C148.066 198.318 148.062 198.115 148.056 197.948C148.049 197.775 148.039 197.628 148.026 197.508C148.019 197.388 148.009 197.288 147.996 197.208C147.982 197.128 147.966 197.058 147.946 196.998C147.852 196.718 147.702 196.502 147.496 196.348C147.289 196.188 147.016 196.108 146.676 196.108C146.336 196.108 146.062 196.188 145.856 196.348C145.656 196.502 145.509 196.718 145.416 196.998C145.396 197.058 145.376 197.128 145.356 197.208C145.342 197.288 145.329 197.388 145.316 197.508C145.309 197.628 145.302 197.775 145.296 197.948C145.296 198.115 145.296 198.318 145.296 198.558C145.296 198.798 145.296 199.005 145.296 199.178C145.302 199.345 145.309 199.488 145.316 199.608C145.329 199.728 145.342 199.828 145.356 199.908C145.376 199.988 145.396 200.058 145.416 200.118C145.509 200.398 145.656 200.618 145.856 200.778C146.062 200.932 146.336 201.008 146.676 201.008ZM146.676 202.068C146.089 202.068 145.586 201.932 145.166 201.658C144.746 201.378 144.449 200.968 144.276 200.428C144.242 200.322 144.212 200.215 144.186 200.108C144.166 200.002 144.149 199.878 144.136 199.738C144.122 199.598 144.112 199.435 144.106 199.248C144.099 199.055 144.096 198.825 144.096 198.558C144.096 198.292 144.099 198.065 144.106 197.878C144.112 197.685 144.122 197.518 144.136 197.378C144.149 197.238 144.166 197.115 144.186 197.008C144.212 196.902 144.242 196.795 144.276 196.688C144.449 196.148 144.746 195.742 145.166 195.468C145.586 195.188 146.089 195.048 146.676 195.048C147.269 195.048 147.776 195.188 148.196 195.468C148.616 195.742 148.912 196.148 149.086 196.688C149.119 196.795 149.146 196.902 149.166 197.008C149.192 197.115 149.212 197.238 149.226 197.378C149.239 197.518 149.249 197.685 149.256 197.878C149.262 198.065 149.266 198.292 149.266 198.558C149.266 198.825 149.262 199.055 149.256 199.248C149.249 199.435 149.239 199.598 149.226 199.738C149.212 199.878 149.192 200.002 149.166 200.108C149.146 200.215 149.119 200.322 149.086 200.428C148.912 200.968 148.616 201.378 148.196 201.658C147.776 201.932 147.269 202.068 146.676 202.068ZM150.965 195.258C150.965 195.192 150.999 195.158 151.065 195.158H152.045C152.112 195.158 152.145 195.192 152.145 195.258V200.838C152.145 200.878 152.165 200.898 152.205 200.898H155.325C155.392 200.898 155.425 200.932 155.425 200.998V201.858C155.425 201.925 155.392 201.958 155.325 201.958H151.065C150.999 201.958 150.965 201.925 150.965 201.858V195.258ZM157.415 201.958C157.348 201.958 157.315 201.925 157.315 201.858V199.178L155.345 195.258C155.318 195.192 155.345 195.158 155.425 195.158H156.435C156.501 195.158 156.548 195.192 156.575 195.258L157.905 197.898H157.935L159.275 195.258C159.301 195.192 159.348 195.158 159.415 195.158H160.385C160.465 195.158 160.491 195.192 160.465 195.258L158.495 199.178V201.858C158.495 201.925 158.461 201.958 158.395 201.958H157.415ZM163.622 202.068C163.369 202.068 163.122 202.045 162.882 201.998C162.642 201.952 162.412 201.888 162.192 201.808C161.979 201.728 161.779 201.635 161.592 201.528C161.412 201.415 161.255 201.295 161.122 201.168C161.069 201.115 161.062 201.065 161.102 201.018L161.722 200.298C161.769 200.245 161.815 200.242 161.862 200.288C161.969 200.375 162.089 200.462 162.222 200.548C162.362 200.635 162.509 200.712 162.662 200.778C162.822 200.845 162.989 200.902 163.162 200.948C163.335 200.988 163.519 201.008 163.712 201.008C164.119 201.008 164.432 200.918 164.652 200.738C164.879 200.552 164.992 200.315 164.992 200.028C164.992 199.782 164.902 199.582 164.722 199.428C164.542 199.268 164.219 199.155 163.752 199.088L163.392 199.038C162.732 198.945 162.225 198.742 161.872 198.428C161.519 198.108 161.342 197.665 161.342 197.098C161.342 196.792 161.395 196.512 161.502 196.258C161.609 196.005 161.762 195.788 161.962 195.608C162.162 195.428 162.402 195.292 162.682 195.198C162.969 195.098 163.289 195.048 163.642 195.048C164.069 195.048 164.472 195.112 164.852 195.238C165.239 195.358 165.569 195.522 165.842 195.728C165.889 195.768 165.895 195.815 165.862 195.868L165.382 196.608C165.342 196.662 165.295 196.672 165.242 196.638C164.962 196.458 164.692 196.325 164.432 196.238C164.172 196.152 163.899 196.108 163.612 196.108C163.265 196.108 162.999 196.195 162.812 196.368C162.632 196.535 162.542 196.752 162.542 197.018C162.542 197.252 162.635 197.448 162.822 197.608C163.009 197.762 163.332 197.872 163.792 197.938L164.152 197.988C164.812 198.082 165.315 198.288 165.662 198.608C166.009 198.922 166.182 199.372 166.182 199.958C166.182 200.258 166.129 200.538 166.022 200.798C165.915 201.058 165.752 201.282 165.532 201.468C165.319 201.655 165.052 201.802 164.732 201.908C164.412 202.015 164.042 202.068 163.622 202.068ZM167.751 195.258C167.751 195.192 167.785 195.158 167.851 195.158H168.831C168.898 195.158 168.931 195.192 168.931 195.258V201.858C168.931 201.925 168.898 201.958 168.831 201.958H167.851C167.785 201.958 167.751 201.925 167.751 201.858V195.258ZM172.967 202.068C172.714 202.068 172.467 202.045 172.227 201.998C171.987 201.952 171.757 201.888 171.537 201.808C171.324 201.728 171.124 201.635 170.937 201.528C170.757 201.415 170.6 201.295 170.467 201.168C170.414 201.115 170.407 201.065 170.447 201.018L171.067 200.298C171.114 200.245 171.16 200.242 171.207 200.288C171.314 200.375 171.434 200.462 171.567 200.548C171.707 200.635 171.854 200.712 172.007 200.778C172.167 200.845 172.334 200.902 172.507 200.948C172.68 200.988 172.864 201.008 173.057 201.008C173.464 201.008 173.777 200.918 173.997 200.738C174.224 200.552 174.337 200.315 174.337 200.028C174.337 199.782 174.247 199.582 174.067 199.428C173.887 199.268 173.564 199.155 173.097 199.088L172.737 199.038C172.077 198.945 171.57 198.742 171.217 198.428C170.864 198.108 170.687 197.665 170.687 197.098C170.687 196.792 170.74 196.512 170.847 196.258C170.954 196.005 171.107 195.788 171.307 195.608C171.507 195.428 171.747 195.292 172.027 195.198C172.314 195.098 172.634 195.048 172.987 195.048C173.414 195.048 173.817 195.112 174.197 195.238C174.584 195.358 174.914 195.522 175.187 195.728C175.234 195.768 175.24 195.815 175.207 195.868L174.727 196.608C174.687 196.662 174.64 196.672 174.587 196.638C174.307 196.458 174.037 196.325 173.777 196.238C173.517 196.152 173.244 196.108 172.957 196.108C172.61 196.108 172.344 196.195 172.157 196.368C171.977 196.535 171.887 196.752 171.887 197.018C171.887 197.252 171.98 197.448 172.167 197.608C172.354 197.762 172.677 197.872 173.137 197.938L173.497 197.988C174.157 198.082 174.66 198.288 175.007 198.608C175.354 198.922 175.527 199.372 175.527 199.958C175.527 200.258 175.474 200.538 175.367 200.798C175.26 201.058 175.097 201.282 174.877 201.468C174.664 201.655 174.397 201.802 174.077 201.908C173.757 202.015 173.387 202.068 172.967 202.068Z" fill="#385494"/>
<path fill-rule="evenodd" clip-rule="evenodd" d="M133.26 155C131.459 155 130 156.459 130 158.259V162.265C130 162.29 130 162.314 130.001 162.339L130.001 173.243C130.001 175.318 131.682 177 133.757 177C135.831 177 137.513 175.318 137.513 173.243L137.513 165.525H144.449V173.243C144.449 175.318 146.13 177 148.205 177C150.279 177 151.961 175.318 151.961 173.243V162.379C151.962 162.341 151.963 162.303 151.963 162.265V158.259C151.963 156.459 150.504 155 148.703 155H133.26Z" fill="#385494"/>
<path d="M109.707 222.707C110.098 222.317 110.098 221.683 109.707 221.293C109.317 220.902 108.683 220.902 108.293 221.293L109.707 222.707ZM52 278C52 278.552 52.4477 279 53 279L62 279C62.5523 279 63 278.552 63 278C63 277.448 62.5523 277 62 277L54 277L54 269C54 268.448 53.5523 268 53 268C52.4477 268 52 268.448 52 269L52 278ZM108.293 221.293L52.2929 277.293L53.7071 278.707L109.707 222.707L108.293 221.293Z" fill="#D6E3FF"/>
<rect x="1" y="103" width="102" height="102" rx="13" transform="rotate(-90 1 103)" stroke="#D6E3FF" stroke-width="2"/>
<path d="M36.5938 57.94C36.5938 57.82 36.6538 57.76 36.7738 57.76H39.0598C39.1798 57.76 39.2398 57.82 39.2398 57.94V62.53C39.2398 62.602 39.2758 62.638 39.3478 62.638H43.3438C43.4158 62.638 43.4518 62.602 43.4518 62.53V57.94C43.4518 57.82 43.5118 57.76 43.6318 57.76H45.9178C46.0378 57.76 46.0978 57.82 46.0978 57.94V69.82C46.0978 69.94 46.0378 70 45.9178 70H43.6318C43.5118 70 43.4518 69.94 43.4518 69.82V65.104C43.4518 65.032 43.4158 64.996 43.3438 64.996H39.3478C39.2758 64.996 39.2398 65.032 39.2398 65.104V69.82C39.2398 69.94 39.1798 70 39.0598 70H36.7738C36.6538 70 36.5938 69.94 36.5938 69.82V57.94ZM48.4415 68.146C48.4415 68.05 48.4715 67.966 48.5315 67.894L52.8335 62.782C53.0735 62.506 53.2535 62.236 53.3735 61.972C53.4935 61.696 53.5535 61.402 53.5535 61.09C53.5535 60.682 53.4335 60.346 53.1935 60.082C52.9655 59.818 52.6415 59.686 52.2215 59.686C51.3695 59.686 50.8895 60.166 50.7815 61.126C50.7815 61.246 50.7155 61.294 50.5835 61.27L48.6035 60.946C48.4835 60.922 48.4355 60.85 48.4595 60.73C48.4955 60.31 48.6035 59.908 48.7835 59.524C48.9635 59.14 49.2155 58.804 49.5395 58.516C49.8755 58.228 50.2715 58 50.7275 57.832C51.1955 57.652 51.7235 57.562 52.3115 57.562C52.8995 57.562 53.4215 57.652 53.8775 57.832C54.3455 58.012 54.7415 58.258 55.0655 58.57C55.3895 58.882 55.6355 59.254 55.8035 59.686C55.9835 60.106 56.0735 60.562 56.0735 61.054C56.0735 61.642 55.9595 62.176 55.7315 62.656C55.5155 63.124 55.2155 63.58 54.8315 64.024L51.6095 67.822V67.858H55.8935C56.0135 67.858 56.0735 67.918 56.0735 68.038V69.82C56.0735 69.94 56.0135 70 55.8935 70H48.6215C48.5015 70 48.4415 69.94 48.4415 69.82V68.146ZM62.9254 67.858C63.4294 67.858 63.8434 67.738 64.1674 67.498C64.4914 67.258 64.7194 66.928 64.8514 66.508C64.8874 66.4 64.9174 66.28 64.9414 66.148C64.9654 66.004 64.9834 65.836 64.9954 65.644C65.0194 65.44 65.0314 65.194 65.0314 64.906C65.0434 64.618 65.0494 64.276 65.0494 63.88C65.0494 63.484 65.0434 63.142 65.0314 62.854C65.0314 62.566 65.0194 62.326 64.9954 62.134C64.9834 61.93 64.9654 61.762 64.9414 61.63C64.9174 61.486 64.8874 61.36 64.8514 61.252C64.7194 60.832 64.4914 60.502 64.1674 60.262C63.8434 60.022 63.4294 59.902 62.9254 59.902C62.4214 59.902 62.0074 60.022 61.6834 60.262C61.3594 60.502 61.1314 60.832 60.9994 61.252C60.9634 61.36 60.9334 61.486 60.9094 61.63C60.8854 61.762 60.8614 61.93 60.8374 62.134C60.8254 62.326 60.8134 62.566 60.8014 62.854C60.8014 63.142 60.8014 63.484 60.8014 63.88C60.8014 64.276 60.8014 64.618 60.8014 64.906C60.8134 65.194 60.8254 65.44 60.8374 65.644C60.8614 65.836 60.8854 66.004 60.9094 66.148C60.9334 66.28 60.9634 66.4 60.9994 66.508C61.1314 66.928 61.3594 67.258 61.6834 67.498C62.0074 67.738 62.4214 67.858 62.9254 67.858ZM62.9254 70.198C61.8574 70.198 60.9214 69.952 60.1174 69.46C59.3254 68.968 58.7734 68.224 58.4614 67.228C58.3894 67.012 58.3294 66.802 58.2814 66.598C58.2454 66.394 58.2154 66.166 58.1914 65.914C58.1674 65.662 58.1494 65.374 58.1374 65.05C58.1254 64.726 58.1194 64.336 58.1194 63.88C58.1194 63.424 58.1254 63.034 58.1374 62.71C58.1494 62.386 58.1674 62.098 58.1914 61.846C58.2154 61.594 58.2454 61.366 58.2814 61.162C58.3294 60.958 58.3894 60.748 58.4614 60.532C58.7734 59.548 59.3254 58.81 60.1174 58.318C60.9214 57.814 61.8574 57.562 62.9254 57.562C63.9934 57.562 64.9234 57.814 65.7154 58.318C66.5194 58.81 67.0774 59.548 67.3894 60.532C67.4614 60.748 67.5154 60.958 67.5514 61.162C67.5994 61.366 67.6354 61.594 67.6594 61.846C67.6834 62.098 67.7014 62.386 67.7134 62.71C67.7254 63.034 67.7314 63.424 67.7314 63.88C67.7314 64.336 67.7254 64.726 67.7134 65.05C67.7014 65.374 67.6834 65.662 67.6594 65.914C67.6354 66.166 67.5994 66.394 67.5514 66.598C67.5154 66.802 67.4614 67.012 67.3894 67.228C67.0774 68.224 66.5194 68.968 65.7154 69.46C64.9234 69.952 63.9934 70.198 62.9254 70.198Z" fill="#385494"/>
<path opacity="0.9" d="M40.8501 88C40.7901 88 40.7501 87.9667 40.7301 87.9L39.4301 83.25H39.4101L38.1001 87.9C38.0801 87.9667 38.0401 88 37.9801 88H37.2301C37.1701 88 37.1301 87.9667 37.1101 87.9L35.4401 81.3C35.4267 81.2333 35.4534 81.2 35.5201 81.2H36.4601C36.5267 81.2 36.5667 81.2333 36.5801 81.3L37.6601 85.88H37.6801L38.9501 81.3C38.9701 81.2333 39.0101 81.2 39.0701 81.2H39.7701C39.8301 81.2 39.8701 81.2333 39.8901 81.3L41.1901 85.88H41.2101L42.2601 81.3C42.2667 81.2333 42.3067 81.2 42.3801 81.2H43.3101C43.3767 81.2 43.4034 81.2333 43.3901 81.3L41.7301 87.9C41.7167 87.9667 41.6767 88 41.6101 88H40.8501ZM47.5512 85.53L46.6512 82.89H46.6212L45.7112 85.53H47.5512ZM46.0612 81.3C46.0812 81.2333 46.1245 81.2 46.1912 81.2H47.1112C47.1778 81.2 47.2212 81.2333 47.2412 81.3L49.5412 87.9C49.5612 87.9667 49.5378 88 49.4712 88H48.4912C48.4245 88 48.3812 87.9667 48.3612 87.9L47.9112 86.58H45.3512L44.9012 87.9C44.8812 87.9667 44.8378 88 44.7712 88H43.8012C43.7345 88 43.7112 87.9667 43.7312 87.9L46.0612 81.3ZM51.7873 88C51.7207 88 51.6873 87.9667 51.6873 87.9V82.32C51.6873 82.28 51.6673 82.26 51.6273 82.26H49.8473C49.7807 82.26 49.7473 82.2267 49.7473 82.16V81.3C49.7473 81.2333 49.7807 81.2 49.8473 81.2H54.7073C54.774 81.2 54.8073 81.2333 54.8073 81.3V82.16C54.8073 82.2267 54.774 82.26 54.7073 82.26H52.9273C52.8873 82.26 52.8673 82.28 52.8673 82.32V87.9C52.8673 87.9667 52.834 88 52.7673 88H51.7873ZM56.1754 81.3C56.1754 81.2333 56.2087 81.2 56.2754 81.2H60.5354C60.6021 81.2 60.6354 81.2333 60.6354 81.3V82.16C60.6354 82.2267 60.6021 82.26 60.5354 82.26H57.4154C57.3754 82.26 57.3554 82.28 57.3554 82.32V83.98C57.3554 84.02 57.3754 84.04 57.4154 84.04H60.0454C60.1121 84.04 60.1454 84.0733 60.1454 84.14V85C60.1454 85.0667 60.1121 85.1 60.0454 85.1H57.4154C57.3754 85.1 57.3554 85.12 57.3554 85.16V86.88C57.3554 86.92 57.3754 86.94 57.4154 86.94H60.5354C60.6021 86.94 60.6354 86.9733 60.6354 87.04V87.9C60.6354 87.9667 60.6021 88 60.5354 88H56.2754C56.2087 88 56.1754 87.9667 56.1754 87.9V81.3ZM64.9685 84.19C65.2819 84.19 65.5319 84.1033 65.7185 83.93C65.9119 83.7567 66.0085 83.5233 66.0085 83.23C66.0085 82.93 65.9119 82.6933 65.7185 82.52C65.5319 82.3467 65.2819 82.26 64.9685 82.26H63.5185C63.4785 82.26 63.4585 82.28 63.4585 82.32V84.13C63.4585 84.17 63.4785 84.19 63.5185 84.19H64.9685ZM66.1385 88C66.0652 88 66.0152 87.9667 65.9885 87.9L64.6885 85.25H63.5185C63.4785 85.25 63.4585 85.27 63.4585 85.31V87.9C63.4585 87.9667 63.4252 88 63.3585 88H62.3785C62.3119 88 62.2785 87.9667 62.2785 87.9V81.3C62.2785 81.2333 62.3119 81.2 62.3785 81.2H65.0085C65.3219 81.2 65.6085 81.25 65.8685 81.35C66.1352 81.45 66.3652 81.59 66.5585 81.77C66.7519 81.9433 66.9019 82.1567 67.0085 82.41C67.1219 82.6567 67.1785 82.93 67.1785 83.23C67.1785 83.6767 67.0619 84.0633 66.8285 84.39C66.5952 84.7167 66.2819 84.9533 65.8885 85.1L67.3185 87.87C67.3385 87.9033 67.3385 87.9333 67.3185 87.96C67.3052 87.9867 67.2819 88 67.2485 88H66.1385Z" fill="#385494"/>
<path fill-rule="evenodd" clip-rule="evenodd" d="M55.4105 43.2027C57.2787 41.3718 57.3091 38.373 55.4783 36.5046C54.9611 35.9769 54.3508 35.5958 53.6991 35.3618C53.2226 35.1693 52.72 35.0251 52.1982 34.8754C50.7598 34.4627 49.1747 34.0079 47.5832 32.3838C45.9917 30.7596 45.5692 29.1655 45.1857 27.719C45.1076 27.4243 45.0311 27.1357 44.9467 26.8542C44.773 25.9835 44.3528 25.1516 43.685 24.4701C41.8542 22.6017 38.8556 22.5713 36.9873 24.4022C35.1191 26.233 35.0888 29.2318 36.9196 31.1002C37.5883 31.7827 38.4128 32.2199 39.2812 32.4108C39.5604 32.5007 39.8468 32.5829 40.1394 32.6668C41.5777 33.0795 43.1628 33.5343 44.7543 35.1585C46.3458 36.7826 46.7684 38.3768 47.1518 39.8232C47.2889 40.3404 47.421 40.8387 47.5997 41.3128C47.8196 41.9766 48.1904 42.6017 48.7128 43.1348C50.5436 45.0032 53.5423 45.0336 55.4105 43.2027Z" fill="#385494"/>
<path fill-rule="evenodd" clip-rule="evenodd" d="M67.4105 24.4018C69.2787 26.2326 69.3091 29.2315 67.4783 31.0999C66.9611 31.6276 66.3508 32.0087 65.6991 32.2427C65.2226 32.4352 64.72 32.5793 64.1982 32.7291C62.7598 33.1418 61.1747 33.5966 59.5832 35.2207C57.9917 36.8449 57.5692 38.439 57.1857 39.8855C57.1076 40.1802 57.0311 40.4688 56.9467 40.7503C56.773 41.621 56.3528 42.4529 55.685 43.1344C53.8542 45.0028 50.8556 45.0332 48.9873 43.2023C47.1191 41.3715 47.0888 38.3726 48.9196 36.5043C49.5883 35.8218 50.4128 35.3846 51.2812 35.1937C51.5604 35.1038 51.8468 35.0216 52.1394 34.9376C53.5777 34.525 55.1628 34.0702 56.7543 32.446C58.3458 30.8219 58.7684 29.2277 59.1518 27.7813C59.2889 27.2641 59.421 26.7657 59.5997 26.2917C59.8196 25.6279 60.1904 25.0028 60.7128 24.4697C62.5436 22.6013 65.5423 22.5709 67.4105 24.4018Z" fill="#385494"/>
<path d="M55.2929 103.707C54.9024 103.317 54.9024 102.683 55.2929 102.293C55.6834 101.902 56.3166 101.902 56.7071 102.293L55.2929 103.707ZM95 141C95 141.552 94.5523 142 94 142L85 142C84.4477 142 84 141.552 84 141C84 140.448 84.4477 140 85 140L93 140L93 132C93 131.448 93.4477 131 94 131C94.5523 131 95 131.448 95 132L95 141ZM56.7071 102.293L94.7071 140.293L93.2929 141.707L55.2929 103.707L56.7071 102.293Z" fill="#D6E3FF"/>
</svg>
