<svg width="328" height="567" viewBox="0 0 328 567" fill="none" xmlns="http://www.w3.org/2000/svg">
<path d="M4.52519 290.225C-0.175064 285.539 -0.175065 277.941 4.52519 273.255L58.4255 219.515C63.1257 214.828 70.7464 214.828 75.4466 219.515L129.347 273.255C134.047 277.941 134.047 285.539 129.347 290.225L75.4466 343.966C70.7464 348.652 63.1257 348.652 58.4255 343.966L4.52519 290.225Z" stroke="#D6E3FF" stroke-width="2"/>
<path opacity="0.4" d="M48.5854 306.219C48.8987 306.219 49.1487 306.133 49.3354 305.959C49.5287 305.786 49.6254 305.553 49.6254 305.259C49.6254 304.959 49.5287 304.723 49.3354 304.549C49.1487 304.376 48.8987 304.289 48.5854 304.289H47.1354C47.0954 304.289 47.0754 304.309 47.0754 304.349V306.159C47.0754 306.199 47.0954 306.219 47.1354 306.219H48.5854ZM49.7554 310.029C49.682 310.029 49.632 309.996 49.6054 309.929L48.3054 307.279H47.1354C47.0954 307.279 47.0754 307.299 47.0754 307.339V309.929C47.0754 309.996 47.042 310.029 46.9754 310.029H45.9954C45.9287 310.029 45.8954 309.996 45.8954 309.929V303.329C45.8954 303.263 45.9287 303.229 45.9954 303.229H48.6254C48.9387 303.229 49.2254 303.279 49.4854 303.379C49.752 303.479 49.982 303.619 50.1754 303.799C50.3687 303.973 50.5187 304.186 50.6254 304.439C50.7387 304.686 50.7954 304.959 50.7954 305.259C50.7954 305.706 50.6787 306.093 50.4454 306.419C50.212 306.746 49.8987 306.983 49.5054 307.129L50.9354 309.899C50.9554 309.933 50.9554 309.963 50.9354 309.989C50.922 310.016 50.8987 310.029 50.8654 310.029H49.7554ZM52.4868 303.329C52.4868 303.263 52.5201 303.229 52.5868 303.229H56.8468C56.9134 303.229 56.9468 303.263 56.9468 303.329V304.189C56.9468 304.256 56.9134 304.289 56.8468 304.289H53.7268C53.6868 304.289 53.6668 304.309 53.6668 304.349V306.009C53.6668 306.049 53.6868 306.069 53.7268 306.069H56.3568C56.4234 306.069 56.4568 306.103 56.4568 306.169V307.029C56.4568 307.096 56.4234 307.129 56.3568 307.129H53.7268C53.6868 307.129 53.6668 307.149 53.6668 307.189V308.909C53.6668 308.949 53.6868 308.969 53.7268 308.969H56.8468C56.9134 308.969 56.9468 309.003 56.9468 309.069V309.929C56.9468 309.996 56.9134 310.029 56.8468 310.029H52.5868C52.5201 310.029 52.4868 309.996 52.4868 309.929V303.329ZM61.8399 307.559L60.9399 304.919H60.9099L59.9999 307.559H61.8399ZM60.3499 303.329C60.3699 303.263 60.4132 303.229 60.4799 303.229H61.3999C61.4666 303.229 61.5099 303.263 61.5299 303.329L63.8299 309.929C63.8499 309.996 63.8266 310.029 63.7599 310.029H62.7799C62.7132 310.029 62.6699 309.996 62.6499 309.929L62.1999 308.609H59.6399L59.1899 309.929C59.1699 309.996 59.1266 310.029 59.0599 310.029H58.0899C58.0232 310.029 57.9999 309.996 58.0199 309.929L60.3499 303.329ZM64.8976 308.469C64.8643 308.363 64.8343 308.259 64.8076 308.159C64.7876 308.053 64.771 307.933 64.7576 307.799C64.7443 307.659 64.7343 307.499 64.7276 307.319C64.721 307.133 64.7176 306.903 64.7176 306.629C64.7176 306.363 64.721 306.136 64.7276 305.949C64.7343 305.763 64.7443 305.603 64.7576 305.469C64.771 305.329 64.7876 305.209 64.8076 305.109C64.8343 305.003 64.8643 304.896 64.8976 304.789C65.071 304.229 65.361 303.813 65.7676 303.539C66.181 303.259 66.6776 303.119 67.2576 303.119C67.8043 303.119 68.2743 303.249 68.6676 303.509C69.0676 303.769 69.3643 304.126 69.5576 304.579C69.5776 304.639 69.561 304.679 69.5076 304.699L68.6576 305.109C68.5976 305.143 68.5543 305.126 68.5276 305.059C68.4143 304.819 68.2576 304.613 68.0576 304.439C67.8643 304.266 67.5976 304.179 67.2576 304.179C66.931 304.179 66.6676 304.259 66.4676 304.419C66.2743 304.579 66.131 304.799 66.0376 305.079C66.0176 305.153 65.9976 305.226 65.9776 305.299C65.9643 305.373 65.951 305.469 65.9376 305.589C65.931 305.703 65.9243 305.843 65.9176 306.009C65.9176 306.176 65.9176 306.383 65.9176 306.629C65.9176 306.883 65.9176 307.093 65.9176 307.259C65.9243 307.419 65.931 307.559 65.9376 307.679C65.951 307.793 65.9643 307.889 65.9776 307.969C65.9976 308.043 66.0176 308.113 66.0376 308.179C66.131 308.459 66.2743 308.679 66.4676 308.839C66.6676 308.999 66.931 309.079 67.2576 309.079C67.5976 309.079 67.8643 308.993 68.0576 308.819C68.2576 308.646 68.4143 308.439 68.5276 308.199C68.5543 308.133 68.5976 308.116 68.6576 308.149L69.5076 308.559C69.561 308.579 69.5776 308.619 69.5576 308.679C69.3643 309.133 69.0676 309.489 68.6676 309.749C68.2743 310.009 67.8043 310.139 67.2576 310.139C66.6776 310.139 66.181 310.003 65.7676 309.729C65.361 309.449 65.071 309.029 64.8976 308.469ZM72.4038 310.029C72.3371 310.029 72.3038 309.996 72.3038 309.929V304.349C72.3038 304.309 72.2838 304.289 72.2438 304.289H70.4638C70.3971 304.289 70.3638 304.256 70.3638 304.189V303.329C70.3638 303.263 70.3971 303.229 70.4638 303.229H75.3238C75.3905 303.229 75.4238 303.263 75.4238 303.329V304.189C75.4238 304.256 75.3905 304.289 75.3238 304.289H73.5438C73.5038 304.289 73.4838 304.309 73.4838 304.349V309.929C73.4838 309.996 73.4505 310.029 73.3838 310.029H72.4038ZM78.9961 309.079C79.3361 309.079 79.6094 309.003 79.8161 308.849C80.0227 308.689 80.1727 308.469 80.2661 308.189C80.2861 308.129 80.3027 308.059 80.3161 307.979C80.3294 307.899 80.3394 307.799 80.3461 307.679C80.3594 307.559 80.3694 307.416 80.3761 307.249C80.3827 307.076 80.3861 306.869 80.3861 306.629C80.3861 306.389 80.3827 306.186 80.3761 306.019C80.3694 305.846 80.3594 305.699 80.3461 305.579C80.3394 305.459 80.3294 305.359 80.3161 305.279C80.3027 305.199 80.2861 305.129 80.2661 305.069C80.1727 304.789 80.0227 304.573 79.8161 304.419C79.6094 304.259 79.3361 304.179 78.9961 304.179C78.6561 304.179 78.3827 304.259 78.1761 304.419C77.9761 304.573 77.8294 304.789 77.7361 305.069C77.7161 305.129 77.6961 305.199 77.6761 305.279C77.6627 305.359 77.6494 305.459 77.6361 305.579C77.6294 305.699 77.6227 305.846 77.6161 306.019C77.6161 306.186 77.6161 306.389 77.6161 306.629C77.6161 306.869 77.6161 307.076 77.6161 307.249C77.6227 307.416 77.6294 307.559 77.6361 307.679C77.6494 307.799 77.6627 307.899 77.6761 307.979C77.6961 308.059 77.7161 308.129 77.7361 308.189C77.8294 308.469 77.9761 308.689 78.1761 308.849C78.3827 309.003 78.6561 309.079 78.9961 309.079ZM78.9961 310.139C78.4094 310.139 77.9061 310.003 77.4861 309.729C77.0661 309.449 76.7694 309.039 76.5961 308.499C76.5627 308.393 76.5327 308.286 76.5061 308.179C76.4861 308.073 76.4694 307.949 76.4561 307.809C76.4427 307.669 76.4327 307.506 76.4261 307.319C76.4194 307.126 76.4161 306.896 76.4161 306.629C76.4161 306.363 76.4194 306.136 76.4261 305.949C76.4327 305.756 76.4427 305.589 76.4561 305.449C76.4694 305.309 76.4861 305.186 76.5061 305.079C76.5327 304.973 76.5627 304.866 76.5961 304.759C76.7694 304.219 77.0661 303.813 77.4861 303.539C77.9061 303.259 78.4094 303.119 78.9961 303.119C79.5894 303.119 80.0961 303.259 80.5161 303.539C80.9361 303.813 81.2327 304.219 81.4061 304.759C81.4394 304.866 81.4661 304.973 81.4861 305.079C81.5127 305.186 81.5327 305.309 81.5461 305.449C81.5594 305.589 81.5694 305.756 81.5761 305.949C81.5827 306.136 81.5861 306.363 81.5861 306.629C81.5861 306.896 81.5827 307.126 81.5761 307.319C81.5694 307.506 81.5594 307.669 81.5461 307.809C81.5327 307.949 81.5127 308.073 81.4861 308.179C81.4661 308.286 81.4394 308.393 81.4061 308.499C81.2327 309.039 80.9361 309.449 80.5161 309.729C80.0961 310.003 79.5894 310.139 78.9961 310.139ZM85.9756 306.219C86.2889 306.219 86.5389 306.133 86.7256 305.959C86.9189 305.786 87.0156 305.553 87.0156 305.259C87.0156 304.959 86.9189 304.723 86.7256 304.549C86.5389 304.376 86.2889 304.289 85.9756 304.289H84.5256C84.4856 304.289 84.4656 304.309 84.4656 304.349V306.159C84.4656 306.199 84.4856 306.219 84.5256 306.219H85.9756ZM87.1456 310.029C87.0723 310.029 87.0223 309.996 86.9956 309.929L85.6956 307.279H84.5256C84.4856 307.279 84.4656 307.299 84.4656 307.339V309.929C84.4656 309.996 84.4323 310.029 84.3656 310.029H83.3856C83.3189 310.029 83.2856 309.996 83.2856 309.929V303.329C83.2856 303.263 83.3189 303.229 83.3856 303.229H86.0156C86.3289 303.229 86.6156 303.279 86.8756 303.379C87.1423 303.479 87.3723 303.619 87.5656 303.799C87.7589 303.973 87.9089 304.186 88.0156 304.439C88.1289 304.686 88.1856 304.959 88.1856 305.259C88.1856 305.706 88.0689 306.093 87.8356 306.419C87.6023 306.746 87.2889 306.983 86.8956 307.129L88.3256 309.899C88.3456 309.933 88.3456 309.963 88.3256 309.989C88.3123 310.016 88.2889 310.029 88.2556 310.029H87.1456Z" fill="black"/>
<path d="M37.5184 293.341C37.3945 293.341 37.3325 293.279 37.3325 293.156V283.279C37.3325 283.205 37.2953 283.168 37.221 283.168H34.0238C33.8999 283.168 33.8379 283.106 33.8379 282.982V280.926C33.8379 280.802 33.8999 280.74 34.0238 280.74H43.3738C43.4977 280.74 43.5597 280.802 43.5597 280.926V282.982C43.5597 283.106 43.4977 283.168 43.3738 283.168H40.1766C40.1022 283.168 40.065 283.205 40.065 283.279V293.156C40.065 293.279 40.0031 293.341 39.8791 293.341H37.5184Z" fill="black"/>
<path d="M49.6872 293.545C48.9808 293.545 48.3302 293.44 47.7354 293.23C47.1405 293.02 46.6263 292.711 46.1925 292.303C45.7712 291.896 45.4366 291.389 45.1888 290.784C44.9533 290.178 44.8356 289.487 44.8356 288.708V280.926C44.8356 280.802 44.8975 280.74 45.0215 280.74H47.3822C47.5061 280.74 47.5681 280.802 47.5681 280.926V288.782C47.5681 289.536 47.7602 290.117 48.1443 290.524C48.5285 290.932 49.0428 291.136 49.6872 291.136C50.3192 291.136 50.8273 290.932 51.2114 290.524C51.5956 290.117 51.7877 289.536 51.7877 288.782V280.926C51.7877 280.802 51.8496 280.74 51.9735 280.74H54.3343C54.4582 280.74 54.5202 280.802 54.5202 280.926V288.708C54.5202 289.487 54.3962 290.178 54.1484 290.784C53.9129 291.389 53.5784 291.896 53.1446 292.303C52.7233 292.711 52.2152 293.02 51.6204 293.23C51.0379 293.44 50.3935 293.545 49.6872 293.545Z" fill="black"/>
<path d="M61.761 286.225C62.2814 286.225 62.6966 286.083 63.0064 285.799C63.3162 285.515 63.4711 285.132 63.4711 284.65C63.4711 284.181 63.3162 283.804 63.0064 283.52C62.6966 283.236 62.2814 283.094 61.761 283.094H59.5303C59.456 283.094 59.4188 283.131 59.4188 283.205V286.114C59.4188 286.188 59.456 286.225 59.5303 286.225H61.761ZM63.6756 293.341C63.5392 293.341 63.4463 293.279 63.3967 293.156L61.2219 288.542H59.5303C59.456 288.542 59.4188 288.579 59.4188 288.653V293.156C59.4188 293.279 59.3568 293.341 59.2329 293.341H56.8722C56.7483 293.341 56.6863 293.279 56.6863 293.156V280.926C56.6863 280.802 56.7483 280.74 56.8722 280.74H61.9097C62.5541 280.74 63.1365 280.839 63.657 281.037C64.1898 281.222 64.6422 281.488 65.0139 281.834C65.3981 282.179 65.6893 282.593 65.8876 283.075C66.0983 283.557 66.2036 284.082 66.2036 284.65C66.2036 285.465 66.0053 286.176 65.6088 286.781C65.2122 287.386 64.6608 287.844 63.9544 288.152L66.4452 293.119C66.47 293.18 66.47 293.236 66.4452 293.285C66.4205 293.322 66.3771 293.341 66.3151 293.341H63.6756Z" fill="black"/>
<path d="M68.1001 280.926C68.1001 280.802 68.162 280.74 68.2859 280.74H70.5166C70.6529 280.74 70.7582 280.802 70.8326 280.926L75.2938 288.857H75.3867V280.926C75.3867 280.802 75.4487 280.74 75.5726 280.74H77.6731C77.797 280.74 77.859 280.802 77.859 280.926V293.156C77.859 293.279 77.797 293.341 77.6731 293.341H75.4611C75.3248 293.341 75.2194 293.279 75.1451 293.156L70.6653 285.243H70.5723V293.156C70.5723 293.279 70.5104 293.341 70.3864 293.341H68.2859C68.162 293.341 68.1001 293.279 68.1001 293.156V280.926Z" fill="black"/>
<path d="M80.0947 293.519C80.0947 293.42 80.1257 293.334 80.1876 293.26L84.6303 287.997C84.8781 287.713 85.064 287.435 85.1879 287.163C85.3119 286.879 85.3738 286.576 85.3738 286.255C85.3738 285.835 85.2499 285.489 85.002 285.217C84.7666 284.946 84.432 284.81 83.9983 284.81C83.1184 284.81 82.6227 285.304 82.5112 286.292C82.5112 286.416 82.443 286.465 82.3067 286.44L80.262 286.107C80.1381 286.082 80.0885 286.008 80.1133 285.885C80.1505 285.452 80.262 285.038 80.4479 284.643C80.6338 284.248 80.894 283.902 81.2286 283.605C81.5756 283.309 81.9845 283.074 82.4554 282.901C82.9387 282.716 83.484 282.623 84.0912 282.623C84.6984 282.623 85.2375 282.716 85.7084 282.901C86.1917 283.086 86.6007 283.34 86.9352 283.661C87.2698 283.982 87.5239 284.365 87.6974 284.81C87.8833 285.242 87.9762 285.712 87.9762 286.218C87.9762 286.823 87.8585 287.373 87.623 287.867C87.4 288.349 87.0901 288.819 86.6936 289.276L83.3663 293.186V293.223H87.7903C87.9142 293.223 87.9762 293.284 87.9762 293.408V295.242C87.9762 295.366 87.9142 295.428 87.7903 295.428H80.2806C80.1567 295.428 80.0947 295.366 80.0947 295.242V293.519Z" fill="black"/>
<path d="M97.3014 293.341C97.1651 293.341 97.0598 293.279 96.9854 293.156L94.7362 289.32H94.6805L92.4127 293.156C92.3383 293.279 92.233 293.341 92.0967 293.341H89.5315C89.4695 293.341 89.4261 293.322 89.4014 293.285C89.3766 293.236 89.3828 293.18 89.4199 293.119L93.1934 286.837L89.6802 280.963C89.6554 280.901 89.6492 280.851 89.6616 280.814C89.6864 280.765 89.7298 280.74 89.7917 280.74H92.3755C92.4994 280.74 92.5986 280.802 92.6729 280.926L94.6805 284.335H94.7362L96.7438 280.926C96.8182 280.802 96.9173 280.74 97.0412 280.74H99.625C99.687 280.74 99.7242 280.765 99.7365 280.814C99.7613 280.851 99.7613 280.901 99.7365 280.963L96.2047 286.837L99.9968 293.119C100.022 293.18 100.022 293.236 99.9968 293.285C99.9844 293.322 99.9472 293.341 99.8852 293.341H97.3014Z" fill="black"/>
<path fill-rule="evenodd" clip-rule="evenodd" d="M76.1126 248.427C74.2435 246.563 71.2132 246.563 69.3441 248.427C68.8161 248.953 68.4373 249.572 68.2076 250.231C68.018 250.713 67.8775 251.221 67.7315 251.748C67.3293 253.201 66.886 254.803 65.2613 256.422C63.6365 258.042 62.0301 258.484 60.5725 258.885C60.2755 258.967 59.9847 259.047 59.7011 259.135C58.8231 259.319 57.9869 259.751 57.3051 260.43C55.4361 262.294 55.4361 265.315 57.3051 267.178C59.1742 269.042 62.2046 269.042 64.0736 267.178C64.7563 266.498 65.1897 265.662 65.3736 264.786C65.4616 264.504 65.5418 264.214 65.6236 263.919C66.0258 262.465 66.4691 260.864 68.0938 259.244C69.7186 257.624 71.325 257.182 72.7826 256.781C73.3037 256.638 73.8059 256.5 74.2831 256.315C74.9515 256.087 75.5793 255.707 76.1126 255.175C77.9817 253.311 77.9817 250.29 76.1126 248.427Z" fill="#385494"/>
<path fill-rule="evenodd" clip-rule="evenodd" d="M76.1126 267.179C74.2435 269.042 71.2132 269.042 69.3441 267.179C68.8161 266.652 68.4373 266.033 68.2076 265.375C68.018 264.893 67.8775 264.385 67.7315 263.858C67.3293 262.404 66.886 260.803 65.2613 259.183C63.6365 257.563 62.0301 257.121 60.5725 256.72C60.2755 256.639 59.9847 256.558 59.7011 256.471C58.8231 256.287 57.9869 255.855 57.3051 255.175C55.4361 253.312 55.4361 250.291 57.3051 248.427C59.1742 246.564 62.2046 246.564 64.0736 248.427C64.7563 249.108 65.1897 249.943 65.3736 250.82C65.4616 251.102 65.5418 251.391 65.6236 251.687C66.0258 253.14 66.4691 254.742 68.0938 256.361C69.7186 257.981 71.325 258.423 72.7826 258.824C73.3037 258.968 73.8059 259.106 74.2831 259.291C74.9515 259.519 75.5793 259.899 76.1126 260.431C77.9817 262.294 77.9817 265.315 76.1126 267.179Z" fill="#4579DD"/>
<rect x="226.702" y="333.529" width="100" height="100.298" rx="12" transform="rotate(-90 226.702 333.529)" stroke="#D6E3FF" stroke-width="2"/>
<path d="M262.439 298.721C262.367 298.529 262.307 298.337 262.259 298.145C262.223 297.941 262.193 297.719 262.169 297.479C262.145 297.227 262.127 296.939 262.115 296.615C262.103 296.279 262.097 295.877 262.097 295.409C262.097 294.941 262.103 294.545 262.115 294.221C262.127 293.885 262.145 293.597 262.169 293.357C262.193 293.105 262.223 292.883 262.259 292.691C262.307 292.499 262.367 292.301 262.439 292.097C262.763 291.089 263.297 290.339 264.041 289.847C264.797 289.343 265.715 289.091 266.795 289.091C267.839 289.091 268.721 289.331 269.441 289.811C270.173 290.279 270.713 290.945 271.061 291.809C271.121 291.917 271.091 291.989 270.971 292.025L269.009 292.907C268.901 292.967 268.817 292.937 268.757 292.817C268.589 292.421 268.349 292.091 268.037 291.827C267.737 291.563 267.329 291.431 266.813 291.431C266.333 291.431 265.937 291.551 265.625 291.791C265.325 292.031 265.109 292.361 264.977 292.781C264.941 292.889 264.911 293.009 264.887 293.141C264.863 293.261 264.839 293.417 264.815 293.609C264.803 293.801 264.791 294.041 264.779 294.329C264.779 294.617 264.779 294.977 264.779 295.409C264.779 295.841 264.779 296.201 264.779 296.489C264.791 296.777 264.803 297.017 264.815 297.209C264.839 297.401 264.863 297.563 264.887 297.695C264.911 297.815 264.941 297.929 264.977 298.037C265.109 298.457 265.325 298.787 265.625 299.027C265.937 299.267 266.333 299.387 266.813 299.387C267.329 299.387 267.737 299.255 268.037 298.991C268.349 298.727 268.589 298.397 268.757 298.001C268.817 297.881 268.901 297.851 269.009 297.911L270.971 298.793C271.091 298.829 271.121 298.901 271.061 299.009C270.713 299.873 270.173 300.545 269.441 301.025C268.721 301.493 267.839 301.727 266.795 301.727C265.715 301.727 264.797 301.481 264.041 300.989C263.297 300.485 262.763 299.729 262.439 298.721ZM272.774 289.469C272.774 289.349 272.834 289.289 272.954 289.289H275.24C275.36 289.289 275.42 289.349 275.42 289.469V294.059C275.42 294.131 275.456 294.167 275.528 294.167H279.524C279.596 294.167 279.632 294.131 279.632 294.059V289.469C279.632 289.349 279.692 289.289 279.812 289.289H282.098C282.218 289.289 282.278 289.349 282.278 289.469V301.349C282.278 301.469 282.218 301.529 282.098 301.529H279.812C279.692 301.529 279.632 301.469 279.632 301.349V296.633C279.632 296.561 279.596 296.525 279.524 296.525H275.528C275.456 296.525 275.42 296.561 275.42 296.633V301.349C275.42 301.469 275.36 301.529 275.24 301.529H272.954C272.834 301.529 272.774 301.469 272.774 301.349V289.469ZM284.37 299.747C284.25 299.747 284.19 299.687 284.19 299.567V297.731C284.19 297.635 284.202 297.563 284.226 297.515L287.898 289.433C287.946 289.337 288.03 289.289 288.15 289.289H290.436C290.556 289.289 290.598 289.349 290.562 289.469L286.89 297.515V297.569H289.14C289.212 297.569 289.248 297.533 289.248 297.461V294.815C289.248 294.695 289.308 294.635 289.428 294.635H291.516C291.636 294.635 291.696 294.695 291.696 294.815V297.461C291.696 297.533 291.732 297.569 291.804 297.569H292.614C292.734 297.569 292.794 297.629 292.794 297.749V299.567C292.794 299.687 292.734 299.747 292.614 299.747H291.804C291.732 299.747 291.696 299.783 291.696 299.855V301.349C291.696 301.469 291.636 301.529 291.516 301.529H289.428C289.308 301.529 289.248 301.469 289.248 301.349V299.855C289.248 299.783 289.212 299.747 289.14 299.747H284.37Z" fill="black"/>
<path fill-rule="evenodd" clip-rule="evenodd" d="M273.727 257.327L273.704 257.345C273.654 257.368 273.607 257.388 273.558 257.406C273.403 257.465 273.223 257.51 272.963 257.512C272.702 257.515 272.522 257.474 272.365 257.418C272.175 257.351 271.995 257.257 271.645 257.064L271.632 257.056L271.632 257.056C271.529 256.999 271.402 256.929 271.268 256.859C270.512 256.405 269.623 256.148 268.681 256.157C265.965 256.185 263.785 258.403 263.812 261.111C263.84 263.819 266.064 265.993 268.781 265.965C269.721 265.955 270.604 265.681 271.35 265.213C271.484 265.139 271.609 265.066 271.712 265.007L271.712 265.007L271.725 264.999C272.07 264.799 272.249 264.701 272.438 264.63C272.593 264.571 272.773 264.526 273.033 264.523C273.286 264.521 273.462 264.56 273.613 264.611C273.632 264.618 273.652 264.625 273.671 264.632C273.688 264.67 273.703 264.707 273.717 264.744C273.776 264.899 273.821 265.078 273.823 265.337C273.826 265.597 273.785 265.777 273.729 265.933C273.661 266.123 273.567 266.303 273.373 266.651L273.355 266.684L273.355 266.684L273.355 266.684C273.237 266.895 273.062 267.21 272.912 267.556C272.617 268.196 272.457 268.908 272.464 269.65C272.492 272.359 274.716 274.532 277.433 274.505C280.149 274.477 282.329 272.259 282.302 269.551C282.294 268.801 282.116 268.086 281.803 267.448C281.648 267.113 281.471 266.809 281.351 266.603L281.332 266.572C281.132 266.227 281.033 266.049 280.962 265.861C280.903 265.706 280.858 265.527 280.855 265.267C280.853 265.023 280.89 264.851 280.938 264.706L280.945 264.684C280.99 264.664 281.034 264.646 281.078 264.629C281.234 264.57 281.413 264.526 281.674 264.523C281.934 264.52 282.114 264.561 282.271 264.617C282.461 264.684 282.641 264.779 282.991 264.972L283.024 264.99L283.024 264.99C283.236 265.107 283.551 265.282 283.899 265.432C284.54 265.726 285.255 265.885 285.999 265.877C288.716 265.85 290.895 263.632 290.868 260.924C290.841 258.215 288.616 256.042 285.9 256.07C285.148 256.077 284.431 256.254 283.791 256.566C283.455 256.721 283.149 256.898 282.943 257.018L282.911 257.036C282.566 257.236 282.387 257.334 282.199 257.406C282.043 257.464 281.863 257.509 281.603 257.512C281.361 257.514 281.192 257.479 281.049 257.433L281.042 257.43C281.011 257.366 280.985 257.307 280.962 257.247C280.904 257.091 280.859 256.912 280.856 256.653C280.853 256.393 280.895 256.213 280.95 256.057C281.018 255.867 281.113 255.687 281.306 255.339L281.313 255.326C281.371 255.223 281.441 255.097 281.512 254.963C281.967 254.209 282.225 253.323 282.216 252.384C282.188 249.675 279.964 247.502 277.247 247.53C274.531 247.557 272.351 249.775 272.379 252.483C272.388 253.421 272.663 254.301 273.133 255.045C273.207 255.178 273.28 255.304 273.34 255.406L273.347 255.418C273.548 255.763 273.646 255.941 273.717 256.129C273.776 256.284 273.821 256.463 273.824 256.723C273.826 256.971 273.789 257.144 273.739 257.292C273.735 257.303 273.731 257.315 273.727 257.327Z" fill="#385494"/>
<path opacity="0.4" d="M255.013 312.829C255.013 312.763 255.046 312.729 255.113 312.729H256.003C256.089 312.729 256.146 312.763 256.173 312.829L258.043 317.019H258.083L259.923 312.829C259.949 312.763 260.006 312.729 260.093 312.729H260.973C261.039 312.729 261.073 312.763 261.073 312.829V319.429C261.073 319.496 261.039 319.529 260.973 319.529H260.103C260.036 319.529 260.003 319.496 260.003 319.429V315.269H259.963L258.523 318.469C258.483 318.556 258.419 318.599 258.333 318.599H257.753C257.666 318.599 257.603 318.556 257.563 318.469L256.123 315.269H256.083V319.429C256.083 319.496 256.049 319.529 255.983 319.529H255.113C255.046 319.529 255.013 319.496 255.013 319.429V312.829ZM262.971 312.829C262.971 312.763 263.005 312.729 263.071 312.729H267.331C267.398 312.729 267.431 312.763 267.431 312.829V313.689C267.431 313.756 267.398 313.789 267.331 313.789H264.211C264.171 313.789 264.151 313.809 264.151 313.849V315.509C264.151 315.549 264.171 315.569 264.211 315.569H266.841C266.908 315.569 266.941 315.603 266.941 315.669V316.529C266.941 316.596 266.908 316.629 266.841 316.629H264.211C264.171 316.629 264.151 316.649 264.151 316.689V318.409C264.151 318.449 264.171 318.469 264.211 318.469H267.331C267.398 318.469 267.431 318.503 267.431 318.569V319.429C267.431 319.496 267.398 319.529 267.331 319.529H263.071C263.005 319.529 262.971 319.496 262.971 319.429V312.829ZM270.584 319.529C270.518 319.529 270.484 319.496 270.484 319.429V313.849C270.484 313.809 270.464 313.789 270.424 313.789H268.644C268.578 313.789 268.544 313.756 268.544 313.689V312.829C268.544 312.763 268.578 312.729 268.644 312.729H273.504C273.571 312.729 273.604 312.763 273.604 312.829V313.689C273.604 313.756 273.571 313.789 273.504 313.789H271.724C271.684 313.789 271.664 313.809 271.664 313.849V319.429C271.664 319.496 271.631 319.529 271.564 319.529H270.584ZM274.972 312.829C274.972 312.763 275.006 312.729 275.072 312.729H276.052C276.119 312.729 276.152 312.763 276.152 312.829V315.509C276.152 315.549 276.172 315.569 276.212 315.569H278.802C278.842 315.569 278.862 315.549 278.862 315.509V312.829C278.862 312.763 278.896 312.729 278.962 312.729H279.942C280.009 312.729 280.042 312.763 280.042 312.829V319.429C280.042 319.496 280.009 319.529 279.942 319.529H278.962C278.896 319.529 278.862 319.496 278.862 319.429V316.689C278.862 316.649 278.842 316.629 278.802 316.629H276.212C276.172 316.629 276.152 316.649 276.152 316.689V319.429C276.152 319.496 276.119 319.529 276.052 319.529H275.072C275.006 319.529 274.972 319.496 274.972 319.429V312.829ZM285.195 317.059L284.295 314.419H284.265L283.355 317.059H285.195ZM283.705 312.829C283.725 312.763 283.768 312.729 283.835 312.729H284.755C284.821 312.729 284.865 312.763 284.885 312.829L287.185 319.429C287.205 319.496 287.181 319.529 287.115 319.529H286.135C286.068 319.529 286.025 319.496 286.005 319.429L285.555 318.109H282.995L282.545 319.429C282.525 319.496 282.481 319.529 282.415 319.529H281.445C281.378 319.529 281.355 319.496 281.375 319.429L283.705 312.829ZM288.517 312.829C288.517 312.763 288.55 312.729 288.617 312.729H289.537C289.61 312.729 289.667 312.763 289.707 312.829L292.477 317.519H292.517V312.829C292.517 312.763 292.55 312.729 292.617 312.729H293.487C293.553 312.729 293.587 312.763 293.587 312.829V319.429C293.587 319.496 293.553 319.529 293.487 319.529H292.577C292.503 319.529 292.447 319.496 292.407 319.429L289.627 314.749H289.587V319.429C289.587 319.496 289.553 319.529 289.487 319.529H288.617C288.55 319.529 288.517 319.496 288.517 319.429V312.829ZM295.489 312.829C295.489 312.763 295.522 312.729 295.589 312.729H299.849C299.915 312.729 299.949 312.763 299.949 312.829V313.689C299.949 313.756 299.915 313.789 299.849 313.789H296.729C296.689 313.789 296.669 313.809 296.669 313.849V315.509C296.669 315.549 296.689 315.569 296.729 315.569H299.359C299.425 315.569 299.459 315.603 299.459 315.669V316.529C299.459 316.596 299.425 316.629 299.359 316.629H296.729C296.689 316.629 296.669 316.649 296.669 316.689V318.409C296.669 318.449 296.689 318.469 296.729 318.469H299.849C299.915 318.469 299.949 318.503 299.949 318.569V319.429C299.949 319.496 299.915 319.529 299.849 319.529H295.589C295.522 319.529 295.489 319.496 295.489 319.429V312.829Z" fill="black"/>
<path d="M133.425 280.529C132.873 280.529 132.425 280.977 132.425 281.529C132.425 282.082 132.873 282.529 133.425 282.529L133.425 280.529ZM217.379 282.236C217.77 281.846 217.77 281.213 217.379 280.822L211.015 274.458C210.625 274.068 209.992 274.068 209.601 274.458C209.211 274.849 209.211 275.482 209.601 275.872L215.258 281.529L209.601 287.186C209.211 287.577 209.211 288.21 209.601 288.6C209.992 288.991 210.625 288.991 211.015 288.6L217.379 282.236ZM133.425 282.529L216.672 282.529L216.672 280.529L133.425 280.529L133.425 282.529Z" fill="#D6E3FF"/>
</svg>
