<svg width="328" height="134" viewBox="0 0 328 134" fill="none" xmlns="http://www.w3.org/2000/svg">
<rect x="227" y="119" width="100" height="100" rx="12" transform="rotate(-90 227 119)" stroke="#D6E3FF" stroke-width="2"/>
<path d="M262.586 84.192C262.514 84 262.454 83.808 262.406 83.616C262.37 83.412 262.34 83.19 262.316 82.95C262.292 82.698 262.274 82.41 262.262 82.086C262.25 81.75 262.244 81.348 262.244 80.88C262.244 80.412 262.25 80.016 262.262 79.692C262.274 79.356 262.292 79.068 262.316 78.828C262.34 78.576 262.37 78.354 262.406 78.162C262.454 77.97 262.514 77.772 262.586 77.568C262.91 76.56 263.444 75.81 264.188 75.318C264.944 74.814 265.862 74.562 266.942 74.562C267.986 74.562 268.868 74.802 269.588 75.282C270.32 75.75 270.86 76.416 271.208 77.28C271.268 77.388 271.238 77.46 271.118 77.496L269.156 78.378C269.048 78.438 268.964 78.408 268.904 78.288C268.736 77.892 268.496 77.562 268.184 77.298C267.884 77.034 267.476 76.902 266.96 76.902C266.48 76.902 266.084 77.022 265.772 77.262C265.472 77.502 265.256 77.832 265.124 78.252C265.088 78.36 265.058 78.48 265.034 78.612C265.01 78.732 264.986 78.888 264.962 79.08C264.95 79.272 264.938 79.512 264.926 79.8C264.926 80.088 264.926 80.448 264.926 80.88C264.926 81.312 264.926 81.672 264.926 81.96C264.938 82.248 264.95 82.488 264.962 82.68C264.986 82.872 265.01 83.034 265.034 83.166C265.058 83.286 265.088 83.4 265.124 83.508C265.256 83.928 265.472 84.258 265.772 84.498C266.084 84.738 266.48 84.858 266.96 84.858C267.476 84.858 267.884 84.726 268.184 84.462C268.496 84.198 268.736 83.868 268.904 83.472C268.964 83.352 269.048 83.322 269.156 83.382L271.118 84.264C271.238 84.3 271.268 84.372 271.208 84.48C270.86 85.344 270.32 86.016 269.588 86.496C268.868 86.964 267.986 87.198 266.942 87.198C265.862 87.198 264.944 86.952 264.188 86.46C263.444 85.956 262.91 85.2 262.586 84.192ZM272.922 74.94C272.922 74.82 272.982 74.76 273.102 74.76H275.388C275.508 74.76 275.568 74.82 275.568 74.94V79.53C275.568 79.602 275.604 79.638 275.676 79.638H279.672C279.744 79.638 279.78 79.602 279.78 79.53V74.94C279.78 74.82 279.84 74.76 279.96 74.76H282.246C282.366 74.76 282.426 74.82 282.426 74.94V86.82C282.426 86.94 282.366 87 282.246 87H279.96C279.84 87 279.78 86.94 279.78 86.82V82.104C279.78 82.032 279.744 81.996 279.672 81.996H275.676C275.604 81.996 275.568 82.032 275.568 82.104V86.82C275.568 86.94 275.508 87 275.388 87H273.102C272.982 87 272.922 86.94 272.922 86.82V74.94ZM284.518 85.218C284.398 85.218 284.338 85.158 284.338 85.038V83.202C284.338 83.106 284.35 83.034 284.374 82.986L288.046 74.904C288.094 74.808 288.178 74.76 288.298 74.76H290.584C290.704 74.76 290.746 74.82 290.71 74.94L287.038 82.986V83.04H289.288C289.36 83.04 289.396 83.004 289.396 82.932V80.286C289.396 80.166 289.456 80.106 289.576 80.106H291.664C291.784 80.106 291.844 80.166 291.844 80.286V82.932C291.844 83.004 291.88 83.04 291.952 83.04H292.762C292.882 83.04 292.942 83.1 292.942 83.22V85.038C292.942 85.158 292.882 85.218 292.762 85.218H291.952C291.88 85.218 291.844 85.254 291.844 85.326V86.82C291.844 86.94 291.784 87 291.664 87H289.576C289.456 87 289.396 86.94 289.396 86.82V85.326C289.396 85.254 289.36 85.218 289.288 85.218H284.518Z" fill="black"/>
<path opacity="0.4" d="M255.16 98.3C255.16 98.2333 255.194 98.2 255.26 98.2H256.15C256.237 98.2 256.294 98.2333 256.32 98.3L258.19 102.49H258.23L260.07 98.3C260.097 98.2333 260.154 98.2 260.24 98.2H261.12C261.187 98.2 261.22 98.2333 261.22 98.3V104.9C261.22 104.967 261.187 105 261.12 105H260.25C260.184 105 260.15 104.967 260.15 104.9V100.74H260.11L258.67 103.94C258.63 104.027 258.567 104.07 258.48 104.07H257.9C257.814 104.07 257.75 104.027 257.71 103.94L256.27 100.74H256.23V104.9C256.23 104.967 256.197 105 256.13 105H255.26C255.194 105 255.16 104.967 255.16 104.9V98.3ZM263.119 98.3C263.119 98.2333 263.152 98.2 263.219 98.2H267.479C267.546 98.2 267.579 98.2333 267.579 98.3V99.16C267.579 99.2267 267.546 99.26 267.479 99.26H264.359C264.319 99.26 264.299 99.28 264.299 99.32V100.98C264.299 101.02 264.319 101.04 264.359 101.04H266.989C267.056 101.04 267.089 101.073 267.089 101.14V102C267.089 102.067 267.056 102.1 266.989 102.1H264.359C264.319 102.1 264.299 102.12 264.299 102.16V103.88C264.299 103.92 264.319 103.94 264.359 103.94H267.479C267.546 103.94 267.579 103.973 267.579 104.04V104.9C267.579 104.967 267.546 105 267.479 105H263.219C263.152 105 263.119 104.967 263.119 104.9V98.3ZM270.732 105C270.665 105 270.632 104.967 270.632 104.9V99.32C270.632 99.28 270.612 99.26 270.572 99.26H268.792C268.725 99.26 268.692 99.2267 268.692 99.16V98.3C268.692 98.2333 268.725 98.2 268.792 98.2H273.652C273.719 98.2 273.752 98.2333 273.752 98.3V99.16C273.752 99.2267 273.719 99.26 273.652 99.26H271.872C271.832 99.26 271.812 99.28 271.812 99.32V104.9C271.812 104.967 271.779 105 271.712 105H270.732ZM275.12 98.3C275.12 98.2333 275.153 98.2 275.22 98.2H276.2C276.267 98.2 276.3 98.2333 276.3 98.3V100.98C276.3 101.02 276.32 101.04 276.36 101.04H278.95C278.99 101.04 279.01 101.02 279.01 100.98V98.3C279.01 98.2333 279.043 98.2 279.11 98.2H280.09C280.157 98.2 280.19 98.2333 280.19 98.3V104.9C280.19 104.967 280.157 105 280.09 105H279.11C279.043 105 279.01 104.967 279.01 104.9V102.16C279.01 102.12 278.99 102.1 278.95 102.1H276.36C276.32 102.1 276.3 102.12 276.3 102.16V104.9C276.3 104.967 276.267 105 276.2 105H275.22C275.153 105 275.12 104.967 275.12 104.9V98.3ZM285.342 102.53L284.442 99.89H284.412L283.502 102.53H285.342ZM283.852 98.3C283.872 98.2333 283.916 98.2 283.982 98.2H284.902C284.969 98.2 285.012 98.2333 285.032 98.3L287.332 104.9C287.352 104.967 287.329 105 287.262 105H286.282C286.216 105 286.172 104.967 286.152 104.9L285.702 103.58H283.142L282.692 104.9C282.672 104.967 282.629 105 282.562 105H281.592C281.526 105 281.502 104.967 281.522 104.9L283.852 98.3ZM288.664 98.3C288.664 98.2333 288.698 98.2 288.764 98.2H289.684C289.758 98.2 289.814 98.2333 289.854 98.3L292.624 102.99H292.664V98.3C292.664 98.2333 292.698 98.2 292.764 98.2H293.634C293.701 98.2 293.734 98.2333 293.734 98.3V104.9C293.734 104.967 293.701 105 293.634 105H292.724C292.651 105 292.594 104.967 292.554 104.9L289.774 100.22H289.734V104.9C289.734 104.967 289.701 105 289.634 105H288.764C288.698 105 288.664 104.967 288.664 104.9V98.3ZM295.637 98.3C295.637 98.2333 295.67 98.2 295.737 98.2H299.997C300.063 98.2 300.097 98.2333 300.097 98.3V99.16C300.097 99.2267 300.063 99.26 299.997 99.26H296.877C296.837 99.26 296.817 99.28 296.817 99.32V100.98C296.817 101.02 296.837 101.04 296.877 101.04H299.507C299.573 101.04 299.607 101.073 299.607 101.14V102C299.607 102.067 299.573 102.1 299.507 102.1H296.877C296.837 102.1 296.817 102.12 296.817 102.16V103.88C296.817 103.92 296.837 103.94 296.877 103.94H299.997C300.063 103.94 300.097 103.973 300.097 104.04V104.9C300.097 104.967 300.063 105 299.997 105H295.737C295.67 105 295.637 104.967 295.637 104.9V98.3Z" fill="black"/>
<path d="M279.453 48.2871L279.452 48.2861L279.452 48.2861C279.108 47.6799 278.76 47.0623 278.76 46.0741C278.76 45.0859 279.108 44.4683 279.452 43.8621L279.456 43.8558C279.577 43.6432 279.701 43.4237 279.803 43.1944C279.964 42.8624 280.055 42.4897 280.055 42.0965C280.055 40.7096 278.93 39.5853 277.543 39.5853C276.156 39.5853 275.032 40.7097 275.032 42.0966C275.032 42.4859 275.121 42.8552 275.279 43.1847C275.382 43.4179 275.508 43.6408 275.631 43.8565L275.634 43.863C275.978 44.4692 276.326 45.0867 276.326 46.0749C276.326 47.0631 275.978 47.6807 275.634 48.2869L275.633 48.2889C275.565 48.4083 275.496 48.5297 275.432 48.6521C275.179 49.0441 275.032 49.5112 275.032 50.0117V50.0117L275.032 50.0173L275.032 50.0187L275.032 50.0236L275.032 50.0236C275.032 50.4129 275.121 50.7822 275.28 51.1117C275.382 51.3449 275.508 51.5678 275.631 51.7836L275.634 51.79C275.978 52.3962 276.326 53.0138 276.326 54.002C276.326 54.9902 275.978 55.6078 275.634 56.214L275.633 56.2159C275.565 56.3353 275.497 56.4567 275.432 56.5791C275.179 56.9711 275.032 57.4382 275.032 57.9387C275.032 59.3257 276.157 60.45 277.544 60.45C278.931 60.45 280.055 59.3256 280.055 57.9387C280.055 57.4374 279.908 56.9697 279.654 56.5774C279.59 56.4553 279.521 56.3342 279.454 56.2151L279.452 56.2131C279.108 55.6069 278.76 54.9894 278.761 54.0012C278.761 53.013 279.109 52.3954 279.453 51.7892L279.453 51.7892L279.454 51.7872L279.456 51.7828C279.577 51.5703 279.701 51.3507 279.803 51.1215C279.964 50.7895 280.055 50.4167 280.055 50.0236L279.768 50.0236H280.055L280.055 50.0181V50.0167L280.055 50.0116C280.055 49.5104 279.908 49.0427 279.654 48.6503C279.59 48.5284 279.521 48.4073 279.454 48.2883L279.453 48.2871L279.453 48.2871Z" fill="#385494" stroke="#385494" stroke-width="0.572734"/>
<mask id="path-5-outside-1_1876_1180" maskUnits="userSpaceOnUse" x="264.814" y="37.0447" width="25.4562" height="25.4555" fill="black">
<rect fill="white" x="264.814" y="37.0447" width="25.4562" height="25.4555"/>
<path fill-rule="evenodd" clip-rule="evenodd" d="M285.463 52.2434C286.692 52.2434 287.688 51.2472 287.688 50.0184C287.688 48.7897 286.692 47.7935 285.463 47.7936C285.113 47.7936 284.781 47.8747 284.486 48.0191C284.268 48.115 284.058 48.2345 283.839 48.3586L283.839 48.3586C283.228 48.7055 282.554 49.0879 281.486 49.0879C280.417 49.0879 279.744 48.7056 279.132 48.3587L279.132 48.3586C279.008 48.2881 278.886 48.219 278.764 48.1549C278.415 47.9263 277.997 47.7934 277.548 47.7934C277.546 47.7934 277.544 47.7934 277.542 47.7935C277.54 47.7934 277.538 47.7934 277.536 47.7934C277.185 47.7935 276.854 47.8746 276.559 48.019C276.341 48.1149 276.13 48.2344 275.912 48.3585C275.3 48.7054 274.626 49.0877 273.558 49.0878C272.49 49.0878 271.816 48.7055 271.205 48.3586C271.081 48.288 270.959 48.2189 270.837 48.1548C270.487 47.9262 270.07 47.7933 269.621 47.7933C268.392 47.7933 267.396 48.7895 267.396 50.0183C267.396 51.2471 268.392 52.2432 269.621 52.2432C270.069 52.2432 270.486 52.1106 270.835 51.8826C270.958 51.8184 271.08 51.7492 271.204 51.6785C271.815 51.3316 272.489 50.9492 273.557 50.9492C274.626 50.9492 275.299 51.3315 275.911 51.6784C276.133 51.8043 276.346 51.9255 276.567 52.0221C276.86 52.1638 277.189 52.2433 277.536 52.2433C277.538 52.2433 277.54 52.2433 277.542 52.2433C277.544 52.2433 277.546 52.2433 277.548 52.2433C277.996 52.2433 278.413 52.1107 278.763 51.8827C278.885 51.8185 279.007 51.7493 279.131 51.6786C279.743 51.3317 280.417 50.9493 281.485 50.9493C282.553 50.9493 283.227 51.3316 283.838 51.6785C284.06 51.8044 284.274 51.9256 284.495 52.0222C284.788 52.1639 285.116 52.2434 285.463 52.2434Z"/>
</mask>
<path fill-rule="evenodd" clip-rule="evenodd" d="M285.463 52.2434C286.692 52.2434 287.688 51.2472 287.688 50.0184C287.688 48.7897 286.692 47.7935 285.463 47.7936C285.113 47.7936 284.781 47.8747 284.486 48.0191C284.268 48.115 284.058 48.2345 283.839 48.3586L283.839 48.3586C283.228 48.7055 282.554 49.0879 281.486 49.0879C280.417 49.0879 279.744 48.7056 279.132 48.3587L279.132 48.3586C279.008 48.2881 278.886 48.219 278.764 48.1549C278.415 47.9263 277.997 47.7934 277.548 47.7934C277.546 47.7934 277.544 47.7934 277.542 47.7935C277.54 47.7934 277.538 47.7934 277.536 47.7934C277.185 47.7935 276.854 47.8746 276.559 48.019C276.341 48.1149 276.13 48.2344 275.912 48.3585C275.3 48.7054 274.626 49.0877 273.558 49.0878C272.49 49.0878 271.816 48.7055 271.205 48.3586C271.081 48.288 270.959 48.2189 270.837 48.1548C270.487 47.9262 270.07 47.7933 269.621 47.7933C268.392 47.7933 267.396 48.7895 267.396 50.0183C267.396 51.2471 268.392 52.2432 269.621 52.2432C270.069 52.2432 270.486 52.1106 270.835 51.8826C270.958 51.8184 271.08 51.7492 271.204 51.6785C271.815 51.3316 272.489 50.9492 273.557 50.9492C274.626 50.9492 275.299 51.3315 275.911 51.6784C276.133 51.8043 276.346 51.9255 276.567 52.0221C276.86 52.1638 277.189 52.2433 277.536 52.2433C277.538 52.2433 277.54 52.2433 277.542 52.2433C277.544 52.2433 277.546 52.2433 277.548 52.2433C277.996 52.2433 278.413 52.1107 278.763 51.8827C278.885 51.8185 279.007 51.7493 279.131 51.6786C279.743 51.3317 280.417 50.9493 281.485 50.9493C282.553 50.9493 283.227 51.3316 283.838 51.6785C284.06 51.8044 284.274 51.9256 284.495 52.0222C284.788 52.1639 285.116 52.2434 285.463 52.2434Z" fill="#385494"/>
<path d="M287.688 50.0184L287.115 50.0184L287.115 50.0184L287.688 50.0184ZM285.463 52.2434L285.463 51.6707L285.463 51.6707L285.463 52.2434ZM285.463 47.7936L285.463 47.2208L285.463 47.2208L285.463 47.7936ZM284.486 48.0191L284.738 48.5335L284.727 48.5386L284.717 48.5433L284.486 48.0191ZM283.839 48.3586L284.122 48.8568L284.11 48.8628L283.839 48.3586ZM283.839 48.3586L283.556 47.8604L283.567 47.8543L283.839 48.3586ZM279.132 48.3587L279.413 47.8597L279.415 47.8606L279.132 48.3587ZM279.132 48.3586L278.851 48.8576L278.85 48.8568L279.132 48.3586ZM278.764 48.1549L278.498 48.6619L278.474 48.6492L278.451 48.6343L278.764 48.1549ZM277.548 47.7934L277.548 48.3662L277.548 48.3662L277.548 47.7934ZM277.542 47.7935L277.544 48.3662L277.541 48.3662L277.542 47.7935ZM277.536 47.7934L277.536 47.2207L277.536 47.2207V47.7934ZM276.559 48.019L276.811 48.5334L276.8 48.5385L276.789 48.5432L276.559 48.019ZM275.912 48.3585L275.629 47.8604L275.912 48.3585ZM273.558 49.0878L273.558 49.6605L273.558 49.0878ZM271.205 48.3586L271.488 47.8604L271.205 48.3586ZM270.837 48.1548L270.57 48.6618L270.546 48.6491L270.523 48.6341L270.837 48.1548ZM269.621 47.7933L269.621 47.2206L269.621 47.7933ZM267.396 50.0183L266.823 50.0183L266.823 50.0183L267.396 50.0183ZM269.621 52.2432L269.621 52.8159L269.621 52.8159L269.621 52.2432ZM270.835 51.8826L270.522 51.403L270.545 51.3882L270.569 51.3756L270.835 51.8826ZM271.204 51.6785L270.921 51.1804L270.921 51.1804L271.204 51.6785ZM275.911 51.6784L276.193 51.1803L276.193 51.1803L275.911 51.6784ZM276.567 52.0221L276.797 51.4972L276.807 51.5017L276.817 51.5066L276.567 52.0221ZM277.536 52.2433L277.536 51.6706H277.536L277.536 52.2433ZM277.542 52.2433L277.54 51.6705L277.543 51.6706L277.542 52.2433ZM277.548 52.2433L277.548 52.816L277.548 52.816V52.2433ZM278.763 51.8827L278.449 51.4032L278.472 51.3883L278.496 51.3757L278.763 51.8827ZM279.131 51.6786L279.414 52.1767L279.414 52.1767L279.131 51.6786ZM281.485 50.9493L281.485 50.3766L281.485 50.3766L281.485 50.9493ZM283.838 51.6785L283.555 52.1766L283.555 52.1766L283.838 51.6785ZM284.495 52.0222L284.724 51.4973L284.734 51.5018L284.744 51.5067L284.495 52.0222ZM288.261 50.0184C288.261 51.5635 287.008 52.8161 285.463 52.8161L285.463 51.6707C286.376 51.6707 287.115 50.9309 287.115 50.0184L288.261 50.0184ZM285.463 47.2208C287.008 47.2208 288.261 48.4733 288.261 50.0184L287.115 50.0184C287.116 49.106 286.376 48.3663 285.463 48.3663L285.463 47.2208ZM284.234 47.5048C284.606 47.3228 285.023 47.2208 285.463 47.2208L285.463 48.3663C285.202 48.3663 284.956 48.4266 284.738 48.5335L284.234 47.5048ZM283.556 47.8605C283.77 47.7392 284.006 47.6046 284.255 47.495L284.717 48.5433C284.53 48.6254 284.345 48.7299 284.122 48.8567L283.556 47.8605ZM283.567 47.8543L283.567 47.8543L284.11 48.8628L284.11 48.8629L283.567 47.8543ZM281.486 48.5152C282.394 48.5151 282.955 48.2015 283.556 47.8605L284.122 48.8567C283.5 49.2095 282.714 49.6606 281.486 49.6606L281.486 48.5152ZM279.415 47.8606C280.016 48.2016 280.577 48.5152 281.486 48.5152L281.486 49.6606C280.257 49.6606 279.471 49.2096 278.85 48.8568L279.415 47.8606ZM279.413 47.8597L279.413 47.8597L278.851 48.8576L278.851 48.8576L279.413 47.8597ZM279.031 47.648C279.162 47.7171 279.292 47.7908 279.415 47.8605L278.85 48.8568C278.724 48.7854 278.61 48.721 278.498 48.6619L279.031 47.648ZM277.548 47.2207C278.111 47.2207 278.638 47.3879 279.078 47.6756L278.451 48.6343C278.191 48.4647 277.882 48.3662 277.548 48.3662L277.548 47.2207ZM277.541 47.2207C277.543 47.2207 277.545 47.2207 277.548 47.2207L277.548 48.3662C277.547 48.3662 277.545 48.3662 277.544 48.3662L277.541 47.2207ZM277.536 47.2207C277.539 47.2207 277.541 47.2207 277.544 47.2207L277.541 48.3662C277.539 48.3662 277.538 48.3662 277.536 48.3662V47.2207ZM276.307 47.5047C276.679 47.3226 277.096 47.2207 277.536 47.2207L277.536 48.3662C277.275 48.3662 277.029 48.4265 276.811 48.5334L276.307 47.5047ZM275.629 47.8604C275.843 47.739 276.079 47.6045 276.328 47.4948L276.789 48.5432C276.603 48.6253 276.418 48.7298 276.194 48.8566L275.629 47.8604ZM273.558 48.515C274.467 48.515 275.028 48.2014 275.629 47.8604L276.194 48.8566C275.573 49.2094 274.786 49.6605 273.558 49.6605L273.558 48.515ZM271.488 47.8604C272.089 48.2015 272.65 48.515 273.558 48.515L273.558 49.6605C272.33 49.6605 271.544 49.2095 270.922 48.8567L271.488 47.8604ZM271.103 47.6479C271.235 47.717 271.365 47.7907 271.488 47.8604L270.922 48.8567C270.796 48.7853 270.683 48.7209 270.57 48.6618L271.103 47.6479ZM269.621 47.2206C270.184 47.2206 270.71 47.3878 271.15 47.6755L270.523 48.6341C270.264 48.4646 269.955 48.366 269.621 48.3661L269.621 47.2206ZM266.823 50.0183C266.823 48.4732 268.076 47.2206 269.621 47.2206L269.621 48.3661C268.708 48.3661 267.968 49.1058 267.968 50.0183L266.823 50.0183ZM269.621 52.8159C268.075 52.8159 266.823 51.5634 266.823 50.0183L267.968 50.0183C267.968 50.9308 268.708 51.6705 269.621 51.6704L269.621 52.8159ZM271.148 52.3622C270.709 52.6491 270.183 52.8159 269.621 52.8159L269.621 51.6704C269.954 51.6704 270.263 51.5721 270.522 51.403L271.148 52.3622ZM271.487 52.1766C271.364 52.2464 271.234 52.3203 271.102 52.3896L270.569 51.3756C270.681 51.3165 270.795 51.2519 270.921 51.1804L271.487 52.1766ZM273.557 51.5219C272.649 51.5219 272.088 51.8355 271.487 52.1766L270.921 51.1804C271.543 50.8276 272.329 50.3765 273.557 50.3765L273.557 51.5219ZM275.628 52.1765C275.027 51.8355 274.466 51.5219 273.557 51.5219L273.557 50.3765C274.786 50.3764 275.572 50.8275 276.193 51.1803L275.628 52.1765ZM276.338 52.5469C276.085 52.4363 275.845 52.2996 275.628 52.1765L276.193 51.1803C276.42 51.309 276.608 51.4147 276.797 51.4972L276.338 52.5469ZM277.536 52.816C277.101 52.816 276.687 52.7161 276.318 52.5375L276.817 51.5066C277.034 51.6115 277.277 51.6706 277.536 51.6706L277.536 52.816ZM277.543 52.816C277.541 52.816 277.538 52.816 277.536 52.816L277.536 51.6706C277.537 51.6706 277.539 51.6706 277.54 51.6706L277.543 52.816ZM277.548 52.816C277.545 52.816 277.543 52.816 277.54 52.816L277.543 51.6706C277.545 51.6706 277.546 51.6706 277.548 51.6706V52.816ZM279.076 52.3623C278.636 52.6492 278.111 52.816 277.548 52.816L277.548 51.6706C277.882 51.6706 278.191 51.5722 278.449 51.4032L279.076 52.3623ZM279.414 52.1767C279.291 52.2466 279.161 52.3205 279.029 52.3897L278.496 51.3757C278.609 51.3166 278.723 51.252 278.849 51.1805L279.414 52.1767ZM281.485 51.522C280.576 51.5221 280.015 51.8357 279.414 52.1767L278.849 51.1805C279.47 50.8277 280.257 50.3766 281.485 50.3766L281.485 51.522ZM283.555 52.1766C282.954 51.8356 282.393 51.522 281.485 51.522L281.485 50.3766C282.713 50.3766 283.499 50.8276 284.121 51.1804L283.555 52.1766ZM284.266 52.5471C284.012 52.4364 283.772 52.2997 283.555 52.1766L284.121 51.1804C284.348 51.3091 284.535 51.4148 284.724 51.4973L284.266 52.5471ZM285.463 52.8161C285.028 52.8161 284.614 52.7163 284.245 52.5377L284.744 51.5067C284.961 51.6116 285.204 51.6707 285.463 51.6707L285.463 52.8161Z" fill="#385494" mask="url(#path-5-outside-1_1876_1180)"/>
<mask id="path-7-outside-2_1876_1180" maskUnits="userSpaceOnUse" x="262.589" y="35.1704" width="29.6989" height="29.6981" fill="black">
<rect fill="white" x="262.589" y="35.1704" width="29.6989" height="29.6981"/>
<path fill-rule="evenodd" clip-rule="evenodd" d="M275.559 48.4301C275.906 47.8187 276.289 47.1449 276.289 46.0767C276.289 45.0086 275.906 44.3348 275.559 43.7234C275.434 43.5016 275.312 43.288 275.216 43.0668C275.074 42.774 274.995 42.4455 274.995 42.0984C274.995 40.8696 275.991 39.8734 277.22 39.8734C278.448 39.8734 279.445 40.8695 279.445 42.0983C279.445 42.4489 279.363 42.7806 279.219 43.0756C279.123 43.2934 279.004 43.504 278.88 43.7226C278.533 44.334 278.15 45.0077 278.15 46.0759C278.15 47.1441 278.533 47.8179 278.879 48.4292L278.879 48.4293L278.88 48.4293C278.95 48.5536 279.019 48.6753 279.083 48.7973C279.312 49.1468 279.445 49.5646 279.445 50.0135L279.445 50.0192L279.445 50.0254C279.445 50.376 279.364 50.7077 279.219 51.0027C279.123 51.2205 279.004 51.4311 278.88 51.6496L278.88 51.6497L278.88 51.6497C278.533 52.2611 278.15 52.9349 278.15 54.003C278.15 55.0712 278.533 55.745 278.88 56.3563C278.95 56.4807 279.019 56.6024 279.083 56.7244C279.312 57.0739 279.445 57.4917 279.445 57.9406C279.445 59.1694 278.449 60.1655 277.22 60.1656C275.991 60.1656 274.995 59.1695 274.995 57.9407C274.995 57.4925 275.127 57.0752 275.355 56.726C275.42 56.6038 275.489 56.4818 275.56 56.3572C275.906 55.7458 276.289 55.072 276.289 54.0039C276.289 52.9357 275.907 52.2619 275.56 51.6506C275.434 51.4287 275.313 51.2151 275.216 50.9939C275.074 50.7011 274.995 50.3726 274.995 50.0255L274.995 50.0198L274.995 50.0135C274.995 49.5653 275.127 49.1481 275.355 48.7988C275.419 48.6766 275.489 48.5546 275.559 48.4301ZM274.042 48.0337C274.108 47.9104 274.175 47.7918 274.233 47.6891L274.238 47.6804C274.57 47.0965 274.77 46.7207 274.77 46.0767C274.77 46.0092 274.767 45.9446 274.763 45.8824C274.705 45.0454 274.83 44.1375 275.559 43.7234L274.262 44.4595C274.249 44.467 274.232 44.4624 274.225 44.4492C274.111 44.2492 273.962 43.986 273.835 43.7009C273.604 43.2133 273.476 42.6688 273.476 42.0983C273.476 40.0306 275.152 38.3544 277.22 38.3544C279.287 38.3543 280.964 40.0306 280.964 42.0983C280.964 42.6742 280.833 43.2237 280.597 43.7148C280.472 43.9939 280.326 44.252 280.214 44.4489C280.207 44.4618 280.19 44.4663 280.177 44.459L278.88 43.7226C279.609 44.1366 279.734 45.0446 279.676 45.8815C279.671 45.9437 279.669 46.0084 279.669 46.0759C279.669 46.7199 279.869 47.0957 280.201 47.6796L280.201 47.6796L280.204 47.6855L280.204 47.6857L280.206 47.6883C280.264 47.7906 280.331 47.9087 280.397 48.0316M280.962 50.013C280.963 50.0133 280.964 50.0142 280.964 50.0152L280.964 50.023L280.964 50.0254L280.964 50.0254C280.964 50.6014 280.833 51.1508 280.597 51.6419C280.472 51.9209 280.326 52.1791 280.214 52.376C280.211 52.3817 280.208 52.3874 280.204 52.393C280.203 52.3952 280.202 52.3973 280.201 52.3993L280.201 52.3994C279.869 52.9833 279.669 53.3591 279.669 54.0031C279.669 54.647 279.869 55.0228 280.201 55.6067L280.206 55.6154C280.264 55.7177 280.331 55.8358 280.397 55.9587C280.756 56.5343 280.964 57.2153 280.964 57.9406C280.964 60.0083 279.288 61.6845 277.22 61.6846C275.152 61.6846 273.476 60.0084 273.476 57.9406C273.476 57.2163 273.683 56.536 274.042 55.9608C274.108 55.8375 274.175 55.7189 274.233 55.6162L274.238 55.6075C274.57 55.0236 274.77 54.6478 274.77 54.0038C274.77 53.3598 274.57 52.9841 274.238 52.4002C274.234 52.3924 274.229 52.3844 274.225 52.3764C274.111 52.1764 273.962 51.9131 273.835 51.628C273.604 51.1404 273.476 50.5959 273.476 50.0255L273.476 50.0252L273.476 50.0199L273.476 50.0135V50.0135C273.476 49.2891 273.683 48.6088 274.042 48.0337"/>
</mask>
<path fill-rule="evenodd" clip-rule="evenodd" d="M275.559 48.4301C275.906 47.8187 276.289 47.1449 276.289 46.0767C276.289 45.0086 275.906 44.3348 275.559 43.7234C275.434 43.5016 275.312 43.288 275.216 43.0668C275.074 42.774 274.995 42.4455 274.995 42.0984C274.995 40.8696 275.991 39.8734 277.22 39.8734C278.448 39.8734 279.445 40.8695 279.445 42.0983C279.445 42.4489 279.363 42.7806 279.219 43.0756C279.123 43.2934 279.004 43.504 278.88 43.7226C278.533 44.334 278.15 45.0077 278.15 46.0759C278.15 47.1441 278.533 47.8179 278.879 48.4292L278.879 48.4293L278.88 48.4293C278.95 48.5536 279.019 48.6753 279.083 48.7973C279.312 49.1468 279.445 49.5646 279.445 50.0135L279.445 50.0192L279.445 50.0254C279.445 50.376 279.364 50.7077 279.219 51.0027C279.123 51.2205 279.004 51.4311 278.88 51.6496L278.88 51.6497L278.88 51.6497C278.533 52.2611 278.15 52.9349 278.15 54.003C278.15 55.0712 278.533 55.745 278.88 56.3563C278.95 56.4807 279.019 56.6024 279.083 56.7244C279.312 57.0739 279.445 57.4917 279.445 57.9406C279.445 59.1694 278.449 60.1655 277.22 60.1656C275.991 60.1656 274.995 59.1695 274.995 57.9407C274.995 57.4925 275.127 57.0752 275.355 56.726C275.42 56.6038 275.489 56.4818 275.56 56.3572C275.906 55.7458 276.289 55.072 276.289 54.0039C276.289 52.9357 275.907 52.2619 275.56 51.6506C275.434 51.4287 275.313 51.2151 275.216 50.9939C275.074 50.7011 274.995 50.3726 274.995 50.0255L274.995 50.0198L274.995 50.0135C274.995 49.5653 275.127 49.1481 275.355 48.7988C275.419 48.6766 275.489 48.5546 275.559 48.4301ZM274.042 48.0337C274.108 47.9104 274.175 47.7918 274.233 47.6891L274.238 47.6804C274.57 47.0965 274.77 46.7207 274.77 46.0767C274.77 46.0092 274.767 45.9446 274.763 45.8824C274.705 45.0454 274.83 44.1375 275.559 43.7234L274.262 44.4595C274.249 44.467 274.232 44.4624 274.225 44.4492C274.111 44.2492 273.962 43.986 273.835 43.7009C273.604 43.2133 273.476 42.6688 273.476 42.0983C273.476 40.0306 275.152 38.3544 277.22 38.3544C279.287 38.3543 280.964 40.0306 280.964 42.0983C280.964 42.6742 280.833 43.2237 280.597 43.7148C280.472 43.9939 280.326 44.252 280.214 44.4489C280.207 44.4618 280.19 44.4663 280.177 44.459L278.88 43.7226C279.609 44.1366 279.734 45.0446 279.676 45.8815C279.671 45.9437 279.669 46.0084 279.669 46.0759C279.669 46.7199 279.869 47.0957 280.201 47.6796L280.201 47.6796L280.204 47.6855L280.204 47.6857L280.206 47.6883C280.264 47.7906 280.331 47.9087 280.397 48.0316M280.962 50.013C280.963 50.0133 280.964 50.0142 280.964 50.0152L280.964 50.023L280.964 50.0254L280.964 50.0254C280.964 50.6014 280.833 51.1508 280.597 51.6419C280.472 51.9209 280.326 52.1791 280.214 52.376C280.211 52.3817 280.208 52.3874 280.204 52.393C280.203 52.3952 280.202 52.3973 280.201 52.3993L280.201 52.3994C279.869 52.9833 279.669 53.3591 279.669 54.0031C279.669 54.647 279.869 55.0228 280.201 55.6067L280.206 55.6154C280.264 55.7177 280.331 55.8358 280.397 55.9587C280.756 56.5343 280.964 57.2153 280.964 57.9406C280.964 60.0083 279.288 61.6845 277.22 61.6846C275.152 61.6846 273.476 60.0084 273.476 57.9406C273.476 57.2163 273.683 56.536 274.042 55.9608C274.108 55.8375 274.175 55.7189 274.233 55.6162L274.238 55.6075C274.57 55.0236 274.77 54.6478 274.77 54.0038C274.77 53.3598 274.57 52.9841 274.238 52.4002C274.234 52.3924 274.229 52.3844 274.225 52.3764C274.111 52.1764 273.962 51.9131 273.835 51.628C273.604 51.1404 273.476 50.5959 273.476 50.0255L273.476 50.0252L273.476 50.0199L273.476 50.0135V50.0135C273.476 49.2891 273.683 48.6088 274.042 48.0337" fill="#385494"/>
<path d="M278.956 49.4391L279.034 49.1638L278.956 49.4391ZM279.034 49.1638L274.12 47.7584L273.963 48.309L278.877 49.7145L279.034 49.1638ZM273.963 48.309L280.883 50.2883L281.041 49.7377L274.12 47.7584L273.963 48.309ZM280.154 48.1833C280.26 48.354 280.283 48.5022 280.264 48.6224C280.245 48.745 280.179 48.8635 280.068 48.9645C279.843 49.1699 279.449 49.2823 279.034 49.1638L278.877 49.7145C279.469 49.8837 280.072 49.7362 280.454 49.3877C280.647 49.2118 280.788 48.9799 280.83 48.7104C280.872 48.4386 280.81 48.1529 280.639 47.8799L280.154 48.1833ZM275.559 48.4301L276.058 48.7127L276.058 48.7127L275.559 48.4301ZM276.289 46.0767L276.861 46.0768L276.289 46.0767ZM275.216 43.0668L275.741 42.8376L275.736 42.8273L275.731 42.8172L275.216 43.0668ZM274.995 42.0984L275.567 42.0984L275.567 42.0984L274.995 42.0984ZM279.445 42.0983L280.017 42.0983L280.017 42.0983L279.445 42.0983ZM279.219 43.0756L278.705 42.8237L278.7 42.8341L278.695 42.8448L279.219 43.0756ZM278.879 48.4292L279.381 48.1523L279.378 48.1466L278.879 48.4292ZM278.879 48.4293L278.378 48.7062L278.383 48.7148L278.879 48.4293ZM278.88 48.4293L279.378 48.1467L279.376 48.1438L278.88 48.4293ZM279.083 48.7973L278.576 49.0637L278.589 49.0879L278.604 49.1107L279.083 48.7973ZM279.445 50.0135L280.017 50.0142V50.0135L279.445 50.0135ZM279.445 50.0192L278.872 50.0185L278.872 50.02L279.445 50.0192ZM279.445 50.0254L280.017 50.0254L280.017 50.0246L279.445 50.0254ZM279.219 51.0027L278.705 50.7508L278.7 50.7612L278.695 50.7719L279.219 51.0027ZM278.88 51.6496L279.371 51.9444L279.378 51.9323L278.88 51.6496ZM278.88 51.6497L278.389 51.355L278.382 51.3664L278.375 51.3781L278.88 51.6497ZM278.88 51.6497L279.378 51.9324L279.384 51.9212L278.88 51.6497ZM278.15 54.003L277.578 54.003L277.578 54.003L278.15 54.003ZM278.88 56.3563L278.381 56.639L278.381 56.639L278.88 56.3563ZM279.083 56.7244L278.576 56.9909L278.589 57.015L278.604 57.0379L279.083 56.7244ZM279.445 57.9406L280.018 57.9406L279.445 57.9406ZM277.22 60.1656L277.22 59.5928L277.22 59.5928L277.22 60.1656ZM274.995 57.9407L275.568 57.9407L275.568 57.9407L274.995 57.9407ZM275.355 56.726L275.835 57.0391L275.85 57.0164L275.862 56.9924L275.355 56.726ZM275.56 56.3572L276.058 56.6399L276.058 56.6399L275.56 56.3572ZM276.289 54.0039L276.862 54.0039L276.862 54.0039L276.289 54.0039ZM275.56 51.6506L276.058 51.3679L276.058 51.3679L275.56 51.6506ZM275.216 50.9939L275.741 50.7647L275.736 50.7544L275.731 50.7443L275.216 50.9939ZM274.995 50.0255L274.422 50.0248V50.0255L274.995 50.0255ZM274.995 50.0198L275.567 50.0205L275.567 50.019L274.995 50.0198ZM274.995 50.0135L274.422 50.0135L274.422 50.0143L274.995 50.0135ZM275.355 48.7988L275.835 49.1119L275.85 49.0892L275.862 49.0653L275.355 48.7988ZM274.233 47.6891L274.731 47.9718L274.731 47.9717L274.233 47.6891ZM274.042 48.0337L274.528 48.3368L274.538 48.3208L274.546 48.3042L274.042 48.0337ZM274.238 47.6804L273.74 47.3977L273.74 47.3977L274.238 47.6804ZM274.77 46.0767L275.342 46.0767L275.342 46.0767L274.77 46.0767ZM273.835 43.7009L274.359 43.4686L274.356 43.462L274.353 43.4556L273.835 43.7009ZM273.476 42.0983L274.048 42.0983L274.048 42.0983L273.476 42.0983ZM277.22 38.3544L277.22 37.7816L277.22 37.7816L277.22 38.3544ZM280.964 42.0983L281.536 42.0983L281.536 42.0983L280.964 42.0983ZM280.597 43.7148L280.081 43.4673L280.077 43.474L280.074 43.4808L280.597 43.7148ZM279.669 46.0759L279.097 46.0759L279.669 46.0759ZM280.201 47.6796L280.706 47.4088L280.699 47.3969L280.201 47.6796ZM280.201 47.6796L279.696 47.9503L279.703 47.9623L280.201 47.6796ZM280.204 47.6855L280.705 47.4081L280.702 47.4028L280.204 47.6855ZM280.204 47.6857L279.703 47.9631L279.706 47.9683L280.204 47.6857ZM280.206 47.6883L279.707 47.971L279.707 47.971L280.206 47.6883ZM280.964 50.023H280.391L280.391 50.0263L280.964 50.023ZM280.964 50.0254L281.536 50.0387L281.537 50.0304L281.536 50.0221L280.964 50.0254ZM280.964 50.0254L280.391 50.0121V50.0254L280.964 50.0254ZM280.597 51.6419L280.081 51.3945L280.078 51.4012L280.075 51.408L280.597 51.6419ZM280.214 52.376L280.712 52.6588L280.712 52.6588L280.214 52.376ZM280.204 52.393L280.702 52.6758L280.703 52.6757L280.204 52.393ZM280.201 52.3993L279.703 52.1167L279.702 52.1186L280.201 52.3993ZM280.201 52.3994L280.699 52.6821L280.7 52.6802L280.201 52.3994ZM279.669 54.0031L280.242 54.0031L280.242 54.0031L279.669 54.0031ZM280.201 55.6067L279.703 55.8893L279.703 55.8893L280.201 55.6067ZM280.206 55.6154L280.704 55.3327L280.704 55.3327L280.206 55.6154ZM280.397 55.9587L279.892 56.2293L279.901 56.246L279.911 56.2621L280.397 55.9587ZM280.964 57.9406L280.391 57.9406L280.964 57.9406ZM277.22 61.6846L277.22 61.1118L277.22 61.1118L277.22 61.6846ZM273.476 57.9406L274.049 57.9406L274.049 57.9406L273.476 57.9406ZM274.042 55.9608L274.528 56.2639L274.538 56.2479L274.547 56.2313L274.042 55.9608ZM274.233 55.6162L274.732 55.8989L274.732 55.8989L274.233 55.6162ZM274.238 55.6075L274.736 55.8902L274.736 55.8902L274.238 55.6075ZM274.77 54.0038L275.343 54.0038L275.343 54.0038L274.77 54.0038ZM274.238 52.4002L274.737 52.1176L274.737 52.1176L274.238 52.4002ZM274.225 52.3764L273.727 52.6591L273.727 52.6591L274.225 52.3764ZM273.835 51.628L274.359 51.3957L274.356 51.3892L274.353 51.3827L273.835 51.628ZM273.476 50.0255L274.048 50.0255V50.0255H273.476ZM273.476 50.0252L272.903 50.0245V50.0252H273.476ZM273.476 50.0199L274.048 50.0206L274.048 50.0191L273.476 50.0199ZM273.476 50.0135L272.903 50.0065L272.903 50.0143L273.476 50.0135ZM273.476 50.0135L274.048 50.0206L274.048 50.0135L273.476 50.0135ZM280.964 50.0152L280.391 50.0111L280.391 50.0152H280.964ZM280.214 44.4489L279.716 44.1662L279.716 44.1662L280.214 44.4489ZM280.177 44.459L279.895 44.9571L280.177 44.459ZM274.262 44.4595L273.98 43.9614L274.262 44.4595ZM274.225 44.4492L274.723 44.1665L274.723 44.1665L274.225 44.4492ZM274.763 45.8824L274.192 45.9221L274.763 45.8824ZM276.058 48.7127C276.41 48.091 276.861 47.3049 276.861 46.0768L275.716 46.0767C275.716 46.985 275.402 47.5464 275.061 48.1474L276.058 48.7127ZM276.861 46.0768C276.861 44.8486 276.41 44.0625 276.058 43.4408L275.061 44.0061C275.402 44.6071 275.716 45.1685 275.716 46.0767L276.861 46.0768ZM276.058 43.4408C275.929 43.214 275.823 43.0266 275.741 42.8376L274.691 43.2959C274.802 43.5494 274.938 43.7892 275.061 44.0061L276.058 43.4408ZM275.731 42.8172C275.626 42.6005 275.567 42.3572 275.567 42.0984L274.422 42.0984C274.422 42.5338 274.522 42.9475 274.7 43.3164L275.731 42.8172ZM275.567 42.0984C275.567 41.1859 276.307 40.4461 277.22 40.4461L277.22 39.3006C275.674 39.3007 274.422 40.5532 274.422 42.0984L275.567 42.0984ZM277.22 40.4461C278.132 40.4461 278.872 41.1858 278.872 42.0983L280.017 42.0983C280.017 40.5532 278.765 39.3006 277.22 39.3006L277.22 40.4461ZM278.872 42.0983C278.872 42.3597 278.812 42.6054 278.705 42.8237L279.733 43.3274C279.915 42.9558 280.017 42.5381 280.017 42.0983L278.872 42.0983ZM278.695 42.8448C278.613 43.0313 278.508 43.2165 278.381 43.4399L279.378 44.0052C279.499 43.7915 279.634 43.5554 279.743 43.3063L278.695 42.8448ZM278.381 43.4399C278.029 44.0616 277.577 44.8478 277.577 46.0759L278.723 46.0759C278.723 45.1677 279.037 44.6063 279.378 44.0052L278.381 43.4399ZM277.577 46.0759C277.577 47.304 278.029 48.0902 278.381 48.7119L279.378 48.1466C279.037 47.5456 278.723 46.9842 278.723 46.0759L277.577 46.0759ZM278.378 48.7061L278.378 48.7061L279.381 48.1524L279.381 48.1523L278.378 48.7061ZM278.383 48.7148L278.383 48.7149L279.376 48.1438L279.376 48.1437L278.383 48.7148ZM278.381 48.712C278.453 48.8378 278.517 48.9514 278.576 49.0637L279.59 48.5308C279.521 48.3993 279.447 48.2695 279.378 48.1467L278.381 48.712ZM278.604 49.1107C278.773 49.3699 278.872 49.6793 278.872 50.0134L280.017 50.0135C280.017 49.4499 279.85 48.9237 279.563 48.4838L278.604 49.1107ZM278.872 50.0127L278.872 50.0185L280.017 50.02L280.017 50.0142L278.872 50.0127ZM278.872 50.02L278.872 50.0262L280.017 50.0246L280.017 50.0185L278.872 50.02ZM278.872 50.0254C278.872 50.2868 278.812 50.5325 278.705 50.7508L279.734 51.2546C279.916 50.8829 280.017 50.4652 280.017 50.0254L278.872 50.0254ZM278.695 50.7719C278.613 50.9585 278.508 51.1436 278.382 51.367L279.378 51.9323C279.499 51.7185 279.634 51.4825 279.743 51.2334L278.695 50.7719ZM278.389 51.355L278.389 51.355L279.371 51.9443L279.371 51.9443L278.389 51.355ZM278.375 51.3781L278.375 51.3782L279.384 51.9212L279.384 51.9212L278.375 51.3781ZM278.382 51.367C278.029 51.9888 277.578 52.7749 277.578 54.003L278.723 54.003C278.723 53.0948 279.037 52.5334 279.378 51.9324L278.382 51.367ZM277.578 54.003C277.578 55.2311 278.029 56.0173 278.381 56.639L279.378 56.0737C279.037 55.4727 278.723 54.9113 278.723 54.003L277.578 54.003ZM278.381 56.639C278.453 56.7648 278.517 56.8785 278.576 56.9909L279.59 56.4579C279.521 56.3264 279.447 56.1965 279.378 56.0737L278.381 56.639ZM278.604 57.0379C278.773 57.2971 278.872 57.6064 278.872 57.9406L280.018 57.9406C280.018 57.377 279.85 56.8508 279.563 56.4109L278.604 57.0379ZM278.872 57.9406C278.872 58.8531 278.132 59.5928 277.22 59.5928L277.22 60.7383C278.765 60.7383 280.018 59.4857 280.018 57.9406L278.872 57.9406ZM277.22 59.5928C276.307 59.5928 275.568 58.8532 275.568 57.9407L274.422 57.9406C274.422 59.4858 275.675 60.7383 277.22 60.7383L277.22 59.5928ZM275.568 57.9407C275.568 57.607 275.666 57.298 275.835 57.0391L274.876 56.4129C274.589 56.8524 274.422 57.3779 274.422 57.9406L275.568 57.9407ZM275.862 56.9924C275.922 56.8798 275.986 56.7659 276.058 56.6399L275.061 56.0745C274.992 56.1976 274.918 56.3277 274.848 56.4595L275.862 56.9924ZM276.058 56.6399C276.41 56.0181 276.862 55.232 276.862 54.0039L275.716 54.0039C275.716 54.9121 275.402 55.4735 275.061 56.0745L276.058 56.6399ZM276.862 54.0039C276.862 52.7758 276.411 51.9896 276.058 51.3679L275.061 51.9332C275.403 52.5342 275.716 53.0956 275.716 54.0039L276.862 54.0039ZM276.058 51.3679C275.929 51.1411 275.823 50.9538 275.741 50.7647L274.691 51.2231C274.802 51.4765 274.938 51.7164 275.061 51.9332L276.058 51.3679ZM275.731 50.7443C275.627 50.5277 275.567 50.2843 275.567 50.0255L274.422 50.0255C274.422 50.4609 274.522 50.8746 274.7 51.2435L275.731 50.7443ZM275.567 50.0262L275.567 50.0205L274.422 50.0191L274.422 50.0248L275.567 50.0262ZM275.567 50.019L275.567 50.0128L274.422 50.0143L274.422 50.0206L275.567 50.019ZM275.567 50.0135C275.567 49.6799 275.666 49.3709 275.835 49.1119L274.876 48.4857C274.589 48.9253 274.422 49.4508 274.422 50.0135L275.567 50.0135ZM275.862 49.0653C275.921 48.9527 275.986 48.8388 276.058 48.7127L275.061 48.1474C274.991 48.2705 274.918 48.4006 274.848 48.5324L275.862 49.0653ZM273.735 47.4064C273.677 47.5084 273.607 47.6328 273.537 47.7632L274.546 48.3042C274.609 48.1879 274.673 48.0751 274.731 47.9718L273.735 47.4064ZM273.74 47.3977L273.735 47.4065L274.731 47.9717L274.736 47.963L273.74 47.3977ZM274.197 46.0767C274.197 46.5598 274.067 46.8223 273.74 47.3977L274.736 47.963C275.073 47.3707 275.342 46.8817 275.342 46.0767L274.197 46.0767ZM274.192 45.9221C274.195 45.9703 274.197 46.0216 274.197 46.0767L275.342 46.0767C275.342 45.9967 275.34 45.9188 275.335 45.8427L274.192 45.9221ZM274.545 44.9577L275.842 44.2216L275.277 43.2253L273.98 43.9614L274.545 44.9577ZM273.312 43.9332C273.451 44.2476 273.614 44.534 273.727 44.732L274.723 44.1665C274.608 43.9644 274.472 43.7243 274.359 43.4686L273.312 43.9332ZM272.903 42.0983C272.903 42.7554 273.051 43.3836 273.318 43.9462L274.353 43.4556C274.157 43.043 274.048 42.5821 274.048 42.0983L272.903 42.0983ZM277.22 37.7816C274.836 37.7817 272.903 39.7143 272.903 42.0983L274.048 42.0983C274.048 40.3469 275.468 38.9271 277.22 38.9271L277.22 37.7816ZM281.536 42.0983C281.536 39.7143 279.604 37.7816 277.22 37.7816L277.22 38.9271C278.971 38.9271 280.391 40.3469 280.391 42.0983L281.536 42.0983ZM281.114 43.9623C281.385 43.3956 281.536 42.7617 281.536 42.0983L280.391 42.0983C280.391 42.5867 280.28 43.0518 280.081 43.4673L281.114 43.9623ZM280.712 44.7317C280.823 44.5368 280.982 44.2562 281.12 43.9488L280.074 43.4808C279.962 43.7315 279.829 43.9673 279.716 44.1662L280.712 44.7317ZM278.597 44.2207L279.895 44.9571L280.46 43.9609L279.162 43.2245L278.597 44.2207ZM280.242 46.076C280.242 46.0208 280.244 45.9695 280.247 45.9212L279.104 45.8418C279.099 45.918 279.097 45.9959 279.097 46.0759L280.242 46.076ZM280.699 47.3969C280.372 46.8215 280.242 46.559 280.242 46.076L279.097 46.0759C279.097 46.8809 279.366 47.3698 279.702 47.9622L280.699 47.3969ZM280.705 47.4089L280.705 47.4089L279.696 47.9502L279.696 47.9503L280.705 47.4089ZM280.702 47.4028L280.699 47.3969L279.703 47.9623L279.706 47.9682L280.702 47.4028ZM280.705 47.4083L280.705 47.4081L279.703 47.9629L279.703 47.9631L280.705 47.4083ZM280.704 47.4057L280.702 47.403L279.706 47.9683L279.707 47.971L280.704 47.4057ZM280.901 47.761C280.832 47.6312 280.761 47.5073 280.704 47.4056L279.707 47.971C279.766 48.0739 279.83 48.1863 279.892 48.3021L280.901 47.761ZM281.536 50.023V50.0152L280.391 50.0152L280.391 50.023H281.536ZM281.536 50.0221L281.536 50.0197L280.391 50.0263L280.391 50.0287L281.536 50.0221ZM281.536 50.0387L281.536 50.0387L280.391 50.0121L280.391 50.0121L281.536 50.0387ZM281.114 51.8894C281.385 51.3227 281.536 50.6889 281.537 50.0254L280.391 50.0254C280.391 50.5139 280.28 50.9789 280.081 51.3945L281.114 51.8894ZM280.712 52.6588C280.823 52.4638 280.983 52.1833 281.12 51.8759L280.075 51.408C279.962 51.6586 279.829 51.8944 279.716 52.0932L280.712 52.6588ZM280.703 52.6757C280.706 52.6702 280.709 52.6645 280.712 52.6588L279.716 52.0932C279.713 52.0989 279.71 52.1047 279.706 52.1103L280.703 52.6757ZM280.699 52.682C280.7 52.6798 280.701 52.6778 280.702 52.6758L279.706 52.1103C279.705 52.1125 279.704 52.1147 279.703 52.1167L280.699 52.682ZM280.7 52.6802L280.7 52.6801L279.702 52.1186L279.702 52.1186L280.7 52.6802ZM280.242 54.0031C280.242 53.52 280.372 53.2575 280.699 52.6821L279.703 52.1167C279.367 52.7091 279.097 53.1981 279.097 54.0031L280.242 54.0031ZM280.699 55.324C280.372 54.7486 280.242 54.4861 280.242 54.0031L279.097 54.0031C279.097 54.808 279.366 55.297 279.703 55.8893L280.699 55.324ZM280.704 55.3327L280.699 55.324L279.703 55.8893L279.708 55.8981L280.704 55.3327ZM280.901 55.6881C280.832 55.5583 280.762 55.4344 280.704 55.3327L279.708 55.8981C279.766 56.001 279.83 56.1134 279.892 56.2293L280.901 55.6881ZM281.537 57.9406C281.537 57.1049 281.297 56.3191 280.882 55.6553L279.911 56.2621C280.215 56.7494 280.391 57.3258 280.391 57.9406L281.537 57.9406ZM277.22 62.2573C279.604 62.2573 281.537 60.3246 281.537 57.9406L280.391 57.9406C280.391 59.692 278.971 61.1118 277.22 61.1118L277.22 62.2573ZM272.903 57.9406C272.903 60.3247 274.836 62.2573 277.22 62.2573L277.22 61.1118C275.468 61.1119 274.048 59.6921 274.049 57.9406L272.903 57.9406ZM273.556 55.6577C273.142 56.3211 272.903 57.1059 272.903 57.9406L274.049 57.9406C274.049 57.3266 274.224 56.7509 274.528 56.2639L273.556 55.6577ZM273.735 55.3335C273.677 55.4355 273.607 55.5599 273.537 55.6903L274.547 56.2313C274.609 56.115 274.673 56.0022 274.732 55.8989L273.735 55.3335ZM273.74 55.3248L273.735 55.3335L274.732 55.8989L274.736 55.8902L273.74 55.3248ZM274.197 54.0038C274.197 54.4869 274.067 54.7494 273.74 55.3248L274.736 55.8902C275.073 55.2978 275.343 54.8088 275.343 54.0038L274.197 54.0038ZM273.74 52.6829C274.067 53.2583 274.197 53.5208 274.197 54.0038L275.343 54.0038C275.343 53.1989 275.073 52.7099 274.737 52.1176L273.74 52.6829ZM273.727 52.6591C273.731 52.6672 273.736 52.6751 273.74 52.6829L274.737 52.1176C274.732 52.1097 274.728 52.1016 274.723 52.0936L273.727 52.6591ZM273.312 51.8603C273.451 52.1748 273.614 52.4611 273.727 52.6591L274.723 52.0936C274.608 51.8916 274.472 51.6514 274.359 51.3957L273.312 51.8603ZM272.903 50.0254C272.903 50.6825 273.051 51.3107 273.318 51.8733L274.353 51.3827C274.157 50.9701 274.048 50.5092 274.048 50.0255L272.903 50.0254ZM272.903 50.0252V50.0255L274.048 50.0255V50.0252L272.903 50.0252ZM272.903 50.0191L272.903 50.0245L274.048 50.0259L274.048 50.0206L272.903 50.0191ZM272.903 50.0143L272.903 50.0206L274.048 50.0191L274.048 50.0128L272.903 50.0143ZM272.903 50.0064L272.903 50.0065L274.048 50.0206L274.048 50.0206L272.903 50.0064ZM273.556 47.7306C273.142 48.3939 272.903 49.1788 272.903 50.0135L274.048 50.0135C274.048 49.3995 274.224 48.8238 274.528 48.3368L273.556 47.7306ZM281.536 50.0193C281.538 49.7611 281.368 49.5333 281.12 49.4624L280.805 50.5637C280.558 50.4932 280.389 50.2673 280.391 50.0111L281.536 50.0193ZM279.716 44.1662C279.865 43.904 280.198 43.8121 280.46 43.9609L279.895 44.9571C280.183 45.1206 280.549 45.0196 280.712 44.7317L279.716 44.1662ZM273.98 43.9614C274.241 43.8128 274.574 43.9046 274.723 44.1665L273.727 44.7319C273.89 45.0202 274.257 45.1212 274.545 44.9577L273.98 43.9614ZM278.597 44.2207C279.003 44.4513 279.162 45.0164 279.104 45.8418L280.247 45.9212C280.306 45.0728 280.215 43.8219 279.162 43.2245L278.597 44.2207ZM275.335 45.8427C275.277 45.0173 275.436 44.4522 275.842 44.2216L275.277 43.2253C274.224 43.8228 274.133 45.0736 274.192 45.9221L275.335 45.8427Z" fill="#385494" mask="url(#path-7-outside-2_1876_1180)"/>
<mask id="path-9-outside-3_1876_1180" maskUnits="userSpaceOnUse" x="262.365" y="34.9514" width="29.6989" height="29.6981" fill="black">
<rect fill="white" x="262.365" y="34.9514" width="29.6989" height="29.6981"/>
<path fill-rule="evenodd" clip-rule="evenodd" d="M277.22 52.2443C277.668 52.2443 278.086 52.1117 278.435 51.8837C278.557 51.8195 278.679 51.7503 278.804 51.6796C279.415 51.3327 280.089 50.9503 281.157 50.9503C282.225 50.9503 282.899 51.3326 283.511 51.6795C283.732 51.8054 283.946 51.9266 284.167 52.0232C284.46 52.1649 284.789 52.2444 285.136 52.2444C286.364 52.2444 287.361 51.2482 287.361 50.0194C287.361 48.7906 286.365 47.7945 285.136 47.7945C284.785 47.7945 284.453 47.8756 284.158 48.0201C283.941 48.116 283.73 48.2355 283.511 48.3595C282.9 48.7065 282.226 49.0888 281.158 49.0888C280.09 49.0889 279.416 48.7065 278.805 48.3596C278.68 48.2891 278.558 48.22 278.437 48.1559C278.087 47.9273 277.669 47.7944 277.22 47.7944L277.215 47.7944L277.208 47.7944C276.858 47.7944 276.526 47.8755 276.231 48.02C276.013 48.1159 275.803 48.2354 275.584 48.3594C274.973 48.7064 274.299 49.0887 273.231 49.0887C272.162 49.0887 271.489 48.7064 270.877 48.3595C270.753 48.289 270.631 48.2199 270.509 48.1558C270.16 47.9272 269.742 47.7943 269.293 47.7943C268.064 47.7943 267.068 48.7905 267.068 50.0193C267.068 51.2481 268.064 52.2442 269.293 52.2442C269.741 52.2441 270.158 52.1116 270.508 51.8836C270.63 51.8194 270.752 51.7502 270.876 51.6795C271.488 51.3325 272.162 50.9502 273.23 50.9502C274.298 50.9502 274.972 51.3325 275.583 51.6794C275.805 51.8053 276.019 51.9265 276.24 52.023C276.533 52.1648 276.861 52.2443 277.208 52.2443L277.214 52.2443L277.22 52.2443ZM277.214 53.7633L277.22 53.7633C277.945 53.7633 278.625 53.5561 279.2 53.1973C279.323 53.1312 279.442 53.0639 279.545 53.0057L279.553 53.0007C280.137 52.6694 280.513 52.4693 281.157 52.4693C281.801 52.4693 282.177 52.6693 282.761 53.0006C282.769 53.0051 282.777 53.0096 282.785 53.0142C282.985 53.1277 283.248 53.2772 283.533 53.4037C284.021 53.6348 284.565 53.7634 285.136 53.7634C287.203 53.7634 288.88 52.0871 288.88 50.0194C288.88 47.9517 287.203 46.2755 285.136 46.2755C284.56 46.2755 284.01 46.4066 283.519 46.6419C283.24 46.7668 282.982 46.9134 282.785 47.0252L282.762 47.0384C282.178 47.3698 281.802 47.5698 281.158 47.5698C280.514 47.5698 280.138 47.3698 279.554 47.0385L279.55 47.0363L279.545 47.0335C279.443 46.9754 279.325 46.9084 279.202 46.8426C278.627 46.4831 277.946 46.2754 277.22 46.2754M277.22 46.2754L277.219 46.2754L277.211 46.2754L277.208 46.2754C276.632 46.2754 276.083 46.4065 275.592 46.6418C275.313 46.7667 275.055 46.9133 274.858 47.0251L274.834 47.0383C274.25 47.3697 273.875 47.5697 273.231 47.5697C272.587 47.5697 272.211 47.3697 271.627 47.0384L271.618 47.0334C271.516 46.9754 271.398 46.9083 271.275 46.8425C270.699 46.4829 270.018 46.2752 269.293 46.2753C267.225 46.2753 265.549 47.9515 265.549 50.0192C265.549 52.087 267.225 53.7632 269.293 53.7632C270.017 53.7632 270.698 53.5559 271.273 53.1972C271.396 53.1311 271.515 53.0638 271.617 53.0055L271.626 53.0006C272.21 52.6692 272.586 52.4692 273.23 52.4692C273.874 52.4692 274.25 52.6692 274.833 53.0005C274.841 53.005 274.849 53.0095 274.857 53.0141C275.057 53.1276 275.321 53.2771 275.606 53.4036C276.093 53.6347 276.638 53.7633 277.208 53.7633M277.214 53.7633L277.208 53.7633L277.214 53.7633Z"/>
</mask>
<path fill-rule="evenodd" clip-rule="evenodd" d="M277.22 52.2443C277.668 52.2443 278.086 52.1117 278.435 51.8837C278.557 51.8195 278.679 51.7503 278.804 51.6796C279.415 51.3327 280.089 50.9503 281.157 50.9503C282.225 50.9503 282.899 51.3326 283.511 51.6795C283.732 51.8054 283.946 51.9266 284.167 52.0232C284.46 52.1649 284.789 52.2444 285.136 52.2444C286.364 52.2444 287.361 51.2482 287.361 50.0194C287.361 48.7906 286.365 47.7945 285.136 47.7945C284.785 47.7945 284.453 47.8756 284.158 48.0201C283.941 48.116 283.73 48.2355 283.511 48.3595C282.9 48.7065 282.226 49.0888 281.158 49.0888C280.09 49.0889 279.416 48.7065 278.805 48.3596C278.68 48.2891 278.558 48.22 278.437 48.1559C278.087 47.9273 277.669 47.7944 277.22 47.7944L277.215 47.7944L277.208 47.7944C276.858 47.7944 276.526 47.8755 276.231 48.02C276.013 48.1159 275.803 48.2354 275.584 48.3594C274.973 48.7064 274.299 49.0887 273.231 49.0887C272.162 49.0887 271.489 48.7064 270.877 48.3595C270.753 48.289 270.631 48.2199 270.509 48.1558C270.16 47.9272 269.742 47.7943 269.293 47.7943C268.064 47.7943 267.068 48.7905 267.068 50.0193C267.068 51.2481 268.064 52.2442 269.293 52.2442C269.741 52.2441 270.158 52.1116 270.508 51.8836C270.63 51.8194 270.752 51.7502 270.876 51.6795C271.488 51.3325 272.162 50.9502 273.23 50.9502C274.298 50.9502 274.972 51.3325 275.583 51.6794C275.805 51.8053 276.019 51.9265 276.24 52.023C276.533 52.1648 276.861 52.2443 277.208 52.2443L277.214 52.2443L277.22 52.2443ZM277.214 53.7633L277.22 53.7633C277.945 53.7633 278.625 53.5561 279.2 53.1973C279.323 53.1312 279.442 53.0639 279.545 53.0057L279.553 53.0007C280.137 52.6694 280.513 52.4693 281.157 52.4693C281.801 52.4693 282.177 52.6693 282.761 53.0006C282.769 53.0051 282.777 53.0096 282.785 53.0142C282.985 53.1277 283.248 53.2772 283.533 53.4037C284.021 53.6348 284.565 53.7634 285.136 53.7634C287.203 53.7634 288.88 52.0871 288.88 50.0194C288.88 47.9517 287.203 46.2755 285.136 46.2755C284.56 46.2755 284.01 46.4066 283.519 46.6419C283.24 46.7668 282.982 46.9134 282.785 47.0252L282.762 47.0384C282.178 47.3698 281.802 47.5698 281.158 47.5698C280.514 47.5698 280.138 47.3698 279.554 47.0385L279.55 47.0363L279.545 47.0335C279.443 46.9754 279.325 46.9084 279.202 46.8426C278.627 46.4831 277.946 46.2754 277.22 46.2754M277.22 46.2754L277.219 46.2754L277.211 46.2754L277.208 46.2754C276.632 46.2754 276.083 46.4065 275.592 46.6418C275.313 46.7667 275.055 46.9133 274.858 47.0251L274.834 47.0383C274.25 47.3697 273.875 47.5697 273.231 47.5697C272.587 47.5697 272.211 47.3697 271.627 47.0384L271.618 47.0334C271.516 46.9754 271.398 46.9083 271.275 46.8425C270.699 46.4829 270.018 46.2752 269.293 46.2753C267.225 46.2753 265.549 47.9515 265.549 50.0192C265.549 52.087 267.225 53.7632 269.293 53.7632C270.017 53.7632 270.698 53.5559 271.273 53.1972C271.396 53.1311 271.515 53.0638 271.617 53.0055L271.626 53.0006C272.21 52.6692 272.586 52.4692 273.23 52.4692C273.874 52.4692 274.25 52.6692 274.833 53.0005C274.841 53.005 274.849 53.0095 274.857 53.0141C275.057 53.1276 275.321 53.2771 275.606 53.4036C276.093 53.6347 276.638 53.7633 277.208 53.7633M277.214 53.7633L277.208 53.7633L277.214 53.7633Z" fill="#385494"/>
<path d="M277.22 46.2754L276.934 46.2749L277.507 46.2756L277.22 46.2754ZM283.76 51.8208L283.01 53.142L282.512 52.8593L283.261 51.5382L283.76 51.8208ZM277.507 46.2756L277.501 53.7635L276.928 53.763L276.934 46.2751L277.507 46.2756ZM269.007 47.7943L269.007 46.2753L269.579 46.2753L269.579 47.7943L269.007 47.7943ZM267.068 50.3056L265.549 50.3056L265.549 49.7329L267.068 49.7329L267.068 50.3056ZM269.579 52.2441L269.579 53.7632L269.007 53.7632L269.007 52.2442L269.579 52.2441ZM276.922 53.7628L276.934 46.2749L277.507 46.2758L277.495 53.7637L276.922 53.7628ZM277.22 52.2443L277.22 52.817L277.219 52.817L277.22 52.2443ZM278.435 51.8837L278.122 51.4041L278.145 51.3893L278.169 51.3767L278.435 51.8837ZM278.804 51.6796L279.086 52.1777L279.086 52.1777L278.804 51.6796ZM281.157 50.9503L281.157 50.3776L281.157 50.9503ZM283.511 51.6795L283.228 52.1776L283.228 52.1776L283.511 51.6795ZM284.167 52.0232L284.396 51.4983L284.407 51.5028L284.417 51.5077L284.167 52.0232ZM285.136 52.2444L285.136 51.6717L285.136 51.6717L285.136 52.2444ZM287.361 50.0194L286.788 50.0194L287.361 50.0194ZM285.136 47.7945L285.136 47.2218L285.136 47.2218L285.136 47.7945ZM284.158 48.0201L284.41 48.5344L284.4 48.5396L284.389 48.5443L284.158 48.0201ZM283.511 48.3595L283.229 47.8614L283.229 47.8614L283.511 48.3595ZM278.805 48.3596L279.087 47.8615L279.087 47.8615L278.805 48.3596ZM278.437 48.1559L278.17 48.6628L278.146 48.6502L278.123 48.6352L278.437 48.1559ZM277.22 47.7944L277.22 47.2217H277.22L277.22 47.7944ZM277.215 47.7944L277.215 48.3671L277.214 48.3671L277.215 47.7944ZM277.208 47.7944L277.208 47.2217L277.209 47.2217L277.208 47.7944ZM276.231 48.02L276.483 48.5343L276.473 48.5394L276.462 48.5441L276.231 48.02ZM275.584 48.3594L275.301 47.8613L275.584 48.3594ZM273.231 49.0887L273.231 49.6614L273.231 49.0887ZM270.877 48.3595L271.16 47.8614L270.877 48.3595ZM270.509 48.1558L270.243 48.6627L270.219 48.65L270.196 48.6351L270.509 48.1558ZM269.293 47.7943L269.293 47.2215L269.293 47.2215L269.293 47.7943ZM267.068 50.0193L266.495 50.0192L266.495 50.0192L267.068 50.0193ZM269.293 52.2442L269.293 52.8169L269.293 52.8169L269.293 52.2442ZM270.508 51.8836L270.195 51.404L270.217 51.3892L270.241 51.3766L270.508 51.8836ZM270.876 51.6795L270.594 51.1814L270.594 51.1814L270.876 51.6795ZM275.583 51.6794L275.866 51.1813L275.866 51.1813L275.583 51.6794ZM276.24 52.023L276.469 51.4982L276.479 51.5027L276.489 51.5076L276.24 52.023ZM277.208 52.2443L277.209 52.817H277.208L277.208 52.2443ZM277.214 52.2443L277.213 51.6715L277.215 51.6715L277.214 52.2443ZM277.22 53.7633L277.22 54.336L277.219 54.336L277.22 53.7633ZM277.214 53.7633L277.213 53.1905L277.215 53.1905L277.214 53.7633ZM279.2 53.1973L278.897 52.7114L278.913 52.7014L278.93 52.6925L279.2 53.1973ZM279.545 53.0057L279.827 53.5038L279.827 53.5038L279.545 53.0057ZM279.553 53.0007L279.271 52.5026L279.271 52.5026L279.553 53.0007ZM281.157 52.4693L281.157 51.8966L281.157 52.4693ZM282.761 53.0006L283.043 52.5025L283.043 52.5025L282.761 53.0006ZM282.785 53.0142L282.502 53.5123L282.502 53.5122L282.785 53.0142ZM283.533 53.4037L283.765 52.8802L283.772 52.8831L283.778 52.8862L283.533 53.4037ZM285.136 53.7634L285.136 53.1907L285.136 53.1907L285.136 53.7634ZM288.88 50.0194L289.452 50.0194L289.452 50.0194L288.88 50.0194ZM285.136 46.2755L285.136 45.7028L285.136 45.7028L285.136 46.2755ZM283.519 46.6419L283.767 47.1584L283.76 47.1616L283.753 47.1647L283.519 46.6419ZM282.785 47.0252L283.068 47.5232L283.068 47.5232L282.785 47.0252ZM282.762 47.0384L283.044 47.5365L283.044 47.5365L282.762 47.0384ZM281.158 47.5698L281.158 48.1426L281.158 47.5698ZM279.554 47.0385L279.837 46.5403L279.837 46.5404L279.554 47.0385ZM279.55 47.0363L279.268 47.5345L279.268 47.5345L279.55 47.0363ZM279.545 47.0335L279.828 46.5354L279.828 46.5354L279.545 47.0335ZM279.202 46.8426L278.932 47.3474L278.915 47.3384L278.899 47.3284L279.202 46.8426ZM277.22 46.2754L277.216 45.7026H277.22L277.22 46.2754ZM277.219 46.2754L277.223 46.8481H277.219V46.2754ZM277.211 46.2754V46.8481L277.207 46.8481L277.211 46.2754ZM277.208 46.2754L277.208 45.7026L277.212 45.7027L277.208 46.2754ZM275.592 46.6418L275.839 47.1583L275.833 47.1615L275.826 47.1645L275.592 46.6418ZM274.858 47.0251L275.14 47.5231L275.14 47.5232L274.858 47.0251ZM274.834 47.0383L275.117 47.5364L275.117 47.5364L274.834 47.0383ZM273.231 47.5697L273.231 46.997L273.231 47.5697ZM271.627 47.0384L271.344 47.5365L271.344 47.5365L271.627 47.0384ZM271.618 47.0334L271.336 47.5315L271.336 47.5315L271.618 47.0334ZM271.275 46.8425L271.004 47.3473L270.988 47.3383L270.971 47.3282L271.275 46.8425ZM269.293 46.2753L269.293 45.7025L269.293 46.2753ZM265.549 50.0192L264.976 50.0192L264.976 50.0192L265.549 50.0192ZM269.293 53.7632L269.293 54.3359L269.293 54.3359L269.293 53.7632ZM271.273 53.1972L270.97 52.7112L270.986 52.7013L271.002 52.6924L271.273 53.1972ZM271.617 53.0055L271.335 52.5074L271.335 52.5074L271.617 53.0055ZM271.626 53.0006L271.343 52.5025L271.343 52.5025L271.626 53.0006ZM273.23 52.4692L273.23 53.0419L273.23 52.4692ZM274.833 53.0005L275.116 52.5024L275.116 52.5024L274.833 53.0005ZM274.857 53.0141L274.575 53.5121L274.575 53.5121L274.857 53.0141ZM275.606 53.4036L275.838 52.8801L275.845 52.883L275.851 52.886L275.606 53.4036ZM277.208 53.7633L277.209 54.336L277.208 54.336L277.208 53.7633ZM277.22 51.6715C277.554 51.6715 277.863 51.5732 278.122 51.4041L278.748 52.3633C278.309 52.6502 277.783 52.817 277.22 52.817L277.22 51.6715ZM278.169 51.3767C278.281 51.3176 278.395 51.253 278.521 51.1815L279.086 52.1777C278.963 52.2476 278.833 52.3214 278.701 52.3907L278.169 51.3767ZM278.521 51.1815C279.143 50.8287 279.929 50.3776 281.157 50.3776L281.157 51.523C280.249 51.523 279.687 51.8367 279.086 52.1777L278.521 51.1815ZM281.157 50.3776C282.385 50.3775 283.171 50.8286 283.793 51.1814L283.228 52.1776C282.627 51.8366 282.065 51.523 281.157 51.523L281.157 50.3776ZM283.793 51.1814C284.02 51.3101 284.207 51.4158 284.396 51.4983L283.938 52.5481C283.685 52.4374 283.445 52.3007 283.228 52.1776L283.793 51.1814ZM284.417 51.5077C284.633 51.6126 284.877 51.6717 285.136 51.6717L285.136 52.8171C284.7 52.8171 284.286 52.7173 283.918 52.5386L284.417 51.5077ZM285.136 51.6717C286.048 51.6716 286.788 50.9319 286.788 50.0194L287.933 50.0194C287.933 51.5645 286.681 52.8171 285.136 52.8171L285.136 51.6717ZM286.788 50.0194C286.788 49.1069 286.048 48.3672 285.136 48.3672L285.136 47.2218C286.681 47.2218 287.933 48.4743 287.933 50.0194L286.788 50.0194ZM285.136 48.3672C284.874 48.3672 284.629 48.4275 284.41 48.5344L283.907 47.5057C284.278 47.3237 284.696 47.2218 285.136 47.2218L285.136 48.3672ZM284.389 48.5443C284.203 48.6264 284.017 48.7309 283.794 48.8577L283.229 47.8614C283.442 47.7401 283.679 47.6055 283.928 47.4959L284.389 48.5443ZM283.794 48.8577C283.172 49.2105 282.386 49.6615 281.158 49.6616L281.158 48.5161C282.066 48.5161 282.628 48.2025 283.229 47.8614L283.794 48.8577ZM281.158 49.6616C279.93 49.6616 279.144 49.2105 278.522 48.8578L279.087 47.8615C279.688 48.2025 280.25 48.5161 281.158 48.5161L281.158 49.6616ZM278.522 48.8578C278.396 48.7864 278.282 48.7219 278.17 48.6628L278.703 47.6489C278.835 47.718 278.964 47.7918 279.087 47.8615L278.522 48.8578ZM278.123 48.6352C277.864 48.4657 277.554 48.3671 277.22 48.3671L277.22 47.2217C277.784 47.2217 278.31 47.3889 278.75 47.6766L278.123 48.6352ZM277.221 48.3671L277.215 48.3671L277.214 47.2217L277.22 47.2217L277.221 48.3671ZM277.214 48.3671L277.208 48.3671L277.209 47.2217L277.215 47.2217L277.214 48.3671ZM277.208 48.3671C276.947 48.3671 276.701 48.4274 276.483 48.5343L275.979 47.5056C276.351 47.3236 276.769 47.2217 277.208 47.2217L277.208 48.3671ZM276.462 48.5441C276.275 48.6263 276.09 48.7308 275.867 48.8575L275.301 47.8613C275.515 47.74 275.751 47.6054 276 47.4958L276.462 48.5441ZM275.867 48.8575C275.245 49.2103 274.459 49.6614 273.231 49.6614L273.231 48.516C274.139 48.516 274.7 48.2024 275.301 47.8613L275.867 48.8575ZM273.231 49.6614C272.002 49.6615 271.216 49.2104 270.595 48.8576L271.16 47.8614C271.761 48.2024 272.322 48.516 273.231 48.516L273.231 49.6614ZM270.595 48.8576C270.469 48.7862 270.355 48.7218 270.243 48.6627L270.776 47.6488C270.907 47.7179 271.037 47.7917 271.16 47.8614L270.595 48.8576ZM270.196 48.6351C269.936 48.4656 269.627 48.367 269.293 48.367L269.293 47.2215C269.857 47.2215 270.383 47.3887 270.823 47.6764L270.196 48.6351ZM269.293 48.367C268.38 48.367 267.641 49.1068 267.641 50.0193L266.495 50.0192C266.495 48.4741 267.748 47.2216 269.293 47.2215L269.293 48.367ZM267.641 50.0193C267.641 50.9317 268.38 51.6714 269.293 51.6714L269.293 52.8169C267.748 52.8169 266.495 51.5644 266.495 50.0192L267.641 50.0193ZM269.293 51.6714C269.627 51.6714 269.936 51.5731 270.195 51.404L270.821 52.3632C270.381 52.6501 269.856 52.8169 269.293 52.8169L269.293 51.6714ZM270.241 51.3766C270.354 51.3174 270.468 51.2529 270.594 51.1814L271.159 52.1776C271.036 52.2474 270.906 52.3213 270.774 52.3906L270.241 51.3766ZM270.594 51.1814C271.215 50.8285 272.002 50.3775 273.23 50.3774L273.23 51.5229C272.322 51.5229 271.76 51.8365 271.159 52.1776L270.594 51.1814ZM273.23 50.3774C274.458 50.3774 275.244 50.8285 275.866 51.1813L275.3 52.1775C274.699 51.8365 274.138 51.5229 273.23 51.5229L273.23 50.3774ZM275.866 51.1813C276.093 51.3099 276.28 51.4156 276.469 51.4982L276.011 52.5479C275.757 52.4373 275.517 52.3006 275.3 52.1775L275.866 51.1813ZM276.489 51.5076C276.706 51.6125 276.949 51.6715 277.208 51.6715L277.208 52.817C276.773 52.817 276.359 52.7171 275.99 52.5385L276.489 51.5076ZM277.208 51.6715L277.213 51.6715L277.215 52.817L277.209 52.817L277.208 51.6715ZM277.215 51.6715L277.221 51.6715L277.219 52.817L277.213 52.817L277.215 51.6715ZM277.219 54.336L277.213 54.336L277.215 53.1905L277.221 53.1906L277.219 54.336ZM279.503 53.6833C278.84 54.097 278.055 54.336 277.22 54.336L277.22 53.1906C277.834 53.1905 278.41 53.0151 278.897 52.7114L279.503 53.6833ZM279.827 53.5038C279.725 53.5617 279.601 53.6323 279.471 53.7021L278.93 52.6925C279.046 52.6302 279.159 52.5662 279.262 52.5076L279.827 53.5038ZM279.836 53.4988L279.827 53.5038L279.262 52.5076L279.271 52.5026L279.836 53.4988ZM281.157 53.042C280.674 53.042 280.412 53.1723 279.836 53.4988L279.271 52.5026C279.863 52.1664 280.352 51.8966 281.157 51.8966L281.157 53.042ZM282.478 53.4988C281.903 53.1722 281.64 53.042 281.157 53.042L281.157 51.8966C281.962 51.8966 282.451 52.1664 283.043 52.5025L282.478 53.4988ZM282.502 53.5122C282.494 53.5077 282.486 53.5032 282.478 53.4988L283.043 52.5025C283.051 52.507 283.059 52.5116 283.068 52.5161L282.502 53.5122ZM283.301 53.9272C282.986 53.7877 282.7 53.6247 282.502 53.5123L283.067 52.5161C283.269 52.6308 283.51 52.7667 283.765 52.8802L283.301 53.9272ZM285.136 54.3361C284.479 54.3361 283.85 54.1879 283.288 53.9212L283.778 52.8862C284.191 53.0817 284.652 53.1907 285.136 53.1907L285.136 54.3361ZM289.452 50.0194C289.452 52.4035 287.52 54.3361 285.136 54.3361L285.136 53.1907C286.887 53.1906 288.307 51.7708 288.307 50.0194L289.452 50.0194ZM285.136 45.7028C287.52 45.7027 289.453 47.6354 289.452 50.0194L288.307 50.0194C288.307 48.268 286.887 46.8482 285.136 46.8482L285.136 45.7028ZM283.272 46.1254C283.838 45.8539 284.472 45.7028 285.136 45.7028L285.136 46.8482C284.647 46.8482 284.182 46.9593 283.767 47.1584L283.272 46.1254ZM282.502 46.5271C282.697 46.4164 282.978 46.2568 283.285 46.1192L283.753 47.1647C283.502 47.2769 283.267 47.4103 283.068 47.5232L282.502 46.5271ZM281.158 46.9971C281.641 46.9971 281.904 46.8668 282.479 46.5403L283.044 47.5365C282.452 47.8727 281.963 48.1425 281.158 48.1426L281.158 46.9971ZM279.837 46.5404C280.412 46.8669 280.675 46.9971 281.158 46.9971L281.158 48.1426C280.353 48.1426 279.864 47.8728 279.272 47.5366L279.837 46.5404ZM279.833 46.5382L279.837 46.5403L279.272 47.5366L279.268 47.5345L279.833 46.5382ZM279.828 46.5354L279.833 46.5382L279.268 47.5345L279.263 47.5316L279.828 46.5354ZM279.473 46.3378C279.603 46.4074 279.727 46.4777 279.828 46.5354L279.263 47.5316C279.16 47.4732 279.047 47.4095 278.932 47.3474L279.473 46.3378ZM277.22 45.7026C278.056 45.7026 278.842 45.9422 279.506 46.3568L278.899 47.3284C278.411 47.024 277.835 46.8481 277.22 46.8481L277.22 45.7026ZM277.214 45.7027L277.216 45.7027L277.225 46.8481L277.223 46.8481L277.214 45.7027ZM277.211 45.7027H277.219L277.219 46.8481L277.211 46.8481V45.7027ZM277.212 45.7027L277.214 45.7027L277.207 46.8481L277.205 46.8481L277.212 45.7027ZM275.344 46.1253C275.911 45.8538 276.545 45.7027 277.208 45.7026L277.208 46.8481C276.72 46.8481 276.255 46.9592 275.839 47.1583L275.344 46.1253ZM274.575 46.527C274.77 46.4163 275.05 46.2566 275.358 46.119L275.826 47.1645C275.575 47.2767 275.339 47.4102 275.14 47.5231L274.575 46.527ZM274.552 46.5402L274.575 46.527L275.14 47.5232L275.117 47.5364L274.552 46.5402ZM273.231 46.997C273.714 46.997 273.976 46.8667 274.552 46.5402L275.117 47.5364C274.525 47.8726 274.036 48.1424 273.231 48.1424L273.231 46.997ZM271.91 46.5402C272.485 46.8668 272.748 46.997 273.231 46.997L273.231 48.1424C272.426 48.1425 271.937 47.8726 271.344 47.5365L271.91 46.5402ZM271.901 46.5353L271.91 46.5403L271.344 47.5365L271.336 47.5315L271.901 46.5353ZM271.545 46.3377C271.675 46.4073 271.799 46.4776 271.901 46.5353L271.336 47.5315C271.233 47.4731 271.12 47.4094 271.004 47.3473L271.545 46.3377ZM269.293 45.7025C270.129 45.7025 270.914 45.9421 271.578 46.3567L270.971 47.3282C270.484 47.0238 269.908 46.848 269.293 46.848L269.293 45.7025ZM264.976 50.0192C264.976 47.6352 266.909 45.7026 269.293 45.7025L269.293 46.848C267.541 46.848 266.122 48.2678 266.122 50.0192L264.976 50.0192ZM269.293 54.3359C266.909 54.3359 264.976 52.4033 264.976 50.0192L266.122 50.0192C266.122 51.7707 267.541 53.1905 269.293 53.1904L269.293 54.3359ZM271.576 53.6831C270.913 54.0969 270.128 54.3359 269.293 54.3359L269.293 53.1904C269.907 53.1904 270.483 53.015 270.97 52.7112L271.576 53.6831ZM271.9 53.5036C271.798 53.5615 271.674 53.6321 271.543 53.702L271.002 52.6924C271.119 52.63 271.231 52.5661 271.335 52.5074L271.9 53.5036ZM271.909 53.4987L271.9 53.5036L271.335 52.5074L271.343 52.5025L271.909 53.4987ZM273.23 53.0419C272.747 53.0419 272.484 53.1722 271.909 53.4987L271.343 52.5025C271.936 52.1663 272.425 51.8965 273.23 51.8965L273.23 53.0419ZM274.551 53.4986C273.975 53.1721 273.713 53.0419 273.23 53.0419L273.23 51.8965C274.035 51.8964 274.524 52.1663 275.116 52.5024L274.551 53.4986ZM274.575 53.5121C274.567 53.5076 274.559 53.5031 274.551 53.4986L275.116 52.5024C275.124 52.5069 275.132 52.5114 275.14 52.516L274.575 53.5121ZM275.373 53.9271C275.059 53.7875 274.773 53.6245 274.575 53.5121L275.14 52.516C275.342 52.6307 275.582 52.7666 275.838 52.8801L275.373 53.9271ZM277.208 54.336C276.551 54.336 275.923 54.1878 275.36 53.9211L275.851 52.886C276.264 53.0816 276.724 53.1906 277.208 53.1906L277.208 54.336ZM277.215 54.336L277.209 54.336L277.208 53.1906L277.213 53.1905L277.215 54.336ZM282.479 46.5403L282.502 46.5271L283.068 47.5232L283.044 47.5365L282.479 46.5403Z" fill="#385494" mask="url(#path-9-outside-3_1876_1180)"/>
<path d="M5.48347 75.6961C0.797178 71.0098 0.797177 63.4118 5.48347 58.7255L59.2236 4.98542C63.9099 0.299131 71.5079 0.29913 76.1941 4.98542L129.934 58.7255C134.621 63.4118 134.621 71.0098 129.934 75.6961L76.1941 129.436C71.5079 134.123 63.9099 134.123 59.2236 129.436L5.48347 75.6961Z" stroke="#D6E3FF" stroke-width="2"/>
<path opacity="0.4" d="M49.3582 91.69C49.6715 91.69 49.9215 91.6033 50.1082 91.43C50.3015 91.2567 50.3982 91.0233 50.3982 90.73C50.3982 90.43 50.3015 90.1933 50.1082 90.02C49.9215 89.8467 49.6715 89.76 49.3582 89.76H47.9082C47.8682 89.76 47.8482 89.78 47.8482 89.82V91.63C47.8482 91.67 47.8682 91.69 47.9082 91.69H49.3582ZM50.5282 95.5C50.4548 95.5 50.4048 95.4667 50.3782 95.4L49.0782 92.75H47.9082C47.8682 92.75 47.8482 92.77 47.8482 92.81V95.4C47.8482 95.4667 47.8148 95.5 47.7482 95.5H46.7682C46.7015 95.5 46.6682 95.4667 46.6682 95.4V88.8C46.6682 88.7333 46.7015 88.7 46.7682 88.7H49.3982C49.7115 88.7 49.9982 88.75 50.2582 88.85C50.5248 88.95 50.7548 89.09 50.9482 89.27C51.1415 89.4433 51.2915 89.6567 51.3982 89.91C51.5115 90.1567 51.5682 90.43 51.5682 90.73C51.5682 91.1767 51.4515 91.5633 51.2182 91.89C50.9848 92.2167 50.6715 92.4533 50.2782 92.6L51.7082 95.37C51.7282 95.4033 51.7282 95.4333 51.7082 95.46C51.6948 95.4867 51.6715 95.5 51.6382 95.5H50.5282ZM53.2596 88.8C53.2596 88.7333 53.2929 88.7 53.3596 88.7H57.6196C57.6862 88.7 57.7196 88.7333 57.7196 88.8V89.66C57.7196 89.7267 57.6862 89.76 57.6196 89.76H54.4996C54.4596 89.76 54.4396 89.78 54.4396 89.82V91.48C54.4396 91.52 54.4596 91.54 54.4996 91.54H57.1296C57.1962 91.54 57.2296 91.5733 57.2296 91.64V92.5C57.2296 92.5667 57.1962 92.6 57.1296 92.6H54.4996C54.4596 92.6 54.4396 92.62 54.4396 92.66V94.38C54.4396 94.42 54.4596 94.44 54.4996 94.44H57.6196C57.6862 94.44 57.7196 94.4733 57.7196 94.54V95.4C57.7196 95.4667 57.6862 95.5 57.6196 95.5H53.3596C53.2929 95.5 53.2596 95.4667 53.2596 95.4V88.8ZM62.6127 93.03L61.7127 90.39H61.6827L60.7727 93.03H62.6127ZM61.1227 88.8C61.1427 88.7333 61.186 88.7 61.2527 88.7H62.1727C62.2394 88.7 62.2827 88.7333 62.3027 88.8L64.6027 95.4C64.6227 95.4667 64.5994 95.5 64.5327 95.5H63.5527C63.486 95.5 63.4427 95.4667 63.4227 95.4L62.9727 94.08H60.4127L59.9627 95.4C59.9427 95.4667 59.8994 95.5 59.8327 95.5H58.8627C58.796 95.5 58.7727 95.4667 58.7927 95.4L61.1227 88.8ZM65.6704 93.94C65.6371 93.8333 65.6071 93.73 65.5804 93.63C65.5604 93.5233 65.5438 93.4033 65.5304 93.27C65.5171 93.13 65.5071 92.97 65.5004 92.79C65.4938 92.6033 65.4904 92.3733 65.4904 92.1C65.4904 91.8333 65.4938 91.6067 65.5004 91.42C65.5071 91.2333 65.5171 91.0733 65.5304 90.94C65.5438 90.8 65.5604 90.68 65.5804 90.58C65.6071 90.4733 65.6371 90.3667 65.6704 90.26C65.8438 89.7 66.1338 89.2833 66.5404 89.01C66.9538 88.73 67.4504 88.59 68.0304 88.59C68.5771 88.59 69.0471 88.72 69.4404 88.98C69.8404 89.24 70.1371 89.5967 70.3304 90.05C70.3504 90.11 70.3338 90.15 70.2804 90.17L69.4304 90.58C69.3704 90.6133 69.3271 90.5967 69.3004 90.53C69.1871 90.29 69.0304 90.0833 68.8304 89.91C68.6371 89.7367 68.3704 89.65 68.0304 89.65C67.7038 89.65 67.4404 89.73 67.2404 89.89C67.0471 90.05 66.9038 90.27 66.8104 90.55C66.7904 90.6233 66.7704 90.6967 66.7504 90.77C66.7371 90.8433 66.7238 90.94 66.7104 91.06C66.7038 91.1733 66.6971 91.3133 66.6904 91.48C66.6904 91.6467 66.6904 91.8533 66.6904 92.1C66.6904 92.3533 66.6904 92.5633 66.6904 92.73C66.6971 92.89 66.7038 93.03 66.7104 93.15C66.7238 93.2633 66.7371 93.36 66.7504 93.44C66.7704 93.5133 66.7904 93.5833 66.8104 93.65C66.9038 93.93 67.0471 94.15 67.2404 94.31C67.4404 94.47 67.7038 94.55 68.0304 94.55C68.3704 94.55 68.6371 94.4633 68.8304 94.29C69.0304 94.1167 69.1871 93.91 69.3004 93.67C69.3271 93.6033 69.3704 93.5867 69.4304 93.62L70.2804 94.03C70.3338 94.05 70.3504 94.09 70.3304 94.15C70.1371 94.6033 69.8404 94.96 69.4404 95.22C69.0471 95.48 68.5771 95.61 68.0304 95.61C67.4504 95.61 66.9538 95.4733 66.5404 95.2C66.1338 94.92 65.8438 94.5 65.6704 93.94ZM73.1766 95.5C73.1099 95.5 73.0766 95.4667 73.0766 95.4V89.82C73.0766 89.78 73.0566 89.76 73.0166 89.76H71.2366C71.1699 89.76 71.1366 89.7267 71.1366 89.66V88.8C71.1366 88.7333 71.1699 88.7 71.2366 88.7H76.0966C76.1633 88.7 76.1966 88.7333 76.1966 88.8V89.66C76.1966 89.7267 76.1633 89.76 76.0966 89.76H74.3166C74.2766 89.76 74.2566 89.78 74.2566 89.82V95.4C74.2566 95.4667 74.2233 95.5 74.1566 95.5H73.1766ZM79.7689 94.55C80.1089 94.55 80.3822 94.4733 80.5889 94.32C80.7955 94.16 80.9455 93.94 81.0389 93.66C81.0589 93.6 81.0755 93.53 81.0889 93.45C81.1022 93.37 81.1122 93.27 81.1189 93.15C81.1322 93.03 81.1422 92.8867 81.1489 92.72C81.1555 92.5467 81.1589 92.34 81.1589 92.1C81.1589 91.86 81.1555 91.6567 81.1489 91.49C81.1422 91.3167 81.1322 91.17 81.1189 91.05C81.1122 90.93 81.1022 90.83 81.0889 90.75C81.0755 90.67 81.0589 90.6 81.0389 90.54C80.9455 90.26 80.7955 90.0433 80.5889 89.89C80.3822 89.73 80.1089 89.65 79.7689 89.65C79.4289 89.65 79.1555 89.73 78.9489 89.89C78.7489 90.0433 78.6022 90.26 78.5089 90.54C78.4889 90.6 78.4689 90.67 78.4489 90.75C78.4355 90.83 78.4222 90.93 78.4089 91.05C78.4022 91.17 78.3955 91.3167 78.3889 91.49C78.3889 91.6567 78.3889 91.86 78.3889 92.1C78.3889 92.34 78.3889 92.5467 78.3889 92.72C78.3955 92.8867 78.4022 93.03 78.4089 93.15C78.4222 93.27 78.4355 93.37 78.4489 93.45C78.4689 93.53 78.4889 93.6 78.5089 93.66C78.6022 93.94 78.7489 94.16 78.9489 94.32C79.1555 94.4733 79.4289 94.55 79.7689 94.55ZM79.7689 95.61C79.1822 95.61 78.6789 95.4733 78.2589 95.2C77.8389 94.92 77.5422 94.51 77.3689 93.97C77.3355 93.8633 77.3055 93.7567 77.2789 93.65C77.2589 93.5433 77.2422 93.42 77.2289 93.28C77.2155 93.14 77.2055 92.9767 77.1989 92.79C77.1922 92.5967 77.1889 92.3667 77.1889 92.1C77.1889 91.8333 77.1922 91.6067 77.1989 91.42C77.2055 91.2267 77.2155 91.06 77.2289 90.92C77.2422 90.78 77.2589 90.6567 77.2789 90.55C77.3055 90.4433 77.3355 90.3367 77.3689 90.23C77.5422 89.69 77.8389 89.2833 78.2589 89.01C78.6789 88.73 79.1822 88.59 79.7689 88.59C80.3622 88.59 80.8689 88.73 81.2889 89.01C81.7089 89.2833 82.0055 89.69 82.1789 90.23C82.2122 90.3367 82.2389 90.4433 82.2589 90.55C82.2855 90.6567 82.3055 90.78 82.3189 90.92C82.3322 91.06 82.3422 91.2267 82.3489 91.42C82.3555 91.6067 82.3589 91.8333 82.3589 92.1C82.3589 92.3667 82.3555 92.5967 82.3489 92.79C82.3422 92.9767 82.3322 93.14 82.3189 93.28C82.3055 93.42 82.2855 93.5433 82.2589 93.65C82.2389 93.7567 82.2122 93.8633 82.1789 93.97C82.0055 94.51 81.7089 94.92 81.2889 95.2C80.8689 95.4733 80.3622 95.61 79.7689 95.61ZM86.7484 91.69C87.0617 91.69 87.3117 91.6033 87.4984 91.43C87.6917 91.2567 87.7884 91.0233 87.7884 90.73C87.7884 90.43 87.6917 90.1933 87.4984 90.02C87.3117 89.8467 87.0617 89.76 86.7484 89.76H85.2984C85.2584 89.76 85.2384 89.78 85.2384 89.82V91.63C85.2384 91.67 85.2584 91.69 85.2984 91.69H86.7484ZM87.9184 95.5C87.8451 95.5 87.7951 95.4667 87.7684 95.4L86.4684 92.75H85.2984C85.2584 92.75 85.2384 92.77 85.2384 92.81V95.4C85.2384 95.4667 85.2051 95.5 85.1384 95.5H84.1584C84.0917 95.5 84.0584 95.4667 84.0584 95.4V88.8C84.0584 88.7333 84.0917 88.7 84.1584 88.7H86.7884C87.1017 88.7 87.3884 88.75 87.6484 88.85C87.9151 88.95 88.1451 89.09 88.3384 89.27C88.5317 89.4433 88.6817 89.6567 88.7884 89.91C88.9017 90.1567 88.9584 90.43 88.9584 90.73C88.9584 91.1767 88.8417 91.5633 88.6084 91.89C88.3751 92.2167 88.0617 92.4533 87.6684 92.6L89.0984 95.37C89.1184 95.4033 89.1184 95.4333 89.0984 95.46C89.0851 95.4867 89.0617 95.5 89.0284 95.5H87.9184Z" fill="black"/>
<path d="M38.3786 78.8116C38.255 78.8116 38.1932 78.7498 38.1932 78.6263V68.7496C38.1932 68.6755 38.1562 68.6384 38.082 68.6384H34.8943C34.7708 68.6384 34.709 68.5767 34.709 68.4531V66.3962C34.709 66.2727 34.7708 66.2109 34.8943 66.2109H44.2165C44.3401 66.2109 44.4019 66.2727 44.4019 66.3962V68.4531C44.4019 68.5767 44.3401 68.6384 44.2165 68.6384H41.0288C40.9547 68.6384 40.9176 68.6755 40.9176 68.7496V78.6263C40.9176 78.7498 40.8558 78.8116 40.7323 78.8116H38.3786Z" fill="black"/>
<path d="M50.5112 79.0154C49.8069 79.0154 49.1582 78.9104 48.5652 78.7004C47.9721 78.4904 47.4594 78.1816 47.0269 77.7739C46.6068 77.3662 46.2732 76.8597 46.0261 76.2544C45.7914 75.6491 45.674 74.9573 45.674 74.179V66.3962C45.674 66.2727 45.7358 66.2109 45.8593 66.2109H48.213C48.3366 66.2109 48.3984 66.2727 48.3984 66.3962V74.2531C48.3984 75.0067 48.5899 75.5873 48.9729 75.995C49.3559 76.4027 49.8687 76.6065 50.5112 76.6065C51.1413 76.6065 51.6479 76.4027 52.0309 75.995C52.4139 75.5873 52.6054 75.0067 52.6054 74.2531V66.3962C52.6054 66.2727 52.6672 66.2109 52.7907 66.2109H55.1445C55.268 66.2109 55.3298 66.2727 55.3298 66.3962V74.179C55.3298 74.9573 55.2062 75.6491 54.9591 76.2544C54.7244 76.8597 54.3908 77.3662 53.9583 77.7739C53.5383 78.1816 53.0317 78.4904 52.4386 78.7004C51.8579 78.9104 51.2154 79.0154 50.5112 79.0154Z" fill="black"/>
<path d="M62.5491 71.6959C63.068 71.6959 63.4819 71.5539 63.7908 71.2697C64.0997 70.9856 64.2541 70.6026 64.2541 70.1209C64.2541 69.6514 64.0997 69.2746 63.7908 68.9905C63.4819 68.7064 63.068 68.5643 62.5491 68.5643H60.3251C60.2509 68.5643 60.2139 68.6014 60.2139 68.6755V71.5848C60.2139 71.6589 60.2509 71.6959 60.3251 71.6959H62.5491ZM64.458 78.8116C64.3221 78.8116 64.2294 78.7498 64.18 78.6263L62.0116 74.0122H60.3251C60.2509 74.0122 60.2139 74.0493 60.2139 74.1234V78.6263C60.2139 78.7498 60.1521 78.8116 60.0286 78.8116H57.6748C57.5513 78.8116 57.4895 78.7498 57.4895 78.6263V66.3962C57.4895 66.2727 57.5513 66.2109 57.6748 66.2109H62.6973C63.3398 66.2109 63.9205 66.3098 64.4395 66.5074C64.9707 66.6927 65.4217 66.9583 65.7924 67.3042C66.1754 67.6501 66.4658 68.064 66.6634 68.5458C66.8735 69.0276 66.9785 69.5526 66.9785 70.1209C66.9785 70.9362 66.7808 71.6465 66.3855 72.2518C65.9901 72.8572 65.4403 73.3143 64.736 73.6231L67.2194 78.5892C67.2442 78.651 67.2442 78.7066 67.2194 78.756C67.1947 78.7931 67.1515 78.8116 67.0897 78.8116H64.458Z" fill="black"/>
<path d="M68.8693 66.3962C68.8693 66.2727 68.9311 66.2109 69.0547 66.2109H71.2787C71.4146 66.2109 71.5196 66.2727 71.5937 66.3962L76.0417 74.3273H76.1344V66.3962C76.1344 66.2727 76.1961 66.2109 76.3197 66.2109H78.4139C78.5375 66.2109 78.5993 66.2727 78.5993 66.3962V78.6263C78.5993 78.7498 78.5375 78.8116 78.4139 78.8116H76.2085C76.0726 78.8116 75.9676 78.7498 75.8934 78.6263L71.4269 70.7138H71.3343V78.6263C71.3343 78.7498 71.2725 78.8116 71.1489 78.8116H69.0547C68.9311 78.8116 68.8693 78.7498 68.8693 78.6263V66.3962Z" fill="black"/>
<path d="M80.8283 78.9898C80.8283 78.891 80.8592 78.8045 80.921 78.7304L85.3504 73.4678C85.5975 73.1836 85.7829 72.9057 85.9064 72.6339C86.03 72.3498 86.0918 72.0471 86.0918 71.7259C86.0918 71.3059 85.9682 70.96 85.7211 70.6882C85.4863 70.4164 85.1528 70.2805 84.7203 70.2805C83.8431 70.2805 83.3489 70.7747 83.2377 71.763C83.2377 71.8865 83.1697 71.9359 83.0338 71.9112L80.9951 71.5777C80.8716 71.5529 80.8222 71.4788 80.8469 71.3553C80.8839 70.9229 80.9951 70.5091 81.1805 70.1138C81.3658 69.7184 81.6253 69.3725 81.9589 69.0761C82.3048 68.7796 82.7125 68.5448 83.1821 68.3719C83.6639 68.1866 84.2076 68.0939 84.813 68.0939C85.4184 68.0939 85.9559 68.1866 86.4254 68.3719C86.9072 68.5572 87.315 68.8104 87.6486 69.1316C87.9822 69.4528 88.2354 69.8358 88.4084 70.2805C88.5938 70.7129 88.6864 71.1823 88.6864 71.6888C88.6864 72.2942 88.569 72.8439 88.3343 73.338C88.1119 73.8198 87.803 74.2893 87.4076 74.7464L84.0902 78.6563V78.6933H88.5011C88.6246 78.6933 88.6864 78.7551 88.6864 78.8786V80.7131C88.6864 80.8367 88.6246 80.8984 88.5011 80.8984H81.0137C80.8901 80.8984 80.8283 80.8367 80.8283 80.7131V78.9898Z" fill="black"/>
<path d="M97.984 78.8116C97.848 78.8116 97.743 78.7498 97.6689 78.6263L95.4264 74.7905H95.3708L93.1097 78.6263C93.0356 78.7498 92.9306 78.8116 92.7947 78.8116H90.2371C90.1753 78.8116 90.132 78.7931 90.1073 78.756C90.0826 78.7066 90.0888 78.651 90.1259 78.5892L93.8881 72.3074L90.3853 66.4333C90.3606 66.3715 90.3544 66.3221 90.3668 66.2851C90.3915 66.2356 90.4348 66.2109 90.4965 66.2109H93.0727C93.1962 66.2109 93.2951 66.2727 93.3692 66.3962L95.3708 69.8058H95.4264L97.428 66.3962C97.5021 66.2727 97.6009 66.2109 97.7245 66.2109H100.301C100.362 66.2109 100.399 66.2356 100.412 66.2851C100.437 66.3221 100.437 66.3715 100.412 66.4333L96.8905 72.3074L100.671 78.5892C100.696 78.651 100.696 78.7066 100.671 78.756C100.659 78.7931 100.622 78.8116 100.56 78.8116H97.984Z" fill="black"/>
<path fill-rule="evenodd" clip-rule="evenodd" d="M76.8582 33.8976C74.9947 32.0341 71.9734 32.0341 70.1098 33.8976C69.5834 34.4239 69.2057 35.0427 68.9767 35.7016C68.7877 36.1836 68.6476 36.6913 68.5021 37.2186C68.101 38.6718 67.659 40.2733 66.0391 41.8931C64.4192 43.513 62.8176 43.9549 61.3643 44.3559C61.0682 44.4377 60.7782 44.5177 60.4955 44.6056C59.6201 44.7895 58.7863 45.2212 58.1066 45.9009C56.2431 47.7643 56.2431 50.7855 58.1066 52.6489C59.9701 54.5123 62.9915 54.5123 64.855 52.6489C65.5357 51.9683 65.9677 51.1331 66.1512 50.2564C66.2389 49.9742 66.3188 49.6848 66.4003 49.3893C66.8014 47.9361 67.2434 46.3346 68.8633 44.7147C70.4832 43.0949 72.0848 42.6529 73.5381 42.2519C74.0577 42.1085 74.5584 41.9704 75.0341 41.7855C75.7005 41.5572 76.3265 41.1772 76.8582 40.6456C78.7217 38.7822 78.7217 35.761 76.8582 33.8976Z" fill="#4579DD"/>
<path fill-rule="evenodd" clip-rule="evenodd" d="M76.8582 52.6493C74.9947 54.5127 71.9734 54.5127 70.1098 52.6493C69.5834 52.1229 69.2057 51.5042 68.9767 50.8453C68.7877 50.3633 68.6476 49.8555 68.5021 49.3283C68.101 47.8751 67.659 46.2736 66.0391 44.6537C64.4192 43.0339 62.8176 42.5919 61.3643 42.1909C61.0682 42.1092 60.7782 42.0292 60.4955 41.9413C59.6201 41.7574 58.7863 41.3257 58.1066 40.646C56.2431 38.7826 56.2431 35.7614 58.1066 33.898C59.9701 32.0346 62.9915 32.0346 64.855 33.898C65.5357 34.5786 65.9677 35.4137 66.1512 36.2905C66.2389 36.5727 66.3188 36.8621 66.4003 37.1576C66.8014 38.6108 67.2434 40.2123 68.8633 41.8321C70.4832 43.452 72.0848 43.8939 73.5381 44.295C74.0577 44.4383 74.5584 44.5765 75.0341 44.7614C75.7005 44.9897 76.3265 45.3696 76.8582 45.9013C78.7217 47.7647 78.7217 50.7859 76.8582 52.6493Z" fill="#385494"/>
<path d="M134 66C133.448 66 133 66.4477 133 67C133 67.5523 133.448 68 134 68L134 66ZM217.707 67.7071C218.098 67.3166 218.098 66.6834 217.707 66.2929L211.343 59.9289C210.953 59.5384 210.319 59.5384 209.929 59.9289C209.538 60.3195 209.538 60.9526 209.929 61.3432L215.586 67L209.929 72.6569C209.538 73.0474 209.538 73.6806 209.929 74.0711C210.319 74.4616 210.953 74.4616 211.343 74.0711L217.707 67.7071ZM134 68L217 68L217 66L134 66L134 68Z" fill="#D6E3FF"/>
</svg>
