<svg width="187" height="567" viewBox="0 0 187 567" fill="none" xmlns="http://www.w3.org/2000/svg">
<rect x="1" y="331" width="100" height="100" rx="12" transform="rotate(-90 1 331)" fill="#487AEE" stroke="#487AEE" stroke-width="2"/>
<path fill-rule="evenodd" clip-rule="evenodd" d="M60.573 252.427C58.6703 250.524 55.5854 250.524 53.6827 252.427C53.1452 252.964 52.7596 253.596 52.5257 254.269C52.3327 254.761 52.1896 255.28 52.0411 255.818C51.6316 257.302 51.1803 258.937 49.5263 260.591C47.8723 262.245 46.237 262.696 44.7532 263.106C44.4509 263.189 44.1548 263.271 43.8662 263.36C42.9723 263.548 42.121 263.989 41.427 264.683C39.5243 266.586 39.5243 269.67 41.427 271.573C43.3297 273.476 46.4146 273.476 48.3173 271.573C49.0123 270.878 49.4535 270.025 49.6407 269.13C49.7303 268.842 49.8119 268.547 49.8952 268.245C50.3046 266.761 50.7559 265.126 52.4099 263.472C54.0639 261.818 55.6992 261.367 57.183 260.957C57.7135 260.811 58.2248 260.67 58.7105 260.481C59.3909 260.248 60.0301 259.86 60.573 259.317C62.4757 257.414 62.4757 254.33 60.573 252.427Z" fill="white"/>
<path d="M41.2452 286.94C41.2452 286.82 41.3052 286.76 41.4252 286.76H43.7112C43.8312 286.76 43.8912 286.82 43.8912 286.94V291.53C43.8912 291.602 43.9272 291.638 43.9992 291.638H47.9952C48.0672 291.638 48.1032 291.602 48.1032 291.53V286.94C48.1032 286.82 48.1632 286.76 48.2832 286.76H50.5692C50.6892 286.76 50.7492 286.82 50.7492 286.94V298.82C50.7492 298.94 50.6892 299 50.5692 299H48.2832C48.1632 299 48.1032 298.94 48.1032 298.82V294.104C48.1032 294.032 48.0672 293.996 47.9952 293.996H43.9992C43.9272 293.996 43.8912 294.032 43.8912 294.104V298.82C43.8912 298.94 43.8312 299 43.7112 299H41.4252C41.3052 299 41.2452 298.94 41.2452 298.82V286.94ZM53.0929 297.146C53.0929 297.05 53.1229 296.966 53.1829 296.894L57.4849 291.782C57.7249 291.506 57.9049 291.236 58.0249 290.972C58.1449 290.696 58.2049 290.402 58.2049 290.09C58.2049 289.682 58.0849 289.346 57.8449 289.082C57.6169 288.818 57.2929 288.686 56.8729 288.686C56.0209 288.686 55.5409 289.166 55.4329 290.126C55.4329 290.246 55.3669 290.294 55.2349 290.27L53.2549 289.946C53.1349 289.922 53.0869 289.85 53.1109 289.73C53.1469 289.31 53.2549 288.908 53.4349 288.524C53.6149 288.14 53.8669 287.804 54.1909 287.516C54.5269 287.228 54.9229 287 55.3789 286.832C55.8469 286.652 56.3749 286.562 56.9629 286.562C57.5509 286.562 58.0729 286.652 58.5289 286.832C58.9969 287.012 59.3929 287.258 59.7169 287.57C60.0409 287.882 60.2869 288.254 60.4549 288.686C60.6349 289.106 60.7249 289.562 60.7249 290.054C60.7249 290.642 60.6109 291.176 60.3829 291.656C60.1669 292.124 59.8669 292.58 59.4829 293.024L56.2609 296.822V296.858H60.5449C60.6649 296.858 60.7249 296.918 60.7249 297.038V298.82C60.7249 298.94 60.6649 299 60.5449 299H53.2729C53.1529 299 53.0929 298.94 53.0929 298.82V297.146Z" fill="white"/>
<path opacity="0.4" d="M25.7699 310.3C25.7699 310.233 25.8033 310.2 25.8699 310.2H26.8499C26.9166 310.2 26.9499 310.233 26.9499 310.3V312.98C26.9499 313.02 26.9699 313.04 27.0099 313.04H29.5999C29.6399 313.04 29.6599 313.02 29.6599 312.98V310.3C29.6599 310.233 29.6933 310.2 29.7599 310.2H30.7399C30.8066 310.2 30.8399 310.233 30.8399 310.3V316.9C30.8399 316.967 30.8066 317 30.7399 317H29.7599C29.6933 317 29.6599 316.967 29.6599 316.9V314.16C29.6599 314.12 29.6399 314.1 29.5999 314.1H27.0099C26.9699 314.1 26.9499 314.12 26.9499 314.16V316.9C26.9499 316.967 26.9166 317 26.8499 317H25.8699C25.8033 317 25.7699 316.967 25.7699 316.9V310.3ZM34.1822 317C34.1155 317 34.0822 316.967 34.0822 316.9V314.22L32.1122 310.3C32.0855 310.233 32.1122 310.2 32.1922 310.2H33.2022C33.2689 310.2 33.3155 310.233 33.3422 310.3L34.6722 312.94H34.7022L36.0422 310.3C36.0689 310.233 36.1155 310.2 36.1822 310.2H37.1522C37.2322 310.2 37.2589 310.233 37.2322 310.3L35.2622 314.22V316.9C35.2622 316.967 35.2289 317 35.1622 317H34.1822ZM39.6835 315.88C39.6835 315.92 39.7035 315.94 39.7435 315.94H40.7535C41.1335 315.94 41.4368 315.873 41.6635 315.74C41.8968 315.607 42.0635 315.387 42.1635 315.08C42.1835 315.033 42.2002 314.977 42.2135 314.91C42.2268 314.837 42.2368 314.747 42.2435 314.64C42.2568 314.527 42.2668 314.387 42.2735 314.22C42.2802 314.053 42.2835 313.847 42.2835 313.6C42.2835 313.353 42.2802 313.147 42.2735 312.98C42.2668 312.813 42.2568 312.673 42.2435 312.56C42.2368 312.447 42.2268 312.357 42.2135 312.29C42.2002 312.223 42.1835 312.167 42.1635 312.12C42.0635 311.813 41.8968 311.593 41.6635 311.46C41.4368 311.327 41.1335 311.26 40.7535 311.26H39.7435C39.7035 311.26 39.6835 311.28 39.6835 311.32V315.88ZM38.5035 310.3C38.5035 310.233 38.5368 310.2 38.6035 310.2H41.0335C42.2202 310.2 42.9768 310.703 43.3035 311.71C43.3302 311.797 43.3535 311.89 43.3735 311.99C43.3935 312.083 43.4102 312.2 43.4235 312.34C43.4435 312.48 43.4569 312.653 43.4635 312.86C43.4702 313.06 43.4735 313.307 43.4735 313.6C43.4735 313.893 43.4702 314.143 43.4635 314.35C43.4569 314.55 43.4435 314.72 43.4235 314.86C43.4102 315 43.3935 315.12 43.3735 315.22C43.3535 315.313 43.3302 315.403 43.3035 315.49C42.9768 316.497 42.2202 317 41.0335 317H38.6035C38.5368 317 38.5035 316.967 38.5035 316.9V310.3ZM47.8435 313.19C48.1569 313.19 48.4069 313.103 48.5935 312.93C48.7869 312.757 48.8835 312.523 48.8835 312.23C48.8835 311.93 48.7869 311.693 48.5935 311.52C48.4069 311.347 48.1569 311.26 47.8435 311.26H46.3935C46.3535 311.26 46.3335 311.28 46.3335 311.32V313.13C46.3335 313.17 46.3535 313.19 46.3935 313.19H47.8435ZM49.0135 317C48.9402 317 48.8902 316.967 48.8635 316.9L47.5635 314.25H46.3935C46.3535 314.25 46.3335 314.27 46.3335 314.31V316.9C46.3335 316.967 46.3002 317 46.2335 317H45.2535C45.1869 317 45.1535 316.967 45.1535 316.9V310.3C45.1535 310.233 45.1869 310.2 45.2535 310.2H47.8835C48.1969 310.2 48.4835 310.25 48.7435 310.35C49.0102 310.45 49.2402 310.59 49.4335 310.77C49.6269 310.943 49.7769 311.157 49.8835 311.41C49.9969 311.657 50.0535 311.93 50.0535 312.23C50.0535 312.677 49.9369 313.063 49.7035 313.39C49.4702 313.717 49.1569 313.953 48.7635 314.1L50.1935 316.87C50.2135 316.903 50.2135 316.933 50.1935 316.96C50.1802 316.987 50.1569 317 50.1235 317H49.0135ZM54.0956 316.05C54.4356 316.05 54.709 315.973 54.9156 315.82C55.1223 315.66 55.2723 315.44 55.3656 315.16C55.3856 315.1 55.4023 315.03 55.4156 314.95C55.429 314.87 55.439 314.77 55.4456 314.65C55.459 314.53 55.469 314.387 55.4756 314.22C55.4823 314.047 55.4856 313.84 55.4856 313.6C55.4856 313.36 55.4823 313.157 55.4756 312.99C55.469 312.817 55.459 312.67 55.4456 312.55C55.439 312.43 55.429 312.33 55.4156 312.25C55.4023 312.17 55.3856 312.1 55.3656 312.04C55.2723 311.76 55.1223 311.543 54.9156 311.39C54.709 311.23 54.4356 311.15 54.0956 311.15C53.7556 311.15 53.4823 311.23 53.2756 311.39C53.0756 311.543 52.929 311.76 52.8356 312.04C52.8156 312.1 52.7956 312.17 52.7756 312.25C52.7623 312.33 52.749 312.43 52.7356 312.55C52.729 312.67 52.7223 312.817 52.7156 312.99C52.7156 313.157 52.7156 313.36 52.7156 313.6C52.7156 313.84 52.7156 314.047 52.7156 314.22C52.7223 314.387 52.729 314.53 52.7356 314.65C52.749 314.77 52.7623 314.87 52.7756 314.95C52.7956 315.03 52.8156 315.1 52.8356 315.16C52.929 315.44 53.0756 315.66 53.2756 315.82C53.4823 315.973 53.7556 316.05 54.0956 316.05ZM54.0956 317.11C53.509 317.11 53.0056 316.973 52.5856 316.7C52.1656 316.42 51.869 316.01 51.6956 315.47C51.6623 315.363 51.6323 315.257 51.6056 315.15C51.5856 315.043 51.569 314.92 51.5556 314.78C51.5423 314.64 51.5323 314.477 51.5256 314.29C51.519 314.097 51.5156 313.867 51.5156 313.6C51.5156 313.333 51.519 313.107 51.5256 312.92C51.5323 312.727 51.5423 312.56 51.5556 312.42C51.569 312.28 51.5856 312.157 51.6056 312.05C51.6323 311.943 51.6623 311.837 51.6956 311.73C51.869 311.19 52.1656 310.783 52.5856 310.51C53.0056 310.23 53.509 310.09 54.0956 310.09C54.689 310.09 55.1956 310.23 55.6156 310.51C56.0356 310.783 56.3323 311.19 56.5056 311.73C56.539 311.837 56.5656 311.943 56.5856 312.05C56.6123 312.157 56.6323 312.28 56.6456 312.42C56.659 312.56 56.669 312.727 56.6756 312.92C56.6823 313.107 56.6856 313.333 56.6856 313.6C56.6856 313.867 56.6823 314.097 56.6756 314.29C56.669 314.477 56.659 314.64 56.6456 314.78C56.6323 314.92 56.6123 315.043 56.5856 315.15C56.5656 315.257 56.539 315.363 56.5056 315.47C56.3323 316.01 56.0356 316.42 55.6156 316.7C55.1956 316.973 54.689 317.11 54.0956 317.11ZM58.3652 315.47C58.3318 315.363 58.3018 315.257 58.2752 315.15C58.2552 315.043 58.2385 314.92 58.2252 314.78C58.2118 314.64 58.2018 314.477 58.1952 314.29C58.1885 314.097 58.1852 313.867 58.1852 313.6C58.1852 313.333 58.1885 313.107 58.1952 312.92C58.2018 312.727 58.2118 312.56 58.2252 312.42C58.2385 312.28 58.2552 312.157 58.2752 312.05C58.3018 311.943 58.3318 311.837 58.3652 311.73C58.5385 311.19 58.8352 310.783 59.2552 310.51C59.6752 310.23 60.1885 310.09 60.7952 310.09C61.1152 310.09 61.4052 310.13 61.6652 310.21C61.9252 310.29 62.1552 310.397 62.3552 310.53C62.5552 310.657 62.7218 310.81 62.8552 310.99C62.9885 311.163 63.0918 311.343 63.1652 311.53C63.1918 311.59 63.1785 311.637 63.1252 311.67L62.2852 312.04C62.2252 312.06 62.1818 312.043 62.1552 311.99C62.0018 311.717 61.8185 311.51 61.6052 311.37C61.3918 311.223 61.1185 311.15 60.7852 311.15C60.4385 311.15 60.1618 311.23 59.9552 311.39C59.7485 311.543 59.5985 311.76 59.5052 312.04C59.4852 312.1 59.4652 312.17 59.4452 312.25C59.4318 312.33 59.4185 312.43 59.4052 312.55C59.3985 312.67 59.3918 312.817 59.3852 312.99C59.3852 313.157 59.3852 313.36 59.3852 313.6C59.3852 313.84 59.3852 314.047 59.3852 314.22C59.3918 314.387 59.3985 314.53 59.4052 314.65C59.4185 314.77 59.4318 314.87 59.4452 314.95C59.4652 315.03 59.4852 315.1 59.5052 315.16C59.5985 315.44 59.7485 315.66 59.9552 315.82C60.1618 315.973 60.4385 316.05 60.7852 316.05C61.0852 316.05 61.3518 315.98 61.5852 315.84C61.8185 315.693 61.9818 315.48 62.0752 315.2C62.1085 315.093 62.1352 314.97 62.1552 314.83C62.1752 314.683 62.1852 314.513 62.1852 314.32C62.1852 314.28 62.1652 314.26 62.1252 314.26H61.0052C60.9385 314.26 60.9052 314.227 60.9052 314.16V313.36C60.9052 313.293 60.9385 313.26 61.0052 313.26H63.2552C63.3218 313.26 63.3552 313.293 63.3552 313.36V313.95C63.3552 314.23 63.3418 314.507 63.3152 314.78C63.2885 315.047 63.2485 315.267 63.1952 315.44C63.0285 315.973 62.7318 316.387 62.3052 316.68C61.8852 316.967 61.3818 317.11 60.7952 317.11C60.1885 317.11 59.6752 316.973 59.2552 316.7C58.8352 316.42 58.5385 316.01 58.3652 315.47ZM65.0547 310.3C65.0547 310.233 65.088 310.2 65.1547 310.2H69.4147C69.4814 310.2 69.5147 310.233 69.5147 310.3V311.16C69.5147 311.227 69.4814 311.26 69.4147 311.26H66.2947C66.2547 311.26 66.2347 311.28 66.2347 311.32V312.98C66.2347 313.02 66.2547 313.04 66.2947 313.04H68.9247C68.9914 313.04 69.0247 313.073 69.0247 313.14V314C69.0247 314.067 68.9914 314.1 68.9247 314.1H66.2947C66.2547 314.1 66.2347 314.12 66.2347 314.16V315.88C66.2347 315.92 66.2547 315.94 66.2947 315.94H69.4147C69.4814 315.94 69.5147 315.973 69.5147 316.04V316.9C69.5147 316.967 69.4814 317 69.4147 317H65.1547C65.088 317 65.0547 316.967 65.0547 316.9V310.3ZM71.1578 310.3C71.1578 310.233 71.1911 310.2 71.2578 310.2H72.1778C72.2511 310.2 72.3078 310.233 72.3478 310.3L75.1178 314.99H75.1578V310.3C75.1578 310.233 75.1911 310.2 75.2578 310.2H76.1278C76.1945 310.2 76.2278 310.233 76.2278 310.3V316.9C76.2278 316.967 76.1945 317 76.1278 317H75.2178C75.1445 317 75.0878 316.967 75.0478 316.9L72.2678 312.22H72.2278V316.9C72.2278 316.967 72.1945 317 72.1278 317H71.2578C71.1911 317 71.1578 316.967 71.1578 316.9V310.3Z" fill="white"/>
<rect x="1" y="101" width="100" height="100" rx="12" transform="rotate(-90 1 101)" fill="#487AEE" stroke="#487AEE" stroke-width="2"/>
<path opacity="0.4" d="M12.1886 85.44C12.1553 85.3333 12.1253 85.23 12.0986 85.13C12.0786 85.0233 12.0619 84.9033 12.0486 84.77C12.0353 84.63 12.0253 84.47 12.0186 84.29C12.0119 84.1033 12.0086 83.8733 12.0086 83.6C12.0086 83.3333 12.0119 83.1067 12.0186 82.92C12.0253 82.7333 12.0353 82.5733 12.0486 82.44C12.0619 82.3 12.0786 82.18 12.0986 82.08C12.1253 81.9733 12.1553 81.8667 12.1886 81.76C12.3619 81.2 12.6519 80.7833 13.0586 80.51C13.4719 80.23 13.9686 80.09 14.5486 80.09C15.0953 80.09 15.5653 80.22 15.9586 80.48C16.3586 80.74 16.6553 81.0967 16.8486 81.55C16.8686 81.61 16.8519 81.65 16.7986 81.67L15.9486 82.08C15.8886 82.1133 15.8453 82.0967 15.8186 82.03C15.7053 81.79 15.5486 81.5833 15.3486 81.41C15.1553 81.2367 14.8886 81.15 14.5486 81.15C14.2219 81.15 13.9586 81.23 13.7586 81.39C13.5653 81.55 13.4219 81.77 13.3286 82.05C13.3086 82.1233 13.2886 82.1967 13.2686 82.27C13.2553 82.3433 13.2419 82.44 13.2286 82.56C13.2219 82.6733 13.2153 82.8133 13.2086 82.98C13.2086 83.1467 13.2086 83.3533 13.2086 83.6C13.2086 83.8533 13.2086 84.0633 13.2086 84.23C13.2153 84.39 13.2219 84.53 13.2286 84.65C13.2419 84.7633 13.2553 84.86 13.2686 84.94C13.2886 85.0133 13.3086 85.0833 13.3286 85.15C13.4219 85.43 13.5653 85.65 13.7586 85.81C13.9586 85.97 14.2219 86.05 14.5486 86.05C14.8886 86.05 15.1553 85.9633 15.3486 85.79C15.5486 85.6167 15.7053 85.41 15.8186 85.17C15.8453 85.1033 15.8886 85.0867 15.9486 85.12L16.7986 85.53C16.8519 85.55 16.8686 85.59 16.8486 85.65C16.6553 86.1033 16.3586 86.46 15.9586 86.72C15.5653 86.98 15.0953 87.11 14.5486 87.11C13.9686 87.11 13.4719 86.9733 13.0586 86.7C12.6519 86.42 12.3619 86 12.1886 85.44ZM21.6105 84.53L20.7105 81.89H20.6805L19.7705 84.53H21.6105ZM20.1205 80.3C20.1405 80.2333 20.1839 80.2 20.2505 80.2H21.1705C21.2372 80.2 21.2805 80.2333 21.3005 80.3L23.6005 86.9C23.6205 86.9667 23.5972 87 23.5305 87H22.5505C22.4839 87 22.4405 86.9667 22.4205 86.9L21.9705 85.58H19.4105L18.9605 86.9C18.9405 86.9667 18.8972 87 18.8305 87H17.8605C17.7939 87 17.7705 86.9667 17.7905 86.9L20.1205 80.3ZM27.6224 83.19C27.9358 83.19 28.1858 83.1033 28.3724 82.93C28.5658 82.7567 28.6624 82.5233 28.6624 82.23C28.6624 81.93 28.5658 81.6933 28.3724 81.52C28.1858 81.3467 27.9358 81.26 27.6224 81.26H26.1724C26.1324 81.26 26.1124 81.28 26.1124 81.32V83.13C26.1124 83.17 26.1324 83.19 26.1724 83.19H27.6224ZM28.7924 87C28.7191 87 28.6691 86.9667 28.6424 86.9L27.3424 84.25H26.1724C26.1324 84.25 26.1124 84.27 26.1124 84.31V86.9C26.1124 86.9667 26.0791 87 26.0124 87H25.0324C24.9658 87 24.9324 86.9667 24.9324 86.9V80.3C24.9324 80.2333 24.9658 80.2 25.0324 80.2H27.6624C27.9758 80.2 28.2624 80.25 28.5224 80.35C28.7891 80.45 29.0191 80.59 29.2124 80.77C29.4058 80.9433 29.5558 81.1567 29.6624 81.41C29.7758 81.6567 29.8324 81.93 29.8324 82.23C29.8324 82.6767 29.7158 83.0633 29.4824 83.39C29.2491 83.7167 28.9358 83.9533 28.5424 84.1L29.9724 86.87C29.9924 86.9033 29.9924 86.9333 29.9724 86.96C29.9591 86.9867 29.9358 87 29.9024 87H28.7924ZM32.7038 85.9C32.7038 85.94 32.7238 85.96 32.7638 85.96H34.1838C34.5172 85.96 34.7705 85.8733 34.9438 85.7C35.1238 85.5267 35.2138 85.2967 35.2138 85.01C35.2138 84.73 35.1238 84.5033 34.9438 84.33C34.7705 84.1567 34.5172 84.07 34.1838 84.07H32.7638C32.7238 84.07 32.7038 84.09 32.7038 84.13V85.9ZM34.1238 83.03C34.4238 83.03 34.6605 82.95 34.8338 82.79C35.0072 82.6233 35.0938 82.4067 35.0938 82.14C35.0938 81.8667 35.0072 81.65 34.8338 81.49C34.6605 81.3233 34.4238 81.24 34.1238 81.24H32.7638C32.7238 81.24 32.7038 81.26 32.7038 81.3V82.97C32.7038 83.01 32.7238 83.03 32.7638 83.03H34.1238ZM31.5238 80.3C31.5238 80.2333 31.5572 80.2 31.6238 80.2H34.1538C34.8738 80.2 35.4072 80.3667 35.7538 80.7C36.1005 81.0267 36.2738 81.4633 36.2738 82.01C36.2738 82.3967 36.1938 82.7067 36.0338 82.94C35.8805 83.1667 35.6972 83.3367 35.4838 83.45V83.47C35.5905 83.51 35.6972 83.5733 35.8038 83.66C35.9105 83.7467 36.0072 83.8567 36.0938 83.99C36.1805 84.1167 36.2505 84.2667 36.3038 84.44C36.3638 84.6067 36.3938 84.7933 36.3938 85C36.3938 85.68 36.1905 86.1833 35.7838 86.51C35.3772 86.8367 34.8005 87 34.0538 87H31.6238C31.5572 87 31.5238 86.9667 31.5238 86.9V80.3ZM40.378 86.05C40.718 86.05 40.9914 85.9733 41.198 85.82C41.4047 85.66 41.5547 85.44 41.648 85.16C41.668 85.1 41.6847 85.03 41.698 84.95C41.7114 84.87 41.7214 84.77 41.728 84.65C41.7414 84.53 41.7514 84.3867 41.758 84.22C41.7647 84.0467 41.768 83.84 41.768 83.6C41.768 83.36 41.7647 83.1567 41.758 82.99C41.7514 82.8167 41.7414 82.67 41.728 82.55C41.7214 82.43 41.7114 82.33 41.698 82.25C41.6847 82.17 41.668 82.1 41.648 82.04C41.5547 81.76 41.4047 81.5433 41.198 81.39C40.9914 81.23 40.718 81.15 40.378 81.15C40.038 81.15 39.7647 81.23 39.558 81.39C39.358 81.5433 39.2114 81.76 39.118 82.04C39.098 82.1 39.078 82.17 39.058 82.25C39.0447 82.33 39.0314 82.43 39.018 82.55C39.0114 82.67 39.0047 82.8167 38.998 82.99C38.998 83.1567 38.998 83.36 38.998 83.6C38.998 83.84 38.998 84.0467 38.998 84.22C39.0047 84.3867 39.0114 84.53 39.018 84.65C39.0314 84.77 39.0447 84.87 39.058 84.95C39.078 85.03 39.098 85.1 39.118 85.16C39.2114 85.44 39.358 85.66 39.558 85.82C39.7647 85.9733 40.038 86.05 40.378 86.05ZM40.378 87.11C39.7914 87.11 39.288 86.9733 38.868 86.7C38.448 86.42 38.1514 86.01 37.978 85.47C37.9447 85.3633 37.9147 85.2567 37.888 85.15C37.868 85.0433 37.8514 84.92 37.838 84.78C37.8247 84.64 37.8147 84.4767 37.808 84.29C37.8014 84.0967 37.798 83.8667 37.798 83.6C37.798 83.3333 37.8014 83.1067 37.808 82.92C37.8147 82.7267 37.8247 82.56 37.838 82.42C37.8514 82.28 37.868 82.1567 37.888 82.05C37.9147 81.9433 37.9447 81.8367 37.978 81.73C38.1514 81.19 38.448 80.7833 38.868 80.51C39.288 80.23 39.7914 80.09 40.378 80.09C40.9714 80.09 41.478 80.23 41.898 80.51C42.318 80.7833 42.6147 81.19 42.788 81.73C42.8214 81.8367 42.848 81.9433 42.868 82.05C42.8947 82.1567 42.9147 82.28 42.928 82.42C42.9414 82.56 42.9514 82.7267 42.958 82.92C42.9647 83.1067 42.968 83.3333 42.968 83.6C42.968 83.8667 42.9647 84.0967 42.958 84.29C42.9514 84.4767 42.9414 84.64 42.928 84.78C42.9147 84.92 42.8947 85.0433 42.868 85.15C42.848 85.2567 42.8214 85.3633 42.788 85.47C42.6147 86.01 42.318 86.42 41.898 86.7C41.478 86.9733 40.9714 87.11 40.378 87.11ZM44.6676 80.3C44.6676 80.2333 44.7009 80.2 44.7676 80.2H45.6876C45.7609 80.2 45.8176 80.2333 45.8576 80.3L48.6276 84.99H48.6676V80.3C48.6676 80.2333 48.7009 80.2 48.7676 80.2H49.6376C49.7042 80.2 49.7376 80.2333 49.7376 80.3V86.9C49.7376 86.9667 49.7042 87 49.6376 87H48.7276C48.6542 87 48.5976 86.9667 48.5576 86.9L45.7776 82.22H45.7376V86.9C45.7376 86.9667 45.7042 87 45.6376 87H44.7676C44.7009 87 44.6676 86.9667 44.6676 86.9V80.3ZM55.5831 85.88C55.5831 85.92 55.6031 85.94 55.6431 85.94H56.6531C57.0331 85.94 57.3365 85.8733 57.5631 85.74C57.7965 85.6067 57.9631 85.3867 58.0631 85.08C58.0831 85.0333 58.0998 84.9767 58.1131 84.91C58.1265 84.8367 58.1365 84.7467 58.1431 84.64C58.1565 84.5267 58.1665 84.3867 58.1731 84.22C58.1798 84.0533 58.1831 83.8467 58.1831 83.6C58.1831 83.3533 58.1798 83.1467 58.1731 82.98C58.1665 82.8133 58.1565 82.6733 58.1431 82.56C58.1365 82.4467 58.1265 82.3567 58.1131 82.29C58.0998 82.2233 58.0831 82.1667 58.0631 82.12C57.9631 81.8133 57.7965 81.5933 57.5631 81.46C57.3365 81.3267 57.0331 81.26 56.6531 81.26H55.6431C55.6031 81.26 55.5831 81.28 55.5831 81.32V85.88ZM54.4031 80.3C54.4031 80.2333 54.4365 80.2 54.5031 80.2H56.9331C58.1198 80.2 58.8765 80.7033 59.2031 81.71C59.2298 81.7967 59.2531 81.89 59.2731 81.99C59.2931 82.0833 59.3098 82.2 59.3231 82.34C59.3431 82.48 59.3565 82.6533 59.3631 82.86C59.3698 83.06 59.3731 83.3067 59.3731 83.6C59.3731 83.8933 59.3698 84.1433 59.3631 84.35C59.3565 84.55 59.3431 84.72 59.3231 84.86C59.3098 85 59.2931 85.12 59.2731 85.22C59.2531 85.3133 59.2298 85.4033 59.2031 85.49C58.8765 86.4967 58.1198 87 56.9331 87H54.5031C54.4365 87 54.4031 86.9667 54.4031 86.9V80.3ZM61.0531 80.3C61.0531 80.2333 61.0865 80.2 61.1531 80.2H62.1331C62.1998 80.2 62.2331 80.2333 62.2331 80.3V86.9C62.2331 86.9667 62.1998 87 62.1331 87H61.1531C61.0865 87 61.0531 86.9667 61.0531 86.9V80.3ZM66.5089 86.05C66.8489 86.05 67.1222 85.9733 67.3289 85.82C67.5356 85.66 67.6856 85.44 67.7789 85.16C67.7989 85.1 67.8156 85.03 67.8289 84.95C67.8422 84.87 67.8522 84.77 67.8589 84.65C67.8722 84.53 67.8822 84.3867 67.8889 84.22C67.8956 84.0467 67.8989 83.84 67.8989 83.6C67.8989 83.36 67.8956 83.1567 67.8889 82.99C67.8822 82.8167 67.8722 82.67 67.8589 82.55C67.8522 82.43 67.8422 82.33 67.8289 82.25C67.8156 82.17 67.7989 82.1 67.7789 82.04C67.6856 81.76 67.5356 81.5433 67.3289 81.39C67.1222 81.23 66.8489 81.15 66.5089 81.15C66.1689 81.15 65.8956 81.23 65.6889 81.39C65.4889 81.5433 65.3422 81.76 65.2489 82.04C65.2289 82.1 65.2089 82.17 65.1889 82.25C65.1756 82.33 65.1622 82.43 65.1489 82.55C65.1422 82.67 65.1356 82.8167 65.1289 82.99C65.1289 83.1567 65.1289 83.36 65.1289 83.6C65.1289 83.84 65.1289 84.0467 65.1289 84.22C65.1356 84.3867 65.1422 84.53 65.1489 84.65C65.1622 84.77 65.1756 84.87 65.1889 84.95C65.2089 85.03 65.2289 85.1 65.2489 85.16C65.3422 85.44 65.4889 85.66 65.6889 85.82C65.8956 85.9733 66.1689 86.05 66.5089 86.05ZM66.5089 87.11C65.9222 87.11 65.4189 86.9733 64.9989 86.7C64.5789 86.42 64.2822 86.01 64.1089 85.47C64.0756 85.3633 64.0456 85.2567 64.0189 85.15C63.9989 85.0433 63.9822 84.92 63.9689 84.78C63.9556 84.64 63.9456 84.4767 63.9389 84.29C63.9322 84.0967 63.9289 83.8667 63.9289 83.6C63.9289 83.3333 63.9322 83.1067 63.9389 82.92C63.9456 82.7267 63.9556 82.56 63.9689 82.42C63.9822 82.28 63.9989 82.1567 64.0189 82.05C64.0456 81.9433 64.0756 81.8367 64.1089 81.73C64.2822 81.19 64.5789 80.7833 64.9989 80.51C65.4189 80.23 65.9222 80.09 66.5089 80.09C67.1022 80.09 67.6089 80.23 68.0289 80.51C68.4489 80.7833 68.7456 81.19 68.9189 81.73C68.9522 81.8367 68.9789 81.9433 68.9989 82.05C69.0256 82.1567 69.0456 82.28 69.0589 82.42C69.0722 82.56 69.0822 82.7267 69.0889 82.92C69.0956 83.1067 69.0989 83.3333 69.0989 83.6C69.0989 83.8667 69.0956 84.0967 69.0889 84.29C69.0822 84.4767 69.0722 84.64 69.0589 84.78C69.0456 84.92 69.0256 85.0433 68.9989 85.15C68.9789 85.2567 68.9522 85.3633 68.9189 85.47C68.7456 86.01 68.4489 86.42 68.0289 86.7C67.6089 86.9733 67.1022 87.11 66.5089 87.11ZM74.3898 87C74.3232 87 74.2698 86.9667 74.2298 86.9L72.8598 84.59H72.8398L71.4598 86.9C71.4198 86.9667 71.3665 87 71.2998 87H70.2198C70.1332 87 70.1132 86.9567 70.1598 86.87L72.1898 83.48L70.3098 80.33C70.2632 80.2433 70.2832 80.2 70.3698 80.2H71.4498C71.5165 80.2 71.5698 80.2333 71.6098 80.3L72.8398 82.36H72.8598L74.0898 80.3C74.1298 80.2333 74.1832 80.2 74.2498 80.2H75.3298C75.4165 80.2 75.4365 80.2433 75.3898 80.33L73.5098 83.48L75.5398 86.87C75.5865 86.9567 75.5665 87 75.4798 87H74.3898ZM76.8625 80.3C76.8625 80.2333 76.8958 80.2 76.9625 80.2H77.9425C78.0092 80.2 78.0425 80.2333 78.0425 80.3V86.9C78.0425 86.9667 78.0092 87 77.9425 87H76.9625C76.8958 87 76.8625 86.9667 76.8625 86.9V80.3ZM81.1183 85.88C81.1183 85.92 81.1383 85.94 81.1783 85.94H82.1883C82.5683 85.94 82.8716 85.8733 83.0983 85.74C83.3316 85.6067 83.4983 85.3867 83.5983 85.08C83.6183 85.0333 83.635 84.9767 83.6483 84.91C83.6616 84.8367 83.6716 84.7467 83.6783 84.64C83.6916 84.5267 83.7016 84.3867 83.7083 84.22C83.715 84.0533 83.7183 83.8467 83.7183 83.6C83.7183 83.3533 83.715 83.1467 83.7083 82.98C83.7016 82.8133 83.6916 82.6733 83.6783 82.56C83.6716 82.4467 83.6616 82.3567 83.6483 82.29C83.635 82.2233 83.6183 82.1667 83.5983 82.12C83.4983 81.8133 83.3316 81.5933 83.0983 81.46C82.8716 81.3267 82.5683 81.26 82.1883 81.26H81.1783C81.1383 81.26 81.1183 81.28 81.1183 81.32V85.88ZM79.9383 80.3C79.9383 80.2333 79.9716 80.2 80.0383 80.2H82.4683C83.655 80.2 84.4116 80.7033 84.7383 81.71C84.765 81.7967 84.7883 81.89 84.8083 81.99C84.8283 82.0833 84.845 82.2 84.8583 82.34C84.8783 82.48 84.8916 82.6533 84.8983 82.86C84.905 83.06 84.9083 83.3067 84.9083 83.6C84.9083 83.8933 84.905 84.1433 84.8983 84.35C84.8916 84.55 84.8783 84.72 84.8583 84.86C84.845 85 84.8283 85.12 84.8083 85.22C84.7883 85.3133 84.765 85.4033 84.7383 85.49C84.4116 86.4967 83.655 87 82.4683 87H80.0383C79.9716 87 79.9383 86.9667 79.9383 86.9V80.3ZM86.5883 80.3C86.5883 80.2333 86.6216 80.2 86.6883 80.2H90.9483C91.0149 80.2 91.0483 80.2333 91.0483 80.3V81.16C91.0483 81.2267 91.0149 81.26 90.9483 81.26H87.8283C87.7883 81.26 87.7683 81.28 87.7683 81.32V82.98C87.7683 83.02 87.7883 83.04 87.8283 83.04H90.4583C90.5249 83.04 90.5583 83.0733 90.5583 83.14V84C90.5583 84.0667 90.5249 84.1 90.4583 84.1H87.8283C87.7883 84.1 87.7683 84.12 87.7683 84.16V85.88C87.7683 85.92 87.7883 85.94 87.8283 85.94H90.9483C91.0149 85.94 91.0483 85.9733 91.0483 86.04V86.9C91.0483 86.9667 91.0149 87 90.9483 87H86.6883C86.6216 87 86.5883 86.9667 86.5883 86.9V80.3Z" fill="white"/>
<path fill-rule="evenodd" clip-rule="evenodd" d="M47.5895 35.2017C45.7213 33.3709 45.6909 30.372 47.5217 28.5037C48.0389 27.9759 48.6492 27.5948 49.3009 27.3608C49.7774 27.1684 50.28 27.0242 50.8018 26.8744C52.2402 26.4618 53.8253 26.007 55.4168 24.3828C57.0083 22.7586 57.4308 21.1645 57.8143 19.718C57.8924 19.4233 57.9689 19.1347 58.0533 18.8532C58.227 17.9825 58.6472 17.1506 59.315 16.4691C61.1458 14.6007 64.1444 14.5703 66.0127 16.4012C67.8809 18.232 67.9112 21.2309 66.0804 23.0992C65.4117 23.7817 64.5872 24.219 63.7188 24.4098C63.4396 24.4998 63.1532 24.5819 62.8606 24.6659C61.4223 25.0785 59.8372 25.5334 58.2457 27.1575C56.6542 28.7817 56.2316 30.3758 55.8482 31.8223C55.7111 32.3394 55.579 32.8378 55.4003 33.3118C55.1804 33.9756 54.8096 34.6007 54.2872 35.1338C52.4564 37.0022 49.4577 37.0326 47.5895 35.2017Z" fill="white"/>
<path fill-rule="evenodd" clip-rule="evenodd" d="M35.5895 47.2017C33.7213 45.3709 33.6909 42.372 35.5217 40.5037C36.0389 39.9759 36.6492 39.5948 37.3009 39.3608C37.7774 39.1684 38.28 39.0242 38.8018 38.8744C40.2402 38.4618 41.8253 38.007 43.4168 36.3828C45.0083 34.7586 45.4308 33.1645 45.8143 31.718C45.8924 31.4233 45.9689 31.1347 46.0533 30.8532C46.227 29.9825 46.6472 29.1506 47.315 28.4691C49.1458 26.6007 52.1444 26.5703 54.0127 28.4012C55.8809 30.232 55.9112 33.2309 54.0804 35.0992C53.4117 35.7817 52.5872 36.219 51.7188 36.4098C51.4396 36.4998 51.1532 36.5819 50.8606 36.6659C49.4223 37.0785 47.8372 37.5334 46.2457 39.1575C44.6542 40.7817 44.2316 42.3758 43.8482 43.8223C43.7111 44.3394 43.579 44.8378 43.4003 45.3118C43.1804 45.9756 42.8096 46.6007 42.2872 47.1338C40.4564 49.0022 37.4577 49.0326 35.5895 47.2017Z" fill="white"/>
<path d="M36.3589 66.192C36.2869 66 36.2269 65.808 36.1789 65.616C36.1429 65.412 36.1129 65.19 36.0889 64.95C36.0649 64.698 36.0469 64.41 36.0349 64.086C36.0229 63.75 36.0169 63.348 36.0169 62.88C36.0169 62.412 36.0229 62.016 36.0349 61.692C36.0469 61.356 36.0649 61.068 36.0889 60.828C36.1129 60.576 36.1429 60.354 36.1789 60.162C36.2269 59.97 36.2869 59.772 36.3589 59.568C36.6829 58.56 37.2169 57.81 37.9609 57.318C38.7169 56.814 39.6349 56.562 40.7149 56.562C41.7589 56.562 42.6409 56.802 43.3609 57.282C44.0929 57.75 44.6329 58.416 44.9809 59.28C45.0409 59.388 45.0109 59.46 44.8909 59.496L42.9289 60.378C42.8209 60.438 42.7369 60.408 42.6769 60.288C42.5089 59.892 42.2689 59.562 41.9569 59.298C41.6569 59.034 41.2489 58.902 40.7329 58.902C40.2529 58.902 39.8569 59.022 39.5449 59.262C39.2449 59.502 39.0289 59.832 38.8969 60.252C38.8609 60.36 38.8309 60.48 38.8069 60.612C38.7829 60.732 38.7589 60.888 38.7349 61.08C38.7229 61.272 38.7109 61.512 38.6989 61.8C38.6989 62.088 38.6989 62.448 38.6989 62.88C38.6989 63.312 38.6989 63.672 38.6989 63.96C38.7109 64.248 38.7229 64.488 38.7349 64.68C38.7589 64.872 38.7829 65.034 38.8069 65.166C38.8309 65.286 38.8609 65.4 38.8969 65.508C39.0289 65.928 39.2449 66.258 39.5449 66.498C39.8569 66.738 40.2529 66.858 40.7329 66.858C41.2489 66.858 41.6569 66.726 41.9569 66.462C42.2689 66.198 42.5089 65.868 42.6769 65.472C42.7369 65.352 42.8209 65.322 42.9289 65.382L44.8909 66.264C45.0109 66.3 45.0409 66.372 44.9809 66.48C44.6329 67.344 44.0929 68.016 43.3609 68.496C42.6409 68.964 41.7589 69.198 40.7149 69.198C39.6349 69.198 38.7169 68.952 37.9609 68.46C37.2169 67.956 36.6829 67.2 36.3589 66.192ZM51.1764 66.858C51.6804 66.858 52.0944 66.738 52.4184 66.498C52.7424 66.258 52.9704 65.928 53.1024 65.508C53.1384 65.4 53.1684 65.28 53.1924 65.148C53.2164 65.004 53.2344 64.836 53.2464 64.644C53.2704 64.44 53.2824 64.194 53.2824 63.906C53.2944 63.618 53.3004 63.276 53.3004 62.88C53.3004 62.484 53.2944 62.142 53.2824 61.854C53.2824 61.566 53.2704 61.326 53.2464 61.134C53.2344 60.93 53.2164 60.762 53.1924 60.63C53.1684 60.486 53.1384 60.36 53.1024 60.252C52.9704 59.832 52.7424 59.502 52.4184 59.262C52.0944 59.022 51.6804 58.902 51.1764 58.902C50.6724 58.902 50.2584 59.022 49.9344 59.262C49.6104 59.502 49.3824 59.832 49.2504 60.252C49.2144 60.36 49.1844 60.486 49.1604 60.63C49.1364 60.762 49.1124 60.93 49.0884 61.134C49.0764 61.326 49.0644 61.566 49.0524 61.854C49.0524 62.142 49.0524 62.484 49.0524 62.88C49.0524 63.276 49.0524 63.618 49.0524 63.906C49.0644 64.194 49.0764 64.44 49.0884 64.644C49.1124 64.836 49.1364 65.004 49.1604 65.148C49.1844 65.28 49.2144 65.4 49.2504 65.508C49.3824 65.928 49.6104 66.258 49.9344 66.498C50.2584 66.738 50.6724 66.858 51.1764 66.858ZM51.1764 69.198C50.1084 69.198 49.1724 68.952 48.3684 68.46C47.5764 67.968 47.0244 67.224 46.7124 66.228C46.6404 66.012 46.5804 65.802 46.5324 65.598C46.4964 65.394 46.4664 65.166 46.4424 64.914C46.4184 64.662 46.4004 64.374 46.3884 64.05C46.3764 63.726 46.3704 63.336 46.3704 62.88C46.3704 62.424 46.3764 62.034 46.3884 61.71C46.4004 61.386 46.4184 61.098 46.4424 60.846C46.4664 60.594 46.4964 60.366 46.5324 60.162C46.5804 59.958 46.6404 59.748 46.7124 59.532C47.0244 58.548 47.5764 57.81 48.3684 57.318C49.1724 56.814 50.1084 56.562 51.1764 56.562C52.2444 56.562 53.1744 56.814 53.9664 57.318C54.7704 57.81 55.3284 58.548 55.6404 59.532C55.7124 59.748 55.7664 59.958 55.8024 60.162C55.8504 60.366 55.8864 60.594 55.9104 60.846C55.9344 61.098 55.9524 61.386 55.9644 61.71C55.9764 62.034 55.9824 62.424 55.9824 62.88C55.9824 63.336 55.9764 63.726 55.9644 64.05C55.9524 64.374 55.9344 64.662 55.9104 64.914C55.8864 65.166 55.8504 65.394 55.8024 65.598C55.7664 65.802 55.7124 66.012 55.6404 66.228C55.3284 67.224 54.7704 67.968 53.9664 68.46C53.1744 68.952 52.2444 69.198 51.1764 69.198ZM57.9971 67.146C57.9971 67.05 58.0271 66.966 58.0871 66.894L62.3891 61.782C62.6291 61.506 62.8091 61.236 62.9291 60.972C63.0491 60.696 63.1091 60.402 63.1091 60.09C63.1091 59.682 62.9891 59.346 62.7491 59.082C62.5211 58.818 62.1971 58.686 61.7771 58.686C60.9251 58.686 60.4451 59.166 60.3371 60.126C60.3371 60.246 60.2711 60.294 60.1391 60.27L58.1591 59.946C58.0391 59.922 57.9911 59.85 58.0151 59.73C58.0511 59.31 58.1591 58.908 58.3391 58.524C58.5191 58.14 58.7711 57.804 59.0951 57.516C59.4311 57.228 59.8271 57 60.2831 56.832C60.7511 56.652 61.2791 56.562 61.8671 56.562C62.4551 56.562 62.9771 56.652 63.4331 56.832C63.9011 57.012 64.2971 57.258 64.6211 57.57C64.9451 57.882 65.1911 58.254 65.3591 58.686C65.5391 59.106 65.6291 59.562 65.6291 60.054C65.6291 60.642 65.5151 61.176 65.2871 61.656C65.0711 62.124 64.7711 62.58 64.3871 63.024L61.1651 66.822V66.858H65.4491C65.5691 66.858 65.6291 66.918 65.6291 67.038V68.82C65.6291 68.94 65.5691 69 65.4491 69H58.1771C58.0571 69 57.9971 68.94 57.9971 68.82V67.146Z" fill="white"/>
<path d="M101 280C100.448 280 100 280.448 100 281C100 281.552 100.448 282 101 282L101 280ZM185.707 281.707C186.098 281.317 186.098 280.683 185.707 280.293L179.343 273.929C178.953 273.538 178.319 273.538 177.929 273.929C177.538 274.319 177.538 274.953 177.929 275.343L183.586 281L177.929 286.657C177.538 287.047 177.538 287.681 177.929 288.071C178.319 288.462 178.953 288.462 179.343 288.071L185.707 281.707ZM101 282L185 282L185 280L101 280L101 282Z" fill="#487AEE"/>
<path d="M51 102V162.259C51 168.57 56.1159 173.686 62.4267 173.686H113.193C135.836 173.686 154.193 192.042 154.193 214.686L154.193 269.573C154.193 275.884 159.308 281 165.619 281H180" stroke="#487AEE" stroke-width="2" stroke-linecap="round"/>
</svg>
