<svg width="222" height="563" viewBox="0 0 222 563" fill="none" xmlns="http://www.w3.org/2000/svg">
<rect x="19" y="562" width="102" height="102" rx="13" transform="rotate(-90 19 562)" fill="#487AEE" stroke="#487AEE" stroke-width="2"/>
<path d="M54.5938 516.94C54.5938 516.82 54.6538 516.76 54.7738 516.76H57.0598C57.1798 516.76 57.2398 516.82 57.2398 516.94V521.53C57.2398 521.602 57.2758 521.638 57.3478 521.638H61.3438C61.4158 521.638 61.4518 521.602 61.4518 521.53V516.94C61.4518 516.82 61.5118 516.76 61.6318 516.76H63.9178C64.0378 516.76 64.0978 516.82 64.0978 516.94V528.82C64.0978 528.94 64.0378 529 63.9178 529H61.6318C61.5118 529 61.4518 528.94 61.4518 528.82V524.104C61.4518 524.032 61.4158 523.996 61.3438 523.996H57.3478C57.2758 523.996 57.2398 524.032 57.2398 524.104V528.82C57.2398 528.94 57.1798 529 57.0598 529H54.7738C54.6538 529 54.5938 528.94 54.5938 528.82V516.94ZM66.4415 527.146C66.4415 527.05 66.4715 526.966 66.5315 526.894L70.8335 521.782C71.0735 521.506 71.2535 521.236 71.3735 520.972C71.4935 520.696 71.5535 520.402 71.5535 520.09C71.5535 519.682 71.4335 519.346 71.1935 519.082C70.9655 518.818 70.6415 518.686 70.2215 518.686C69.3695 518.686 68.8895 519.166 68.7815 520.126C68.7815 520.246 68.7155 520.294 68.5835 520.27L66.6035 519.946C66.4835 519.922 66.4355 519.85 66.4595 519.73C66.4955 519.31 66.6035 518.908 66.7835 518.524C66.9635 518.14 67.2155 517.804 67.5395 517.516C67.8755 517.228 68.2715 517 68.7275 516.832C69.1955 516.652 69.7235 516.562 70.3115 516.562C70.8995 516.562 71.4215 516.652 71.8775 516.832C72.3455 517.012 72.7415 517.258 73.0655 517.57C73.3895 517.882 73.6355 518.254 73.8035 518.686C73.9835 519.106 74.0735 519.562 74.0735 520.054C74.0735 520.642 73.9595 521.176 73.7315 521.656C73.5155 522.124 73.2155 522.58 72.8315 523.024L69.6095 526.822V526.858H73.8935C74.0135 526.858 74.0735 526.918 74.0735 527.038V528.82C74.0735 528.94 74.0135 529 73.8935 529H66.6215C66.5015 529 66.4415 528.94 66.4415 528.82V527.146ZM80.9254 526.858C81.4294 526.858 81.8434 526.738 82.1674 526.498C82.4914 526.258 82.7194 525.928 82.8514 525.508C82.8874 525.4 82.9174 525.28 82.9414 525.148C82.9654 525.004 82.9834 524.836 82.9954 524.644C83.0194 524.44 83.0314 524.194 83.0314 523.906C83.0434 523.618 83.0494 523.276 83.0494 522.88C83.0494 522.484 83.0434 522.142 83.0314 521.854C83.0314 521.566 83.0194 521.326 82.9954 521.134C82.9834 520.93 82.9654 520.762 82.9414 520.63C82.9174 520.486 82.8874 520.36 82.8514 520.252C82.7194 519.832 82.4914 519.502 82.1674 519.262C81.8434 519.022 81.4294 518.902 80.9254 518.902C80.4214 518.902 80.0074 519.022 79.6834 519.262C79.3594 519.502 79.1314 519.832 78.9994 520.252C78.9634 520.36 78.9334 520.486 78.9094 520.63C78.8854 520.762 78.8614 520.93 78.8374 521.134C78.8254 521.326 78.8134 521.566 78.8014 521.854C78.8014 522.142 78.8014 522.484 78.8014 522.88C78.8014 523.276 78.8014 523.618 78.8014 523.906C78.8134 524.194 78.8254 524.44 78.8374 524.644C78.8614 524.836 78.8854 525.004 78.9094 525.148C78.9334 525.28 78.9634 525.4 78.9994 525.508C79.1314 525.928 79.3594 526.258 79.6834 526.498C80.0074 526.738 80.4214 526.858 80.9254 526.858ZM80.9254 529.198C79.8574 529.198 78.9214 528.952 78.1174 528.46C77.3254 527.968 76.7734 527.224 76.4614 526.228C76.3894 526.012 76.3294 525.802 76.2814 525.598C76.2454 525.394 76.2154 525.166 76.1914 524.914C76.1674 524.662 76.1494 524.374 76.1374 524.05C76.1254 523.726 76.1194 523.336 76.1194 522.88C76.1194 522.424 76.1254 522.034 76.1374 521.71C76.1494 521.386 76.1674 521.098 76.1914 520.846C76.2154 520.594 76.2454 520.366 76.2814 520.162C76.3294 519.958 76.3894 519.748 76.4614 519.532C76.7734 518.548 77.3254 517.81 78.1174 517.318C78.9214 516.814 79.8574 516.562 80.9254 516.562C81.9934 516.562 82.9234 516.814 83.7154 517.318C84.5194 517.81 85.0774 518.548 85.3894 519.532C85.4614 519.748 85.5154 519.958 85.5514 520.162C85.5994 520.366 85.6354 520.594 85.6594 520.846C85.6834 521.098 85.7014 521.386 85.7134 521.71C85.7254 522.034 85.7314 522.424 85.7314 522.88C85.7314 523.336 85.7254 523.726 85.7134 524.05C85.7014 524.374 85.6834 524.662 85.6594 524.914C85.6354 525.166 85.5994 525.394 85.5514 525.598C85.5154 525.802 85.4614 526.012 85.3894 526.228C85.0774 527.224 84.5194 527.968 83.7154 528.46C82.9234 528.952 81.9934 529.198 80.9254 529.198Z" fill="white"/>
<path opacity="0.9" d="M58.8501 547C58.7901 547 58.7501 546.967 58.7301 546.9L57.4301 542.25H57.4101L56.1001 546.9C56.0801 546.967 56.0401 547 55.9801 547H55.2301C55.1701 547 55.1301 546.967 55.1101 546.9L53.4401 540.3C53.4267 540.233 53.4534 540.2 53.5201 540.2H54.4601C54.5267 540.2 54.5667 540.233 54.5801 540.3L55.6601 544.88H55.6801L56.9501 540.3C56.9701 540.233 57.0101 540.2 57.0701 540.2H57.7701C57.8301 540.2 57.8701 540.233 57.8901 540.3L59.1901 544.88H59.2101L60.2601 540.3C60.2667 540.233 60.3067 540.2 60.3801 540.2H61.3101C61.3767 540.2 61.4034 540.233 61.3901 540.3L59.7301 546.9C59.7167 546.967 59.6767 547 59.6101 547H58.8501ZM65.5512 544.53L64.6512 541.89H64.6212L63.7112 544.53H65.5512ZM64.0612 540.3C64.0812 540.233 64.1245 540.2 64.1912 540.2H65.1112C65.1778 540.2 65.2212 540.233 65.2412 540.3L67.5412 546.9C67.5612 546.967 67.5378 547 67.4712 547H66.4912C66.4245 547 66.3812 546.967 66.3612 546.9L65.9112 545.58H63.3512L62.9012 546.9C62.8812 546.967 62.8378 547 62.7712 547H61.8012C61.7345 547 61.7112 546.967 61.7312 546.9L64.0612 540.3ZM69.7873 547C69.7207 547 69.6873 546.967 69.6873 546.9V541.32C69.6873 541.28 69.6673 541.26 69.6273 541.26H67.8473C67.7807 541.26 67.7473 541.227 67.7473 541.16V540.3C67.7473 540.233 67.7807 540.2 67.8473 540.2H72.7073C72.774 540.2 72.8073 540.233 72.8073 540.3V541.16C72.8073 541.227 72.774 541.26 72.7073 541.26H70.9273C70.8873 541.26 70.8673 541.28 70.8673 541.32V546.9C70.8673 546.967 70.834 547 70.7673 547H69.7873ZM74.1754 540.3C74.1754 540.233 74.2087 540.2 74.2754 540.2H78.5354C78.6021 540.2 78.6354 540.233 78.6354 540.3V541.16C78.6354 541.227 78.6021 541.26 78.5354 541.26H75.4154C75.3754 541.26 75.3554 541.28 75.3554 541.32V542.98C75.3554 543.02 75.3754 543.04 75.4154 543.04H78.0454C78.1121 543.04 78.1454 543.073 78.1454 543.14V544C78.1454 544.067 78.1121 544.1 78.0454 544.1H75.4154C75.3754 544.1 75.3554 544.12 75.3554 544.16V545.88C75.3554 545.92 75.3754 545.94 75.4154 545.94H78.5354C78.6021 545.94 78.6354 545.973 78.6354 546.04V546.9C78.6354 546.967 78.6021 547 78.5354 547H74.2754C74.2087 547 74.1754 546.967 74.1754 546.9V540.3ZM82.9685 543.19C83.2819 543.19 83.5319 543.103 83.7185 542.93C83.9119 542.757 84.0085 542.523 84.0085 542.23C84.0085 541.93 83.9119 541.693 83.7185 541.52C83.5319 541.347 83.2819 541.26 82.9685 541.26H81.5185C81.4785 541.26 81.4585 541.28 81.4585 541.32V543.13C81.4585 543.17 81.4785 543.19 81.5185 543.19H82.9685ZM84.1385 547C84.0652 547 84.0152 546.967 83.9885 546.9L82.6885 544.25H81.5185C81.4785 544.25 81.4585 544.27 81.4585 544.31V546.9C81.4585 546.967 81.4252 547 81.3585 547H80.3785C80.3119 547 80.2785 546.967 80.2785 546.9V540.3C80.2785 540.233 80.3119 540.2 80.3785 540.2H83.0085C83.3219 540.2 83.6085 540.25 83.8685 540.35C84.1352 540.45 84.3652 540.59 84.5585 540.77C84.7519 540.943 84.9019 541.157 85.0085 541.41C85.1219 541.657 85.1785 541.93 85.1785 542.23C85.1785 542.677 85.0619 543.063 84.8285 543.39C84.5952 543.717 84.2819 543.953 83.8885 544.1L85.3185 546.87C85.3385 546.903 85.3385 546.933 85.3185 546.96C85.3052 546.987 85.2819 547 85.2485 547H84.1385Z" fill="white"/>
<path fill-rule="evenodd" clip-rule="evenodd" d="M73.4105 502.203C75.2787 500.372 75.3091 497.373 73.4783 495.505C72.9611 494.977 72.3508 494.596 71.6991 494.362C71.2226 494.169 70.72 494.025 70.1982 493.875C68.7598 493.463 67.1747 493.008 65.5832 491.384C63.9917 489.76 63.5692 488.165 63.1857 486.719C63.1076 486.424 63.0311 486.136 62.9467 485.854C62.773 484.983 62.3528 484.152 61.685 483.47C59.8542 481.602 56.8556 481.571 54.9873 483.402C53.1191 485.233 53.0888 488.232 54.9196 490.1C55.5883 490.783 56.4128 491.22 57.2812 491.411C57.5604 491.501 57.8468 491.583 58.1394 491.667C59.5777 492.08 61.1628 492.534 62.7543 494.158C64.3458 495.783 64.7684 497.377 65.1518 498.823C65.2889 499.34 65.421 499.839 65.5997 500.313C65.8196 500.977 66.1904 501.602 66.7128 502.135C68.5436 504.003 71.5423 504.034 73.4105 502.203Z" fill="white"/>
<path fill-rule="evenodd" clip-rule="evenodd" d="M85.4105 483.402C87.2787 485.233 87.3091 488.231 85.4783 490.1C84.9611 490.628 84.3508 491.009 83.6991 491.243C83.2226 491.435 82.72 491.579 82.1982 491.729C80.7598 492.142 79.1747 492.597 77.5832 494.221C75.9917 495.845 75.5692 497.439 75.1857 498.885C75.1076 499.18 75.0311 499.469 74.9467 499.75C74.773 500.621 74.3528 501.453 73.685 502.134C71.8542 504.003 68.8556 504.033 66.9873 502.202C65.1191 500.371 65.0888 497.373 66.9196 495.504C67.5883 494.822 68.4128 494.385 69.2812 494.194C69.5604 494.104 69.8468 494.022 70.1394 493.938C71.5777 493.525 73.1628 493.07 74.7543 491.446C76.3458 489.822 76.7684 488.228 77.1518 486.781C77.2889 486.264 77.421 485.766 77.5997 485.292C77.8196 484.628 78.1904 484.003 78.7128 483.47C80.5436 481.601 83.5423 481.571 85.4105 483.402Z" fill="white"/>
<rect x="20" y="103" width="102" height="102" rx="13" transform="rotate(-90 20 103)" fill="#487AEE" stroke="#487AEE" stroke-width="2"/>
<path opacity="0.9" d="M52.9033 81.3C52.9033 81.2333 52.9367 81.2 53.0033 81.2H57.2633C57.33 81.2 57.3633 81.2333 57.3633 81.3V82.16C57.3633 82.2267 57.33 82.26 57.2633 82.26H54.1433C54.1033 82.26 54.0833 82.28 54.0833 82.32V83.98C54.0833 84.02 54.1033 84.04 54.1433 84.04H56.7733C56.84 84.04 56.8733 84.0733 56.8733 84.14V85C56.8733 85.0667 56.84 85.1 56.7733 85.1H54.1433C54.1033 85.1 54.0833 85.12 54.0833 85.16V86.88C54.0833 86.92 54.1033 86.94 54.1433 86.94H57.2633C57.33 86.94 57.3633 86.9733 57.3633 87.04V87.9C57.3633 87.9667 57.33 88 57.2633 88H53.0033C52.9367 88 52.9033 87.9667 52.9033 87.9V81.3ZM59.0064 81.3C59.0064 81.2333 59.0398 81.2 59.1064 81.2H60.0264C60.0998 81.2 60.1564 81.2333 60.1964 81.3L62.9664 85.99H63.0064V81.3C63.0064 81.2333 63.0398 81.2 63.1064 81.2H63.9764C64.0431 81.2 64.0764 81.2333 64.0764 81.3V87.9C64.0764 87.9667 64.0431 88 63.9764 88H63.0664C62.9931 88 62.9364 87.9667 62.8964 87.9L60.1164 83.22H60.0764V87.9C60.0764 87.9667 60.0431 88 59.9764 88H59.1064C59.0398 88 59.0064 87.9667 59.0064 87.9V81.3ZM65.9787 81.3C65.9787 81.2333 66.012 81.2 66.0787 81.2H70.3387C70.4054 81.2 70.4387 81.2333 70.4387 81.3V82.16C70.4387 82.2267 70.4054 82.26 70.3387 82.26H67.2187C67.1787 82.26 67.1587 82.28 67.1587 82.32V83.98C67.1587 84.02 67.1787 84.04 67.2187 84.04H69.8487C69.9154 84.04 69.9487 84.0733 69.9487 84.14V85C69.9487 85.0667 69.9154 85.1 69.8487 85.1H67.2187C67.1787 85.1 67.1587 85.12 67.1587 85.16V86.88C67.1587 86.92 67.1787 86.94 67.2187 86.94H70.3387C70.4054 86.94 70.4387 86.9733 70.4387 87.04V87.9C70.4387 87.9667 70.4054 88 70.3387 88H66.0787C66.012 88 65.9787 87.9667 65.9787 87.9V81.3ZM74.7718 84.19C75.0852 84.19 75.3352 84.1033 75.5218 83.93C75.7152 83.7567 75.8118 83.5233 75.8118 83.23C75.8118 82.93 75.7152 82.6933 75.5218 82.52C75.3352 82.3467 75.0852 82.26 74.7718 82.26H73.3218C73.2818 82.26 73.2618 82.28 73.2618 82.32V84.13C73.2618 84.17 73.2818 84.19 73.3218 84.19H74.7718ZM75.9418 88C75.8685 88 75.8185 87.9667 75.7918 87.9L74.4918 85.25H73.3218C73.2818 85.25 73.2618 85.27 73.2618 85.31V87.9C73.2618 87.9667 73.2285 88 73.1618 88H72.1818C72.1152 88 72.0818 87.9667 72.0818 87.9V81.3C72.0818 81.2333 72.1152 81.2 72.1818 81.2H74.8118C75.1252 81.2 75.4118 81.25 75.6718 81.35C75.9385 81.45 76.1685 81.59 76.3618 81.77C76.5552 81.9433 76.7052 82.1567 76.8118 82.41C76.9252 82.6567 76.9818 82.93 76.9818 83.23C76.9818 83.6767 76.8652 84.0633 76.6318 84.39C76.3985 84.7167 76.0852 84.9533 75.6918 85.1L77.1218 87.87C77.1418 87.9033 77.1418 87.9333 77.1218 87.96C77.1085 87.9867 77.0852 88 77.0518 88H75.9418ZM78.6239 86.47C78.5906 86.3633 78.5606 86.2567 78.5339 86.15C78.5139 86.0433 78.4973 85.92 78.4839 85.78C78.4706 85.64 78.4606 85.4767 78.4539 85.29C78.4473 85.0967 78.4439 84.8667 78.4439 84.6C78.4439 84.3333 78.4473 84.1067 78.4539 83.92C78.4606 83.7267 78.4706 83.56 78.4839 83.42C78.4973 83.28 78.5139 83.1567 78.5339 83.05C78.5606 82.9433 78.5906 82.8367 78.6239 82.73C78.7973 82.19 79.0939 81.7833 79.5139 81.51C79.9339 81.23 80.4473 81.09 81.0539 81.09C81.3739 81.09 81.6639 81.13 81.9239 81.21C82.1839 81.29 82.4139 81.3967 82.6139 81.53C82.8139 81.6567 82.9806 81.81 83.1139 81.99C83.2473 82.1633 83.3506 82.3433 83.4239 82.53C83.4506 82.59 83.4373 82.6367 83.3839 82.67L82.5439 83.04C82.4839 83.06 82.4406 83.0433 82.4139 82.99C82.2606 82.7167 82.0773 82.51 81.8639 82.37C81.6506 82.2233 81.3773 82.15 81.0439 82.15C80.6973 82.15 80.4206 82.23 80.2139 82.39C80.0073 82.5433 79.8573 82.76 79.7639 83.04C79.7439 83.1 79.7239 83.17 79.7039 83.25C79.6906 83.33 79.6773 83.43 79.6639 83.55C79.6573 83.67 79.6506 83.8167 79.6439 83.99C79.6439 84.1567 79.6439 84.36 79.6439 84.6C79.6439 84.84 79.6439 85.0467 79.6439 85.22C79.6506 85.3867 79.6573 85.53 79.6639 85.65C79.6773 85.77 79.6906 85.87 79.7039 85.95C79.7239 86.03 79.7439 86.1 79.7639 86.16C79.8573 86.44 80.0073 86.66 80.2139 86.82C80.4206 86.9733 80.6973 87.05 81.0439 87.05C81.3439 87.05 81.6106 86.98 81.8439 86.84C82.0773 86.6933 82.2406 86.48 82.3339 86.2C82.3673 86.0933 82.3939 85.97 82.4139 85.83C82.4339 85.6833 82.4439 85.5133 82.4439 85.32C82.4439 85.28 82.4239 85.26 82.3839 85.26H81.2639C81.1973 85.26 81.1639 85.2267 81.1639 85.16V84.36C81.1639 84.2933 81.1973 84.26 81.2639 84.26H83.5139C83.5806 84.26 83.6139 84.2933 83.6139 84.36V84.95C83.6139 85.23 83.6006 85.5067 83.5739 85.78C83.5473 86.0467 83.5073 86.2667 83.4539 86.44C83.2873 86.9733 82.9906 87.3867 82.5639 87.68C82.1439 87.9667 81.6406 88.11 81.0539 88.11C80.4473 88.11 79.9339 87.9733 79.5139 87.7C79.0939 87.42 78.7973 87.01 78.6239 86.47ZM86.6754 88C86.6087 88 86.5754 87.9667 86.5754 87.9V85.22L84.6054 81.3C84.5787 81.2333 84.6054 81.2 84.6854 81.2H85.6954C85.762 81.2 85.8087 81.2333 85.8354 81.3L87.1654 83.94H87.1954L88.5354 81.3C88.562 81.2333 88.6087 81.2 88.6754 81.2H89.6454C89.7254 81.2 89.752 81.2333 89.7254 81.3L87.7554 85.22V87.9C87.7554 87.9667 87.722 88 87.6554 88H86.6754Z" fill="white"/>
<path d="M61 42.1422L69.9319 28V42.1422H61Z" fill="white" stroke="white" stroke-width="4" stroke-linejoin="round"/>
<path d="M78.8677 41.3978L69.9357 55.54V41.3978H78.8677Z" fill="white" stroke="white" stroke-width="4" stroke-linejoin="round"/>
<path d="M72 103C72 102.448 71.5523 102 71 102C70.4477 102 70 102.448 70 103L72 103ZM70.2929 206.707C70.6834 207.098 71.3166 207.098 71.7071 206.707L78.0711 200.343C78.4616 199.953 78.4616 199.319 78.0711 198.929C77.6805 198.538 77.0474 198.538 76.6569 198.929L71 204.586L65.3431 198.929C64.9526 198.538 64.3195 198.538 63.9289 198.929C63.5384 199.319 63.5384 199.953 63.9289 200.343L70.2929 206.707ZM70 103L70 206L72 206L72 103L70 103Z" fill="#487AEE"/>
<rect y="280.711" width="100" height="100" rx="12" transform="rotate(-45 0 280.711)" fill="#487AEE" stroke="#487AEE" stroke-width="2"/>
<path opacity="0.9" d="M36.8039 293.259C36.8039 293.192 36.8372 293.159 36.9039 293.159H41.1639C41.2306 293.159 41.2639 293.192 41.2639 293.259V294.119C41.2639 294.186 41.2306 294.219 41.1639 294.219H38.0439C38.0039 294.219 37.9839 294.239 37.9839 294.279V295.939C37.9839 295.979 38.0039 295.999 38.0439 295.999H40.6739C40.7406 295.999 40.7739 296.032 40.7739 296.099V296.959C40.7739 297.026 40.7406 297.059 40.6739 297.059H38.0439C38.0039 297.059 37.9839 297.079 37.9839 297.119V298.839C37.9839 298.879 38.0039 298.899 38.0439 298.899H41.1639C41.2306 298.899 41.2639 298.932 41.2639 298.999V299.859C41.2639 299.926 41.2306 299.959 41.1639 299.959H36.9039C36.8372 299.959 36.8039 299.926 36.8039 299.859V293.259ZM42.907 293.259C42.907 293.192 42.9404 293.159 43.007 293.159H43.987C44.0537 293.159 44.087 293.192 44.087 293.259V298.839C44.087 298.879 44.107 298.899 44.147 298.899H47.267C47.3337 298.899 47.367 298.932 47.367 298.999V299.859C47.367 299.926 47.3337 299.959 47.267 299.959H43.007C42.9404 299.959 42.907 299.926 42.907 299.859V293.259ZM48.7562 293.259C48.7562 293.192 48.7896 293.159 48.8562 293.159H53.1162C53.1829 293.159 53.2162 293.192 53.2162 293.259V294.119C53.2162 294.186 53.1829 294.219 53.1162 294.219H49.9962C49.9562 294.219 49.9362 294.239 49.9362 294.279V295.939C49.9362 295.979 49.9562 295.999 49.9962 295.999H52.6262C52.6929 295.999 52.7262 296.032 52.7262 296.099V296.959C52.7262 297.026 52.6929 297.059 52.6262 297.059H49.9962C49.9562 297.059 49.9362 297.079 49.9362 297.119V298.839C49.9362 298.879 49.9562 298.899 49.9962 298.899H53.1162C53.1829 298.899 53.2162 298.932 53.2162 298.999V299.859C53.2162 299.926 53.1829 299.959 53.1162 299.959H48.8562C48.7896 299.959 48.7562 299.926 48.7562 299.859V293.259ZM54.8394 298.399C54.806 298.292 54.776 298.189 54.7494 298.089C54.7294 297.982 54.7127 297.862 54.6994 297.729C54.686 297.589 54.676 297.429 54.6694 297.249C54.6627 297.062 54.6594 296.832 54.6594 296.559C54.6594 296.292 54.6627 296.066 54.6694 295.879C54.676 295.692 54.686 295.532 54.6994 295.399C54.7127 295.259 54.7294 295.139 54.7494 295.039C54.776 294.932 54.806 294.826 54.8394 294.719C55.0127 294.159 55.3027 293.742 55.7094 293.469C56.1227 293.189 56.6194 293.049 57.1994 293.049C57.746 293.049 58.216 293.179 58.6094 293.439C59.0094 293.699 59.306 294.056 59.4994 294.509C59.5194 294.569 59.5027 294.609 59.4494 294.629L58.5994 295.039C58.5394 295.072 58.496 295.056 58.4694 294.989C58.356 294.749 58.1994 294.542 57.9994 294.369C57.806 294.196 57.5394 294.109 57.1994 294.109C56.8727 294.109 56.6094 294.189 56.4094 294.349C56.216 294.509 56.0727 294.729 55.9794 295.009C55.9594 295.082 55.9394 295.156 55.9194 295.229C55.906 295.302 55.8927 295.399 55.8794 295.519C55.8727 295.632 55.866 295.772 55.8594 295.939C55.8594 296.106 55.8594 296.312 55.8594 296.559C55.8594 296.812 55.8594 297.022 55.8594 297.189C55.866 297.349 55.8727 297.489 55.8794 297.609C55.8927 297.722 55.906 297.819 55.9194 297.899C55.9394 297.972 55.9594 298.042 55.9794 298.109C56.0727 298.389 56.216 298.609 56.4094 298.769C56.6094 298.929 56.8727 299.009 57.1994 299.009C57.5394 299.009 57.806 298.922 57.9994 298.749C58.1994 298.576 58.356 298.369 58.4694 298.129C58.496 298.062 58.5394 298.046 58.5994 298.079L59.4494 298.489C59.5027 298.509 59.5194 298.549 59.4994 298.609C59.306 299.062 59.0094 299.419 58.6094 299.679C58.216 299.939 57.746 300.069 57.1994 300.069C56.6194 300.069 56.1227 299.932 55.7094 299.659C55.3027 299.379 55.0127 298.959 54.8394 298.399ZM62.3455 299.959C62.2789 299.959 62.2455 299.926 62.2455 299.859V294.279C62.2455 294.239 62.2255 294.219 62.1855 294.219H60.4055C60.3389 294.219 60.3055 294.186 60.3055 294.119V293.259C60.3055 293.192 60.3389 293.159 60.4055 293.159H65.2655C65.3322 293.159 65.3655 293.192 65.3655 293.259V294.119C65.3655 294.186 65.3322 294.219 65.2655 294.219H63.4855C63.4455 294.219 63.4255 294.239 63.4255 294.279V299.859C63.4255 299.926 63.3922 299.959 63.3255 299.959H62.3455ZM69.4236 296.149C69.7369 296.149 69.9869 296.062 70.1736 295.889C70.3669 295.716 70.4636 295.482 70.4636 295.189C70.4636 294.889 70.3669 294.652 70.1736 294.479C69.9869 294.306 69.7369 294.219 69.4236 294.219H67.9736C67.9336 294.219 67.9136 294.239 67.9136 294.279V296.089C67.9136 296.129 67.9336 296.149 67.9736 296.149H69.4236ZM70.5936 299.959C70.5203 299.959 70.4703 299.926 70.4436 299.859L69.1436 297.209H67.9736C67.9336 297.209 67.9136 297.229 67.9136 297.269V299.859C67.9136 299.926 67.8803 299.959 67.8136 299.959H66.8336C66.7669 299.959 66.7336 299.926 66.7336 299.859V293.259C66.7336 293.192 66.7669 293.159 66.8336 293.159H69.4636C69.7769 293.159 70.0636 293.209 70.3236 293.309C70.5903 293.409 70.8203 293.549 71.0136 293.729C71.2069 293.902 71.3569 294.116 71.4636 294.369C71.5769 294.616 71.6336 294.889 71.6336 295.189C71.6336 295.636 71.5169 296.022 71.2836 296.349C71.0503 296.676 70.7369 296.912 70.3436 297.059L71.7736 299.829C71.7936 299.862 71.7936 299.892 71.7736 299.919C71.7603 299.946 71.7369 299.959 71.7036 299.959H70.5936ZM75.6757 299.009C76.0157 299.009 76.289 298.932 76.4957 298.779C76.7024 298.619 76.8524 298.399 76.9457 298.119C76.9657 298.059 76.9824 297.989 76.9957 297.909C77.009 297.829 77.019 297.729 77.0257 297.609C77.039 297.489 77.049 297.346 77.0557 297.179C77.0624 297.006 77.0657 296.799 77.0657 296.559C77.0657 296.319 77.0624 296.116 77.0557 295.949C77.049 295.776 77.039 295.629 77.0257 295.509C77.019 295.389 77.009 295.289 76.9957 295.209C76.9824 295.129 76.9657 295.059 76.9457 294.999C76.8524 294.719 76.7024 294.502 76.4957 294.349C76.289 294.189 76.0157 294.109 75.6757 294.109C75.3357 294.109 75.0624 294.189 74.8557 294.349C74.6557 294.502 74.509 294.719 74.4157 294.999C74.3957 295.059 74.3757 295.129 74.3557 295.209C74.3424 295.289 74.329 295.389 74.3157 295.509C74.309 295.629 74.3024 295.776 74.2957 295.949C74.2957 296.116 74.2957 296.319 74.2957 296.559C74.2957 296.799 74.2957 297.006 74.2957 297.179C74.3024 297.346 74.309 297.489 74.3157 297.609C74.329 297.729 74.3424 297.829 74.3557 297.909C74.3757 297.989 74.3957 298.059 74.4157 298.119C74.509 298.399 74.6557 298.619 74.8557 298.779C75.0624 298.932 75.3357 299.009 75.6757 299.009ZM75.6757 300.069C75.089 300.069 74.5857 299.932 74.1657 299.659C73.7457 299.379 73.449 298.969 73.2757 298.429C73.2424 298.322 73.2124 298.216 73.1857 298.109C73.1657 298.002 73.149 297.879 73.1357 297.739C73.1224 297.599 73.1124 297.436 73.1057 297.249C73.099 297.056 73.0957 296.826 73.0957 296.559C73.0957 296.292 73.099 296.066 73.1057 295.879C73.1124 295.686 73.1224 295.519 73.1357 295.379C73.149 295.239 73.1657 295.116 73.1857 295.009C73.2124 294.902 73.2424 294.796 73.2757 294.689C73.449 294.149 73.7457 293.742 74.1657 293.469C74.5857 293.189 75.089 293.049 75.6757 293.049C76.269 293.049 76.7757 293.189 77.1957 293.469C77.6157 293.742 77.9124 294.149 78.0857 294.689C78.119 294.796 78.1457 294.902 78.1657 295.009C78.1924 295.116 78.2124 295.239 78.2257 295.379C78.239 295.519 78.249 295.686 78.2557 295.879C78.2624 296.066 78.2657 296.292 78.2657 296.559C78.2657 296.826 78.2624 297.056 78.2557 297.249C78.249 297.436 78.239 297.599 78.2257 297.739C78.2124 297.879 78.1924 298.002 78.1657 298.109C78.1457 298.216 78.119 298.322 78.0857 298.429C77.9124 298.969 77.6157 299.379 77.1957 299.659C76.7757 299.932 76.269 300.069 75.6757 300.069ZM79.9652 293.259C79.9652 293.192 79.9986 293.159 80.0652 293.159H81.0452C81.1119 293.159 81.1452 293.192 81.1452 293.259V298.839C81.1452 298.879 81.1652 298.899 81.2052 298.899H84.3252C84.3919 298.899 84.4252 298.932 84.4252 298.999V299.859C84.4252 299.926 84.3919 299.959 84.3252 299.959H80.0652C79.9986 299.959 79.9652 299.926 79.9652 299.859V293.259ZM86.4146 299.959C86.3479 299.959 86.3146 299.926 86.3146 299.859V297.179L84.3446 293.259C84.3179 293.192 84.3446 293.159 84.4246 293.159H85.4346C85.5013 293.159 85.5479 293.192 85.5746 293.259L86.9046 295.899H86.9346L88.2746 293.259C88.3013 293.192 88.3479 293.159 88.4146 293.159H89.3846C89.4646 293.159 89.4913 293.192 89.4646 293.259L87.4946 297.179V299.859C87.4946 299.926 87.4613 299.959 87.3946 299.959H86.4146ZM92.622 300.069C92.3687 300.069 92.122 300.046 91.882 299.999C91.642 299.952 91.412 299.889 91.192 299.809C90.9787 299.729 90.7787 299.636 90.592 299.529C90.412 299.416 90.2554 299.296 90.122 299.169C90.0687 299.116 90.062 299.066 90.102 299.019L90.722 298.299C90.7687 298.246 90.8154 298.242 90.862 298.289C90.9687 298.376 91.0887 298.462 91.222 298.549C91.362 298.636 91.5087 298.712 91.662 298.779C91.822 298.846 91.9887 298.902 92.162 298.949C92.3354 298.989 92.5187 299.009 92.712 299.009C93.1187 299.009 93.432 298.919 93.652 298.739C93.8787 298.552 93.992 298.316 93.992 298.029C93.992 297.782 93.902 297.582 93.722 297.429C93.542 297.269 93.2187 297.156 92.752 297.089L92.392 297.039C91.732 296.946 91.2254 296.742 90.872 296.429C90.5187 296.109 90.342 295.666 90.342 295.099C90.342 294.792 90.3954 294.512 90.502 294.259C90.6087 294.006 90.762 293.789 90.962 293.609C91.162 293.429 91.402 293.292 91.682 293.199C91.9687 293.099 92.2887 293.049 92.642 293.049C93.0687 293.049 93.472 293.112 93.852 293.239C94.2387 293.359 94.5687 293.522 94.842 293.729C94.8887 293.769 94.8954 293.816 94.862 293.869L94.382 294.609C94.342 294.662 94.2954 294.672 94.242 294.639C93.962 294.459 93.692 294.326 93.432 294.239C93.172 294.152 92.8987 294.109 92.612 294.109C92.2654 294.109 91.9987 294.196 91.812 294.369C91.632 294.536 91.542 294.752 91.542 295.019C91.542 295.252 91.6354 295.449 91.822 295.609C92.0087 295.762 92.332 295.872 92.792 295.939L93.152 295.989C93.812 296.082 94.3154 296.289 94.662 296.609C95.0087 296.922 95.182 297.372 95.182 297.959C95.182 298.259 95.1287 298.539 95.022 298.799C94.9154 299.059 94.752 299.282 94.532 299.469C94.3187 299.656 94.052 299.802 93.732 299.909C93.412 300.016 93.042 300.069 92.622 300.069ZM96.7512 293.259C96.7512 293.192 96.7845 293.159 96.8512 293.159H97.8312C97.8978 293.159 97.9312 293.192 97.9312 293.259V299.859C97.9312 299.926 97.8978 299.959 97.8312 299.959H96.8512C96.7845 299.959 96.7512 299.926 96.7512 299.859V293.259ZM101.967 300.069C101.714 300.069 101.467 300.046 101.227 299.999C100.987 299.952 100.757 299.889 100.537 299.809C100.324 299.729 100.124 299.636 99.937 299.529C99.757 299.416 99.6003 299.296 99.467 299.169C99.4136 299.116 99.407 299.066 99.447 299.019L100.067 298.299C100.114 298.246 100.16 298.242 100.207 298.289C100.314 298.376 100.434 298.462 100.567 298.549C100.707 298.636 100.854 298.712 101.007 298.779C101.167 298.846 101.334 298.902 101.507 298.949C101.68 298.989 101.864 299.009 102.057 299.009C102.464 299.009 102.777 298.919 102.997 298.739C103.224 298.552 103.337 298.316 103.337 298.029C103.337 297.782 103.247 297.582 103.067 297.429C102.887 297.269 102.564 297.156 102.097 297.089L101.737 297.039C101.077 296.946 100.57 296.742 100.217 296.429C99.8636 296.109 99.687 295.666 99.687 295.099C99.687 294.792 99.7403 294.512 99.847 294.259C99.9536 294.006 100.107 293.789 100.307 293.609C100.507 293.429 100.747 293.292 101.027 293.199C101.314 293.099 101.634 293.049 101.987 293.049C102.414 293.049 102.817 293.112 103.197 293.239C103.584 293.359 103.914 293.522 104.187 293.729C104.234 293.769 104.24 293.816 104.207 293.869L103.727 294.609C103.687 294.662 103.64 294.672 103.587 294.639C103.307 294.459 103.037 294.326 102.777 294.239C102.517 294.152 102.244 294.109 101.957 294.109C101.61 294.109 101.344 294.196 101.157 294.369C100.977 294.536 100.887 294.752 100.887 295.019C100.887 295.252 100.98 295.449 101.167 295.609C101.354 295.762 101.677 295.872 102.137 295.939L102.497 295.989C103.157 296.082 103.66 296.289 104.007 296.609C104.354 296.922 104.527 297.372 104.527 297.959C104.527 298.259 104.474 298.539 104.367 298.799C104.26 299.059 104.097 299.282 103.877 299.469C103.664 299.656 103.397 299.802 103.077 299.909C102.757 300.016 102.387 300.069 101.967 300.069Z" fill="white"/>
<path fill-rule="evenodd" clip-rule="evenodd" d="M62.2595 253C60.4593 253 59 254.459 59 256.26V260.266C59 260.29 59.0003 260.315 59.0008 260.339L59.0008 271.244C59.0008 273.318 60.6825 275 62.7569 275C64.8313 275 66.513 273.318 66.513 271.244L66.513 263.525H73.4487V271.244C73.4487 273.318 75.1304 275 77.2048 275C79.2793 275 80.9609 273.318 80.9609 271.244V260.38C80.9622 260.342 80.9629 260.304 80.9629 260.266V256.26C80.9629 254.459 79.5035 253 77.7034 253H62.2595Z" fill="white"/>
<path d="M72 460C72 460.552 71.5523 461 71 461C70.4477 461 70 460.552 70 460L72 460ZM70.2929 354.293C70.6834 353.902 71.3166 353.902 71.7071 354.293L78.0711 360.657C78.4616 361.047 78.4616 361.681 78.0711 362.071C77.6805 362.462 77.0474 362.462 76.6569 362.071L71 356.414L65.3431 362.071C64.9526 362.462 64.3195 362.462 63.9289 362.071C63.5384 361.681 63.5384 361.047 63.9289 360.657L70.2929 354.293ZM70 460L70 355L72 355L72 460L70 460Z" fill="#487AEE"/>
<path d="M137 280C136.448 280 136 280.448 136 281C136 281.552 136.448 282 137 282L137 280ZM221.707 281.707C222.098 281.317 222.098 280.683 221.707 280.293L215.343 273.929C214.953 273.538 214.319 273.538 213.929 273.929C213.538 274.319 213.538 274.953 213.929 275.343L219.586 281L213.929 286.657C213.538 287.047 213.538 287.681 213.929 288.071C214.319 288.462 214.953 288.462 215.343 288.071L221.707 281.707ZM137 282L221 282L221 280L137 280L137 282Z" fill="#487AEE"/>
</svg>
