<svg width="327" height="134" viewBox="0 0 327 134" fill="none" xmlns="http://www.w3.org/2000/svg">
<path d="M4.51472 75.2254C-0.171572 70.5391 -0.171573 62.9411 4.51472 58.2548L58.2548 4.51472C62.9411 -0.171572 70.5391 -0.171573 75.2254 4.51472L128.966 58.2548C133.652 62.9411 133.652 70.5391 128.966 75.2254L75.2254 128.966C70.5391 133.652 62.9411 133.652 58.2548 128.966L4.51472 75.2254Z" fill="#487AEE" stroke="#487AEE" stroke-width="2"/>
<path opacity="0.4" d="M48.3582 91.69C48.6715 91.69 48.9215 91.6033 49.1082 91.43C49.3015 91.2567 49.3982 91.0233 49.3982 90.73C49.3982 90.43 49.3015 90.1933 49.1082 90.02C48.9215 89.8467 48.6715 89.76 48.3582 89.76H46.9082C46.8682 89.76 46.8482 89.78 46.8482 89.82V91.63C46.8482 91.67 46.8682 91.69 46.9082 91.69H48.3582ZM49.5282 95.5C49.4548 95.5 49.4048 95.4667 49.3782 95.4L48.0782 92.75H46.9082C46.8682 92.75 46.8482 92.77 46.8482 92.81V95.4C46.8482 95.4667 46.8148 95.5 46.7482 95.5H45.7682C45.7015 95.5 45.6682 95.4667 45.6682 95.4V88.8C45.6682 88.7333 45.7015 88.7 45.7682 88.7H48.3982C48.7115 88.7 48.9982 88.75 49.2582 88.85C49.5248 88.95 49.7548 89.09 49.9482 89.27C50.1415 89.4433 50.2915 89.6567 50.3982 89.91C50.5115 90.1567 50.5682 90.43 50.5682 90.73C50.5682 91.1767 50.4515 91.5633 50.2182 91.89C49.9848 92.2167 49.6715 92.4533 49.2782 92.6L50.7082 95.37C50.7282 95.4033 50.7282 95.4333 50.7082 95.46C50.6948 95.4867 50.6715 95.5 50.6382 95.5H49.5282ZM52.2596 88.8C52.2596 88.7333 52.2929 88.7 52.3596 88.7H56.6196C56.6862 88.7 56.7196 88.7333 56.7196 88.8V89.66C56.7196 89.7267 56.6862 89.76 56.6196 89.76H53.4996C53.4596 89.76 53.4396 89.78 53.4396 89.82V91.48C53.4396 91.52 53.4596 91.54 53.4996 91.54H56.1296C56.1962 91.54 56.2296 91.5733 56.2296 91.64V92.5C56.2296 92.5667 56.1962 92.6 56.1296 92.6H53.4996C53.4596 92.6 53.4396 92.62 53.4396 92.66V94.38C53.4396 94.42 53.4596 94.44 53.4996 94.44H56.6196C56.6862 94.44 56.7196 94.4733 56.7196 94.54V95.4C56.7196 95.4667 56.6862 95.5 56.6196 95.5H52.3596C52.2929 95.5 52.2596 95.4667 52.2596 95.4V88.8ZM61.6127 93.03L60.7127 90.39H60.6827L59.7727 93.03H61.6127ZM60.1227 88.8C60.1427 88.7333 60.186 88.7 60.2527 88.7H61.1727C61.2394 88.7 61.2827 88.7333 61.3027 88.8L63.6027 95.4C63.6227 95.4667 63.5994 95.5 63.5327 95.5H62.5527C62.486 95.5 62.4427 95.4667 62.4227 95.4L61.9727 94.08H59.4127L58.9627 95.4C58.9427 95.4667 58.8994 95.5 58.8327 95.5H57.8627C57.796 95.5 57.7727 95.4667 57.7927 95.4L60.1227 88.8ZM64.6704 93.94C64.6371 93.8333 64.6071 93.73 64.5804 93.63C64.5604 93.5233 64.5438 93.4033 64.5304 93.27C64.5171 93.13 64.5071 92.97 64.5004 92.79C64.4938 92.6033 64.4904 92.3733 64.4904 92.1C64.4904 91.8333 64.4938 91.6067 64.5004 91.42C64.5071 91.2333 64.5171 91.0733 64.5304 90.94C64.5438 90.8 64.5604 90.68 64.5804 90.58C64.6071 90.4733 64.6371 90.3667 64.6704 90.26C64.8438 89.7 65.1338 89.2833 65.5404 89.01C65.9538 88.73 66.4504 88.59 67.0304 88.59C67.5771 88.59 68.0471 88.72 68.4404 88.98C68.8404 89.24 69.1371 89.5967 69.3304 90.05C69.3504 90.11 69.3338 90.15 69.2804 90.17L68.4304 90.58C68.3704 90.6133 68.3271 90.5967 68.3004 90.53C68.1871 90.29 68.0304 90.0833 67.8304 89.91C67.6371 89.7367 67.3704 89.65 67.0304 89.65C66.7038 89.65 66.4404 89.73 66.2404 89.89C66.0471 90.05 65.9038 90.27 65.8104 90.55C65.7904 90.6233 65.7704 90.6967 65.7504 90.77C65.7371 90.8433 65.7238 90.94 65.7104 91.06C65.7038 91.1733 65.6971 91.3133 65.6904 91.48C65.6904 91.6467 65.6904 91.8533 65.6904 92.1C65.6904 92.3533 65.6904 92.5633 65.6904 92.73C65.6971 92.89 65.7038 93.03 65.7104 93.15C65.7238 93.2633 65.7371 93.36 65.7504 93.44C65.7704 93.5133 65.7904 93.5833 65.8104 93.65C65.9038 93.93 66.0471 94.15 66.2404 94.31C66.4404 94.47 66.7038 94.55 67.0304 94.55C67.3704 94.55 67.6371 94.4633 67.8304 94.29C68.0304 94.1167 68.1871 93.91 68.3004 93.67C68.3271 93.6033 68.3704 93.5867 68.4304 93.62L69.2804 94.03C69.3338 94.05 69.3504 94.09 69.3304 94.15C69.1371 94.6033 68.8404 94.96 68.4404 95.22C68.0471 95.48 67.5771 95.61 67.0304 95.61C66.4504 95.61 65.9538 95.4733 65.5404 95.2C65.1338 94.92 64.8438 94.5 64.6704 93.94ZM72.1766 95.5C72.1099 95.5 72.0766 95.4667 72.0766 95.4V89.82C72.0766 89.78 72.0566 89.76 72.0166 89.76H70.2366C70.1699 89.76 70.1366 89.7267 70.1366 89.66V88.8C70.1366 88.7333 70.1699 88.7 70.2366 88.7H75.0966C75.1633 88.7 75.1966 88.7333 75.1966 88.8V89.66C75.1966 89.7267 75.1633 89.76 75.0966 89.76H73.3166C73.2766 89.76 73.2566 89.78 73.2566 89.82V95.4C73.2566 95.4667 73.2233 95.5 73.1566 95.5H72.1766ZM78.7689 94.55C79.1089 94.55 79.3822 94.4733 79.5889 94.32C79.7955 94.16 79.9455 93.94 80.0389 93.66C80.0589 93.6 80.0755 93.53 80.0889 93.45C80.1022 93.37 80.1122 93.27 80.1189 93.15C80.1322 93.03 80.1422 92.8867 80.1489 92.72C80.1555 92.5467 80.1589 92.34 80.1589 92.1C80.1589 91.86 80.1555 91.6567 80.1489 91.49C80.1422 91.3167 80.1322 91.17 80.1189 91.05C80.1122 90.93 80.1022 90.83 80.0889 90.75C80.0755 90.67 80.0589 90.6 80.0389 90.54C79.9455 90.26 79.7955 90.0433 79.5889 89.89C79.3822 89.73 79.1089 89.65 78.7689 89.65C78.4289 89.65 78.1555 89.73 77.9489 89.89C77.7489 90.0433 77.6022 90.26 77.5089 90.54C77.4889 90.6 77.4689 90.67 77.4489 90.75C77.4355 90.83 77.4222 90.93 77.4089 91.05C77.4022 91.17 77.3955 91.3167 77.3889 91.49C77.3889 91.6567 77.3889 91.86 77.3889 92.1C77.3889 92.34 77.3889 92.5467 77.3889 92.72C77.3955 92.8867 77.4022 93.03 77.4089 93.15C77.4222 93.27 77.4355 93.37 77.4489 93.45C77.4689 93.53 77.4889 93.6 77.5089 93.66C77.6022 93.94 77.7489 94.16 77.9489 94.32C78.1555 94.4733 78.4289 94.55 78.7689 94.55ZM78.7689 95.61C78.1822 95.61 77.6789 95.4733 77.2589 95.2C76.8389 94.92 76.5422 94.51 76.3689 93.97C76.3355 93.8633 76.3055 93.7567 76.2789 93.65C76.2589 93.5433 76.2422 93.42 76.2289 93.28C76.2155 93.14 76.2055 92.9767 76.1989 92.79C76.1922 92.5967 76.1889 92.3667 76.1889 92.1C76.1889 91.8333 76.1922 91.6067 76.1989 91.42C76.2055 91.2267 76.2155 91.06 76.2289 90.92C76.2422 90.78 76.2589 90.6567 76.2789 90.55C76.3055 90.4433 76.3355 90.3367 76.3689 90.23C76.5422 89.69 76.8389 89.2833 77.2589 89.01C77.6789 88.73 78.1822 88.59 78.7689 88.59C79.3622 88.59 79.8689 88.73 80.2889 89.01C80.7089 89.2833 81.0055 89.69 81.1789 90.23C81.2122 90.3367 81.2389 90.4433 81.2589 90.55C81.2855 90.6567 81.3055 90.78 81.3189 90.92C81.3322 91.06 81.3422 91.2267 81.3489 91.42C81.3555 91.6067 81.3589 91.8333 81.3589 92.1C81.3589 92.3667 81.3555 92.5967 81.3489 92.79C81.3422 92.9767 81.3322 93.14 81.3189 93.28C81.3055 93.42 81.2855 93.5433 81.2589 93.65C81.2389 93.7567 81.2122 93.8633 81.1789 93.97C81.0055 94.51 80.7089 94.92 80.2889 95.2C79.8689 95.4733 79.3622 95.61 78.7689 95.61ZM85.7484 91.69C86.0617 91.69 86.3117 91.6033 86.4984 91.43C86.6917 91.2567 86.7884 91.0233 86.7884 90.73C86.7884 90.43 86.6917 90.1933 86.4984 90.02C86.3117 89.8467 86.0617 89.76 85.7484 89.76H84.2984C84.2584 89.76 84.2384 89.78 84.2384 89.82V91.63C84.2384 91.67 84.2584 91.69 84.2984 91.69H85.7484ZM86.9184 95.5C86.8451 95.5 86.7951 95.4667 86.7684 95.4L85.4684 92.75H84.2984C84.2584 92.75 84.2384 92.77 84.2384 92.81V95.4C84.2384 95.4667 84.2051 95.5 84.1384 95.5H83.1584C83.0917 95.5 83.0584 95.4667 83.0584 95.4V88.8C83.0584 88.7333 83.0917 88.7 83.1584 88.7H85.7884C86.1017 88.7 86.3884 88.75 86.6484 88.85C86.9151 88.95 87.1451 89.09 87.3384 89.27C87.5317 89.4433 87.6817 89.6567 87.7884 89.91C87.9017 90.1567 87.9584 90.43 87.9584 90.73C87.9584 91.1767 87.8417 91.5633 87.6084 91.89C87.3751 92.2167 87.0617 92.4533 86.6684 92.6L88.0984 95.37C88.1184 95.4033 88.1184 95.4333 88.0984 95.46C88.0851 95.4867 88.0617 95.5 88.0284 95.5H86.9184Z" fill="white"/>
<path d="M37.3786 78.8116C37.255 78.8116 37.1932 78.7498 37.1932 78.6263V68.7496C37.1932 68.6755 37.1562 68.6384 37.082 68.6384H33.8943C33.7708 68.6384 33.709 68.5767 33.709 68.4531V66.3962C33.709 66.2727 33.7708 66.2109 33.8943 66.2109H43.2165C43.3401 66.2109 43.4019 66.2727 43.4019 66.3962V68.4531C43.4019 68.5767 43.3401 68.6384 43.2165 68.6384H40.0288C39.9547 68.6384 39.9176 68.6755 39.9176 68.7496V78.6263C39.9176 78.7498 39.8558 78.8116 39.7323 78.8116H37.3786Z" fill="white"/>
<path d="M49.5112 79.0154C48.8069 79.0154 48.1582 78.9104 47.5652 78.7004C46.9721 78.4904 46.4594 78.1816 46.0269 77.7739C45.6068 77.3662 45.2732 76.8597 45.0261 76.2544C44.7914 75.6491 44.674 74.9573 44.674 74.179V66.3962C44.674 66.2727 44.7358 66.2109 44.8593 66.2109H47.213C47.3366 66.2109 47.3984 66.2727 47.3984 66.3962V74.2531C47.3984 75.0067 47.5899 75.5873 47.9729 75.995C48.3559 76.4027 48.8687 76.6065 49.5112 76.6065C50.1413 76.6065 50.6479 76.4027 51.0309 75.995C51.4139 75.5873 51.6054 75.0067 51.6054 74.2531V66.3962C51.6054 66.2727 51.6672 66.2109 51.7907 66.2109H54.1445C54.268 66.2109 54.3298 66.2727 54.3298 66.3962V74.179C54.3298 74.9573 54.2062 75.6491 53.9591 76.2544C53.7244 76.8597 53.3908 77.3662 52.9583 77.7739C52.5383 78.1816 52.0317 78.4904 51.4386 78.7004C50.8579 78.9104 50.2154 79.0154 49.5112 79.0154Z" fill="white"/>
<path d="M61.5491 71.6959C62.068 71.6959 62.4819 71.5539 62.7908 71.2697C63.0997 70.9856 63.2541 70.6026 63.2541 70.1209C63.2541 69.6514 63.0997 69.2746 62.7908 68.9905C62.4819 68.7064 62.068 68.5643 61.5491 68.5643H59.3251C59.2509 68.5643 59.2139 68.6014 59.2139 68.6755V71.5848C59.2139 71.6589 59.2509 71.6959 59.3251 71.6959H61.5491ZM63.458 78.8116C63.3221 78.8116 63.2294 78.7498 63.18 78.6263L61.0116 74.0122H59.3251C59.2509 74.0122 59.2139 74.0493 59.2139 74.1234V78.6263C59.2139 78.7498 59.1521 78.8116 59.0286 78.8116H56.6748C56.5513 78.8116 56.4895 78.7498 56.4895 78.6263V66.3962C56.4895 66.2727 56.5513 66.2109 56.6748 66.2109H61.6973C62.3398 66.2109 62.9205 66.3098 63.4395 66.5074C63.9707 66.6927 64.4217 66.9583 64.7924 67.3042C65.1754 67.6501 65.4658 68.064 65.6634 68.5458C65.8735 69.0276 65.9785 69.5526 65.9785 70.1209C65.9785 70.9362 65.7808 71.6465 65.3855 72.2518C64.9901 72.8572 64.4403 73.3143 63.736 73.6231L66.2194 78.5892C66.2442 78.651 66.2442 78.7066 66.2194 78.756C66.1947 78.7931 66.1515 78.8116 66.0897 78.8116H63.458Z" fill="white"/>
<path d="M67.8693 66.3962C67.8693 66.2727 67.9311 66.2109 68.0547 66.2109H70.2787C70.4146 66.2109 70.5196 66.2727 70.5937 66.3962L75.0417 74.3273H75.1344V66.3962C75.1344 66.2727 75.1961 66.2109 75.3197 66.2109H77.4139C77.5375 66.2109 77.5993 66.2727 77.5993 66.3962V78.6263C77.5993 78.7498 77.5375 78.8116 77.4139 78.8116H75.2085C75.0726 78.8116 74.9676 78.7498 74.8934 78.6263L70.4269 70.7138H70.3343V78.6263C70.3343 78.7498 70.2725 78.8116 70.1489 78.8116H68.0547C67.9311 78.8116 67.8693 78.7498 67.8693 78.6263V66.3962Z" fill="white"/>
<path d="M79.8283 78.9898C79.8283 78.891 79.8592 78.8045 79.921 78.7304L84.3504 73.4678C84.5975 73.1836 84.7829 72.9057 84.9064 72.6339C85.03 72.3498 85.0918 72.0471 85.0918 71.7259C85.0918 71.3059 84.9682 70.96 84.7211 70.6882C84.4863 70.4164 84.1528 70.2805 83.7203 70.2805C82.8431 70.2805 82.3489 70.7747 82.2377 71.763C82.2377 71.8865 82.1697 71.9359 82.0338 71.9112L79.9951 71.5777C79.8716 71.5529 79.8222 71.4788 79.8469 71.3553C79.8839 70.9229 79.9951 70.5091 80.1805 70.1138C80.3658 69.7184 80.6253 69.3725 80.9589 69.0761C81.3048 68.7796 81.7125 68.5448 82.1821 68.3719C82.6639 68.1866 83.2076 68.0939 83.813 68.0939C84.4184 68.0939 84.9559 68.1866 85.4254 68.3719C85.9072 68.5572 86.315 68.8104 86.6486 69.1316C86.9822 69.4528 87.2354 69.8358 87.4084 70.2805C87.5938 70.7129 87.6864 71.1823 87.6864 71.6888C87.6864 72.2942 87.569 72.8439 87.3343 73.338C87.1119 73.8198 86.803 74.2893 86.4076 74.7464L83.0902 78.6563V78.6933H87.5011C87.6246 78.6933 87.6864 78.7551 87.6864 78.8786V80.7131C87.6864 80.8367 87.6246 80.8984 87.5011 80.8984H80.0137C79.8901 80.8984 79.8283 80.8367 79.8283 80.7131V78.9898Z" fill="white"/>
<path d="M96.984 78.8116C96.848 78.8116 96.743 78.7498 96.6689 78.6263L94.4264 74.7905H94.3708L92.1097 78.6263C92.0356 78.7498 91.9306 78.8116 91.7947 78.8116H89.2371C89.1753 78.8116 89.132 78.7931 89.1073 78.756C89.0826 78.7066 89.0888 78.651 89.1259 78.5892L92.8881 72.3074L89.3853 66.4333C89.3606 66.3715 89.3544 66.3221 89.3668 66.2851C89.3915 66.2356 89.4348 66.2109 89.4965 66.2109H92.0727C92.1962 66.2109 92.2951 66.2727 92.3692 66.3962L94.3708 69.8058H94.4264L96.428 66.3962C96.5021 66.2727 96.6009 66.2109 96.7245 66.2109H99.3006C99.3624 66.2109 99.3995 66.2356 99.4118 66.2851C99.4365 66.3221 99.4365 66.3715 99.4118 66.4333L95.8905 72.3074L99.6713 78.5892C99.696 78.651 99.696 78.7066 99.6713 78.756C99.6589 78.7931 99.6218 78.8116 99.5601 78.8116H96.984Z" fill="white"/>
<path fill-rule="evenodd" clip-rule="evenodd" d="M75.8895 33.4269C74.026 31.5634 71.0046 31.5634 69.1411 33.4269C68.6147 33.9532 68.237 34.572 68.008 35.2309C67.8189 35.7129 67.6788 36.2206 67.5333 36.7479C67.1323 38.2011 66.6903 39.8026 65.0704 41.4224C63.4504 43.0423 61.8488 43.4842 60.3955 43.8852C60.0994 43.967 59.8095 44.047 59.5268 44.1349C58.6513 44.3188 57.8176 44.7505 57.1379 45.4302C55.2744 47.2936 55.2744 50.3148 57.1379 52.1782C59.0014 54.0416 62.0227 54.0416 63.8863 52.1782C64.5669 51.4976 64.999 50.6624 65.1824 49.7857C65.2702 49.5035 65.35 49.2141 65.4316 48.9186C65.8326 47.4654 66.2746 45.8639 67.8945 44.244C69.5145 42.6242 71.1161 42.1822 72.5693 41.7812C73.0889 41.6378 73.5896 41.4997 74.0654 41.3148C74.7318 41.0865 75.3578 40.7065 75.8895 40.1749C77.753 38.3115 77.753 35.2903 75.8895 33.4269Z" fill="white"/>
<path fill-rule="evenodd" clip-rule="evenodd" d="M75.8895 52.1786C74.026 54.042 71.0046 54.042 69.1411 52.1786C68.6147 51.6522 68.237 51.0335 68.008 50.3746C67.8189 49.8926 67.6788 49.3848 67.5333 48.8576C67.1323 47.4044 66.6903 45.8029 65.0704 44.183C63.4504 42.5632 61.8488 42.1212 60.3955 41.7202C60.0994 41.6385 59.8095 41.5585 59.5268 41.4706C58.6513 41.2867 57.8176 40.8549 57.1379 40.1753C55.2744 38.3119 55.2744 35.2907 57.1379 33.4273C59.0014 31.5639 62.0227 31.5639 63.8863 33.4273C64.5669 34.1079 64.999 34.943 65.1824 35.8198C65.2702 36.102 65.35 36.3914 65.4316 36.6869C65.8326 38.1401 66.2746 39.7416 67.8945 41.3614C69.5145 42.9813 71.1161 43.4232 72.5693 43.8243C73.0889 43.9676 73.5896 44.1058 74.0654 44.2907C74.7318 44.519 75.3578 44.8989 75.8895 45.4306C77.753 47.294 77.753 50.3152 75.8895 52.1786Z" fill="white"/>
<rect x="226" y="119" width="100" height="100" rx="12" transform="rotate(-90 226 119)" fill="#487AEE" stroke="#487AEE" stroke-width="2"/>
<path d="M261.586 84.192C261.514 84 261.454 83.808 261.406 83.616C261.37 83.412 261.34 83.19 261.316 82.95C261.292 82.698 261.274 82.41 261.262 82.086C261.25 81.75 261.244 81.348 261.244 80.88C261.244 80.412 261.25 80.016 261.262 79.692C261.274 79.356 261.292 79.068 261.316 78.828C261.34 78.576 261.37 78.354 261.406 78.162C261.454 77.97 261.514 77.772 261.586 77.568C261.91 76.56 262.444 75.81 263.188 75.318C263.944 74.814 264.862 74.562 265.942 74.562C266.986 74.562 267.868 74.802 268.588 75.282C269.32 75.75 269.86 76.416 270.208 77.28C270.268 77.388 270.238 77.46 270.118 77.496L268.156 78.378C268.048 78.438 267.964 78.408 267.904 78.288C267.736 77.892 267.496 77.562 267.184 77.298C266.884 77.034 266.476 76.902 265.96 76.902C265.48 76.902 265.084 77.022 264.772 77.262C264.472 77.502 264.256 77.832 264.124 78.252C264.088 78.36 264.058 78.48 264.034 78.612C264.01 78.732 263.986 78.888 263.962 79.08C263.95 79.272 263.938 79.512 263.926 79.8C263.926 80.088 263.926 80.448 263.926 80.88C263.926 81.312 263.926 81.672 263.926 81.96C263.938 82.248 263.95 82.488 263.962 82.68C263.986 82.872 264.01 83.034 264.034 83.166C264.058 83.286 264.088 83.4 264.124 83.508C264.256 83.928 264.472 84.258 264.772 84.498C265.084 84.738 265.48 84.858 265.96 84.858C266.476 84.858 266.884 84.726 267.184 84.462C267.496 84.198 267.736 83.868 267.904 83.472C267.964 83.352 268.048 83.322 268.156 83.382L270.118 84.264C270.238 84.3 270.268 84.372 270.208 84.48C269.86 85.344 269.32 86.016 268.588 86.496C267.868 86.964 266.986 87.198 265.942 87.198C264.862 87.198 263.944 86.952 263.188 86.46C262.444 85.956 261.91 85.2 261.586 84.192ZM271.922 74.94C271.922 74.82 271.982 74.76 272.102 74.76H274.388C274.508 74.76 274.568 74.82 274.568 74.94V79.53C274.568 79.602 274.604 79.638 274.676 79.638H278.672C278.744 79.638 278.78 79.602 278.78 79.53V74.94C278.78 74.82 278.84 74.76 278.96 74.76H281.246C281.366 74.76 281.426 74.82 281.426 74.94V86.82C281.426 86.94 281.366 87 281.246 87H278.96C278.84 87 278.78 86.94 278.78 86.82V82.104C278.78 82.032 278.744 81.996 278.672 81.996H274.676C274.604 81.996 274.568 82.032 274.568 82.104V86.82C274.568 86.94 274.508 87 274.388 87H272.102C271.982 87 271.922 86.94 271.922 86.82V74.94ZM283.518 85.218C283.398 85.218 283.338 85.158 283.338 85.038V83.202C283.338 83.106 283.35 83.034 283.374 82.986L287.046 74.904C287.094 74.808 287.178 74.76 287.298 74.76H289.584C289.704 74.76 289.746 74.82 289.71 74.94L286.038 82.986V83.04H288.288C288.36 83.04 288.396 83.004 288.396 82.932V80.286C288.396 80.166 288.456 80.106 288.576 80.106H290.664C290.784 80.106 290.844 80.166 290.844 80.286V82.932C290.844 83.004 290.88 83.04 290.952 83.04H291.762C291.882 83.04 291.942 83.1 291.942 83.22V85.038C291.942 85.158 291.882 85.218 291.762 85.218H290.952C290.88 85.218 290.844 85.254 290.844 85.326V86.82C290.844 86.94 290.784 87 290.664 87H288.576C288.456 87 288.396 86.94 288.396 86.82V85.326C288.396 85.254 288.36 85.218 288.288 85.218H283.518Z" fill="white"/>
<path opacity="0.4" d="M254.16 98.3C254.16 98.2333 254.194 98.2 254.26 98.2H255.15C255.237 98.2 255.294 98.2333 255.32 98.3L257.19 102.49H257.23L259.07 98.3C259.097 98.2333 259.154 98.2 259.24 98.2H260.12C260.187 98.2 260.22 98.2333 260.22 98.3V104.9C260.22 104.967 260.187 105 260.12 105H259.25C259.184 105 259.15 104.967 259.15 104.9V100.74H259.11L257.67 103.94C257.63 104.027 257.567 104.07 257.48 104.07H256.9C256.814 104.07 256.75 104.027 256.71 103.94L255.27 100.74H255.23V104.9C255.23 104.967 255.197 105 255.13 105H254.26C254.194 105 254.16 104.967 254.16 104.9V98.3ZM262.119 98.3C262.119 98.2333 262.152 98.2 262.219 98.2H266.479C266.546 98.2 266.579 98.2333 266.579 98.3V99.16C266.579 99.2267 266.546 99.26 266.479 99.26H263.359C263.319 99.26 263.299 99.28 263.299 99.32V100.98C263.299 101.02 263.319 101.04 263.359 101.04H265.989C266.056 101.04 266.089 101.073 266.089 101.14V102C266.089 102.067 266.056 102.1 265.989 102.1H263.359C263.319 102.1 263.299 102.12 263.299 102.16V103.88C263.299 103.92 263.319 103.94 263.359 103.94H266.479C266.546 103.94 266.579 103.973 266.579 104.04V104.9C266.579 104.967 266.546 105 266.479 105H262.219C262.152 105 262.119 104.967 262.119 104.9V98.3ZM269.732 105C269.665 105 269.632 104.967 269.632 104.9V99.32C269.632 99.28 269.612 99.26 269.572 99.26H267.792C267.725 99.26 267.692 99.2267 267.692 99.16V98.3C267.692 98.2333 267.725 98.2 267.792 98.2H272.652C272.719 98.2 272.752 98.2333 272.752 98.3V99.16C272.752 99.2267 272.719 99.26 272.652 99.26H270.872C270.832 99.26 270.812 99.28 270.812 99.32V104.9C270.812 104.967 270.779 105 270.712 105H269.732ZM274.12 98.3C274.12 98.2333 274.153 98.2 274.22 98.2H275.2C275.267 98.2 275.3 98.2333 275.3 98.3V100.98C275.3 101.02 275.32 101.04 275.36 101.04H277.95C277.99 101.04 278.01 101.02 278.01 100.98V98.3C278.01 98.2333 278.043 98.2 278.11 98.2H279.09C279.157 98.2 279.19 98.2333 279.19 98.3V104.9C279.19 104.967 279.157 105 279.09 105H278.11C278.043 105 278.01 104.967 278.01 104.9V102.16C278.01 102.12 277.99 102.1 277.95 102.1H275.36C275.32 102.1 275.3 102.12 275.3 102.16V104.9C275.3 104.967 275.267 105 275.2 105H274.22C274.153 105 274.12 104.967 274.12 104.9V98.3ZM284.342 102.53L283.442 99.89H283.412L282.502 102.53H284.342ZM282.852 98.3C282.872 98.2333 282.916 98.2 282.982 98.2H283.902C283.969 98.2 284.012 98.2333 284.032 98.3L286.332 104.9C286.352 104.967 286.329 105 286.262 105H285.282C285.216 105 285.172 104.967 285.152 104.9L284.702 103.58H282.142L281.692 104.9C281.672 104.967 281.629 105 281.562 105H280.592C280.526 105 280.502 104.967 280.522 104.9L282.852 98.3ZM287.664 98.3C287.664 98.2333 287.698 98.2 287.764 98.2H288.684C288.758 98.2 288.814 98.2333 288.854 98.3L291.624 102.99H291.664V98.3C291.664 98.2333 291.698 98.2 291.764 98.2H292.634C292.701 98.2 292.734 98.2333 292.734 98.3V104.9C292.734 104.967 292.701 105 292.634 105H291.724C291.651 105 291.594 104.967 291.554 104.9L288.774 100.22H288.734V104.9C288.734 104.967 288.701 105 288.634 105H287.764C287.698 105 287.664 104.967 287.664 104.9V98.3ZM294.637 98.3C294.637 98.2333 294.67 98.2 294.737 98.2H298.997C299.063 98.2 299.097 98.2333 299.097 98.3V99.16C299.097 99.2267 299.063 99.26 298.997 99.26H295.877C295.837 99.26 295.817 99.28 295.817 99.32V100.98C295.817 101.02 295.837 101.04 295.877 101.04H298.507C298.573 101.04 298.607 101.073 298.607 101.14V102C298.607 102.067 298.573 102.1 298.507 102.1H295.877C295.837 102.1 295.817 102.12 295.817 102.16V103.88C295.817 103.92 295.837 103.94 295.877 103.94H298.997C299.063 103.94 299.097 103.973 299.097 104.04V104.9C299.097 104.967 299.063 105 298.997 105H294.737C294.67 105 294.637 104.967 294.637 104.9V98.3Z" fill="white"/>
<path d="M278.453 48.2871L278.452 48.2861L278.452 48.2861C278.108 47.6799 277.76 47.0623 277.76 46.0741C277.76 45.0859 278.108 44.4683 278.452 43.8621L278.456 43.8558C278.577 43.6432 278.701 43.4237 278.803 43.1944C278.964 42.8624 279.055 42.4897 279.055 42.0965C279.055 40.7096 277.93 39.5853 276.543 39.5853C275.156 39.5853 274.032 40.7097 274.032 42.0966C274.032 42.4859 274.121 42.8552 274.279 43.1847C274.382 43.4179 274.508 43.6408 274.631 43.8565L274.634 43.863C274.978 44.4692 275.326 45.0867 275.326 46.0749C275.326 47.0631 274.978 47.6807 274.634 48.2869L274.633 48.2889C274.565 48.4083 274.496 48.5297 274.432 48.6521C274.179 49.0441 274.032 49.5112 274.032 50.0117V50.0117L274.032 50.0173L274.032 50.0187L274.032 50.0236L274.032 50.0236C274.032 50.4129 274.121 50.7822 274.28 51.1117C274.382 51.3449 274.508 51.5678 274.631 51.7836L274.634 51.79C274.978 52.3962 275.326 53.0138 275.326 54.002C275.326 54.9902 274.978 55.6078 274.634 56.214L274.633 56.2159C274.565 56.3353 274.497 56.4567 274.432 56.5791C274.179 56.9711 274.032 57.4382 274.032 57.9387C274.032 59.3257 275.157 60.45 276.544 60.45C277.931 60.45 279.055 59.3256 279.055 57.9387C279.055 57.4374 278.908 56.9697 278.654 56.5774C278.59 56.4553 278.521 56.3342 278.454 56.2151L278.452 56.2131C278.108 55.6069 277.76 54.9894 277.761 54.0012C277.761 53.013 278.109 52.3954 278.453 51.7892L278.453 51.7892L278.454 51.7872L278.456 51.7828C278.577 51.5703 278.701 51.3507 278.803 51.1215C278.964 50.7895 279.055 50.4167 279.055 50.0236L278.768 50.0236H279.055L279.055 50.0181V50.0167L279.055 50.0116C279.055 49.5104 278.908 49.0427 278.654 48.6503C278.59 48.5284 278.521 48.4073 278.454 48.2883L278.453 48.2871L278.453 48.2871Z" fill="white" stroke="white" stroke-width="0.572734"/>
<mask id="path-10-outside-1_1876_1214" maskUnits="userSpaceOnUse" x="263.814" y="37.0447" width="25.4562" height="25.4555" fill="black">
<rect fill="white" x="263.814" y="37.0447" width="25.4562" height="25.4555"/>
<path fill-rule="evenodd" clip-rule="evenodd" d="M284.463 52.2434C285.692 52.2434 286.688 51.2472 286.688 50.0184C286.688 48.7897 285.692 47.7935 284.463 47.7936C284.113 47.7936 283.781 47.8747 283.486 48.0191C283.268 48.115 283.058 48.2345 282.839 48.3586L282.839 48.3586C282.228 48.7055 281.554 49.0879 280.486 49.0879C279.417 49.0879 278.744 48.7056 278.132 48.3587L278.132 48.3586C278.008 48.2881 277.886 48.219 277.764 48.1549C277.415 47.9263 276.997 47.7934 276.548 47.7934C276.546 47.7934 276.544 47.7934 276.542 47.7935C276.54 47.7934 276.538 47.7934 276.536 47.7934C276.185 47.7935 275.854 47.8746 275.559 48.019C275.341 48.1149 275.13 48.2344 274.912 48.3585C274.3 48.7054 273.626 49.0877 272.558 49.0878C271.49 49.0878 270.816 48.7055 270.205 48.3586C270.081 48.288 269.959 48.2189 269.837 48.1548C269.487 47.9262 269.07 47.7933 268.621 47.7933C267.392 47.7933 266.396 48.7895 266.396 50.0183C266.396 51.2471 267.392 52.2432 268.621 52.2432C269.069 52.2432 269.486 52.1106 269.835 51.8826C269.958 51.8184 270.08 51.7492 270.204 51.6785C270.815 51.3316 271.489 50.9492 272.557 50.9492C273.626 50.9492 274.299 51.3315 274.911 51.6784C275.133 51.8043 275.346 51.9255 275.567 52.0221C275.86 52.1638 276.189 52.2433 276.536 52.2433C276.538 52.2433 276.54 52.2433 276.542 52.2433C276.544 52.2433 276.546 52.2433 276.548 52.2433C276.996 52.2433 277.413 52.1107 277.763 51.8827C277.885 51.8185 278.007 51.7493 278.131 51.6786C278.743 51.3317 279.417 50.9493 280.485 50.9493C281.553 50.9493 282.227 51.3316 282.838 51.6785C283.06 51.8044 283.274 51.9256 283.495 52.0222C283.788 52.1639 284.116 52.2434 284.463 52.2434Z"/>
</mask>
<path fill-rule="evenodd" clip-rule="evenodd" d="M284.463 52.2434C285.692 52.2434 286.688 51.2472 286.688 50.0184C286.688 48.7897 285.692 47.7935 284.463 47.7936C284.113 47.7936 283.781 47.8747 283.486 48.0191C283.268 48.115 283.058 48.2345 282.839 48.3586L282.839 48.3586C282.228 48.7055 281.554 49.0879 280.486 49.0879C279.417 49.0879 278.744 48.7056 278.132 48.3587L278.132 48.3586C278.008 48.2881 277.886 48.219 277.764 48.1549C277.415 47.9263 276.997 47.7934 276.548 47.7934C276.546 47.7934 276.544 47.7934 276.542 47.7935C276.54 47.7934 276.538 47.7934 276.536 47.7934C276.185 47.7935 275.854 47.8746 275.559 48.019C275.341 48.1149 275.13 48.2344 274.912 48.3585C274.3 48.7054 273.626 49.0877 272.558 49.0878C271.49 49.0878 270.816 48.7055 270.205 48.3586C270.081 48.288 269.959 48.2189 269.837 48.1548C269.487 47.9262 269.07 47.7933 268.621 47.7933C267.392 47.7933 266.396 48.7895 266.396 50.0183C266.396 51.2471 267.392 52.2432 268.621 52.2432C269.069 52.2432 269.486 52.1106 269.835 51.8826C269.958 51.8184 270.08 51.7492 270.204 51.6785C270.815 51.3316 271.489 50.9492 272.557 50.9492C273.626 50.9492 274.299 51.3315 274.911 51.6784C275.133 51.8043 275.346 51.9255 275.567 52.0221C275.86 52.1638 276.189 52.2433 276.536 52.2433C276.538 52.2433 276.54 52.2433 276.542 52.2433C276.544 52.2433 276.546 52.2433 276.548 52.2433C276.996 52.2433 277.413 52.1107 277.763 51.8827C277.885 51.8185 278.007 51.7493 278.131 51.6786C278.743 51.3317 279.417 50.9493 280.485 50.9493C281.553 50.9493 282.227 51.3316 282.838 51.6785C283.06 51.8044 283.274 51.9256 283.495 52.0222C283.788 52.1639 284.116 52.2434 284.463 52.2434Z" fill="white"/>
<path d="M286.688 50.0184L286.115 50.0184L286.115 50.0184L286.688 50.0184ZM284.463 52.2434L284.463 51.6707L284.463 51.6707L284.463 52.2434ZM284.463 47.7936L284.463 47.2208L284.463 47.2208L284.463 47.7936ZM283.486 48.0191L283.738 48.5335L283.727 48.5386L283.717 48.5433L283.486 48.0191ZM282.839 48.3586L283.122 48.8568L283.11 48.8628L282.839 48.3586ZM282.839 48.3586L282.556 47.8604L282.567 47.8543L282.839 48.3586ZM278.132 48.3587L278.413 47.8597L278.415 47.8606L278.132 48.3587ZM278.132 48.3586L277.851 48.8576L277.85 48.8568L278.132 48.3586ZM277.764 48.1549L277.498 48.6619L277.474 48.6492L277.451 48.6343L277.764 48.1549ZM276.548 47.7934L276.548 48.3662L276.548 48.3662L276.548 47.7934ZM276.542 47.7935L276.544 48.3662L276.541 48.3662L276.542 47.7935ZM276.536 47.7934L276.536 47.2207L276.536 47.2207V47.7934ZM275.559 48.019L275.811 48.5334L275.8 48.5385L275.789 48.5432L275.559 48.019ZM274.912 48.3585L274.629 47.8604L274.912 48.3585ZM272.558 49.0878L272.558 49.6605L272.558 49.0878ZM270.205 48.3586L270.488 47.8604L270.205 48.3586ZM269.837 48.1548L269.57 48.6618L269.546 48.6491L269.523 48.6341L269.837 48.1548ZM268.621 47.7933L268.621 47.2206L268.621 47.7933ZM266.396 50.0183L265.823 50.0183L265.823 50.0183L266.396 50.0183ZM268.621 52.2432L268.621 52.8159L268.621 52.8159L268.621 52.2432ZM269.835 51.8826L269.522 51.403L269.545 51.3882L269.569 51.3756L269.835 51.8826ZM270.204 51.6785L269.921 51.1804L269.921 51.1804L270.204 51.6785ZM274.911 51.6784L275.193 51.1803L275.193 51.1803L274.911 51.6784ZM275.567 52.0221L275.797 51.4972L275.807 51.5017L275.817 51.5066L275.567 52.0221ZM276.536 52.2433L276.536 51.6706H276.536L276.536 52.2433ZM276.542 52.2433L276.54 51.6705L276.543 51.6706L276.542 52.2433ZM276.548 52.2433L276.548 52.816L276.548 52.816V52.2433ZM277.763 51.8827L277.449 51.4032L277.472 51.3883L277.496 51.3757L277.763 51.8827ZM278.131 51.6786L278.414 52.1767L278.414 52.1767L278.131 51.6786ZM280.485 50.9493L280.485 50.3766L280.485 50.3766L280.485 50.9493ZM282.838 51.6785L282.555 52.1766L282.555 52.1766L282.838 51.6785ZM283.495 52.0222L283.724 51.4973L283.734 51.5018L283.744 51.5067L283.495 52.0222ZM287.261 50.0184C287.261 51.5635 286.008 52.8161 284.463 52.8161L284.463 51.6707C285.376 51.6707 286.115 50.9309 286.115 50.0184L287.261 50.0184ZM284.463 47.2208C286.008 47.2208 287.261 48.4733 287.261 50.0184L286.115 50.0184C286.116 49.106 285.376 48.3663 284.463 48.3663L284.463 47.2208ZM283.234 47.5048C283.606 47.3228 284.023 47.2208 284.463 47.2208L284.463 48.3663C284.202 48.3663 283.956 48.4266 283.738 48.5335L283.234 47.5048ZM282.556 47.8605C282.77 47.7392 283.006 47.6046 283.255 47.495L283.717 48.5433C283.53 48.6254 283.345 48.7299 283.122 48.8567L282.556 47.8605ZM282.567 47.8543L282.567 47.8543L283.11 48.8628L283.11 48.8629L282.567 47.8543ZM280.486 48.5152C281.394 48.5151 281.955 48.2015 282.556 47.8605L283.122 48.8567C282.5 49.2095 281.714 49.6606 280.486 49.6606L280.486 48.5152ZM278.415 47.8606C279.016 48.2016 279.577 48.5152 280.486 48.5152L280.486 49.6606C279.257 49.6606 278.471 49.2096 277.85 48.8568L278.415 47.8606ZM278.413 47.8597L278.413 47.8597L277.851 48.8576L277.851 48.8576L278.413 47.8597ZM278.031 47.648C278.162 47.7171 278.292 47.7908 278.415 47.8605L277.85 48.8568C277.724 48.7854 277.61 48.721 277.498 48.6619L278.031 47.648ZM276.548 47.2207C277.111 47.2207 277.638 47.3879 278.078 47.6756L277.451 48.6343C277.191 48.4647 276.882 48.3662 276.548 48.3662L276.548 47.2207ZM276.541 47.2207C276.543 47.2207 276.545 47.2207 276.548 47.2207L276.548 48.3662C276.547 48.3662 276.545 48.3662 276.544 48.3662L276.541 47.2207ZM276.536 47.2207C276.539 47.2207 276.541 47.2207 276.544 47.2207L276.541 48.3662C276.539 48.3662 276.538 48.3662 276.536 48.3662V47.2207ZM275.307 47.5047C275.679 47.3226 276.096 47.2207 276.536 47.2207L276.536 48.3662C276.275 48.3662 276.029 48.4265 275.811 48.5334L275.307 47.5047ZM274.629 47.8604C274.843 47.739 275.079 47.6045 275.328 47.4948L275.789 48.5432C275.603 48.6253 275.418 48.7298 275.194 48.8566L274.629 47.8604ZM272.558 48.515C273.467 48.515 274.028 48.2014 274.629 47.8604L275.194 48.8566C274.573 49.2094 273.786 49.6605 272.558 49.6605L272.558 48.515ZM270.488 47.8604C271.089 48.2015 271.65 48.515 272.558 48.515L272.558 49.6605C271.33 49.6605 270.544 49.2095 269.922 48.8567L270.488 47.8604ZM270.103 47.6479C270.235 47.717 270.365 47.7907 270.488 47.8604L269.922 48.8567C269.796 48.7853 269.683 48.7209 269.57 48.6618L270.103 47.6479ZM268.621 47.2206C269.184 47.2206 269.71 47.3878 270.15 47.6755L269.523 48.6341C269.264 48.4646 268.955 48.366 268.621 48.3661L268.621 47.2206ZM265.823 50.0183C265.823 48.4732 267.076 47.2206 268.621 47.2206L268.621 48.3661C267.708 48.3661 266.968 49.1058 266.968 50.0183L265.823 50.0183ZM268.621 52.8159C267.075 52.8159 265.823 51.5634 265.823 50.0183L266.968 50.0183C266.968 50.9308 267.708 51.6705 268.621 51.6704L268.621 52.8159ZM270.148 52.3622C269.709 52.6491 269.183 52.8159 268.621 52.8159L268.621 51.6704C268.954 51.6704 269.263 51.5721 269.522 51.403L270.148 52.3622ZM270.487 52.1766C270.364 52.2464 270.234 52.3203 270.102 52.3896L269.569 51.3756C269.681 51.3165 269.795 51.2519 269.921 51.1804L270.487 52.1766ZM272.557 51.5219C271.649 51.5219 271.088 51.8355 270.487 52.1766L269.921 51.1804C270.543 50.8276 271.329 50.3765 272.557 50.3765L272.557 51.5219ZM274.628 52.1765C274.027 51.8355 273.466 51.5219 272.557 51.5219L272.557 50.3765C273.786 50.3764 274.572 50.8275 275.193 51.1803L274.628 52.1765ZM275.338 52.5469C275.085 52.4363 274.845 52.2996 274.628 52.1765L275.193 51.1803C275.42 51.309 275.608 51.4147 275.797 51.4972L275.338 52.5469ZM276.536 52.816C276.101 52.816 275.687 52.7161 275.318 52.5375L275.817 51.5066C276.034 51.6115 276.277 51.6706 276.536 51.6706L276.536 52.816ZM276.543 52.816C276.541 52.816 276.538 52.816 276.536 52.816L276.536 51.6706C276.537 51.6706 276.539 51.6706 276.54 51.6706L276.543 52.816ZM276.548 52.816C276.545 52.816 276.543 52.816 276.54 52.816L276.543 51.6706C276.545 51.6706 276.546 51.6706 276.548 51.6706V52.816ZM278.076 52.3623C277.636 52.6492 277.111 52.816 276.548 52.816L276.548 51.6706C276.882 51.6706 277.191 51.5722 277.449 51.4032L278.076 52.3623ZM278.414 52.1767C278.291 52.2466 278.161 52.3205 278.029 52.3897L277.496 51.3757C277.609 51.3166 277.723 51.252 277.849 51.1805L278.414 52.1767ZM280.485 51.522C279.576 51.5221 279.015 51.8357 278.414 52.1767L277.849 51.1805C278.47 50.8277 279.257 50.3766 280.485 50.3766L280.485 51.522ZM282.555 52.1766C281.954 51.8356 281.393 51.522 280.485 51.522L280.485 50.3766C281.713 50.3766 282.499 50.8276 283.121 51.1804L282.555 52.1766ZM283.266 52.5471C283.012 52.4364 282.772 52.2997 282.555 52.1766L283.121 51.1804C283.348 51.3091 283.535 51.4148 283.724 51.4973L283.266 52.5471ZM284.463 52.8161C284.028 52.8161 283.614 52.7163 283.245 52.5377L283.744 51.5067C283.961 51.6116 284.204 51.6707 284.463 51.6707L284.463 52.8161Z" fill="white" mask="url(#path-10-outside-1_1876_1214)"/>
<mask id="path-12-outside-2_1876_1214" maskUnits="userSpaceOnUse" x="261.589" y="35.1704" width="29.6989" height="29.6981" fill="black">
<rect fill="white" x="261.589" y="35.1704" width="29.6989" height="29.6981"/>
<path fill-rule="evenodd" clip-rule="evenodd" d="M274.559 48.4301C274.906 47.8187 275.289 47.1449 275.289 46.0767C275.289 45.0086 274.906 44.3348 274.559 43.7234C274.434 43.5016 274.312 43.288 274.216 43.0668C274.074 42.774 273.995 42.4455 273.995 42.0984C273.995 40.8696 274.991 39.8734 276.22 39.8734C277.448 39.8734 278.445 40.8695 278.445 42.0983C278.445 42.4489 278.363 42.7806 278.219 43.0756C278.123 43.2934 278.004 43.504 277.88 43.7226C277.533 44.334 277.15 45.0077 277.15 46.0759C277.15 47.1441 277.533 47.8179 277.879 48.4292L277.879 48.4293L277.88 48.4293C277.95 48.5536 278.019 48.6753 278.083 48.7973C278.312 49.1468 278.445 49.5646 278.445 50.0135L278.445 50.0192L278.445 50.0254C278.445 50.376 278.364 50.7077 278.219 51.0027C278.123 51.2205 278.004 51.4311 277.88 51.6496L277.88 51.6497L277.88 51.6497C277.533 52.2611 277.15 52.9349 277.15 54.003C277.15 55.0712 277.533 55.745 277.88 56.3563C277.95 56.4807 278.019 56.6024 278.083 56.7244C278.312 57.0739 278.445 57.4917 278.445 57.9406C278.445 59.1694 277.449 60.1655 276.22 60.1656C274.991 60.1656 273.995 59.1695 273.995 57.9407C273.995 57.4925 274.127 57.0752 274.355 56.726C274.42 56.6038 274.489 56.4818 274.56 56.3572C274.906 55.7458 275.289 55.072 275.289 54.0039C275.289 52.9357 274.907 52.2619 274.56 51.6506C274.434 51.4287 274.313 51.2151 274.216 50.9939C274.074 50.7011 273.995 50.3726 273.995 50.0255L273.995 50.0198L273.995 50.0135C273.995 49.5653 274.127 49.1481 274.355 48.7988C274.419 48.6766 274.489 48.5546 274.559 48.4301ZM273.042 48.0337C273.108 47.9104 273.175 47.7918 273.233 47.6891L273.238 47.6804C273.57 47.0965 273.77 46.7207 273.77 46.0767C273.77 46.0092 273.767 45.9446 273.763 45.8824C273.705 45.0454 273.83 44.1375 274.559 43.7234L273.262 44.4595C273.249 44.467 273.232 44.4624 273.225 44.4492C273.111 44.2492 272.962 43.986 272.835 43.7009C272.604 43.2133 272.476 42.6688 272.476 42.0983C272.476 40.0306 274.152 38.3544 276.22 38.3544C278.287 38.3543 279.964 40.0306 279.964 42.0983C279.964 42.6742 279.833 43.2237 279.597 43.7148C279.472 43.9939 279.326 44.252 279.214 44.4489C279.207 44.4618 279.19 44.4663 279.177 44.459L277.88 43.7226C278.609 44.1366 278.734 45.0446 278.676 45.8815C278.671 45.9437 278.669 46.0084 278.669 46.0759C278.669 46.7199 278.869 47.0957 279.201 47.6796L279.201 47.6796L279.204 47.6855L279.204 47.6857L279.206 47.6883C279.264 47.7906 279.331 47.9087 279.397 48.0316M279.962 50.013C279.963 50.0133 279.964 50.0142 279.964 50.0152L279.964 50.023L279.964 50.0254L279.964 50.0254C279.964 50.6014 279.833 51.1508 279.597 51.6419C279.472 51.9209 279.326 52.1791 279.214 52.376C279.211 52.3817 279.208 52.3874 279.204 52.393C279.203 52.3952 279.202 52.3973 279.201 52.3993L279.201 52.3994C278.869 52.9833 278.669 53.3591 278.669 54.0031C278.669 54.647 278.869 55.0228 279.201 55.6067L279.206 55.6154C279.264 55.7177 279.331 55.8358 279.397 55.9587C279.756 56.5343 279.964 57.2153 279.964 57.9406C279.964 60.0083 278.288 61.6845 276.22 61.6846C274.152 61.6846 272.476 60.0084 272.476 57.9406C272.476 57.2163 272.683 56.536 273.042 55.9608C273.108 55.8375 273.175 55.7189 273.233 55.6162L273.238 55.6075C273.57 55.0236 273.77 54.6478 273.77 54.0038C273.77 53.3598 273.57 52.9841 273.238 52.4002C273.234 52.3924 273.229 52.3844 273.225 52.3764C273.111 52.1764 272.962 51.9131 272.835 51.628C272.604 51.1404 272.476 50.5959 272.476 50.0255L272.476 50.0252L272.476 50.0199L272.476 50.0135V50.0135C272.476 49.2891 272.683 48.6088 273.042 48.0337"/>
</mask>
<path fill-rule="evenodd" clip-rule="evenodd" d="M274.559 48.4301C274.906 47.8187 275.289 47.1449 275.289 46.0767C275.289 45.0086 274.906 44.3348 274.559 43.7234C274.434 43.5016 274.312 43.288 274.216 43.0668C274.074 42.774 273.995 42.4455 273.995 42.0984C273.995 40.8696 274.991 39.8734 276.22 39.8734C277.448 39.8734 278.445 40.8695 278.445 42.0983C278.445 42.4489 278.363 42.7806 278.219 43.0756C278.123 43.2934 278.004 43.504 277.88 43.7226C277.533 44.334 277.15 45.0077 277.15 46.0759C277.15 47.1441 277.533 47.8179 277.879 48.4292L277.879 48.4293L277.88 48.4293C277.95 48.5536 278.019 48.6753 278.083 48.7973C278.312 49.1468 278.445 49.5646 278.445 50.0135L278.445 50.0192L278.445 50.0254C278.445 50.376 278.364 50.7077 278.219 51.0027C278.123 51.2205 278.004 51.4311 277.88 51.6496L277.88 51.6497L277.88 51.6497C277.533 52.2611 277.15 52.9349 277.15 54.003C277.15 55.0712 277.533 55.745 277.88 56.3563C277.95 56.4807 278.019 56.6024 278.083 56.7244C278.312 57.0739 278.445 57.4917 278.445 57.9406C278.445 59.1694 277.449 60.1655 276.22 60.1656C274.991 60.1656 273.995 59.1695 273.995 57.9407C273.995 57.4925 274.127 57.0752 274.355 56.726C274.42 56.6038 274.489 56.4818 274.56 56.3572C274.906 55.7458 275.289 55.072 275.289 54.0039C275.289 52.9357 274.907 52.2619 274.56 51.6506C274.434 51.4287 274.313 51.2151 274.216 50.9939C274.074 50.7011 273.995 50.3726 273.995 50.0255L273.995 50.0198L273.995 50.0135C273.995 49.5653 274.127 49.1481 274.355 48.7988C274.419 48.6766 274.489 48.5546 274.559 48.4301ZM273.042 48.0337C273.108 47.9104 273.175 47.7918 273.233 47.6891L273.238 47.6804C273.57 47.0965 273.77 46.7207 273.77 46.0767C273.77 46.0092 273.767 45.9446 273.763 45.8824C273.705 45.0454 273.83 44.1375 274.559 43.7234L273.262 44.4595C273.249 44.467 273.232 44.4624 273.225 44.4492C273.111 44.2492 272.962 43.986 272.835 43.7009C272.604 43.2133 272.476 42.6688 272.476 42.0983C272.476 40.0306 274.152 38.3544 276.22 38.3544C278.287 38.3543 279.964 40.0306 279.964 42.0983C279.964 42.6742 279.833 43.2237 279.597 43.7148C279.472 43.9939 279.326 44.252 279.214 44.4489C279.207 44.4618 279.19 44.4663 279.177 44.459L277.88 43.7226C278.609 44.1366 278.734 45.0446 278.676 45.8815C278.671 45.9437 278.669 46.0084 278.669 46.0759C278.669 46.7199 278.869 47.0957 279.201 47.6796L279.201 47.6796L279.204 47.6855L279.204 47.6857L279.206 47.6883C279.264 47.7906 279.331 47.9087 279.397 48.0316M279.962 50.013C279.963 50.0133 279.964 50.0142 279.964 50.0152L279.964 50.023L279.964 50.0254L279.964 50.0254C279.964 50.6014 279.833 51.1508 279.597 51.6419C279.472 51.9209 279.326 52.1791 279.214 52.376C279.211 52.3817 279.208 52.3874 279.204 52.393C279.203 52.3952 279.202 52.3973 279.201 52.3993L279.201 52.3994C278.869 52.9833 278.669 53.3591 278.669 54.0031C278.669 54.647 278.869 55.0228 279.201 55.6067L279.206 55.6154C279.264 55.7177 279.331 55.8358 279.397 55.9587C279.756 56.5343 279.964 57.2153 279.964 57.9406C279.964 60.0083 278.288 61.6845 276.22 61.6846C274.152 61.6846 272.476 60.0084 272.476 57.9406C272.476 57.2163 272.683 56.536 273.042 55.9608C273.108 55.8375 273.175 55.7189 273.233 55.6162L273.238 55.6075C273.57 55.0236 273.77 54.6478 273.77 54.0038C273.77 53.3598 273.57 52.9841 273.238 52.4002C273.234 52.3924 273.229 52.3844 273.225 52.3764C273.111 52.1764 272.962 51.9131 272.835 51.628C272.604 51.1404 272.476 50.5959 272.476 50.0255L272.476 50.0252L272.476 50.0199L272.476 50.0135V50.0135C272.476 49.2891 272.683 48.6088 273.042 48.0337" fill="white"/>
<path d="M277.956 49.4391L278.034 49.1638L277.956 49.4391ZM278.034 49.1638L273.12 47.7584L272.963 48.309L277.877 49.7145L278.034 49.1638ZM272.963 48.309L279.883 50.2883L280.041 49.7377L273.12 47.7584L272.963 48.309ZM279.154 48.1833C279.26 48.354 279.283 48.5022 279.264 48.6224C279.245 48.745 279.179 48.8635 279.068 48.9645C278.843 49.1699 278.449 49.2823 278.034 49.1638L277.877 49.7145C278.469 49.8837 279.072 49.7362 279.454 49.3877C279.647 49.2118 279.788 48.9799 279.83 48.7104C279.872 48.4386 279.81 48.1529 279.639 47.8799L279.154 48.1833ZM274.559 48.4301L275.058 48.7127L275.058 48.7127L274.559 48.4301ZM275.289 46.0767L275.861 46.0768L275.289 46.0767ZM274.216 43.0668L274.741 42.8376L274.736 42.8273L274.731 42.8172L274.216 43.0668ZM273.995 42.0984L274.567 42.0984L274.567 42.0984L273.995 42.0984ZM278.445 42.0983L279.017 42.0983L279.017 42.0983L278.445 42.0983ZM278.219 43.0756L277.705 42.8237L277.7 42.8341L277.695 42.8448L278.219 43.0756ZM277.879 48.4292L278.381 48.1523L278.378 48.1466L277.879 48.4292ZM277.879 48.4293L277.378 48.7062L277.383 48.7148L277.879 48.4293ZM277.88 48.4293L278.378 48.1467L278.376 48.1438L277.88 48.4293ZM278.083 48.7973L277.576 49.0637L277.589 49.0879L277.604 49.1107L278.083 48.7973ZM278.445 50.0135L279.017 50.0142V50.0135L278.445 50.0135ZM278.445 50.0192L277.872 50.0185L277.872 50.02L278.445 50.0192ZM278.445 50.0254L279.017 50.0254L279.017 50.0246L278.445 50.0254ZM278.219 51.0027L277.705 50.7508L277.7 50.7612L277.695 50.7719L278.219 51.0027ZM277.88 51.6496L278.371 51.9444L278.378 51.9323L277.88 51.6496ZM277.88 51.6497L277.389 51.355L277.382 51.3664L277.375 51.3781L277.88 51.6497ZM277.88 51.6497L278.378 51.9324L278.384 51.9212L277.88 51.6497ZM277.15 54.003L276.578 54.003L276.578 54.003L277.15 54.003ZM277.88 56.3563L277.381 56.639L277.381 56.639L277.88 56.3563ZM278.083 56.7244L277.576 56.9909L277.589 57.015L277.604 57.0379L278.083 56.7244ZM278.445 57.9406L279.018 57.9406L278.445 57.9406ZM276.22 60.1656L276.22 59.5928L276.22 59.5928L276.22 60.1656ZM273.995 57.9407L274.568 57.9407L274.568 57.9407L273.995 57.9407ZM274.355 56.726L274.835 57.0391L274.85 57.0164L274.862 56.9924L274.355 56.726ZM274.56 56.3572L275.058 56.6399L275.058 56.6399L274.56 56.3572ZM275.289 54.0039L275.862 54.0039L275.862 54.0039L275.289 54.0039ZM274.56 51.6506L275.058 51.3679L275.058 51.3679L274.56 51.6506ZM274.216 50.9939L274.741 50.7647L274.736 50.7544L274.731 50.7443L274.216 50.9939ZM273.995 50.0255L273.422 50.0248V50.0255L273.995 50.0255ZM273.995 50.0198L274.567 50.0205L274.567 50.019L273.995 50.0198ZM273.995 50.0135L273.422 50.0135L273.422 50.0143L273.995 50.0135ZM274.355 48.7988L274.835 49.1119L274.85 49.0892L274.862 49.0653L274.355 48.7988ZM273.233 47.6891L273.731 47.9718L273.731 47.9717L273.233 47.6891ZM273.042 48.0337L273.528 48.3368L273.538 48.3208L273.546 48.3042L273.042 48.0337ZM273.238 47.6804L272.74 47.3977L272.74 47.3977L273.238 47.6804ZM273.77 46.0767L274.342 46.0767L274.342 46.0767L273.77 46.0767ZM272.835 43.7009L273.359 43.4686L273.356 43.462L273.353 43.4556L272.835 43.7009ZM272.476 42.0983L273.048 42.0983L273.048 42.0983L272.476 42.0983ZM276.22 38.3544L276.22 37.7816L276.22 37.7816L276.22 38.3544ZM279.964 42.0983L280.536 42.0983L280.536 42.0983L279.964 42.0983ZM279.597 43.7148L279.081 43.4673L279.077 43.474L279.074 43.4808L279.597 43.7148ZM278.669 46.0759L278.097 46.0759L278.669 46.0759ZM279.201 47.6796L279.706 47.4088L279.699 47.3969L279.201 47.6796ZM279.201 47.6796L278.696 47.9503L278.703 47.9623L279.201 47.6796ZM279.204 47.6855L279.705 47.4081L279.702 47.4028L279.204 47.6855ZM279.204 47.6857L278.703 47.9631L278.706 47.9683L279.204 47.6857ZM279.206 47.6883L278.707 47.971L278.707 47.971L279.206 47.6883ZM279.964 50.023H279.391L279.391 50.0263L279.964 50.023ZM279.964 50.0254L280.536 50.0387L280.537 50.0304L280.536 50.0221L279.964 50.0254ZM279.964 50.0254L279.391 50.0121V50.0254L279.964 50.0254ZM279.597 51.6419L279.081 51.3945L279.078 51.4012L279.075 51.408L279.597 51.6419ZM279.214 52.376L279.712 52.6588L279.712 52.6588L279.214 52.376ZM279.204 52.393L279.702 52.6758L279.703 52.6757L279.204 52.393ZM279.201 52.3993L278.703 52.1167L278.702 52.1186L279.201 52.3993ZM279.201 52.3994L279.699 52.6821L279.7 52.6802L279.201 52.3994ZM278.669 54.0031L279.242 54.0031L279.242 54.0031L278.669 54.0031ZM279.201 55.6067L278.703 55.8893L278.703 55.8893L279.201 55.6067ZM279.206 55.6154L279.704 55.3327L279.704 55.3327L279.206 55.6154ZM279.397 55.9587L278.892 56.2293L278.901 56.246L278.911 56.2621L279.397 55.9587ZM279.964 57.9406L279.391 57.9406L279.964 57.9406ZM276.22 61.6846L276.22 61.1118L276.22 61.1118L276.22 61.6846ZM272.476 57.9406L273.049 57.9406L273.049 57.9406L272.476 57.9406ZM273.042 55.9608L273.528 56.2639L273.538 56.2479L273.547 56.2313L273.042 55.9608ZM273.233 55.6162L273.732 55.8989L273.732 55.8989L273.233 55.6162ZM273.238 55.6075L273.736 55.8902L273.736 55.8902L273.238 55.6075ZM273.77 54.0038L274.343 54.0038L274.343 54.0038L273.77 54.0038ZM273.238 52.4002L273.737 52.1176L273.737 52.1176L273.238 52.4002ZM273.225 52.3764L272.727 52.6591L272.727 52.6591L273.225 52.3764ZM272.835 51.628L273.359 51.3957L273.356 51.3892L273.353 51.3827L272.835 51.628ZM272.476 50.0255L273.048 50.0255V50.0255H272.476ZM272.476 50.0252L271.903 50.0245V50.0252H272.476ZM272.476 50.0199L273.048 50.0206L273.048 50.0191L272.476 50.0199ZM272.476 50.0135L271.903 50.0065L271.903 50.0143L272.476 50.0135ZM272.476 50.0135L273.048 50.0206L273.048 50.0135L272.476 50.0135ZM279.964 50.0152L279.391 50.0111L279.391 50.0152H279.964ZM279.214 44.4489L278.716 44.1662L278.716 44.1662L279.214 44.4489ZM279.177 44.459L278.895 44.9571L279.177 44.459ZM273.262 44.4595L272.98 43.9614L273.262 44.4595ZM273.225 44.4492L273.723 44.1665L273.723 44.1665L273.225 44.4492ZM273.763 45.8824L273.192 45.9221L273.763 45.8824ZM275.058 48.7127C275.41 48.091 275.861 47.3049 275.861 46.0768L274.716 46.0767C274.716 46.985 274.402 47.5464 274.061 48.1474L275.058 48.7127ZM275.861 46.0768C275.861 44.8486 275.41 44.0625 275.058 43.4408L274.061 44.0061C274.402 44.6071 274.716 45.1685 274.716 46.0767L275.861 46.0768ZM275.058 43.4408C274.929 43.214 274.823 43.0266 274.741 42.8376L273.691 43.2959C273.802 43.5494 273.938 43.7892 274.061 44.0061L275.058 43.4408ZM274.731 42.8172C274.626 42.6005 274.567 42.3572 274.567 42.0984L273.422 42.0984C273.422 42.5338 273.522 42.9475 273.7 43.3164L274.731 42.8172ZM274.567 42.0984C274.567 41.1859 275.307 40.4461 276.22 40.4461L276.22 39.3006C274.674 39.3007 273.422 40.5532 273.422 42.0984L274.567 42.0984ZM276.22 40.4461C277.132 40.4461 277.872 41.1858 277.872 42.0983L279.017 42.0983C279.017 40.5532 277.765 39.3006 276.22 39.3006L276.22 40.4461ZM277.872 42.0983C277.872 42.3597 277.812 42.6054 277.705 42.8237L278.733 43.3274C278.915 42.9558 279.017 42.5381 279.017 42.0983L277.872 42.0983ZM277.695 42.8448C277.613 43.0313 277.508 43.2165 277.381 43.4399L278.378 44.0052C278.499 43.7915 278.634 43.5554 278.743 43.3063L277.695 42.8448ZM277.381 43.4399C277.029 44.0616 276.577 44.8478 276.577 46.0759L277.723 46.0759C277.723 45.1677 278.037 44.6063 278.378 44.0052L277.381 43.4399ZM276.577 46.0759C276.577 47.304 277.029 48.0902 277.381 48.7119L278.378 48.1466C278.037 47.5456 277.723 46.9842 277.723 46.0759L276.577 46.0759ZM277.378 48.7061L277.378 48.7061L278.381 48.1524L278.381 48.1523L277.378 48.7061ZM277.383 48.7148L277.383 48.7149L278.376 48.1438L278.376 48.1437L277.383 48.7148ZM277.381 48.712C277.453 48.8378 277.517 48.9514 277.576 49.0637L278.59 48.5308C278.521 48.3993 278.447 48.2695 278.378 48.1467L277.381 48.712ZM277.604 49.1107C277.773 49.3699 277.872 49.6793 277.872 50.0134L279.017 50.0135C279.017 49.4499 278.85 48.9237 278.563 48.4838L277.604 49.1107ZM277.872 50.0127L277.872 50.0185L279.017 50.02L279.017 50.0142L277.872 50.0127ZM277.872 50.02L277.872 50.0262L279.017 50.0246L279.017 50.0185L277.872 50.02ZM277.872 50.0254C277.872 50.2868 277.812 50.5325 277.705 50.7508L278.734 51.2546C278.916 50.8829 279.017 50.4652 279.017 50.0254L277.872 50.0254ZM277.695 50.7719C277.613 50.9585 277.508 51.1436 277.382 51.367L278.378 51.9323C278.499 51.7185 278.634 51.4825 278.743 51.2334L277.695 50.7719ZM277.389 51.355L277.389 51.355L278.371 51.9443L278.371 51.9443L277.389 51.355ZM277.375 51.3781L277.375 51.3782L278.384 51.9212L278.384 51.9212L277.375 51.3781ZM277.382 51.367C277.029 51.9888 276.578 52.7749 276.578 54.003L277.723 54.003C277.723 53.0948 278.037 52.5334 278.378 51.9324L277.382 51.367ZM276.578 54.003C276.578 55.2311 277.029 56.0173 277.381 56.639L278.378 56.0737C278.037 55.4727 277.723 54.9113 277.723 54.003L276.578 54.003ZM277.381 56.639C277.453 56.7648 277.517 56.8785 277.576 56.9909L278.59 56.4579C278.521 56.3264 278.447 56.1965 278.378 56.0737L277.381 56.639ZM277.604 57.0379C277.773 57.2971 277.872 57.6064 277.872 57.9406L279.018 57.9406C279.018 57.377 278.85 56.8508 278.563 56.4109L277.604 57.0379ZM277.872 57.9406C277.872 58.8531 277.132 59.5928 276.22 59.5928L276.22 60.7383C277.765 60.7383 279.018 59.4857 279.018 57.9406L277.872 57.9406ZM276.22 59.5928C275.307 59.5928 274.568 58.8532 274.568 57.9407L273.422 57.9406C273.422 59.4858 274.675 60.7383 276.22 60.7383L276.22 59.5928ZM274.568 57.9407C274.568 57.607 274.666 57.298 274.835 57.0391L273.876 56.4129C273.589 56.8524 273.422 57.3779 273.422 57.9406L274.568 57.9407ZM274.862 56.9924C274.922 56.8798 274.986 56.7659 275.058 56.6399L274.061 56.0745C273.992 56.1976 273.918 56.3277 273.848 56.4595L274.862 56.9924ZM275.058 56.6399C275.41 56.0181 275.862 55.232 275.862 54.0039L274.716 54.0039C274.716 54.9121 274.402 55.4735 274.061 56.0745L275.058 56.6399ZM275.862 54.0039C275.862 52.7758 275.411 51.9896 275.058 51.3679L274.061 51.9332C274.403 52.5342 274.716 53.0956 274.716 54.0039L275.862 54.0039ZM275.058 51.3679C274.929 51.1411 274.823 50.9538 274.741 50.7647L273.691 51.2231C273.802 51.4765 273.938 51.7164 274.061 51.9332L275.058 51.3679ZM274.731 50.7443C274.627 50.5277 274.567 50.2843 274.567 50.0255L273.422 50.0255C273.422 50.4609 273.522 50.8746 273.7 51.2435L274.731 50.7443ZM274.567 50.0262L274.567 50.0205L273.422 50.0191L273.422 50.0248L274.567 50.0262ZM274.567 50.019L274.567 50.0128L273.422 50.0143L273.422 50.0206L274.567 50.019ZM274.567 50.0135C274.567 49.6799 274.666 49.3709 274.835 49.1119L273.876 48.4857C273.589 48.9253 273.422 49.4508 273.422 50.0135L274.567 50.0135ZM274.862 49.0653C274.921 48.9527 274.986 48.8388 275.058 48.7127L274.061 48.1474C273.991 48.2705 273.918 48.4006 273.848 48.5324L274.862 49.0653ZM272.735 47.4064C272.677 47.5084 272.607 47.6328 272.537 47.7632L273.546 48.3042C273.609 48.1879 273.673 48.0751 273.731 47.9718L272.735 47.4064ZM272.74 47.3977L272.735 47.4065L273.731 47.9717L273.736 47.963L272.74 47.3977ZM273.197 46.0767C273.197 46.5598 273.067 46.8223 272.74 47.3977L273.736 47.963C274.073 47.3707 274.342 46.8817 274.342 46.0767L273.197 46.0767ZM273.192 45.9221C273.195 45.9703 273.197 46.0216 273.197 46.0767L274.342 46.0767C274.342 45.9967 274.34 45.9188 274.335 45.8427L273.192 45.9221ZM273.545 44.9577L274.842 44.2216L274.277 43.2253L272.98 43.9614L273.545 44.9577ZM272.312 43.9332C272.451 44.2476 272.614 44.534 272.727 44.732L273.723 44.1665C273.608 43.9644 273.472 43.7243 273.359 43.4686L272.312 43.9332ZM271.903 42.0983C271.903 42.7554 272.051 43.3836 272.318 43.9462L273.353 43.4556C273.157 43.043 273.048 42.5821 273.048 42.0983L271.903 42.0983ZM276.22 37.7816C273.836 37.7817 271.903 39.7143 271.903 42.0983L273.048 42.0983C273.048 40.3469 274.468 38.9271 276.22 38.9271L276.22 37.7816ZM280.536 42.0983C280.536 39.7143 278.604 37.7816 276.22 37.7816L276.22 38.9271C277.971 38.9271 279.391 40.3469 279.391 42.0983L280.536 42.0983ZM280.114 43.9623C280.385 43.3956 280.536 42.7617 280.536 42.0983L279.391 42.0983C279.391 42.5867 279.28 43.0518 279.081 43.4673L280.114 43.9623ZM279.712 44.7317C279.823 44.5368 279.982 44.2562 280.12 43.9488L279.074 43.4808C278.962 43.7315 278.829 43.9673 278.716 44.1662L279.712 44.7317ZM277.597 44.2207L278.895 44.9571L279.46 43.9609L278.162 43.2245L277.597 44.2207ZM279.242 46.076C279.242 46.0208 279.244 45.9695 279.247 45.9212L278.104 45.8418C278.099 45.918 278.097 45.9959 278.097 46.0759L279.242 46.076ZM279.699 47.3969C279.372 46.8215 279.242 46.559 279.242 46.076L278.097 46.0759C278.097 46.8809 278.366 47.3698 278.702 47.9622L279.699 47.3969ZM279.705 47.4089L279.705 47.4089L278.696 47.9502L278.696 47.9503L279.705 47.4089ZM279.702 47.4028L279.699 47.3969L278.703 47.9623L278.706 47.9682L279.702 47.4028ZM279.705 47.4083L279.705 47.4081L278.703 47.9629L278.703 47.9631L279.705 47.4083ZM279.704 47.4057L279.702 47.403L278.706 47.9683L278.707 47.971L279.704 47.4057ZM279.901 47.761C279.832 47.6312 279.761 47.5073 279.704 47.4056L278.707 47.971C278.766 48.0739 278.83 48.1863 278.892 48.3021L279.901 47.761ZM280.536 50.023V50.0152L279.391 50.0152L279.391 50.023H280.536ZM280.536 50.0221L280.536 50.0197L279.391 50.0263L279.391 50.0287L280.536 50.0221ZM280.536 50.0387L280.536 50.0387L279.391 50.0121L279.391 50.0121L280.536 50.0387ZM280.114 51.8894C280.385 51.3227 280.536 50.6889 280.537 50.0254L279.391 50.0254C279.391 50.5139 279.28 50.9789 279.081 51.3945L280.114 51.8894ZM279.712 52.6588C279.823 52.4638 279.983 52.1833 280.12 51.8759L279.075 51.408C278.962 51.6586 278.829 51.8944 278.716 52.0932L279.712 52.6588ZM279.703 52.6757C279.706 52.6702 279.709 52.6645 279.712 52.6588L278.716 52.0932C278.713 52.0989 278.71 52.1047 278.706 52.1103L279.703 52.6757ZM279.699 52.682C279.7 52.6798 279.701 52.6778 279.702 52.6758L278.706 52.1103C278.705 52.1125 278.704 52.1147 278.703 52.1167L279.699 52.682ZM279.7 52.6802L279.7 52.6801L278.702 52.1186L278.702 52.1186L279.7 52.6802ZM279.242 54.0031C279.242 53.52 279.372 53.2575 279.699 52.6821L278.703 52.1167C278.367 52.7091 278.097 53.1981 278.097 54.0031L279.242 54.0031ZM279.699 55.324C279.372 54.7486 279.242 54.4861 279.242 54.0031L278.097 54.0031C278.097 54.808 278.366 55.297 278.703 55.8893L279.699 55.324ZM279.704 55.3327L279.699 55.324L278.703 55.8893L278.708 55.8981L279.704 55.3327ZM279.901 55.6881C279.832 55.5583 279.762 55.4344 279.704 55.3327L278.708 55.8981C278.766 56.001 278.83 56.1134 278.892 56.2293L279.901 55.6881ZM280.537 57.9406C280.537 57.1049 280.297 56.3191 279.882 55.6553L278.911 56.2621C279.215 56.7494 279.391 57.3258 279.391 57.9406L280.537 57.9406ZM276.22 62.2573C278.604 62.2573 280.537 60.3246 280.537 57.9406L279.391 57.9406C279.391 59.692 277.971 61.1118 276.22 61.1118L276.22 62.2573ZM271.903 57.9406C271.903 60.3247 273.836 62.2573 276.22 62.2573L276.22 61.1118C274.468 61.1119 273.048 59.6921 273.049 57.9406L271.903 57.9406ZM272.556 55.6577C272.142 56.3211 271.903 57.1059 271.903 57.9406L273.049 57.9406C273.049 57.3266 273.224 56.7509 273.528 56.2639L272.556 55.6577ZM272.735 55.3335C272.677 55.4355 272.607 55.5599 272.537 55.6903L273.547 56.2313C273.609 56.115 273.673 56.0022 273.732 55.8989L272.735 55.3335ZM272.74 55.3248L272.735 55.3335L273.732 55.8989L273.736 55.8902L272.74 55.3248ZM273.197 54.0038C273.197 54.4869 273.067 54.7494 272.74 55.3248L273.736 55.8902C274.073 55.2978 274.343 54.8088 274.343 54.0038L273.197 54.0038ZM272.74 52.6829C273.067 53.2583 273.197 53.5208 273.197 54.0038L274.343 54.0038C274.343 53.1989 274.073 52.7099 273.737 52.1176L272.74 52.6829ZM272.727 52.6591C272.731 52.6672 272.736 52.6751 272.74 52.6829L273.737 52.1176C273.732 52.1097 273.728 52.1016 273.723 52.0936L272.727 52.6591ZM272.312 51.8603C272.451 52.1748 272.614 52.4611 272.727 52.6591L273.723 52.0936C273.608 51.8916 273.472 51.6514 273.359 51.3957L272.312 51.8603ZM271.903 50.0254C271.903 50.6825 272.051 51.3107 272.318 51.8733L273.353 51.3827C273.157 50.9701 273.048 50.5092 273.048 50.0255L271.903 50.0254ZM271.903 50.0252V50.0255L273.048 50.0255V50.0252L271.903 50.0252ZM271.903 50.0191L271.903 50.0245L273.048 50.0259L273.048 50.0206L271.903 50.0191ZM271.903 50.0143L271.903 50.0206L273.048 50.0191L273.048 50.0128L271.903 50.0143ZM271.903 50.0064L271.903 50.0065L273.048 50.0206L273.048 50.0206L271.903 50.0064ZM272.556 47.7306C272.142 48.3939 271.903 49.1788 271.903 50.0135L273.048 50.0135C273.048 49.3995 273.224 48.8238 273.528 48.3368L272.556 47.7306ZM280.536 50.0193C280.538 49.7611 280.368 49.5333 280.12 49.4624L279.805 50.5637C279.558 50.4932 279.389 50.2673 279.391 50.0111L280.536 50.0193ZM278.716 44.1662C278.865 43.904 279.198 43.8121 279.46 43.9609L278.895 44.9571C279.183 45.1206 279.549 45.0196 279.712 44.7317L278.716 44.1662ZM272.98 43.9614C273.241 43.8128 273.574 43.9046 273.723 44.1665L272.727 44.7319C272.89 45.0202 273.257 45.1212 273.545 44.9577L272.98 43.9614ZM277.597 44.2207C278.003 44.4513 278.162 45.0164 278.104 45.8418L279.247 45.9212C279.306 45.0728 279.215 43.8219 278.162 43.2245L277.597 44.2207ZM274.335 45.8427C274.277 45.0173 274.436 44.4522 274.842 44.2216L274.277 43.2253C273.224 43.8228 273.133 45.0736 273.192 45.9221L274.335 45.8427Z" fill="white" mask="url(#path-12-outside-2_1876_1214)"/>
<mask id="path-14-outside-3_1876_1214" maskUnits="userSpaceOnUse" x="261.365" y="34.9514" width="29.6989" height="29.6981" fill="black">
<rect fill="white" x="261.365" y="34.9514" width="29.6989" height="29.6981"/>
<path fill-rule="evenodd" clip-rule="evenodd" d="M276.22 52.2443C276.668 52.2443 277.086 52.1117 277.435 51.8837C277.557 51.8195 277.679 51.7503 277.804 51.6796C278.415 51.3327 279.089 50.9503 280.157 50.9503C281.225 50.9503 281.899 51.3326 282.511 51.6795C282.732 51.8054 282.946 51.9266 283.167 52.0232C283.46 52.1649 283.789 52.2444 284.136 52.2444C285.364 52.2444 286.361 51.2482 286.361 50.0194C286.361 48.7906 285.365 47.7945 284.136 47.7945C283.785 47.7945 283.453 47.8756 283.158 48.0201C282.941 48.116 282.73 48.2355 282.511 48.3595C281.9 48.7065 281.226 49.0888 280.158 49.0888C279.09 49.0889 278.416 48.7065 277.805 48.3596C277.68 48.2891 277.558 48.22 277.437 48.1559C277.087 47.9273 276.669 47.7944 276.22 47.7944L276.215 47.7944L276.208 47.7944C275.858 47.7944 275.526 47.8755 275.231 48.02C275.013 48.1159 274.803 48.2354 274.584 48.3594C273.973 48.7064 273.299 49.0887 272.231 49.0887C271.162 49.0887 270.489 48.7064 269.877 48.3595C269.753 48.289 269.631 48.2199 269.509 48.1558C269.16 47.9272 268.742 47.7943 268.293 47.7943C267.064 47.7943 266.068 48.7905 266.068 50.0193C266.068 51.2481 267.064 52.2442 268.293 52.2442C268.741 52.2441 269.158 52.1116 269.508 51.8836C269.63 51.8194 269.752 51.7502 269.876 51.6795C270.488 51.3325 271.162 50.9502 272.23 50.9502C273.298 50.9502 273.972 51.3325 274.583 51.6794C274.805 51.8053 275.019 51.9265 275.24 52.023C275.533 52.1648 275.861 52.2443 276.208 52.2443L276.214 52.2443L276.22 52.2443ZM276.214 53.7633L276.22 53.7633C276.945 53.7633 277.625 53.5561 278.2 53.1973C278.323 53.1312 278.442 53.0639 278.545 53.0057L278.553 53.0007C279.137 52.6694 279.513 52.4693 280.157 52.4693C280.801 52.4693 281.177 52.6693 281.761 53.0006C281.769 53.0051 281.777 53.0096 281.785 53.0142C281.985 53.1277 282.248 53.2772 282.533 53.4037C283.021 53.6348 283.565 53.7634 284.136 53.7634C286.203 53.7634 287.88 52.0871 287.88 50.0194C287.88 47.9517 286.203 46.2755 284.136 46.2755C283.56 46.2755 283.01 46.4066 282.519 46.6419C282.24 46.7668 281.982 46.9134 281.785 47.0252L281.762 47.0384C281.178 47.3698 280.802 47.5698 280.158 47.5698C279.514 47.5698 279.138 47.3698 278.554 47.0385L278.55 47.0363L278.545 47.0335C278.443 46.9754 278.325 46.9084 278.202 46.8426C277.627 46.4831 276.946 46.2754 276.22 46.2754M276.22 46.2754L276.219 46.2754L276.211 46.2754L276.208 46.2754C275.632 46.2754 275.083 46.4065 274.592 46.6418C274.313 46.7667 274.055 46.9133 273.858 47.0251L273.834 47.0383C273.25 47.3697 272.875 47.5697 272.231 47.5697C271.587 47.5697 271.211 47.3697 270.627 47.0384L270.618 47.0334C270.516 46.9754 270.398 46.9083 270.275 46.8425C269.699 46.4829 269.018 46.2752 268.293 46.2753C266.225 46.2753 264.549 47.9515 264.549 50.0192C264.549 52.087 266.225 53.7632 268.293 53.7632C269.017 53.7632 269.698 53.5559 270.273 53.1972C270.396 53.1311 270.515 53.0638 270.617 53.0055L270.626 53.0006C271.21 52.6692 271.586 52.4692 272.23 52.4692C272.874 52.4692 273.25 52.6692 273.833 53.0005C273.841 53.005 273.849 53.0095 273.857 53.0141C274.057 53.1276 274.321 53.2771 274.606 53.4036C275.093 53.6347 275.638 53.7633 276.208 53.7633M276.214 53.7633L276.208 53.7633L276.214 53.7633Z"/>
</mask>
<path fill-rule="evenodd" clip-rule="evenodd" d="M276.22 52.2443C276.668 52.2443 277.086 52.1117 277.435 51.8837C277.557 51.8195 277.679 51.7503 277.804 51.6796C278.415 51.3327 279.089 50.9503 280.157 50.9503C281.225 50.9503 281.899 51.3326 282.511 51.6795C282.732 51.8054 282.946 51.9266 283.167 52.0232C283.46 52.1649 283.789 52.2444 284.136 52.2444C285.364 52.2444 286.361 51.2482 286.361 50.0194C286.361 48.7906 285.365 47.7945 284.136 47.7945C283.785 47.7945 283.453 47.8756 283.158 48.0201C282.941 48.116 282.73 48.2355 282.511 48.3595C281.9 48.7065 281.226 49.0888 280.158 49.0888C279.09 49.0889 278.416 48.7065 277.805 48.3596C277.68 48.2891 277.558 48.22 277.437 48.1559C277.087 47.9273 276.669 47.7944 276.22 47.7944L276.215 47.7944L276.208 47.7944C275.858 47.7944 275.526 47.8755 275.231 48.02C275.013 48.1159 274.803 48.2354 274.584 48.3594C273.973 48.7064 273.299 49.0887 272.231 49.0887C271.162 49.0887 270.489 48.7064 269.877 48.3595C269.753 48.289 269.631 48.2199 269.509 48.1558C269.16 47.9272 268.742 47.7943 268.293 47.7943C267.064 47.7943 266.068 48.7905 266.068 50.0193C266.068 51.2481 267.064 52.2442 268.293 52.2442C268.741 52.2441 269.158 52.1116 269.508 51.8836C269.63 51.8194 269.752 51.7502 269.876 51.6795C270.488 51.3325 271.162 50.9502 272.23 50.9502C273.298 50.9502 273.972 51.3325 274.583 51.6794C274.805 51.8053 275.019 51.9265 275.24 52.023C275.533 52.1648 275.861 52.2443 276.208 52.2443L276.214 52.2443L276.22 52.2443ZM276.214 53.7633L276.22 53.7633C276.945 53.7633 277.625 53.5561 278.2 53.1973C278.323 53.1312 278.442 53.0639 278.545 53.0057L278.553 53.0007C279.137 52.6694 279.513 52.4693 280.157 52.4693C280.801 52.4693 281.177 52.6693 281.761 53.0006C281.769 53.0051 281.777 53.0096 281.785 53.0142C281.985 53.1277 282.248 53.2772 282.533 53.4037C283.021 53.6348 283.565 53.7634 284.136 53.7634C286.203 53.7634 287.88 52.0871 287.88 50.0194C287.88 47.9517 286.203 46.2755 284.136 46.2755C283.56 46.2755 283.01 46.4066 282.519 46.6419C282.24 46.7668 281.982 46.9134 281.785 47.0252L281.762 47.0384C281.178 47.3698 280.802 47.5698 280.158 47.5698C279.514 47.5698 279.138 47.3698 278.554 47.0385L278.55 47.0363L278.545 47.0335C278.443 46.9754 278.325 46.9084 278.202 46.8426C277.627 46.4831 276.946 46.2754 276.22 46.2754M276.22 46.2754L276.219 46.2754L276.211 46.2754L276.208 46.2754C275.632 46.2754 275.083 46.4065 274.592 46.6418C274.313 46.7667 274.055 46.9133 273.858 47.0251L273.834 47.0383C273.25 47.3697 272.875 47.5697 272.231 47.5697C271.587 47.5697 271.211 47.3697 270.627 47.0384L270.618 47.0334C270.516 46.9754 270.398 46.9083 270.275 46.8425C269.699 46.4829 269.018 46.2752 268.293 46.2753C266.225 46.2753 264.549 47.9515 264.549 50.0192C264.549 52.087 266.225 53.7632 268.293 53.7632C269.017 53.7632 269.698 53.5559 270.273 53.1972C270.396 53.1311 270.515 53.0638 270.617 53.0055L270.626 53.0006C271.21 52.6692 271.586 52.4692 272.23 52.4692C272.874 52.4692 273.25 52.6692 273.833 53.0005C273.841 53.005 273.849 53.0095 273.857 53.0141C274.057 53.1276 274.321 53.2771 274.606 53.4036C275.093 53.6347 275.638 53.7633 276.208 53.7633M276.214 53.7633L276.208 53.7633L276.214 53.7633Z" fill="white"/>
<path d="M276.22 46.2754L275.934 46.2749L276.507 46.2756L276.22 46.2754ZM282.76 51.8208L282.01 53.142L281.512 52.8593L282.261 51.5382L282.76 51.8208ZM276.507 46.2756L276.501 53.7635L275.928 53.763L275.934 46.2751L276.507 46.2756ZM268.007 47.7943L268.007 46.2753L268.579 46.2753L268.579 47.7943L268.007 47.7943ZM266.068 50.3056L264.549 50.3056L264.549 49.7329L266.068 49.7329L266.068 50.3056ZM268.579 52.2441L268.579 53.7632L268.007 53.7632L268.007 52.2442L268.579 52.2441ZM275.922 53.7628L275.934 46.2749L276.507 46.2758L276.495 53.7637L275.922 53.7628ZM276.22 52.2443L276.22 52.817L276.219 52.817L276.22 52.2443ZM277.435 51.8837L277.122 51.4041L277.145 51.3893L277.169 51.3767L277.435 51.8837ZM277.804 51.6796L278.086 52.1777L278.086 52.1777L277.804 51.6796ZM280.157 50.9503L280.157 50.3776L280.157 50.9503ZM282.511 51.6795L282.228 52.1776L282.228 52.1776L282.511 51.6795ZM283.167 52.0232L283.396 51.4983L283.407 51.5028L283.417 51.5077L283.167 52.0232ZM284.136 52.2444L284.136 51.6717L284.136 51.6717L284.136 52.2444ZM286.361 50.0194L285.788 50.0194L286.361 50.0194ZM284.136 47.7945L284.136 47.2218L284.136 47.2218L284.136 47.7945ZM283.158 48.0201L283.41 48.5344L283.4 48.5396L283.389 48.5443L283.158 48.0201ZM282.511 48.3595L282.229 47.8614L282.229 47.8614L282.511 48.3595ZM277.805 48.3596L278.087 47.8615L278.087 47.8615L277.805 48.3596ZM277.437 48.1559L277.17 48.6628L277.146 48.6502L277.123 48.6352L277.437 48.1559ZM276.22 47.7944L276.22 47.2217H276.22L276.22 47.7944ZM276.215 47.7944L276.215 48.3671L276.214 48.3671L276.215 47.7944ZM276.208 47.7944L276.208 47.2217L276.209 47.2217L276.208 47.7944ZM275.231 48.02L275.483 48.5343L275.473 48.5394L275.462 48.5441L275.231 48.02ZM274.584 48.3594L274.301 47.8613L274.584 48.3594ZM272.231 49.0887L272.231 49.6614L272.231 49.0887ZM269.877 48.3595L270.16 47.8614L269.877 48.3595ZM269.509 48.1558L269.243 48.6627L269.219 48.65L269.196 48.6351L269.509 48.1558ZM268.293 47.7943L268.293 47.2215L268.293 47.2215L268.293 47.7943ZM266.068 50.0193L265.495 50.0192L265.495 50.0192L266.068 50.0193ZM268.293 52.2442L268.293 52.8169L268.293 52.8169L268.293 52.2442ZM269.508 51.8836L269.195 51.404L269.217 51.3892L269.241 51.3766L269.508 51.8836ZM269.876 51.6795L269.594 51.1814L269.594 51.1814L269.876 51.6795ZM274.583 51.6794L274.866 51.1813L274.866 51.1813L274.583 51.6794ZM275.24 52.023L275.469 51.4982L275.479 51.5027L275.489 51.5076L275.24 52.023ZM276.208 52.2443L276.209 52.817H276.208L276.208 52.2443ZM276.214 52.2443L276.213 51.6715L276.215 51.6715L276.214 52.2443ZM276.22 53.7633L276.22 54.336L276.219 54.336L276.22 53.7633ZM276.214 53.7633L276.213 53.1905L276.215 53.1905L276.214 53.7633ZM278.2 53.1973L277.897 52.7114L277.913 52.7014L277.93 52.6925L278.2 53.1973ZM278.545 53.0057L278.827 53.5038L278.827 53.5038L278.545 53.0057ZM278.553 53.0007L278.271 52.5026L278.271 52.5026L278.553 53.0007ZM280.157 52.4693L280.157 51.8966L280.157 52.4693ZM281.761 53.0006L282.043 52.5025L282.043 52.5025L281.761 53.0006ZM281.785 53.0142L281.502 53.5123L281.502 53.5122L281.785 53.0142ZM282.533 53.4037L282.765 52.8802L282.772 52.8831L282.778 52.8862L282.533 53.4037ZM284.136 53.7634L284.136 53.1907L284.136 53.1907L284.136 53.7634ZM287.88 50.0194L288.452 50.0194L288.452 50.0194L287.88 50.0194ZM284.136 46.2755L284.136 45.7028L284.136 45.7028L284.136 46.2755ZM282.519 46.6419L282.767 47.1584L282.76 47.1616L282.753 47.1647L282.519 46.6419ZM281.785 47.0252L282.068 47.5232L282.068 47.5232L281.785 47.0252ZM281.762 47.0384L282.044 47.5365L282.044 47.5365L281.762 47.0384ZM280.158 47.5698L280.158 48.1426L280.158 47.5698ZM278.554 47.0385L278.837 46.5403L278.837 46.5404L278.554 47.0385ZM278.55 47.0363L278.268 47.5345L278.268 47.5345L278.55 47.0363ZM278.545 47.0335L278.828 46.5354L278.828 46.5354L278.545 47.0335ZM278.202 46.8426L277.932 47.3474L277.915 47.3384L277.899 47.3284L278.202 46.8426ZM276.22 46.2754L276.216 45.7026H276.22L276.22 46.2754ZM276.219 46.2754L276.223 46.8481H276.219V46.2754ZM276.211 46.2754V46.8481L276.207 46.8481L276.211 46.2754ZM276.208 46.2754L276.208 45.7026L276.212 45.7027L276.208 46.2754ZM274.592 46.6418L274.839 47.1583L274.833 47.1615L274.826 47.1645L274.592 46.6418ZM273.858 47.0251L274.14 47.5231L274.14 47.5232L273.858 47.0251ZM273.834 47.0383L274.117 47.5364L274.117 47.5364L273.834 47.0383ZM272.231 47.5697L272.231 46.997L272.231 47.5697ZM270.627 47.0384L270.344 47.5365L270.344 47.5365L270.627 47.0384ZM270.618 47.0334L270.336 47.5315L270.336 47.5315L270.618 47.0334ZM270.275 46.8425L270.004 47.3473L269.988 47.3383L269.971 47.3282L270.275 46.8425ZM268.293 46.2753L268.293 45.7025L268.293 46.2753ZM264.549 50.0192L263.976 50.0192L263.976 50.0192L264.549 50.0192ZM268.293 53.7632L268.293 54.3359L268.293 54.3359L268.293 53.7632ZM270.273 53.1972L269.97 52.7112L269.986 52.7013L270.002 52.6924L270.273 53.1972ZM270.617 53.0055L270.335 52.5074L270.335 52.5074L270.617 53.0055ZM270.626 53.0006L270.343 52.5025L270.343 52.5025L270.626 53.0006ZM272.23 52.4692L272.23 53.0419L272.23 52.4692ZM273.833 53.0005L274.116 52.5024L274.116 52.5024L273.833 53.0005ZM273.857 53.0141L273.575 53.5121L273.575 53.5121L273.857 53.0141ZM274.606 53.4036L274.838 52.8801L274.845 52.883L274.851 52.886L274.606 53.4036ZM276.208 53.7633L276.209 54.336L276.208 54.336L276.208 53.7633ZM276.22 51.6715C276.554 51.6715 276.863 51.5732 277.122 51.4041L277.748 52.3633C277.309 52.6502 276.783 52.817 276.22 52.817L276.22 51.6715ZM277.169 51.3767C277.281 51.3176 277.395 51.253 277.521 51.1815L278.086 52.1777C277.963 52.2476 277.833 52.3214 277.701 52.3907L277.169 51.3767ZM277.521 51.1815C278.143 50.8287 278.929 50.3776 280.157 50.3776L280.157 51.523C279.249 51.523 278.687 51.8367 278.086 52.1777L277.521 51.1815ZM280.157 50.3776C281.385 50.3775 282.171 50.8286 282.793 51.1814L282.228 52.1776C281.627 51.8366 281.065 51.523 280.157 51.523L280.157 50.3776ZM282.793 51.1814C283.02 51.3101 283.207 51.4158 283.396 51.4983L282.938 52.5481C282.685 52.4374 282.445 52.3007 282.228 52.1776L282.793 51.1814ZM283.417 51.5077C283.633 51.6126 283.877 51.6717 284.136 51.6717L284.136 52.8171C283.7 52.8171 283.286 52.7173 282.918 52.5386L283.417 51.5077ZM284.136 51.6717C285.048 51.6716 285.788 50.9319 285.788 50.0194L286.933 50.0194C286.933 51.5645 285.681 52.8171 284.136 52.8171L284.136 51.6717ZM285.788 50.0194C285.788 49.1069 285.048 48.3672 284.136 48.3672L284.136 47.2218C285.681 47.2218 286.933 48.4743 286.933 50.0194L285.788 50.0194ZM284.136 48.3672C283.874 48.3672 283.629 48.4275 283.41 48.5344L282.907 47.5057C283.278 47.3237 283.696 47.2218 284.136 47.2218L284.136 48.3672ZM283.389 48.5443C283.203 48.6264 283.017 48.7309 282.794 48.8577L282.229 47.8614C282.442 47.7401 282.679 47.6055 282.928 47.4959L283.389 48.5443ZM282.794 48.8577C282.172 49.2105 281.386 49.6615 280.158 49.6616L280.158 48.5161C281.066 48.5161 281.628 48.2025 282.229 47.8614L282.794 48.8577ZM280.158 49.6616C278.93 49.6616 278.144 49.2105 277.522 48.8578L278.087 47.8615C278.688 48.2025 279.25 48.5161 280.158 48.5161L280.158 49.6616ZM277.522 48.8578C277.396 48.7864 277.282 48.7219 277.17 48.6628L277.703 47.6489C277.835 47.718 277.964 47.7918 278.087 47.8615L277.522 48.8578ZM277.123 48.6352C276.864 48.4657 276.554 48.3671 276.22 48.3671L276.22 47.2217C276.784 47.2217 277.31 47.3889 277.75 47.6766L277.123 48.6352ZM276.221 48.3671L276.215 48.3671L276.214 47.2217L276.22 47.2217L276.221 48.3671ZM276.214 48.3671L276.208 48.3671L276.209 47.2217L276.215 47.2217L276.214 48.3671ZM276.208 48.3671C275.947 48.3671 275.701 48.4274 275.483 48.5343L274.979 47.5056C275.351 47.3236 275.769 47.2217 276.208 47.2217L276.208 48.3671ZM275.462 48.5441C275.275 48.6263 275.09 48.7308 274.867 48.8575L274.301 47.8613C274.515 47.74 274.751 47.6054 275 47.4958L275.462 48.5441ZM274.867 48.8575C274.245 49.2103 273.459 49.6614 272.231 49.6614L272.231 48.516C273.139 48.516 273.7 48.2024 274.301 47.8613L274.867 48.8575ZM272.231 49.6614C271.002 49.6615 270.216 49.2104 269.595 48.8576L270.16 47.8614C270.761 48.2024 271.322 48.516 272.231 48.516L272.231 49.6614ZM269.595 48.8576C269.469 48.7862 269.355 48.7218 269.243 48.6627L269.776 47.6488C269.907 47.7179 270.037 47.7917 270.16 47.8614L269.595 48.8576ZM269.196 48.6351C268.936 48.4656 268.627 48.367 268.293 48.367L268.293 47.2215C268.857 47.2215 269.383 47.3887 269.823 47.6764L269.196 48.6351ZM268.293 48.367C267.38 48.367 266.641 49.1068 266.641 50.0193L265.495 50.0192C265.495 48.4741 266.748 47.2216 268.293 47.2215L268.293 48.367ZM266.641 50.0193C266.641 50.9317 267.38 51.6714 268.293 51.6714L268.293 52.8169C266.748 52.8169 265.495 51.5644 265.495 50.0192L266.641 50.0193ZM268.293 51.6714C268.627 51.6714 268.936 51.5731 269.195 51.404L269.821 52.3632C269.381 52.6501 268.856 52.8169 268.293 52.8169L268.293 51.6714ZM269.241 51.3766C269.354 51.3174 269.468 51.2529 269.594 51.1814L270.159 52.1776C270.036 52.2474 269.906 52.3213 269.774 52.3906L269.241 51.3766ZM269.594 51.1814C270.215 50.8285 271.002 50.3775 272.23 50.3774L272.23 51.5229C271.322 51.5229 270.76 51.8365 270.159 52.1776L269.594 51.1814ZM272.23 50.3774C273.458 50.3774 274.244 50.8285 274.866 51.1813L274.3 52.1775C273.699 51.8365 273.138 51.5229 272.23 51.5229L272.23 50.3774ZM274.866 51.1813C275.093 51.3099 275.28 51.4156 275.469 51.4982L275.011 52.5479C274.757 52.4373 274.517 52.3006 274.3 52.1775L274.866 51.1813ZM275.489 51.5076C275.706 51.6125 275.949 51.6715 276.208 51.6715L276.208 52.817C275.773 52.817 275.359 52.7171 274.99 52.5385L275.489 51.5076ZM276.208 51.6715L276.213 51.6715L276.215 52.817L276.209 52.817L276.208 51.6715ZM276.215 51.6715L276.221 51.6715L276.219 52.817L276.213 52.817L276.215 51.6715ZM276.219 54.336L276.213 54.336L276.215 53.1905L276.221 53.1906L276.219 54.336ZM278.503 53.6833C277.84 54.097 277.055 54.336 276.22 54.336L276.22 53.1906C276.834 53.1905 277.41 53.0151 277.897 52.7114L278.503 53.6833ZM278.827 53.5038C278.725 53.5617 278.601 53.6323 278.471 53.7021L277.93 52.6925C278.046 52.6302 278.159 52.5662 278.262 52.5076L278.827 53.5038ZM278.836 53.4988L278.827 53.5038L278.262 52.5076L278.271 52.5026L278.836 53.4988ZM280.157 53.042C279.674 53.042 279.412 53.1723 278.836 53.4988L278.271 52.5026C278.863 52.1664 279.352 51.8966 280.157 51.8966L280.157 53.042ZM281.478 53.4988C280.903 53.1722 280.64 53.042 280.157 53.042L280.157 51.8966C280.962 51.8966 281.451 52.1664 282.043 52.5025L281.478 53.4988ZM281.502 53.5122C281.494 53.5077 281.486 53.5032 281.478 53.4988L282.043 52.5025C282.051 52.507 282.059 52.5116 282.068 52.5161L281.502 53.5122ZM282.301 53.9272C281.986 53.7877 281.7 53.6247 281.502 53.5123L282.067 52.5161C282.269 52.6308 282.51 52.7667 282.765 52.8802L282.301 53.9272ZM284.136 54.3361C283.479 54.3361 282.85 54.1879 282.288 53.9212L282.778 52.8862C283.191 53.0817 283.652 53.1907 284.136 53.1907L284.136 54.3361ZM288.452 50.0194C288.452 52.4035 286.52 54.3361 284.136 54.3361L284.136 53.1907C285.887 53.1906 287.307 51.7708 287.307 50.0194L288.452 50.0194ZM284.136 45.7028C286.52 45.7027 288.453 47.6354 288.452 50.0194L287.307 50.0194C287.307 48.268 285.887 46.8482 284.136 46.8482L284.136 45.7028ZM282.272 46.1254C282.838 45.8539 283.472 45.7028 284.136 45.7028L284.136 46.8482C283.647 46.8482 283.182 46.9593 282.767 47.1584L282.272 46.1254ZM281.502 46.5271C281.697 46.4164 281.978 46.2568 282.285 46.1192L282.753 47.1647C282.502 47.2769 282.267 47.4103 282.068 47.5232L281.502 46.5271ZM280.158 46.9971C280.641 46.9971 280.904 46.8668 281.479 46.5403L282.044 47.5365C281.452 47.8727 280.963 48.1425 280.158 48.1426L280.158 46.9971ZM278.837 46.5404C279.412 46.8669 279.675 46.9971 280.158 46.9971L280.158 48.1426C279.353 48.1426 278.864 47.8728 278.272 47.5366L278.837 46.5404ZM278.833 46.5382L278.837 46.5403L278.272 47.5366L278.268 47.5345L278.833 46.5382ZM278.828 46.5354L278.833 46.5382L278.268 47.5345L278.263 47.5316L278.828 46.5354ZM278.473 46.3378C278.603 46.4074 278.727 46.4777 278.828 46.5354L278.263 47.5316C278.16 47.4732 278.047 47.4095 277.932 47.3474L278.473 46.3378ZM276.22 45.7026C277.056 45.7026 277.842 45.9422 278.506 46.3568L277.899 47.3284C277.411 47.024 276.835 46.8481 276.22 46.8481L276.22 45.7026ZM276.214 45.7027L276.216 45.7027L276.225 46.8481L276.223 46.8481L276.214 45.7027ZM276.211 45.7027H276.219L276.219 46.8481L276.211 46.8481V45.7027ZM276.212 45.7027L276.214 45.7027L276.207 46.8481L276.205 46.8481L276.212 45.7027ZM274.344 46.1253C274.911 45.8538 275.545 45.7027 276.208 45.7026L276.208 46.8481C275.72 46.8481 275.255 46.9592 274.839 47.1583L274.344 46.1253ZM273.575 46.527C273.77 46.4163 274.05 46.2566 274.358 46.119L274.826 47.1645C274.575 47.2767 274.339 47.4102 274.14 47.5231L273.575 46.527ZM273.552 46.5402L273.575 46.527L274.14 47.5232L274.117 47.5364L273.552 46.5402ZM272.231 46.997C272.714 46.997 272.976 46.8667 273.552 46.5402L274.117 47.5364C273.525 47.8726 273.036 48.1424 272.231 48.1424L272.231 46.997ZM270.91 46.5402C271.485 46.8668 271.748 46.997 272.231 46.997L272.231 48.1424C271.426 48.1425 270.937 47.8726 270.344 47.5365L270.91 46.5402ZM270.901 46.5353L270.91 46.5403L270.344 47.5365L270.336 47.5315L270.901 46.5353ZM270.545 46.3377C270.675 46.4073 270.799 46.4776 270.901 46.5353L270.336 47.5315C270.233 47.4731 270.12 47.4094 270.004 47.3473L270.545 46.3377ZM268.293 45.7025C269.129 45.7025 269.914 45.9421 270.578 46.3567L269.971 47.3282C269.484 47.0238 268.908 46.848 268.293 46.848L268.293 45.7025ZM263.976 50.0192C263.976 47.6352 265.909 45.7026 268.293 45.7025L268.293 46.848C266.541 46.848 265.122 48.2678 265.122 50.0192L263.976 50.0192ZM268.293 54.3359C265.909 54.3359 263.976 52.4033 263.976 50.0192L265.122 50.0192C265.122 51.7707 266.541 53.1905 268.293 53.1904L268.293 54.3359ZM270.576 53.6831C269.913 54.0969 269.128 54.3359 268.293 54.3359L268.293 53.1904C268.907 53.1904 269.483 53.015 269.97 52.7112L270.576 53.6831ZM270.9 53.5036C270.798 53.5615 270.674 53.6321 270.543 53.702L270.002 52.6924C270.119 52.63 270.231 52.5661 270.335 52.5074L270.9 53.5036ZM270.909 53.4987L270.9 53.5036L270.335 52.5074L270.343 52.5025L270.909 53.4987ZM272.23 53.0419C271.747 53.0419 271.484 53.1722 270.909 53.4987L270.343 52.5025C270.936 52.1663 271.425 51.8965 272.23 51.8965L272.23 53.0419ZM273.551 53.4986C272.975 53.1721 272.713 53.0419 272.23 53.0419L272.23 51.8965C273.035 51.8964 273.524 52.1663 274.116 52.5024L273.551 53.4986ZM273.575 53.5121C273.567 53.5076 273.559 53.5031 273.551 53.4986L274.116 52.5024C274.124 52.5069 274.132 52.5114 274.14 52.516L273.575 53.5121ZM274.373 53.9271C274.059 53.7875 273.773 53.6245 273.575 53.5121L274.14 52.516C274.342 52.6307 274.582 52.7666 274.838 52.8801L274.373 53.9271ZM276.208 54.336C275.551 54.336 274.923 54.1878 274.36 53.9211L274.851 52.886C275.264 53.0816 275.724 53.1906 276.208 53.1906L276.208 54.336ZM276.215 54.336L276.209 54.336L276.208 53.1906L276.213 53.1905L276.215 54.336ZM281.479 46.5403L281.502 46.5271L282.068 47.5232L282.044 47.5365L281.479 46.5403Z" fill="white" mask="url(#path-14-outside-3_1876_1214)"/>
<path d="M133 66C132.448 66 132 66.4477 132 67C132 67.5523 132.448 68 133 68L133 66ZM216.707 67.7071C217.098 67.3166 217.098 66.6834 216.707 66.2929L210.343 59.9289C209.953 59.5384 209.319 59.5384 208.929 59.9289C208.538 60.3195 208.538 60.9526 208.929 61.3432L214.586 67L208.929 72.6569C208.538 73.0474 208.538 73.6806 208.929 74.0711C209.319 74.4616 209.953 74.4616 210.343 74.0711L216.707 67.7071ZM133 68L216 68L216 66L133 66L133 68Z" fill="#487AEE"/>
</svg>
