<svg width="284" height="260" viewBox="0 0 284 260" fill="none" xmlns="http://www.w3.org/2000/svg">
<rect width="284" height="260" fill="white"/>
<path d="M79.5147 75.2254C74.8284 70.5391 74.8284 62.9411 79.5147 58.2548L133.255 4.51472C137.941 -0.171572 145.539 -0.171573 150.225 4.51472L203.966 58.2548C208.652 62.9411 208.652 70.5391 203.966 75.2254L150.225 128.966C145.539 133.652 137.941 133.652 133.255 128.966L79.5147 75.2254Z" stroke="#D6E3FF" stroke-width="2"/>
<path opacity="0.4" d="M123.389 91.2193C123.703 91.2193 123.953 91.1326 124.139 90.9593C124.333 90.786 124.429 90.5526 124.429 90.2593C124.429 89.9593 124.333 89.7226 124.139 89.5493C123.953 89.376 123.703 89.2893 123.389 89.2893H121.939C121.899 89.2893 121.879 89.3093 121.879 89.3493V91.1593C121.879 91.1993 121.899 91.2193 121.939 91.2193H123.389ZM124.559 95.0293C124.486 95.0293 124.436 94.996 124.409 94.9293L123.109 92.2793H121.939C121.899 92.2793 121.879 92.2993 121.879 92.3393V94.9293C121.879 94.996 121.846 95.0293 121.779 95.0293H120.799C120.733 95.0293 120.699 94.996 120.699 94.9293V88.3293C120.699 88.2626 120.733 88.2293 120.799 88.2293H123.429C123.743 88.2293 124.029 88.2793 124.289 88.3793C124.556 88.4793 124.786 88.6193 124.979 88.7993C125.173 88.9726 125.323 89.186 125.429 89.4393C125.543 89.686 125.599 89.9593 125.599 90.2593C125.599 90.706 125.483 91.0926 125.249 91.4193C125.016 91.746 124.703 91.9826 124.309 92.1293L125.739 94.8993C125.759 94.9326 125.759 94.9626 125.739 94.9893C125.726 95.016 125.703 95.0293 125.669 95.0293H124.559ZM127.291 88.3293C127.291 88.2626 127.324 88.2293 127.391 88.2293H131.651C131.717 88.2293 131.751 88.2626 131.751 88.3293V89.1893C131.751 89.256 131.717 89.2893 131.651 89.2893H128.531C128.491 89.2893 128.471 89.3093 128.471 89.3493V91.0093C128.471 91.0493 128.491 91.0693 128.531 91.0693H131.161C131.227 91.0693 131.261 91.1026 131.261 91.1693V92.0293C131.261 92.096 131.227 92.1293 131.161 92.1293H128.531C128.491 92.1293 128.471 92.1493 128.471 92.1893V93.9093C128.471 93.9493 128.491 93.9693 128.531 93.9693H131.651C131.717 93.9693 131.751 94.0026 131.751 94.0693V94.9293C131.751 94.996 131.717 95.0293 131.651 95.0293H127.391C127.324 95.0293 127.291 94.996 127.291 94.9293V88.3293ZM136.644 92.5593L135.744 89.9193H135.714L134.804 92.5593H136.644ZM135.154 88.3293C135.174 88.2626 135.217 88.2293 135.284 88.2293H136.204C136.271 88.2293 136.314 88.2626 136.334 88.3293L138.634 94.9293C138.654 94.996 138.631 95.0293 138.564 95.0293H137.584C137.517 95.0293 137.474 94.996 137.454 94.9293L137.004 93.6093H134.444L133.994 94.9293C133.974 94.996 133.931 95.0293 133.864 95.0293H132.894C132.827 95.0293 132.804 94.996 132.824 94.9293L135.154 88.3293ZM139.702 93.4693C139.668 93.3626 139.638 93.2593 139.612 93.1593C139.592 93.0526 139.575 92.9326 139.562 92.7993C139.548 92.6593 139.538 92.4993 139.532 92.3193C139.525 92.1326 139.522 91.9026 139.522 91.6293C139.522 91.3626 139.525 91.136 139.532 90.9493C139.538 90.7626 139.548 90.6026 139.562 90.4693C139.575 90.3293 139.592 90.2093 139.612 90.1093C139.638 90.0026 139.668 89.896 139.702 89.7893C139.875 89.2293 140.165 88.8126 140.572 88.5393C140.985 88.2593 141.482 88.1193 142.062 88.1193C142.608 88.1193 143.078 88.2493 143.472 88.5093C143.872 88.7693 144.168 89.126 144.362 89.5793C144.382 89.6393 144.365 89.6793 144.312 89.6993L143.462 90.1093C143.402 90.1426 143.358 90.126 143.332 90.0593C143.218 89.8193 143.062 89.6126 142.862 89.4393C142.668 89.266 142.402 89.1793 142.062 89.1793C141.735 89.1793 141.472 89.2593 141.272 89.4193C141.078 89.5793 140.935 89.7993 140.842 90.0793C140.822 90.1526 140.802 90.226 140.782 90.2993C140.768 90.3726 140.755 90.4693 140.742 90.5893C140.735 90.7026 140.728 90.8426 140.722 91.0093C140.722 91.176 140.722 91.3826 140.722 91.6293C140.722 91.8826 140.722 92.0926 140.722 92.2593C140.728 92.4193 140.735 92.5593 140.742 92.6793C140.755 92.7926 140.768 92.8893 140.782 92.9693C140.802 93.0426 140.822 93.1126 140.842 93.1793C140.935 93.4593 141.078 93.6793 141.272 93.8393C141.472 93.9993 141.735 94.0793 142.062 94.0793C142.402 94.0793 142.668 93.9926 142.862 93.8193C143.062 93.646 143.218 93.4393 143.332 93.1993C143.358 93.1326 143.402 93.116 143.462 93.1493L144.312 93.5593C144.365 93.5793 144.382 93.6193 144.362 93.6793C144.168 94.1326 143.872 94.4893 143.472 94.7493C143.078 95.0093 142.608 95.1393 142.062 95.1393C141.482 95.1393 140.985 95.0026 140.572 94.7293C140.165 94.4493 139.875 94.0293 139.702 93.4693ZM147.208 95.0293C147.141 95.0293 147.108 94.996 147.108 94.9293V89.3493C147.108 89.3093 147.088 89.2893 147.048 89.2893H145.268C145.201 89.2893 145.168 89.256 145.168 89.1893V88.3293C145.168 88.2626 145.201 88.2293 145.268 88.2293H150.128C150.195 88.2293 150.228 88.2626 150.228 88.3293V89.1893C150.228 89.256 150.195 89.2893 150.128 89.2893H148.348C148.308 89.2893 148.288 89.3093 148.288 89.3493V94.9293C148.288 94.996 148.255 95.0293 148.188 95.0293H147.208ZM153.8 94.0793C154.14 94.0793 154.413 94.0026 154.62 93.8493C154.827 93.6893 154.977 93.4693 155.07 93.1893C155.09 93.1293 155.107 93.0593 155.12 92.9793C155.133 92.8993 155.143 92.7993 155.15 92.6793C155.163 92.5593 155.173 92.416 155.18 92.2493C155.187 92.076 155.19 91.8693 155.19 91.6293C155.19 91.3893 155.187 91.186 155.18 91.0193C155.173 90.846 155.163 90.6993 155.15 90.5793C155.143 90.4593 155.133 90.3593 155.12 90.2793C155.107 90.1993 155.09 90.1293 155.07 90.0693C154.977 89.7893 154.827 89.5726 154.62 89.4193C154.413 89.2593 154.14 89.1793 153.8 89.1793C153.46 89.1793 153.187 89.2593 152.98 89.4193C152.78 89.5726 152.633 89.7893 152.54 90.0693C152.52 90.1293 152.5 90.1993 152.48 90.2793C152.467 90.3593 152.453 90.4593 152.44 90.5793C152.433 90.6993 152.427 90.846 152.42 91.0193C152.42 91.186 152.42 91.3893 152.42 91.6293C152.42 91.8693 152.42 92.076 152.42 92.2493C152.427 92.416 152.433 92.5593 152.44 92.6793C152.453 92.7993 152.467 92.8993 152.48 92.9793C152.5 93.0593 152.52 93.1293 152.54 93.1893C152.633 93.4693 152.78 93.6893 152.98 93.8493C153.187 94.0026 153.46 94.0793 153.8 94.0793ZM153.8 95.1393C153.213 95.1393 152.71 95.0026 152.29 94.7293C151.87 94.4493 151.573 94.0393 151.4 93.4993C151.367 93.3926 151.337 93.286 151.31 93.1793C151.29 93.0726 151.273 92.9493 151.26 92.8093C151.247 92.6693 151.237 92.506 151.23 92.3193C151.223 92.126 151.22 91.896 151.22 91.6293C151.22 91.3626 151.223 91.136 151.23 90.9493C151.237 90.756 151.247 90.5893 151.26 90.4493C151.273 90.3093 151.29 90.186 151.31 90.0793C151.337 89.9726 151.367 89.866 151.4 89.7593C151.573 89.2193 151.87 88.8126 152.29 88.5393C152.71 88.2593 153.213 88.1193 153.8 88.1193C154.393 88.1193 154.9 88.2593 155.32 88.5393C155.74 88.8126 156.037 89.2193 156.21 89.7593C156.243 89.866 156.27 89.9726 156.29 90.0793C156.317 90.186 156.337 90.3093 156.35 90.4493C156.363 90.5893 156.373 90.756 156.38 90.9493C156.387 91.136 156.39 91.3626 156.39 91.6293C156.39 91.896 156.387 92.126 156.38 92.3193C156.373 92.506 156.363 92.6693 156.35 92.8093C156.337 92.9493 156.317 93.0726 156.29 93.1793C156.27 93.286 156.243 93.3926 156.21 93.4993C156.037 94.0393 155.74 94.4493 155.32 94.7293C154.9 95.0026 154.393 95.1393 153.8 95.1393ZM160.78 91.2193C161.093 91.2193 161.343 91.1326 161.53 90.9593C161.723 90.786 161.82 90.5526 161.82 90.2593C161.82 89.9593 161.723 89.7226 161.53 89.5493C161.343 89.376 161.093 89.2893 160.78 89.2893H159.33C159.29 89.2893 159.27 89.3093 159.27 89.3493V91.1593C159.27 91.1993 159.29 91.2193 159.33 91.2193H160.78ZM161.95 95.0293C161.876 95.0293 161.826 94.996 161.8 94.9293L160.5 92.2793H159.33C159.29 92.2793 159.27 92.2993 159.27 92.3393V94.9293C159.27 94.996 159.236 95.0293 159.17 95.0293H158.19C158.123 95.0293 158.09 94.996 158.09 94.9293V88.3293C158.09 88.2626 158.123 88.2293 158.19 88.2293H160.82C161.133 88.2293 161.42 88.2793 161.68 88.3793C161.946 88.4793 162.176 88.6193 162.37 88.7993C162.563 88.9726 162.713 89.186 162.82 89.4393C162.933 89.686 162.99 89.9593 162.99 90.2593C162.99 90.706 162.873 91.0926 162.64 91.4193C162.406 91.746 162.093 91.9826 161.7 92.1293L163.13 94.8993C163.15 94.9326 163.15 94.9626 163.13 94.9893C163.116 95.016 163.093 95.0293 163.06 95.0293H161.95Z" fill="black"/>
<path d="M112.41 78.3409C112.286 78.3409 112.224 78.2791 112.224 78.1556V68.2789C112.224 68.2048 112.187 68.1677 112.113 68.1677H108.926C108.802 68.1677 108.74 68.1059 108.74 67.9824V65.9255C108.74 65.802 108.802 65.7402 108.926 65.7402H118.248C118.371 65.7402 118.433 65.802 118.433 65.9255V67.9824C118.433 68.1059 118.371 68.1677 118.248 68.1677H115.06C114.986 68.1677 114.949 68.2048 114.949 68.2789V78.1556C114.949 78.2791 114.887 78.3409 114.764 78.3409H112.41Z" fill="black"/>
<path d="M124.542 78.5447C123.838 78.5447 123.189 78.4397 122.596 78.2297C122.003 78.0197 121.491 77.7109 121.058 77.3032C120.638 76.8955 120.304 76.389 120.057 75.7837C119.823 75.1784 119.705 74.4866 119.705 73.7083V65.9255C119.705 65.802 119.767 65.7402 119.891 65.7402H122.244C122.368 65.7402 122.43 65.802 122.43 65.9255V73.7824C122.43 74.536 122.621 75.1166 123.004 75.5243C123.387 75.932 123.9 76.1358 124.542 76.1358C125.173 76.1358 125.679 75.932 126.062 75.5243C126.445 75.1166 126.637 74.536 126.637 73.7824V65.9255C126.637 65.802 126.698 65.7402 126.822 65.7402H129.176C129.299 65.7402 129.361 65.802 129.361 65.9255V73.7083C129.361 74.4866 129.237 75.1784 128.99 75.7837C128.756 76.389 128.422 76.8955 127.99 77.3032C127.57 77.7109 127.063 78.0197 126.47 78.2297C125.889 78.4397 125.247 78.5447 124.542 78.5447Z" fill="black"/>
<path d="M136.58 71.2252C137.099 71.2252 137.513 71.0832 137.822 70.799C138.131 70.5149 138.285 70.1319 138.285 69.6501C138.285 69.1807 138.131 68.8039 137.822 68.5198C137.513 68.2357 137.099 68.0936 136.58 68.0936H134.356C134.282 68.0936 134.245 68.1307 134.245 68.2048V71.1141C134.245 71.1882 134.282 71.2252 134.356 71.2252H136.58ZM138.489 78.3409C138.353 78.3409 138.261 78.2791 138.211 78.1556L136.043 73.5415H134.356C134.282 73.5415 134.245 73.5786 134.245 73.6527V78.1556C134.245 78.2791 134.183 78.3409 134.06 78.3409H131.706C131.583 78.3409 131.521 78.2791 131.521 78.1556V65.9255C131.521 65.802 131.583 65.7402 131.706 65.7402H136.729C137.371 65.7402 137.952 65.8391 138.471 66.0367C139.002 66.222 139.453 66.4876 139.824 66.8335C140.207 67.1794 140.497 67.5933 140.695 68.0751C140.905 68.5569 141.01 69.0819 141.01 69.6501C141.01 70.4655 140.812 71.1758 140.417 71.7811C140.021 72.3865 139.472 72.8436 138.767 73.1524L141.251 78.1185C141.275 78.1803 141.275 78.2359 141.251 78.2853C141.226 78.3224 141.183 78.3409 141.121 78.3409H138.489Z" fill="black"/>
<path d="M142.901 65.9255C142.901 65.802 142.962 65.7402 143.086 65.7402H145.31C145.446 65.7402 145.551 65.802 145.625 65.9255L150.073 73.8565H150.166V65.9255C150.166 65.802 150.227 65.7402 150.351 65.7402H152.445C152.569 65.7402 152.631 65.802 152.631 65.9255V78.1556C152.631 78.2791 152.569 78.3409 152.445 78.3409H150.24C150.104 78.3409 149.999 78.2791 149.925 78.1556L145.458 70.2431H145.366V78.1556C145.366 78.2791 145.304 78.3409 145.18 78.3409H143.086C142.962 78.3409 142.901 78.2791 142.901 78.1556V65.9255Z" fill="black"/>
<path d="M154.86 78.5191C154.86 78.4203 154.89 78.3338 154.952 78.2597L159.382 72.9971C159.629 72.7129 159.814 72.435 159.938 72.1632C160.061 71.8791 160.123 71.5764 160.123 71.2552C160.123 70.8352 159.999 70.4893 159.752 70.2175C159.518 69.9457 159.184 69.8098 158.752 69.8098C157.874 69.8098 157.38 70.304 157.269 71.2923C157.269 71.4158 157.201 71.4652 157.065 71.4405L155.026 71.107C154.903 71.0822 154.853 71.0081 154.878 70.8846C154.915 70.4522 155.026 70.0384 155.212 69.643C155.397 69.2477 155.657 68.9018 155.99 68.6053C156.336 68.3089 156.744 68.0741 157.213 67.9012C157.695 67.7159 158.239 67.6232 158.844 67.6232C159.45 67.6232 159.987 67.7159 160.457 67.9012C160.938 68.0865 161.346 68.3397 161.68 68.6609C162.013 68.9821 162.267 69.3651 162.44 69.8098C162.625 70.2422 162.718 70.7116 162.718 71.2181C162.718 71.8235 162.6 72.3732 162.366 72.8673C162.143 73.3491 161.834 73.8186 161.439 74.2756L158.121 78.1856V78.2226H162.532C162.656 78.2226 162.718 78.2844 162.718 78.4079V80.2424C162.718 80.366 162.656 80.4277 162.532 80.4277H155.045C154.921 80.4277 154.86 80.366 154.86 80.2424V78.5191Z" fill="black"/>
<path d="M172.015 78.3409C171.879 78.3409 171.774 78.2791 171.7 78.1556L169.458 74.3198H169.402L167.141 78.1556C167.067 78.2791 166.962 78.3409 166.826 78.3409H164.268C164.207 78.3409 164.163 78.3224 164.139 78.2853C164.114 78.2359 164.12 78.1803 164.157 78.1185L167.919 71.8367L164.417 65.9626C164.392 65.9008 164.386 65.8514 164.398 65.8144C164.423 65.7649 164.466 65.7402 164.528 65.7402H167.104C167.227 65.7402 167.326 65.802 167.4 65.9255L169.402 69.3351H169.458L171.459 65.9255C171.533 65.802 171.632 65.7402 171.756 65.7402H174.332C174.394 65.7402 174.431 65.7649 174.443 65.8144C174.468 65.8514 174.468 65.9008 174.443 65.9626L170.922 71.8367L174.703 78.1185C174.727 78.1803 174.727 78.2359 174.703 78.2853C174.69 78.3224 174.653 78.3409 174.591 78.3409H172.015Z" fill="black"/>
<path fill-rule="evenodd" clip-rule="evenodd" d="M150.889 33.4269C149.026 31.5634 146.005 31.5634 144.141 33.4269C143.615 33.9532 143.237 34.572 143.008 35.2309C142.819 35.7129 142.679 36.2206 142.533 36.7479C142.132 38.2011 141.69 39.8026 140.07 41.4224C138.45 43.0423 136.849 43.4842 135.396 43.8852C135.099 43.967 134.809 44.047 134.527 44.1349C133.651 44.3188 132.818 44.7505 132.138 45.4302C130.274 47.2936 130.274 50.3148 132.138 52.1782C134.001 54.0416 137.023 54.0416 138.886 52.1782C139.567 51.4976 139.999 50.6624 140.182 49.7857C140.27 49.5035 140.35 49.2141 140.432 48.9186C140.833 47.4654 141.275 45.8639 142.895 44.244C144.514 42.6242 146.116 42.1822 147.569 41.7812C148.089 41.6378 148.59 41.4997 149.065 41.3148C149.732 41.0865 150.358 40.7065 150.889 40.1749C152.753 38.3115 152.753 35.2903 150.889 33.4269Z" fill="#4579DD"/>
<path fill-rule="evenodd" clip-rule="evenodd" d="M150.889 52.1786C149.026 54.042 146.005 54.042 144.141 52.1786C143.615 51.6522 143.237 51.0335 143.008 50.3746C142.819 49.8926 142.679 49.3848 142.533 48.8576C142.132 47.4044 141.69 45.8029 140.07 44.183C138.45 42.5632 136.849 42.1212 135.396 41.7202C135.099 41.6385 134.809 41.5585 134.527 41.4706C133.651 41.2867 132.818 40.8549 132.138 40.1753C130.274 38.3119 130.274 35.2907 132.138 33.4273C134.001 31.5639 137.023 31.5639 138.886 33.4273C139.567 34.1079 139.999 34.943 140.182 35.8198C140.27 36.102 140.35 36.3914 140.432 36.6869C140.833 38.1401 141.275 39.7416 142.895 41.3614C144.514 42.9813 146.116 43.4232 147.569 43.8243C148.089 43.9676 148.59 44.1058 149.065 44.2907C149.732 44.519 150.358 44.8989 150.889 45.4306C152.753 47.294 152.753 50.3152 150.889 52.1786Z" fill="#385494"/>
<path d="M143 133C143 132.448 142.552 132 142 132C141.448 132 141 132.448 141 133L143 133ZM141.293 152.207C141.683 152.598 142.317 152.598 142.707 152.207L149.071 145.843C149.462 145.453 149.462 144.819 149.071 144.429C148.681 144.038 148.047 144.038 147.657 144.429L142 150.086L136.343 144.429C135.953 144.038 135.319 144.038 134.929 144.429C134.538 144.819 134.538 145.453 134.929 145.843L141.293 152.207ZM141 133L141 151.5L143 151.5L143 133L141 133Z" fill="#D6E3FF"/>
<rect x="92" y="258" width="100" height="100" rx="12" transform="rotate(-90 92 258)" stroke="#D6E3FF" stroke-width="2"/>
<path d="M127.586 223.192C127.514 223 127.454 222.808 127.406 222.616C127.37 222.412 127.34 222.19 127.316 221.95C127.292 221.698 127.274 221.41 127.262 221.086C127.25 220.75 127.244 220.348 127.244 219.88C127.244 219.412 127.25 219.016 127.262 218.692C127.274 218.356 127.292 218.068 127.316 217.828C127.34 217.576 127.37 217.354 127.406 217.162C127.454 216.97 127.514 216.772 127.586 216.568C127.91 215.56 128.444 214.81 129.188 214.318C129.944 213.814 130.862 213.562 131.942 213.562C132.986 213.562 133.868 213.802 134.588 214.282C135.32 214.75 135.86 215.416 136.208 216.28C136.268 216.388 136.238 216.46 136.118 216.496L134.156 217.378C134.048 217.438 133.964 217.408 133.904 217.288C133.736 216.892 133.496 216.562 133.184 216.298C132.884 216.034 132.476 215.902 131.96 215.902C131.48 215.902 131.084 216.022 130.772 216.262C130.472 216.502 130.256 216.832 130.124 217.252C130.088 217.36 130.058 217.48 130.034 217.612C130.01 217.732 129.986 217.888 129.962 218.08C129.95 218.272 129.938 218.512 129.926 218.8C129.926 219.088 129.926 219.448 129.926 219.88C129.926 220.312 129.926 220.672 129.926 220.96C129.938 221.248 129.95 221.488 129.962 221.68C129.986 221.872 130.01 222.034 130.034 222.166C130.058 222.286 130.088 222.4 130.124 222.508C130.256 222.928 130.472 223.258 130.772 223.498C131.084 223.738 131.48 223.858 131.96 223.858C132.476 223.858 132.884 223.726 133.184 223.462C133.496 223.198 133.736 222.868 133.904 222.472C133.964 222.352 134.048 222.322 134.156 222.382L136.118 223.264C136.238 223.3 136.268 223.372 136.208 223.48C135.86 224.344 135.32 225.016 134.588 225.496C133.868 225.964 132.986 226.198 131.942 226.198C130.862 226.198 129.944 225.952 129.188 225.46C128.444 224.956 127.91 224.2 127.586 223.192ZM137.922 213.94C137.922 213.82 137.982 213.76 138.102 213.76H140.388C140.508 213.76 140.568 213.82 140.568 213.94V218.53C140.568 218.602 140.604 218.638 140.676 218.638H144.672C144.744 218.638 144.78 218.602 144.78 218.53V213.94C144.78 213.82 144.84 213.76 144.96 213.76H147.246C147.366 213.76 147.426 213.82 147.426 213.94V225.82C147.426 225.94 147.366 226 147.246 226H144.96C144.84 226 144.78 225.94 144.78 225.82V221.104C144.78 221.032 144.744 220.996 144.672 220.996H140.676C140.604 220.996 140.568 221.032 140.568 221.104V225.82C140.568 225.94 140.508 226 140.388 226H138.102C137.982 226 137.922 225.94 137.922 225.82V213.94ZM149.518 224.218C149.398 224.218 149.338 224.158 149.338 224.038V222.202C149.338 222.106 149.35 222.034 149.374 221.986L153.046 213.904C153.094 213.808 153.178 213.76 153.298 213.76H155.584C155.704 213.76 155.746 213.82 155.71 213.94L152.038 221.986V222.04H154.288C154.36 222.04 154.396 222.004 154.396 221.932V219.286C154.396 219.166 154.456 219.106 154.576 219.106H156.664C156.784 219.106 156.844 219.166 156.844 219.286V221.932C156.844 222.004 156.88 222.04 156.952 222.04H157.762C157.882 222.04 157.942 222.1 157.942 222.22V224.038C157.942 224.158 157.882 224.218 157.762 224.218H156.952C156.88 224.218 156.844 224.254 156.844 224.326V225.82C156.844 225.94 156.784 226 156.664 226H154.576C154.456 226 154.396 225.94 154.396 225.82V224.326C154.396 224.254 154.36 224.218 154.288 224.218H149.518Z" fill="black"/>
<path opacity="0.4" d="M120.16 237.3C120.16 237.233 120.194 237.2 120.26 237.2H121.15C121.237 237.2 121.294 237.233 121.32 237.3L123.19 241.49H123.23L125.07 237.3C125.097 237.233 125.154 237.2 125.24 237.2H126.12C126.187 237.2 126.22 237.233 126.22 237.3V243.9C126.22 243.967 126.187 244 126.12 244H125.25C125.184 244 125.15 243.967 125.15 243.9V239.74H125.11L123.67 242.94C123.63 243.027 123.567 243.07 123.48 243.07H122.9C122.814 243.07 122.75 243.027 122.71 242.94L121.27 239.74H121.23V243.9C121.23 243.967 121.197 244 121.13 244H120.26C120.194 244 120.16 243.967 120.16 243.9V237.3ZM128.119 237.3C128.119 237.233 128.152 237.2 128.219 237.2H132.479C132.546 237.2 132.579 237.233 132.579 237.3V238.16C132.579 238.227 132.546 238.26 132.479 238.26H129.359C129.319 238.26 129.299 238.28 129.299 238.32V239.98C129.299 240.02 129.319 240.04 129.359 240.04H131.989C132.056 240.04 132.089 240.073 132.089 240.14V241C132.089 241.067 132.056 241.1 131.989 241.1H129.359C129.319 241.1 129.299 241.12 129.299 241.16V242.88C129.299 242.92 129.319 242.94 129.359 242.94H132.479C132.546 242.94 132.579 242.973 132.579 243.04V243.9C132.579 243.967 132.546 244 132.479 244H128.219C128.152 244 128.119 243.967 128.119 243.9V237.3ZM135.732 244C135.665 244 135.632 243.967 135.632 243.9V238.32C135.632 238.28 135.612 238.26 135.572 238.26H133.792C133.725 238.26 133.692 238.227 133.692 238.16V237.3C133.692 237.233 133.725 237.2 133.792 237.2H138.652C138.719 237.2 138.752 237.233 138.752 237.3V238.16C138.752 238.227 138.719 238.26 138.652 238.26H136.872C136.832 238.26 136.812 238.28 136.812 238.32V243.9C136.812 243.967 136.779 244 136.712 244H135.732ZM140.12 237.3C140.12 237.233 140.153 237.2 140.22 237.2H141.2C141.267 237.2 141.3 237.233 141.3 237.3V239.98C141.3 240.02 141.32 240.04 141.36 240.04H143.95C143.99 240.04 144.01 240.02 144.01 239.98V237.3C144.01 237.233 144.043 237.2 144.11 237.2H145.09C145.157 237.2 145.19 237.233 145.19 237.3V243.9C145.19 243.967 145.157 244 145.09 244H144.11C144.043 244 144.01 243.967 144.01 243.9V241.16C144.01 241.12 143.99 241.1 143.95 241.1H141.36C141.32 241.1 141.3 241.12 141.3 241.16V243.9C141.3 243.967 141.267 244 141.2 244H140.22C140.153 244 140.12 243.967 140.12 243.9V237.3ZM150.342 241.53L149.442 238.89H149.412L148.502 241.53H150.342ZM148.852 237.3C148.872 237.233 148.916 237.2 148.982 237.2H149.902C149.969 237.2 150.012 237.233 150.032 237.3L152.332 243.9C152.352 243.967 152.329 244 152.262 244H151.282C151.216 244 151.172 243.967 151.152 243.9L150.702 242.58H148.142L147.692 243.9C147.672 243.967 147.629 244 147.562 244H146.592C146.526 244 146.502 243.967 146.522 243.9L148.852 237.3ZM153.664 237.3C153.664 237.233 153.698 237.2 153.764 237.2H154.684C154.758 237.2 154.814 237.233 154.854 237.3L157.624 241.99H157.664V237.3C157.664 237.233 157.698 237.2 157.764 237.2H158.634C158.701 237.2 158.734 237.233 158.734 237.3V243.9C158.734 243.967 158.701 244 158.634 244H157.724C157.651 244 157.594 243.967 157.554 243.9L154.774 239.22H154.734V243.9C154.734 243.967 154.701 244 154.634 244H153.764C153.698 244 153.664 243.967 153.664 243.9V237.3ZM160.637 237.3C160.637 237.233 160.67 237.2 160.737 237.2H164.997C165.063 237.2 165.097 237.233 165.097 237.3V238.16C165.097 238.227 165.063 238.26 164.997 238.26H161.877C161.837 238.26 161.817 238.28 161.817 238.32V239.98C161.817 240.02 161.837 240.04 161.877 240.04H164.507C164.573 240.04 164.607 240.073 164.607 240.14V241C164.607 241.067 164.573 241.1 164.507 241.1H161.877C161.837 241.1 161.817 241.12 161.817 241.16V242.88C161.817 242.92 161.837 242.94 161.877 242.94H164.997C165.063 242.94 165.097 242.973 165.097 243.04V243.9C165.097 243.967 165.063 244 164.997 244H160.737C160.67 244 160.637 243.967 160.637 243.9V237.3Z" fill="black"/>
<path fill-rule="evenodd" clip-rule="evenodd" d="M138.398 185.202L138.375 185.22C138.326 185.243 138.278 185.263 138.23 185.281C138.075 185.34 137.896 185.385 137.636 185.387C137.376 185.39 137.197 185.349 137.04 185.293C136.851 185.226 136.671 185.132 136.322 184.939L136.31 184.931L136.31 184.931C136.207 184.874 136.08 184.804 135.946 184.734C135.193 184.28 134.306 184.023 133.367 184.032C130.659 184.06 128.486 186.278 128.513 188.986C128.54 191.694 130.758 193.868 133.467 193.84C134.404 193.83 135.284 193.556 136.028 193.088C136.161 193.014 136.287 192.941 136.389 192.882L136.389 192.882L136.402 192.874C136.746 192.674 136.924 192.576 137.113 192.505C137.268 192.446 137.447 192.401 137.706 192.398C137.959 192.396 138.134 192.435 138.284 192.486C138.304 192.493 138.323 192.5 138.342 192.507C138.359 192.545 138.374 192.582 138.388 192.619C138.447 192.774 138.492 192.953 138.494 193.212C138.497 193.472 138.456 193.652 138.4 193.808C138.333 193.998 138.238 194.178 138.045 194.526L138.027 194.559L138.027 194.559L138.027 194.559C137.91 194.77 137.735 195.085 137.585 195.431C137.291 196.071 137.132 196.783 137.139 197.525C137.167 200.234 139.385 202.407 142.093 202.38C144.801 202.352 146.975 200.134 146.947 197.426C146.94 196.676 146.763 195.961 146.451 195.323C146.296 194.988 146.119 194.684 145.999 194.478L145.981 194.447C145.781 194.102 145.683 193.924 145.612 193.736C145.553 193.581 145.508 193.402 145.505 193.142C145.503 192.898 145.54 192.726 145.588 192.581L145.595 192.559C145.64 192.539 145.683 192.521 145.727 192.504C145.882 192.445 146.061 192.401 146.321 192.398C146.581 192.395 146.761 192.436 146.917 192.492C147.106 192.559 147.286 192.654 147.635 192.847L147.667 192.865L147.667 192.865C147.879 192.982 148.193 193.157 148.54 193.307C149.179 193.601 149.892 193.76 150.634 193.752C153.342 193.725 155.516 191.507 155.488 188.799C155.461 186.09 153.243 183.917 150.535 183.945C149.785 183.952 149.07 184.129 148.432 184.441C148.097 184.596 147.793 184.773 147.587 184.893L147.555 184.911C147.211 185.111 147.033 185.209 146.845 185.281C146.689 185.339 146.51 185.384 146.251 185.387C146.01 185.389 145.841 185.354 145.699 185.308L145.692 185.305C145.661 185.241 145.635 185.182 145.612 185.122C145.553 184.966 145.509 184.787 145.506 184.528C145.503 184.268 145.545 184.088 145.6 183.932C145.668 183.742 145.762 183.562 145.955 183.214L145.962 183.201C146.019 183.098 146.089 182.972 146.16 182.838C146.614 182.084 146.871 181.198 146.862 180.259C146.834 177.55 144.617 175.377 141.908 175.405C139.2 175.432 137.026 177.65 137.054 180.358C137.063 181.296 137.338 182.176 137.806 182.92C137.88 183.053 137.953 183.179 138.012 183.281L138.019 183.293C138.22 183.638 138.317 183.816 138.389 184.004C138.447 184.159 138.492 184.338 138.495 184.598C138.497 184.846 138.46 185.019 138.41 185.167C138.406 185.178 138.402 185.19 138.398 185.202Z" fill="#385494"/>
<path d="M79.5147 75.2254C74.8284 70.5391 74.8284 62.9411 79.5147 58.2548L133.255 4.51472C137.941 -0.171572 145.539 -0.171573 150.225 4.51472L203.966 58.2548C208.652 62.9411 208.652 70.5391 203.966 75.2254L150.225 128.966C145.539 133.652 137.941 133.652 133.255 128.966L79.5147 75.2254Z" fill="#487AEE" stroke="#487AEE" stroke-width="2"/>
<path opacity="0.4" d="M123.389 91.2193C123.703 91.2193 123.953 91.1326 124.139 90.9593C124.333 90.786 124.429 90.5526 124.429 90.2593C124.429 89.9593 124.333 89.7226 124.139 89.5493C123.953 89.376 123.703 89.2893 123.389 89.2893H121.939C121.899 89.2893 121.879 89.3093 121.879 89.3493V91.1593C121.879 91.1993 121.899 91.2193 121.939 91.2193H123.389ZM124.559 95.0293C124.486 95.0293 124.436 94.996 124.409 94.9293L123.109 92.2793H121.939C121.899 92.2793 121.879 92.2993 121.879 92.3393V94.9293C121.879 94.996 121.846 95.0293 121.779 95.0293H120.799C120.733 95.0293 120.699 94.996 120.699 94.9293V88.3293C120.699 88.2626 120.733 88.2293 120.799 88.2293H123.429C123.743 88.2293 124.029 88.2793 124.289 88.3793C124.556 88.4793 124.786 88.6193 124.979 88.7993C125.173 88.9726 125.323 89.186 125.429 89.4393C125.543 89.686 125.599 89.9593 125.599 90.2593C125.599 90.706 125.483 91.0926 125.249 91.4193C125.016 91.746 124.703 91.9826 124.309 92.1293L125.739 94.8993C125.759 94.9326 125.759 94.9626 125.739 94.9893C125.726 95.016 125.703 95.0293 125.669 95.0293H124.559ZM127.291 88.3293C127.291 88.2626 127.324 88.2293 127.391 88.2293H131.651C131.717 88.2293 131.751 88.2626 131.751 88.3293V89.1893C131.751 89.256 131.717 89.2893 131.651 89.2893H128.531C128.491 89.2893 128.471 89.3093 128.471 89.3493V91.0093C128.471 91.0493 128.491 91.0693 128.531 91.0693H131.161C131.227 91.0693 131.261 91.1026 131.261 91.1693V92.0293C131.261 92.096 131.227 92.1293 131.161 92.1293H128.531C128.491 92.1293 128.471 92.1493 128.471 92.1893V93.9093C128.471 93.9493 128.491 93.9693 128.531 93.9693H131.651C131.717 93.9693 131.751 94.0026 131.751 94.0693V94.9293C131.751 94.996 131.717 95.0293 131.651 95.0293H127.391C127.324 95.0293 127.291 94.996 127.291 94.9293V88.3293ZM136.644 92.5593L135.744 89.9193H135.714L134.804 92.5593H136.644ZM135.154 88.3293C135.174 88.2626 135.217 88.2293 135.284 88.2293H136.204C136.271 88.2293 136.314 88.2626 136.334 88.3293L138.634 94.9293C138.654 94.996 138.631 95.0293 138.564 95.0293H137.584C137.517 95.0293 137.474 94.996 137.454 94.9293L137.004 93.6093H134.444L133.994 94.9293C133.974 94.996 133.931 95.0293 133.864 95.0293H132.894C132.827 95.0293 132.804 94.996 132.824 94.9293L135.154 88.3293ZM139.702 93.4693C139.668 93.3626 139.638 93.2593 139.612 93.1593C139.592 93.0526 139.575 92.9326 139.562 92.7993C139.548 92.6593 139.538 92.4993 139.532 92.3193C139.525 92.1326 139.522 91.9026 139.522 91.6293C139.522 91.3626 139.525 91.136 139.532 90.9493C139.538 90.7626 139.548 90.6026 139.562 90.4693C139.575 90.3293 139.592 90.2093 139.612 90.1093C139.638 90.0026 139.668 89.896 139.702 89.7893C139.875 89.2293 140.165 88.8126 140.572 88.5393C140.985 88.2593 141.482 88.1193 142.062 88.1193C142.608 88.1193 143.078 88.2493 143.472 88.5093C143.872 88.7693 144.168 89.126 144.362 89.5793C144.382 89.6393 144.365 89.6793 144.312 89.6993L143.462 90.1093C143.402 90.1426 143.358 90.126 143.332 90.0593C143.218 89.8193 143.062 89.6126 142.862 89.4393C142.668 89.266 142.402 89.1793 142.062 89.1793C141.735 89.1793 141.472 89.2593 141.272 89.4193C141.078 89.5793 140.935 89.7993 140.842 90.0793C140.822 90.1526 140.802 90.226 140.782 90.2993C140.768 90.3726 140.755 90.4693 140.742 90.5893C140.735 90.7026 140.728 90.8426 140.722 91.0093C140.722 91.176 140.722 91.3826 140.722 91.6293C140.722 91.8826 140.722 92.0926 140.722 92.2593C140.728 92.4193 140.735 92.5593 140.742 92.6793C140.755 92.7926 140.768 92.8893 140.782 92.9693C140.802 93.0426 140.822 93.1126 140.842 93.1793C140.935 93.4593 141.078 93.6793 141.272 93.8393C141.472 93.9993 141.735 94.0793 142.062 94.0793C142.402 94.0793 142.668 93.9926 142.862 93.8193C143.062 93.646 143.218 93.4393 143.332 93.1993C143.358 93.1326 143.402 93.116 143.462 93.1493L144.312 93.5593C144.365 93.5793 144.382 93.6193 144.362 93.6793C144.168 94.1326 143.872 94.4893 143.472 94.7493C143.078 95.0093 142.608 95.1393 142.062 95.1393C141.482 95.1393 140.985 95.0026 140.572 94.7293C140.165 94.4493 139.875 94.0293 139.702 93.4693ZM147.208 95.0293C147.141 95.0293 147.108 94.996 147.108 94.9293V89.3493C147.108 89.3093 147.088 89.2893 147.048 89.2893H145.268C145.201 89.2893 145.168 89.256 145.168 89.1893V88.3293C145.168 88.2626 145.201 88.2293 145.268 88.2293H150.128C150.195 88.2293 150.228 88.2626 150.228 88.3293V89.1893C150.228 89.256 150.195 89.2893 150.128 89.2893H148.348C148.308 89.2893 148.288 89.3093 148.288 89.3493V94.9293C148.288 94.996 148.255 95.0293 148.188 95.0293H147.208ZM153.8 94.0793C154.14 94.0793 154.413 94.0026 154.62 93.8493C154.827 93.6893 154.977 93.4693 155.07 93.1893C155.09 93.1293 155.107 93.0593 155.12 92.9793C155.133 92.8993 155.143 92.7993 155.15 92.6793C155.163 92.5593 155.173 92.416 155.18 92.2493C155.187 92.076 155.19 91.8693 155.19 91.6293C155.19 91.3893 155.187 91.186 155.18 91.0193C155.173 90.846 155.163 90.6993 155.15 90.5793C155.143 90.4593 155.133 90.3593 155.12 90.2793C155.107 90.1993 155.09 90.1293 155.07 90.0693C154.977 89.7893 154.827 89.5726 154.62 89.4193C154.413 89.2593 154.14 89.1793 153.8 89.1793C153.46 89.1793 153.187 89.2593 152.98 89.4193C152.78 89.5726 152.633 89.7893 152.54 90.0693C152.52 90.1293 152.5 90.1993 152.48 90.2793C152.467 90.3593 152.453 90.4593 152.44 90.5793C152.433 90.6993 152.427 90.846 152.42 91.0193C152.42 91.186 152.42 91.3893 152.42 91.6293C152.42 91.8693 152.42 92.076 152.42 92.2493C152.427 92.416 152.433 92.5593 152.44 92.6793C152.453 92.7993 152.467 92.8993 152.48 92.9793C152.5 93.0593 152.52 93.1293 152.54 93.1893C152.633 93.4693 152.78 93.6893 152.98 93.8493C153.187 94.0026 153.46 94.0793 153.8 94.0793ZM153.8 95.1393C153.213 95.1393 152.71 95.0026 152.29 94.7293C151.87 94.4493 151.573 94.0393 151.4 93.4993C151.367 93.3926 151.337 93.286 151.31 93.1793C151.29 93.0726 151.273 92.9493 151.26 92.8093C151.247 92.6693 151.237 92.506 151.23 92.3193C151.223 92.126 151.22 91.896 151.22 91.6293C151.22 91.3626 151.223 91.136 151.23 90.9493C151.237 90.756 151.247 90.5893 151.26 90.4493C151.273 90.3093 151.29 90.186 151.31 90.0793C151.337 89.9726 151.367 89.866 151.4 89.7593C151.573 89.2193 151.87 88.8126 152.29 88.5393C152.71 88.2593 153.213 88.1193 153.8 88.1193C154.393 88.1193 154.9 88.2593 155.32 88.5393C155.74 88.8126 156.037 89.2193 156.21 89.7593C156.243 89.866 156.27 89.9726 156.29 90.0793C156.317 90.186 156.337 90.3093 156.35 90.4493C156.363 90.5893 156.373 90.756 156.38 90.9493C156.387 91.136 156.39 91.3626 156.39 91.6293C156.39 91.896 156.387 92.126 156.38 92.3193C156.373 92.506 156.363 92.6693 156.35 92.8093C156.337 92.9493 156.317 93.0726 156.29 93.1793C156.27 93.286 156.243 93.3926 156.21 93.4993C156.037 94.0393 155.74 94.4493 155.32 94.7293C154.9 95.0026 154.393 95.1393 153.8 95.1393ZM160.78 91.2193C161.093 91.2193 161.343 91.1326 161.53 90.9593C161.723 90.786 161.82 90.5526 161.82 90.2593C161.82 89.9593 161.723 89.7226 161.53 89.5493C161.343 89.376 161.093 89.2893 160.78 89.2893H159.33C159.29 89.2893 159.27 89.3093 159.27 89.3493V91.1593C159.27 91.1993 159.29 91.2193 159.33 91.2193H160.78ZM161.95 95.0293C161.876 95.0293 161.826 94.996 161.8 94.9293L160.5 92.2793H159.33C159.29 92.2793 159.27 92.2993 159.27 92.3393V94.9293C159.27 94.996 159.236 95.0293 159.17 95.0293H158.19C158.123 95.0293 158.09 94.996 158.09 94.9293V88.3293C158.09 88.2626 158.123 88.2293 158.19 88.2293H160.82C161.133 88.2293 161.42 88.2793 161.68 88.3793C161.946 88.4793 162.176 88.6193 162.37 88.7993C162.563 88.9726 162.713 89.186 162.82 89.4393C162.933 89.686 162.99 89.9593 162.99 90.2593C162.99 90.706 162.873 91.0926 162.64 91.4193C162.406 91.746 162.093 91.9826 161.7 92.1293L163.13 94.8993C163.15 94.9326 163.15 94.9626 163.13 94.9893C163.116 95.016 163.093 95.0293 163.06 95.0293H161.95Z" fill="white"/>
<path d="M112.41 78.3409C112.286 78.3409 112.224 78.2791 112.224 78.1556V68.2789C112.224 68.2048 112.187 68.1677 112.113 68.1677H108.926C108.802 68.1677 108.74 68.1059 108.74 67.9824V65.9255C108.74 65.802 108.802 65.7402 108.926 65.7402H118.248C118.371 65.7402 118.433 65.802 118.433 65.9255V67.9824C118.433 68.1059 118.371 68.1677 118.248 68.1677H115.06C114.986 68.1677 114.949 68.2048 114.949 68.2789V78.1556C114.949 78.2791 114.887 78.3409 114.764 78.3409H112.41Z" fill="white"/>
<path d="M124.542 78.5447C123.838 78.5447 123.189 78.4397 122.596 78.2297C122.003 78.0197 121.491 77.7109 121.058 77.3032C120.638 76.8955 120.304 76.389 120.057 75.7837C119.823 75.1784 119.705 74.4866 119.705 73.7083V65.9255C119.705 65.802 119.767 65.7402 119.891 65.7402H122.244C122.368 65.7402 122.43 65.802 122.43 65.9255V73.7824C122.43 74.536 122.621 75.1166 123.004 75.5243C123.387 75.932 123.9 76.1358 124.542 76.1358C125.173 76.1358 125.679 75.932 126.062 75.5243C126.445 75.1166 126.637 74.536 126.637 73.7824V65.9255C126.637 65.802 126.698 65.7402 126.822 65.7402H129.176C129.299 65.7402 129.361 65.802 129.361 65.9255V73.7083C129.361 74.4866 129.237 75.1784 128.99 75.7837C128.756 76.389 128.422 76.8955 127.99 77.3032C127.57 77.7109 127.063 78.0197 126.47 78.2297C125.889 78.4397 125.247 78.5447 124.542 78.5447Z" fill="white"/>
<path d="M136.58 71.2252C137.099 71.2252 137.513 71.0832 137.822 70.799C138.131 70.5149 138.285 70.1319 138.285 69.6501C138.285 69.1807 138.131 68.8039 137.822 68.5198C137.513 68.2357 137.099 68.0936 136.58 68.0936H134.356C134.282 68.0936 134.245 68.1307 134.245 68.2048V71.1141C134.245 71.1882 134.282 71.2252 134.356 71.2252H136.58ZM138.489 78.3409C138.353 78.3409 138.261 78.2791 138.211 78.1556L136.043 73.5415H134.356C134.282 73.5415 134.245 73.5786 134.245 73.6527V78.1556C134.245 78.2791 134.183 78.3409 134.06 78.3409H131.706C131.583 78.3409 131.521 78.2791 131.521 78.1556V65.9255C131.521 65.802 131.583 65.7402 131.706 65.7402H136.729C137.371 65.7402 137.952 65.8391 138.471 66.0367C139.002 66.222 139.453 66.4876 139.824 66.8335C140.207 67.1794 140.497 67.5933 140.695 68.0751C140.905 68.5569 141.01 69.0819 141.01 69.6501C141.01 70.4655 140.812 71.1758 140.417 71.7811C140.021 72.3865 139.472 72.8436 138.767 73.1524L141.251 78.1185C141.275 78.1803 141.275 78.2359 141.251 78.2853C141.226 78.3224 141.183 78.3409 141.121 78.3409H138.489Z" fill="white"/>
<path d="M142.901 65.9255C142.901 65.802 142.962 65.7402 143.086 65.7402H145.31C145.446 65.7402 145.551 65.802 145.625 65.9255L150.073 73.8565H150.166V65.9255C150.166 65.802 150.227 65.7402 150.351 65.7402H152.445C152.569 65.7402 152.631 65.802 152.631 65.9255V78.1556C152.631 78.2791 152.569 78.3409 152.445 78.3409H150.24C150.104 78.3409 149.999 78.2791 149.925 78.1556L145.458 70.2431H145.366V78.1556C145.366 78.2791 145.304 78.3409 145.18 78.3409H143.086C142.962 78.3409 142.901 78.2791 142.901 78.1556V65.9255Z" fill="white"/>
<path d="M154.86 78.5191C154.86 78.4203 154.89 78.3338 154.952 78.2597L159.382 72.9971C159.629 72.7129 159.814 72.435 159.938 72.1632C160.061 71.8791 160.123 71.5764 160.123 71.2552C160.123 70.8352 159.999 70.4893 159.752 70.2175C159.518 69.9457 159.184 69.8098 158.752 69.8098C157.874 69.8098 157.38 70.304 157.269 71.2923C157.269 71.4158 157.201 71.4652 157.065 71.4405L155.026 71.107C154.903 71.0822 154.853 71.0081 154.878 70.8846C154.915 70.4522 155.026 70.0384 155.212 69.643C155.397 69.2477 155.657 68.9018 155.99 68.6053C156.336 68.3089 156.744 68.0741 157.213 67.9012C157.695 67.7159 158.239 67.6232 158.844 67.6232C159.45 67.6232 159.987 67.7159 160.457 67.9012C160.938 68.0865 161.346 68.3397 161.68 68.6609C162.013 68.9821 162.267 69.3651 162.44 69.8098C162.625 70.2422 162.718 70.7116 162.718 71.2181C162.718 71.8235 162.6 72.3732 162.366 72.8673C162.143 73.3491 161.834 73.8186 161.439 74.2756L158.121 78.1856V78.2226H162.532C162.656 78.2226 162.718 78.2844 162.718 78.4079V80.2424C162.718 80.366 162.656 80.4277 162.532 80.4277H155.045C154.921 80.4277 154.86 80.366 154.86 80.2424V78.5191Z" fill="white"/>
<path d="M172.015 78.3409C171.879 78.3409 171.774 78.2791 171.7 78.1556L169.458 74.3198H169.402L167.141 78.1556C167.067 78.2791 166.962 78.3409 166.826 78.3409H164.268C164.207 78.3409 164.163 78.3224 164.139 78.2853C164.114 78.2359 164.12 78.1803 164.157 78.1185L167.919 71.8367L164.417 65.9626C164.392 65.9008 164.386 65.8514 164.398 65.8144C164.423 65.7649 164.466 65.7402 164.528 65.7402H167.104C167.227 65.7402 167.326 65.802 167.4 65.9255L169.402 69.3351H169.458L171.459 65.9255C171.533 65.802 171.632 65.7402 171.756 65.7402H174.332C174.394 65.7402 174.431 65.7649 174.443 65.8144C174.468 65.8514 174.468 65.9008 174.443 65.9626L170.922 71.8367L174.703 78.1185C174.727 78.1803 174.727 78.2359 174.703 78.2853C174.69 78.3224 174.653 78.3409 174.591 78.3409H172.015Z" fill="white"/>
<path fill-rule="evenodd" clip-rule="evenodd" d="M150.889 33.4269C149.026 31.5634 146.005 31.5634 144.141 33.4269C143.615 33.9532 143.237 34.572 143.008 35.2309C142.819 35.7129 142.679 36.2206 142.533 36.7479C142.132 38.2011 141.69 39.8026 140.07 41.4224C138.45 43.0423 136.849 43.4842 135.396 43.8852C135.099 43.967 134.809 44.047 134.527 44.1349C133.651 44.3188 132.818 44.7505 132.138 45.4302C130.274 47.2936 130.274 50.3148 132.138 52.1782C134.001 54.0416 137.023 54.0416 138.886 52.1782C139.567 51.4976 139.999 50.6624 140.182 49.7857C140.27 49.5035 140.35 49.2141 140.432 48.9186C140.833 47.4654 141.275 45.8639 142.895 44.244C144.514 42.6242 146.116 42.1822 147.569 41.7812C148.089 41.6378 148.59 41.4997 149.065 41.3148C149.732 41.0865 150.358 40.7065 150.889 40.1749C152.753 38.3115 152.753 35.2903 150.889 33.4269Z" fill="white"/>
<path fill-rule="evenodd" clip-rule="evenodd" d="M150.889 52.1786C149.026 54.042 146.005 54.042 144.141 52.1786C143.615 51.6522 143.237 51.0335 143.008 50.3746C142.819 49.8926 142.679 49.3848 142.533 48.8576C142.132 47.4044 141.69 45.8029 140.07 44.183C138.45 42.5632 136.849 42.1212 135.396 41.7202C135.099 41.6385 134.809 41.5585 134.527 41.4706C133.651 41.2867 132.818 40.8549 132.138 40.1753C130.274 38.3119 130.274 35.2907 132.138 33.4273C134.001 31.5639 137.023 31.5639 138.886 33.4273C139.567 34.1079 139.999 34.943 140.182 35.8198C140.27 36.102 140.35 36.3914 140.432 36.6869C140.833 38.1401 141.275 39.7416 142.895 41.3614C144.514 42.9813 146.116 43.4232 147.569 43.8243C148.089 43.9676 148.59 44.1058 149.065 44.2907C149.732 44.519 150.358 44.8989 150.889 45.4306C152.753 47.294 152.753 50.3152 150.889 52.1786Z" fill="white"/>
<path d="M143 133C143 132.448 142.552 132 142 132C141.448 132 141 132.448 141 133L143 133ZM141.293 152.207C141.683 152.598 142.317 152.598 142.707 152.207L149.071 145.843C149.462 145.453 149.462 144.819 149.071 144.429C148.681 144.038 148.047 144.038 147.657 144.429L142 150.086L136.343 144.429C135.953 144.038 135.319 144.038 134.929 144.429C134.538 144.819 134.538 145.453 134.929 145.843L141.293 152.207ZM141 133L141 151.5L143 151.5L143 133L141 133Z" fill="#487AEE"/>
<rect x="92" y="258.5" width="100" height="100" rx="12" transform="rotate(-90 92 258.5)" fill="#487AEE" stroke="#487AEE" stroke-width="2"/>
<path d="M127.586 223.692C127.514 223.5 127.454 223.308 127.406 223.116C127.37 222.912 127.34 222.69 127.316 222.45C127.292 222.198 127.274 221.91 127.262 221.586C127.25 221.25 127.244 220.848 127.244 220.38C127.244 219.912 127.25 219.516 127.262 219.192C127.274 218.856 127.292 218.568 127.316 218.328C127.34 218.076 127.37 217.854 127.406 217.662C127.454 217.47 127.514 217.272 127.586 217.068C127.91 216.06 128.444 215.31 129.188 214.818C129.944 214.314 130.862 214.062 131.942 214.062C132.986 214.062 133.868 214.302 134.588 214.782C135.32 215.25 135.86 215.916 136.208 216.78C136.268 216.888 136.238 216.96 136.118 216.996L134.156 217.878C134.048 217.938 133.964 217.908 133.904 217.788C133.736 217.392 133.496 217.062 133.184 216.798C132.884 216.534 132.476 216.402 131.96 216.402C131.48 216.402 131.084 216.522 130.772 216.762C130.472 217.002 130.256 217.332 130.124 217.752C130.088 217.86 130.058 217.98 130.034 218.112C130.01 218.232 129.986 218.388 129.962 218.58C129.95 218.772 129.938 219.012 129.926 219.3C129.926 219.588 129.926 219.948 129.926 220.38C129.926 220.812 129.926 221.172 129.926 221.46C129.938 221.748 129.95 221.988 129.962 222.18C129.986 222.372 130.01 222.534 130.034 222.666C130.058 222.786 130.088 222.9 130.124 223.008C130.256 223.428 130.472 223.758 130.772 223.998C131.084 224.238 131.48 224.358 131.96 224.358C132.476 224.358 132.884 224.226 133.184 223.962C133.496 223.698 133.736 223.368 133.904 222.972C133.964 222.852 134.048 222.822 134.156 222.882L136.118 223.764C136.238 223.8 136.268 223.872 136.208 223.98C135.86 224.844 135.32 225.516 134.588 225.996C133.868 226.464 132.986 226.698 131.942 226.698C130.862 226.698 129.944 226.452 129.188 225.96C128.444 225.456 127.91 224.7 127.586 223.692ZM137.922 214.44C137.922 214.32 137.982 214.26 138.102 214.26H140.388C140.508 214.26 140.568 214.32 140.568 214.44V219.03C140.568 219.102 140.604 219.138 140.676 219.138H144.672C144.744 219.138 144.78 219.102 144.78 219.03V214.44C144.78 214.32 144.84 214.26 144.96 214.26H147.246C147.366 214.26 147.426 214.32 147.426 214.44V226.32C147.426 226.44 147.366 226.5 147.246 226.5H144.96C144.84 226.5 144.78 226.44 144.78 226.32V221.604C144.78 221.532 144.744 221.496 144.672 221.496H140.676C140.604 221.496 140.568 221.532 140.568 221.604V226.32C140.568 226.44 140.508 226.5 140.388 226.5H138.102C137.982 226.5 137.922 226.44 137.922 226.32V214.44ZM149.518 224.718C149.398 224.718 149.338 224.658 149.338 224.538V222.702C149.338 222.606 149.35 222.534 149.374 222.486L153.046 214.404C153.094 214.308 153.178 214.26 153.298 214.26H155.584C155.704 214.26 155.746 214.32 155.71 214.44L152.038 222.486V222.54H154.288C154.36 222.54 154.396 222.504 154.396 222.432V219.786C154.396 219.666 154.456 219.606 154.576 219.606H156.664C156.784 219.606 156.844 219.666 156.844 219.786V222.432C156.844 222.504 156.88 222.54 156.952 222.54H157.762C157.882 222.54 157.942 222.6 157.942 222.72V224.538C157.942 224.658 157.882 224.718 157.762 224.718H156.952C156.88 224.718 156.844 224.754 156.844 224.826V226.32C156.844 226.44 156.784 226.5 156.664 226.5H154.576C154.456 226.5 154.396 226.44 154.396 226.32V224.826C154.396 224.754 154.36 224.718 154.288 224.718H149.518Z" fill="white"/>
<path opacity="0.4" d="M120.16 237.8C120.16 237.733 120.194 237.7 120.26 237.7H121.15C121.237 237.7 121.294 237.733 121.32 237.8L123.19 241.99H123.23L125.07 237.8C125.097 237.733 125.154 237.7 125.24 237.7H126.12C126.187 237.7 126.22 237.733 126.22 237.8V244.4C126.22 244.467 126.187 244.5 126.12 244.5H125.25C125.184 244.5 125.15 244.467 125.15 244.4V240.24H125.11L123.67 243.44C123.63 243.527 123.567 243.57 123.48 243.57H122.9C122.814 243.57 122.75 243.527 122.71 243.44L121.27 240.24H121.23V244.4C121.23 244.467 121.197 244.5 121.13 244.5H120.26C120.194 244.5 120.16 244.467 120.16 244.4V237.8ZM128.119 237.8C128.119 237.733 128.152 237.7 128.219 237.7H132.479C132.546 237.7 132.579 237.733 132.579 237.8V238.66C132.579 238.727 132.546 238.76 132.479 238.76H129.359C129.319 238.76 129.299 238.78 129.299 238.82V240.48C129.299 240.52 129.319 240.54 129.359 240.54H131.989C132.056 240.54 132.089 240.573 132.089 240.64V241.5C132.089 241.567 132.056 241.6 131.989 241.6H129.359C129.319 241.6 129.299 241.62 129.299 241.66V243.38C129.299 243.42 129.319 243.44 129.359 243.44H132.479C132.546 243.44 132.579 243.473 132.579 243.54V244.4C132.579 244.467 132.546 244.5 132.479 244.5H128.219C128.152 244.5 128.119 244.467 128.119 244.4V237.8ZM135.732 244.5C135.665 244.5 135.632 244.467 135.632 244.4V238.82C135.632 238.78 135.612 238.76 135.572 238.76H133.792C133.725 238.76 133.692 238.727 133.692 238.66V237.8C133.692 237.733 133.725 237.7 133.792 237.7H138.652C138.719 237.7 138.752 237.733 138.752 237.8V238.66C138.752 238.727 138.719 238.76 138.652 238.76H136.872C136.832 238.76 136.812 238.78 136.812 238.82V244.4C136.812 244.467 136.779 244.5 136.712 244.5H135.732ZM140.12 237.8C140.12 237.733 140.153 237.7 140.22 237.7H141.2C141.267 237.7 141.3 237.733 141.3 237.8V240.48C141.3 240.52 141.32 240.54 141.36 240.54H143.95C143.99 240.54 144.01 240.52 144.01 240.48V237.8C144.01 237.733 144.043 237.7 144.11 237.7H145.09C145.157 237.7 145.19 237.733 145.19 237.8V244.4C145.19 244.467 145.157 244.5 145.09 244.5H144.11C144.043 244.5 144.01 244.467 144.01 244.4V241.66C144.01 241.62 143.99 241.6 143.95 241.6H141.36C141.32 241.6 141.3 241.62 141.3 241.66V244.4C141.3 244.467 141.267 244.5 141.2 244.5H140.22C140.153 244.5 140.12 244.467 140.12 244.4V237.8ZM150.342 242.03L149.442 239.39H149.412L148.502 242.03H150.342ZM148.852 237.8C148.872 237.733 148.916 237.7 148.982 237.7H149.902C149.969 237.7 150.012 237.733 150.032 237.8L152.332 244.4C152.352 244.467 152.329 244.5 152.262 244.5H151.282C151.216 244.5 151.172 244.467 151.152 244.4L150.702 243.08H148.142L147.692 244.4C147.672 244.467 147.629 244.5 147.562 244.5H146.592C146.526 244.5 146.502 244.467 146.522 244.4L148.852 237.8ZM153.664 237.8C153.664 237.733 153.698 237.7 153.764 237.7H154.684C154.758 237.7 154.814 237.733 154.854 237.8L157.624 242.49H157.664V237.8C157.664 237.733 157.698 237.7 157.764 237.7H158.634C158.701 237.7 158.734 237.733 158.734 237.8V244.4C158.734 244.467 158.701 244.5 158.634 244.5H157.724C157.651 244.5 157.594 244.467 157.554 244.4L154.774 239.72H154.734V244.4C154.734 244.467 154.701 244.5 154.634 244.5H153.764C153.698 244.5 153.664 244.467 153.664 244.4V237.8ZM160.637 237.8C160.637 237.733 160.67 237.7 160.737 237.7H164.997C165.063 237.7 165.097 237.733 165.097 237.8V238.66C165.097 238.727 165.063 238.76 164.997 238.76H161.877C161.837 238.76 161.817 238.78 161.817 238.82V240.48C161.817 240.52 161.837 240.54 161.877 240.54H164.507C164.573 240.54 164.607 240.573 164.607 240.64V241.5C164.607 241.567 164.573 241.6 164.507 241.6H161.877C161.837 241.6 161.817 241.62 161.817 241.66V243.38C161.817 243.42 161.837 243.44 161.877 243.44H164.997C165.063 243.44 165.097 243.473 165.097 243.54V244.4C165.097 244.467 165.063 244.5 164.997 244.5H160.737C160.67 244.5 160.637 244.467 160.637 244.4V237.8Z" fill="white"/>
<path fill-rule="evenodd" clip-rule="evenodd" d="M138.398 185.702L138.375 185.72C138.326 185.743 138.278 185.763 138.23 185.781C138.075 185.84 137.896 185.885 137.636 185.887C137.376 185.89 137.197 185.849 137.04 185.793C136.851 185.726 136.671 185.632 136.322 185.439L136.31 185.431L136.31 185.431C136.207 185.374 136.08 185.304 135.946 185.234C135.193 184.78 134.306 184.523 133.367 184.532C130.659 184.56 128.486 186.778 128.513 189.486C128.54 192.194 130.758 194.368 133.467 194.34C134.404 194.33 135.284 194.056 136.028 193.588C136.161 193.514 136.287 193.441 136.389 193.382L136.389 193.382L136.402 193.374C136.746 193.174 136.924 193.076 137.113 193.005C137.268 192.946 137.447 192.901 137.706 192.898C137.959 192.896 138.134 192.935 138.284 192.986C138.304 192.993 138.323 193 138.342 193.007C138.359 193.045 138.374 193.082 138.388 193.119C138.447 193.274 138.492 193.453 138.494 193.712C138.497 193.972 138.456 194.152 138.4 194.308C138.333 194.498 138.238 194.678 138.045 195.026L138.027 195.059L138.027 195.059L138.027 195.059C137.91 195.27 137.735 195.585 137.585 195.931C137.291 196.571 137.132 197.283 137.139 198.025C137.167 200.734 139.385 202.907 142.093 202.88C144.801 202.852 146.975 200.634 146.947 197.926C146.94 197.176 146.763 196.461 146.451 195.823C146.296 195.488 146.119 195.184 145.999 194.978L145.981 194.947C145.781 194.602 145.683 194.424 145.612 194.236C145.553 194.081 145.508 193.902 145.505 193.642C145.503 193.398 145.54 193.226 145.588 193.081L145.595 193.059C145.64 193.039 145.683 193.021 145.727 193.004C145.882 192.945 146.061 192.901 146.321 192.898C146.581 192.895 146.761 192.936 146.917 192.992C147.106 193.059 147.286 193.154 147.635 193.347L147.667 193.365L147.667 193.365C147.879 193.482 148.193 193.657 148.54 193.807C149.179 194.101 149.892 194.26 150.634 194.252C153.342 194.225 155.516 192.007 155.488 189.299C155.461 186.59 153.243 184.417 150.535 184.445C149.785 184.452 149.07 184.629 148.432 184.941C148.097 185.096 147.793 185.273 147.587 185.393L147.555 185.411C147.211 185.611 147.033 185.709 146.845 185.781C146.689 185.839 146.51 185.884 146.251 185.887C146.01 185.889 145.841 185.854 145.699 185.808L145.692 185.805C145.661 185.741 145.635 185.682 145.612 185.622C145.553 185.466 145.509 185.287 145.506 185.028C145.503 184.768 145.545 184.588 145.6 184.432C145.668 184.242 145.762 184.062 145.955 183.714L145.962 183.701C146.019 183.598 146.089 183.472 146.16 183.338C146.614 182.584 146.871 181.698 146.862 180.759C146.834 178.05 144.617 175.877 141.908 175.905C139.2 175.932 137.026 178.15 137.054 180.858C137.063 181.796 137.338 182.676 137.806 183.42C137.88 183.553 137.953 183.679 138.012 183.781L138.019 183.793C138.22 184.138 138.317 184.316 138.389 184.504C138.447 184.659 138.492 184.838 138.495 185.098C138.497 185.346 138.46 185.519 138.41 185.667C138.406 185.678 138.402 185.69 138.398 185.702Z" fill="white"/>
</svg>
